<svg xmlns="http://www.w3.org/2000/svg" width="64" height="64" fill="none" viewBox="0 0 64 64"><path fill="#BFC2C8" d="M30.8161 38.7751H29.1093C27.5726 38.7751 26.3269 37.5294 26.3269 35.9927V30.471C26.3265 30.2742 26.2108 30.096 26.0313 30.0155L25.0356 29.571C24.788 29.4607 24.6285 29.2149 24.6287 28.9438V22.4812C24.6249 20.0418 25.4756 17.6782 27.0333 15.8008L21.528 21.2676C19.2822 23.2541 17.9974 26.1093 18 29.1076V35.5701C17.9998 35.8412 18.1593 36.087 18.4069 36.1973L19.4026 36.6419C19.5821 36.7223 19.6978 36.9006 19.6981 37.0974V42.6191C19.6981 44.1558 20.9439 45.4015 22.4806 45.4015H24.1936V52.9059H38.9681L45.5968 46.2796H30.8161V38.7751Z"/><path fill="#EDEDED" d="M26.0308 30.0166L25.0352 29.572C24.8318 29.4811 24.6856 29.2968 24.6432 29.0781L18.0176 35.7037C18.0602 35.9223 18.2064 36.1065 18.4096 36.1976L19.4053 36.6422C19.5379 36.7016 19.6379 36.8162 19.6789 36.9558L26.3045 30.3302C26.2632 30.1908 26.1633 30.0763 26.0308 30.0166V30.0166Z"/><path fill="#EDEDED" d="M24.1914 45.401V52.9054H31.0749L34.3583 46.2798H30.817V38.7754L24.1914 45.401Z"/><ellipse cx="40.995" cy="33.072" fill="#E74F4F" rx="1.45" ry="1.45"/><path fill="#2D978C" d="M26.285 33.4395L24.6817 35.2748C24.647 35.3128 24.6355 35.3666 24.6518 35.4154C24.6681 35.4643 24.7095 35.5005 24.7601 35.51L27.1537 35.9804C27.2032 35.9901 27.2541 35.9727 27.2872 35.9347C27.3204 35.8967 27.3307 35.8439 27.3144 35.7962L26.5241 33.4896C26.5084 33.4418 26.4683 33.4059 26.419 33.3956C26.3697 33.3852 26.3186 33.402 26.285 33.4395V33.4395Z"/><path fill="#A77C18" d="M29.0066 26.7306V25.2755C29.007 25.17 28.9507 25.0723 28.8592 25.0199L27.6048 24.2939C27.5138 24.2406 27.401 24.2406 27.31 24.2939L26.0556 25.0199C25.9641 25.0723 25.9078 25.17 25.9082 25.2755V26.7306C25.9083 26.8359 25.9644 26.9333 26.0556 26.9861L27.31 27.7121C27.4012 27.7646 27.5135 27.7646 27.6048 27.7121L28.8592 26.9861C28.9504 26.9333 29.0065 26.8359 29.0066 26.7306V26.7306Z"/><path fill="#000" d="M28.6952 23.3514C29.0511 23.0605 29.4047 22.7681 29.763 22.4804C29.9179 22.3431 30.0953 22.2335 30.2875 22.1566C30.5022 22.0953 30.7243 22.0634 30.9476 22.0617C31.165 22.0408 31.384 22.0466 31.5999 22.079C31.8034 22.1218 31.9974 22.2015 32.1722 22.3142C32.3565 22.4271 32.5313 22.5556 32.7077 22.6795L33.2698 23.0762C33.4549 23.2056 33.6383 23.3326 33.7536 23.5325C33.8539 23.7073 33.9198 23.9041 34.0672 24.046C34.1032 24.0805 34.1589 24.0249 34.1221 23.9904C33.9841 23.8594 33.9206 23.6768 33.8296 23.5121C33.7298 23.3448 33.5933 23.2022 33.4306 23.095C33.2401 22.9586 33.0472 22.8253 32.8559 22.6905C32.6646 22.5556 32.4913 22.4286 32.3071 22.3063C32.1347 22.1875 31.9451 22.0957 31.745 22.0343C31.5326 21.9815 31.3133 21.9624 31.095 21.9778C30.871 21.9806 30.6476 22.0016 30.4271 22.0406C30.2199 22.0877 30.0256 22.1797 29.8579 22.3103C29.6572 22.4584 29.4659 22.6239 29.273 22.7807L28.6403 23.2973C28.6011 23.3295 28.6568 23.3843 28.696 23.353L28.6952 23.3514Z"/><path fill="#000" d="M24.7876 20.7527C25.5465 20.5959 26.2858 20.356 27.0259 20.1255C27.766 19.895 28.5335 19.659 29.3089 19.5226C29.7283 19.4489 30.1595 19.3854 30.579 19.4873C30.7977 19.5407 31.0125 19.612 31.2289 19.6763C31.4453 19.7406 31.664 19.8049 31.8804 19.8746C32.085 19.9378 32.2822 20.023 32.4684 20.1287C32.6409 20.2321 32.8029 20.3521 32.9521 20.4869C33.2631 20.7747 33.5538 21.0836 33.8224 21.4113C33.9666 21.5806 34.1072 21.7531 34.2442 21.9287C34.3834 22.0956 34.4977 22.2818 34.5836 22.4814C34.6558 22.6823 34.7127 22.8883 34.7538 23.0977L34.9059 23.7735L34.9843 24.1114C34.9952 24.1608 35.0705 24.1396 35.0627 24.0902L34.9059 23.3948C34.8557 23.1753 34.811 22.9534 34.7491 22.7355C34.6977 22.5301 34.6149 22.3339 34.5037 22.1537C34.3808 21.9713 34.2479 21.796 34.1054 21.6284C33.8287 21.289 33.5409 20.955 33.232 20.6445C32.9504 20.344 32.6141 20.1 32.2411 19.9256C32.0441 19.8446 31.8425 19.7752 31.6374 19.7178L30.9592 19.5171C30.7453 19.4428 30.5244 19.3902 30.2999 19.3603C30.0727 19.3477 29.8447 19.3598 29.6201 19.3964C28.8432 19.4983 28.0859 19.721 27.3379 19.9452C26.5712 20.1804 25.8091 20.4328 25.029 20.6147C24.9412 20.6351 24.8542 20.6547 24.7664 20.6728C24.717 20.6829 24.7382 20.7582 24.7876 20.7512V20.7527Z"/><path fill-rule="evenodd" stroke="#000" d="M35.111 12C29.3219 12 24.6289 16.693 24.6289 22.4821V28.9446C24.6287 29.2157 24.7882 29.4615 25.0358 29.5718L26.0315 30.0163C26.211 30.0968 26.3267 30.2751 26.3271 30.4718V35.9935C26.3271 37.5302 27.5728 38.776 29.1095 38.776H30.8162V46.2804H45.597V22.4821C45.597 19.7014 44.4921 17.0346 42.5255 15.0687C40.5589 13.1029 37.8917 11.999 35.111 12Z" clip-rule="evenodd"/><ellipse cx="34.767" cy="24.64" fill="#EDEDED" rx="1.36" ry="1.36"/><ellipse cx="34.767" cy="24.64" stroke="#000" rx="1.36" ry="1.36"/><ellipse cx="34.767" cy="24.64" fill="#BFC2C8" rx="1.065" ry="1.065"/><ellipse cx="34.767" cy="24.64" stroke="#000" stroke-width=".25" rx="1.065" ry="1.065"/><path fill="#000" stroke="#000" d="M34.9597 23.2793C34.9268 23.2793 34.8954 23.2793 34.8633 23.284C35.5738 23.3353 36.1241 23.9267 36.1241 24.6391C36.1241 25.3516 35.5738 25.943 34.8633 25.9943C34.8954 25.9943 34.9268 25.9998 34.9597 25.9998C35.711 25.9998 36.32 25.3908 36.32 24.6395C36.32 23.8883 35.711 23.2793 34.9597 23.2793Z"/><circle cx="35.526" cy="28.401" r="1.36" fill="#EDEDED"/><circle cx="35.526" cy="28.401" r="1.36" stroke="#000"/><ellipse cx="35.526" cy="28.401" fill="#BFC2C8" rx="1.065" ry="1.065"/><ellipse cx="35.526" cy="28.401" stroke="#000" stroke-width=".25" rx="1.065" ry="1.065"/><path fill="#000" stroke="#000" d="M36.7224 29.0764C36.7341 29.0459 36.7435 29.0153 36.753 28.9839C36.4454 29.6241 35.6967 29.9193 35.0349 29.6614C34.3732 29.4035 34.0217 28.6795 34.2285 28C34.2151 28.029 34.201 28.0572 34.1893 28.0878C34.001 28.5429 34.0734 29.0643 34.3787 29.4508C34.684 29.8374 35.1743 30.0287 35.6607 29.951C36.1471 29.8734 36.5535 29.5388 36.7232 29.0764H36.7224Z"/><circle cx="33.499" cy="32.005" r="1.36" fill="#EDEDED"/><circle cx="33.499" cy="32.005" r="1.36" stroke="#000"/><circle cx="33.499" cy="32.005" r="1.065" fill="#BFC2C8"/><circle cx="33.499" cy="32.005" r="1.065" stroke="#000" stroke-width=".25"/><path fill="#000" stroke="#000" d="M32.9124 33.248C32.9437 33.2582 32.9751 33.2645 33.0064 33.2723C32.3516 33.008 32.0084 32.2862 32.2168 31.6115C32.4251 30.9368 33.1155 30.5342 33.8053 30.6851C33.7748 30.6733 33.745 30.6616 33.7136 30.6522C33.2494 30.509 32.744 30.6245 32.3879 30.955C32.0318 31.2855 31.8791 31.7808 31.9873 32.2544C32.0955 32.7281 32.4481 33.108 32.9124 33.2511V33.248Z"/><path fill="#000" d="M28.5355 23.3525C28.8319 23.5728 29.1871 23.6904 29.5391 23.786C29.9252 23.8913 30.3181 23.9699 30.7151 24.0212C31.1182 24.0733 31.5246 24.0969 31.931 24.0918C32.3372 24.0871 32.7464 24.0338 33.1517 24.0824C33.5194 24.1263 33.9028 24.2752 34.1215 24.5896C34.1505 24.6304 34.2188 24.5896 34.1897 24.5496C33.9944 24.2905 33.7111 24.1115 33.3932 24.0463C33.0012 23.9515 32.5927 23.9891 32.1945 24.0063C31.3756 24.0407 30.556 23.9586 29.7602 23.7625C29.3478 23.6606 28.9213 23.5422 28.5755 23.2851C28.5348 23.2545 28.4971 23.3227 28.5355 23.3525V23.3525Z"/><path fill="#000" d="M24.6819 25.5132C25.9582 26.0381 27.3271 26.301 28.707 26.2862C29.4129 26.2736 30.1163 26.1983 30.8089 26.0612C31.5098 25.9279 32.2013 25.7476 32.8857 25.5438C33.0566 25.4915 33.2275 25.4392 33.3984 25.387C33.5548 25.3447 33.7083 25.2924 33.8579 25.2302C33.9704 25.1783 34.0724 25.1063 34.1589 25.0177C34.233 24.9463 34.2702 24.8449 34.2601 24.7425C34.2493 24.6733 34.2253 24.6068 34.1895 24.5465C34.1652 24.5026 34.097 24.5418 34.1213 24.5865C34.1809 24.6939 34.2146 24.8162 34.137 24.9228C34.0664 25.0106 33.9779 25.0822 33.8775 25.133C33.7316 25.2025 33.5793 25.2579 33.4228 25.2984L32.9281 25.4481C32.2648 25.6441 31.5952 25.8237 30.9171 25.9593C30.2397 26.0987 29.5518 26.1805 28.8607 26.2039C27.5224 26.2381 26.1905 26.009 24.9407 25.5297C24.8623 25.4999 24.7839 25.4685 24.7055 25.4356C24.6584 25.4168 24.638 25.4928 24.6843 25.514L24.6819 25.5132Z"/><path fill="#000" d="M38.9519 34.642C38.2016 34.2281 37.3141 34.2782 36.5105 34.0344C36.3082 33.9755 36.1143 33.8909 35.9335 33.7827C35.7579 33.6746 35.5846 33.5256 35.5188 33.3233C35.4576 33.1352 35.4921 32.9102 35.6622 32.7902C35.8324 32.6703 36.0323 32.6797 36.2173 32.6859C36.7159 32.7047 37.2114 32.7173 37.7069 32.6906C38.2109 32.6642 38.7129 32.6089 39.2106 32.5252C39.4599 32.4829 39.7069 32.4327 39.9539 32.3794C40.1987 32.3221 40.4466 32.2784 40.6963 32.2485C41.3824 32.1789 42.0749 32.2868 42.7073 32.5621C42.8939 32.6405 43.0679 32.7487 43.2482 32.8427C43.5955 33.0246 43.9538 33.1806 44.3082 33.3515C44.3866 33.3876 44.4587 33.4245 44.5324 33.4637C44.5771 33.4872 44.6163 33.4198 44.5716 33.3962C44.2212 33.2112 43.855 33.056 43.4983 32.8811C43.3266 32.7973 43.1612 32.7024 42.9919 32.613C42.3741 32.2885 41.6832 32.1284 40.9856 32.1481C40.4768 32.163 39.986 32.2979 39.4889 32.3935C38.4638 32.5894 37.419 32.6633 36.3765 32.6138C36.1758 32.6036 35.9641 32.584 35.7689 32.6483C35.5843 32.7029 35.4473 32.8582 35.4161 33.0481C35.3471 33.4895 35.7453 33.7929 36.0981 33.9591C36.8939 34.3355 37.8112 34.2571 38.6234 34.5746C38.7225 34.6132 38.8189 34.6585 38.9119 34.7102C38.9566 34.7345 38.9958 34.6663 38.9519 34.642V34.642Z"/><path fill="#000" d="M43.57 37.6275C43.0996 37.3704 42.6449 37.0615 42.1087 36.9533C41.7724 36.8933 41.4295 36.879 41.0895 36.9109C40.6176 36.9529 40.1506 37.0374 39.6939 37.1634C39.2235 37.2857 38.7602 37.4135 38.2827 37.4887C37.7958 37.5677 37.3028 37.6026 36.8096 37.593C35.8669 37.5626 34.9367 37.3678 34.0609 37.0176C33.6286 36.8487 33.2135 36.6386 32.8214 36.3904C32.4419 36.1473 32.0852 35.8721 31.7316 35.5946C31.5576 35.4582 31.3843 35.3218 31.2095 35.1869C31.1217 35.1195 31.0339 35.0529 30.9445 34.9878C30.8524 34.9268 30.7665 34.857 30.6881 34.7792C30.569 34.646 30.4749 34.4319 30.5658 34.2587C30.6449 34.1306 30.7846 34.0526 30.9351 34.0525C31.0473 34.0571 31.1583 34.0782 31.2644 34.1152C31.487 34.1748 31.7081 34.2438 31.9284 34.3151C32.2608 34.4225 32.5917 34.5362 32.9217 34.6538C33.1287 34.7275 33.3357 34.8035 33.5419 34.8804C33.7693 34.9643 33.9935 35.0599 34.224 35.1336C34.6623 35.2745 35.1268 35.3141 35.5826 35.2496C35.9401 35.1987 36.2953 35.1203 36.6497 35.0497C37.004 34.9792 37.3553 34.9078 37.7034 34.8255C37.9488 34.7755 38.1904 34.7079 38.4262 34.6232C38.4817 34.6073 38.5328 34.5786 38.5752 34.5393C38.6073 34.5001 38.5524 34.4445 38.5203 34.4837C38.4746 34.5213 38.421 34.5481 38.3635 34.5621C38.2561 34.6005 38.1455 34.6318 38.0358 34.6609C37.7143 34.7463 37.389 34.8177 37.0636 34.8851C36.7004 34.9603 36.3361 35.0319 35.9707 35.0999C35.7721 35.142 35.5714 35.1731 35.3694 35.1932C35.1321 35.2106 34.8936 35.1993 34.6591 35.1595C34.4217 35.1143 34.1893 35.046 33.9653 34.9556C33.7442 34.872 33.5223 34.7892 33.2996 34.7071C32.9327 34.573 32.565 34.4429 32.195 34.3198C31.941 34.2351 31.6862 34.1528 31.4282 34.0791C31.2962 34.037 31.1616 34.0035 31.0253 33.9788C30.8049 33.9443 30.5431 34.0572 30.4694 34.2806C30.4278 34.4493 30.4669 34.6277 30.5752 34.7636C30.696 34.9321 30.8888 35.0403 31.0503 35.1642C31.7724 35.713 32.4615 36.3159 33.2636 36.74C34.0972 37.1739 34.9986 37.4627 35.9292 37.5938C36.889 37.7267 37.865 37.6842 38.8096 37.4684C39.2894 37.3617 39.759 37.2136 40.2404 37.1108C40.6778 37.0134 41.1251 36.9679 41.5732 36.9752C41.8712 36.9793 42.1665 37.0322 42.4473 37.132C42.6921 37.2289 42.9281 37.3464 43.1529 37.4832C43.2784 37.5554 43.4038 37.6275 43.5308 37.6965C43.5755 37.7208 43.6147 37.6534 43.5708 37.6291L43.57 37.6275Z"/><path fill="#000" d="M24.6289 25.452C25.0264 25.5978 25.1652 25.5892 25.3761 25.7256C25.2741 23.7186 25.2585 22.9965 25.5525 20.5449L24.7771 20.715C24.712 21.5774 24.6289 21.688 24.6289 22.4822V25.452Z"/><path fill="#000" d="M24.6186 25.4892C24.7629 25.5418 24.9095 25.5841 25.0569 25.628C25.1625 25.6571 25.2633 25.7012 25.3564 25.7589C25.3685 25.7659 25.3834 25.7659 25.3955 25.759C25.4076 25.752 25.4151 25.7392 25.4152 25.7252C25.3823 25.0784 25.3485 24.4316 25.3485 23.784C25.3485 23.1686 25.3838 22.5539 25.4403 21.9416C25.4834 21.4752 25.5359 21.0095 25.5916 20.5445C25.5916 20.5179 25.5641 20.5014 25.5422 20.5069L24.7668 20.677C24.7499 20.6819 24.7382 20.6971 24.7378 20.7147C24.7002 21.2086 24.61 21.6978 24.5936 22.1933C24.5873 22.4042 24.5896 22.6151 24.5896 22.826V25.2564C24.5896 25.3183 24.5857 25.3826 24.5896 25.4445V25.4532C24.5896 25.4748 24.6072 25.4924 24.6288 25.4924C24.6505 25.4924 24.668 25.4748 24.668 25.4532V22.9263C24.668 22.7546 24.668 22.5837 24.668 22.412C24.6687 22.166 24.6831 21.9203 24.7112 21.6759C24.7394 21.4407 24.7723 21.2008 24.795 20.9632C24.8029 20.8801 24.8099 20.7978 24.8162 20.7147L24.788 20.7523L25.5626 20.5822L25.5132 20.5445C25.423 21.2956 25.3391 22.0483 25.2968 22.804C25.2647 23.3881 25.2647 23.9722 25.2843 24.5571C25.2976 24.9491 25.3172 25.3364 25.3368 25.7252L25.3964 25.6915C25.3005 25.6322 25.1968 25.5866 25.0883 25.5559C24.9377 25.5104 24.7872 25.4681 24.639 25.414C24.592 25.3967 24.5716 25.4751 24.6186 25.4892V25.4892Z"/><path fill="#000" d="M45.5684 33.3789L44.9341 33.2605C44.8423 33.2369 44.7487 33.2207 44.6542 33.2119C44.5804 33.2035 44.5124 33.2528 44.4974 33.3256C44.459 33.4996 44.615 33.6446 44.5931 33.8163C44.5813 33.9112 44.4982 33.941 44.4363 33.9943C44.3806 34.0419 44.345 34.1089 44.3367 34.1817C44.3109 34.38 44.4465 34.5368 44.5719 34.6709V34.6152C44.47 34.7046 44.3461 34.8504 44.4339 34.9908C44.4496 35.0159 44.4841 35.0441 44.4818 35.0754C44.4794 35.1068 44.4496 35.1233 44.4324 35.1382C44.39 35.1667 44.359 35.2091 44.3446 35.2581C44.3328 35.3365 44.3971 35.3828 44.4473 35.4251L44.6778 35.6195C44.7507 35.6815 44.8259 35.7418 44.8973 35.8053C44.9617 35.8533 45.0103 35.9193 45.0368 35.9951C45.08 36.173 44.8722 36.2718 44.7397 36.3212C44.5939 36.3761 44.4394 36.4357 44.3728 36.5893C44.345 36.6533 44.345 36.726 44.3728 36.79C44.39 36.834 44.3932 36.8543 44.3453 36.8637C44.3145 36.8679 44.2839 36.8737 44.2536 36.881C44.1117 36.9257 44.1384 37.0872 44.1611 37.2001C44.1784 37.2848 44.1689 37.3694 44.0709 37.3859C44.0027 37.3976 43.9322 37.3859 43.8632 37.3953C43.7965 37.4002 43.7357 37.4351 43.6978 37.4902C43.6735 37.5262 43.6609 37.5686 43.6374 37.6062C43.6233 37.6274 43.5668 37.6799 43.541 37.6454C43.5346 37.635 43.5239 37.6281 43.5119 37.6266C43.4998 37.6251 43.4877 37.6291 43.479 37.6376C43.4371 37.6806 43.4215 37.7429 43.4383 37.8006C43.4439 37.8223 43.466 37.8353 43.4877 37.8296C43.5093 37.824 43.5223 37.8019 43.5167 37.7802C43.5063 37.7497 43.5142 37.716 43.537 37.6932L43.4759 37.6846C43.5115 37.7351 43.5801 37.7491 43.6327 37.7167C43.7025 37.6846 43.7229 37.6172 43.7566 37.5544C43.8295 37.4196 44.0035 37.4925 44.125 37.4549C44.1846 37.4381 44.231 37.3914 44.2473 37.3318C44.2569 37.2565 44.2502 37.18 44.2277 37.1076C44.2209 37.0726 44.2228 37.0366 44.2332 37.0025C44.2475 36.9715 44.2776 36.9507 44.3116 36.9484C44.3657 36.939 44.4292 36.9367 44.4582 36.8818C44.4711 36.8517 44.4711 36.8177 44.4582 36.7877C44.438 36.7484 44.43 36.7038 44.4355 36.6599C44.4589 36.5777 44.5158 36.5091 44.5923 36.471C44.7389 36.3926 44.9161 36.3683 45.0361 36.2412C45.1434 36.135 45.1502 35.9638 45.0517 35.8492C44.9933 35.7812 44.9279 35.7194 44.8565 35.665L44.6213 35.4643L44.488 35.3514C44.4582 35.3263 44.4096 35.2934 44.4371 35.2511C44.4645 35.2087 44.5319 35.1727 44.557 35.1193C44.5691 35.0897 44.5691 35.0565 44.557 35.0268C44.5406 34.9868 44.5021 34.9586 44.492 34.9163C44.4677 34.8206 44.5704 34.7273 44.6339 34.6717C44.6485 34.656 44.6485 34.6317 44.6339 34.616C44.5288 34.5047 44.4057 34.3753 44.4175 34.2107C44.4206 34.1394 44.458 34.074 44.5178 34.0351C44.5766 34.0041 44.6252 33.9571 44.6582 33.8994C44.7225 33.7583 44.637 33.6164 44.5962 33.4831C44.5751 33.4149 44.5515 33.2887 44.6582 33.2911C44.7457 33.2992 44.8325 33.3144 44.9177 33.3365L45.5511 33.4557C45.6005 33.4651 45.6217 33.3891 45.5723 33.3773L45.5684 33.3789Z"/><path fill="#000" d="M43.257 37.4997C43.1828 37.6098 43.1297 37.7326 43.1002 37.8619C43.073 37.9721 43.1001 38.0887 43.1731 38.1755C43.2452 38.2453 43.3526 38.2539 43.4389 38.3041C43.5251 38.3543 43.6192 38.4107 43.7101 38.4609C44.0896 38.6765 44.4785 38.8772 44.865 39.0811C45.1059 39.1966 45.3362 39.333 45.5533 39.4887C45.5933 39.5193 45.649 39.4637 45.609 39.4331C45.4268 39.2992 45.2335 39.1811 45.0312 39.0803L44.3969 38.7432C44.2252 38.6522 44.0535 38.5621 43.8834 38.468C43.805 38.4233 43.7211 38.3778 43.6412 38.3308C43.5585 38.2777 43.4714 38.2318 43.3809 38.1936C43.3276 38.1783 43.2772 38.1542 43.2319 38.1222C43.1877 38.0733 43.1656 38.0084 43.1708 37.9427C43.1858 37.7976 43.2379 37.6588 43.3221 37.5397C43.3303 37.5214 43.3234 37.4998 43.306 37.4897C43.2887 37.4796 43.2665 37.4843 43.2546 37.5005L43.257 37.4997Z"/><path fill="#000" d="M45.5481 33.4277C45.5779 35.2388 45.0958 37.0192 44.5101 38.7331C44.494 38.7651 44.494 38.8029 44.5101 38.835C44.5201 38.846 44.532 38.8551 44.5454 38.8616C44.8836 39.0666 45.2345 39.2499 45.5959 39.4104V33.4591L45.5481 33.4277Z"/><path fill="#000" d="M45.508 33.4291C45.5139 34.3256 45.4184 35.2198 45.2235 36.0947C45.0273 36.9708 44.7802 37.8347 44.4834 38.6819C44.4608 38.7265 44.4536 38.7772 44.463 38.8262C44.4794 38.874 44.5312 38.8944 44.5712 38.9179C44.6783 38.9801 44.786 39.041 44.8942 39.1006C45.1147 39.2248 45.3416 39.3374 45.5739 39.4377C45.5862 39.4443 45.601 39.444 45.613 39.4369C45.625 39.4299 45.6324 39.4171 45.6327 39.4032V33.6769C45.6366 33.6053 45.6366 33.5336 45.6327 33.4621C45.6288 33.4268 45.5935 33.4135 45.5668 33.3954C45.5253 33.3672 45.4884 33.4346 45.5276 33.4629L45.5739 33.4942L45.5543 33.4605V39.4103L45.6131 39.3766C45.4116 39.2911 45.2156 39.1931 45.0227 39.0888C44.9279 39.0379 44.8338 38.9846 44.7397 38.932L44.6033 38.8536C44.5806 38.8403 44.539 38.8262 44.5351 38.7956C44.5376 38.7659 44.5455 38.7369 44.5586 38.7102C44.699 38.2986 44.833 37.8838 44.9553 37.466C45.2073 36.6274 45.3909 35.7698 45.5041 34.9015C45.5639 34.4134 45.5901 33.9217 45.5825 33.4299C45.5774 33.4138 45.5625 33.4028 45.5456 33.4026C45.5286 33.4024 45.5135 33.4131 45.508 33.4291V33.4291Z"/><path fill="#000" d="M44.597 33.451C44.9007 33.5404 45.2075 33.6188 45.5174 33.6862C45.5226 33.6875 45.5279 33.6843 45.5292 33.6791C45.5305 33.6739 45.5273 33.6687 45.5221 33.6674C45.2127 33.6005 44.9059 33.5221 44.6017 33.4322C44.5899 33.4283 44.5844 33.4471 44.597 33.451V33.451Z"/><path fill="#000" d="M44.649 33.7859C44.933 33.8998 45.2292 33.9803 45.5318 34.0258C45.5443 34.0258 45.5435 34.0078 45.5318 34.0062C45.2318 33.9616 44.9379 33.8824 44.656 33.7703C44.6443 33.7656 44.6396 33.7852 44.6513 33.7891L44.649 33.7859Z"/><path fill="#000" d="M44.3763 34.2147C44.7518 34.3448 45.1603 34.3182 45.5397 34.4083C45.5523 34.4083 45.5578 34.3926 45.5452 34.3895C45.1611 34.2993 44.7565 34.326 44.381 34.1958C44.3692 34.1919 44.3637 34.2107 44.3763 34.2147V34.2147Z"/><path fill="#000" d="M44.6325 34.6329C44.7893 34.6478 44.9461 34.6588 45.1029 34.6776C45.1832 34.6873 45.2621 34.7062 45.3381 34.734L45.5607 34.8069C45.5607 34.7944 45.5435 34.7889 45.5419 34.8015C45.5406 34.8058 45.5426 34.8104 45.5466 34.8124C45.5748 34.825 45.5795 34.7928 45.556 34.7803C45.5347 34.772 45.5126 34.7657 45.4902 34.7615C45.4651 34.7544 45.4408 34.7458 45.4172 34.7372C45.3655 34.7191 45.3153 34.6995 45.2604 34.6846C45.1617 34.6603 45.0609 34.6454 44.9594 34.64L44.6325 34.6094C44.6199 34.6094 44.6199 34.6282 44.6325 34.629V34.6329Z"/><path fill="#000" d="M44.4992 34.9863C44.6404 35.0647 44.8003 35.0475 44.9547 35.0647C45.0504 35.0733 45.1429 35.0984 45.237 35.1157C45.3211 35.1305 45.4059 35.1409 45.491 35.147C45.5035 35.147 45.5035 35.1282 45.491 35.1274C45.4015 35.1214 45.3125 35.1099 45.2244 35.0929C45.146 35.078 45.0676 35.0577 44.9892 35.0483C44.8285 35.0287 44.6584 35.0483 44.511 34.9699C44.5 34.9644 44.4898 34.9808 44.5008 34.9871L44.4992 34.9863Z"/><path fill="#000" d="M44.4213 35.2629C44.5781 35.346 44.7608 35.353 44.9348 35.3625C45.1363 35.3653 45.3368 35.3916 45.5322 35.4409C45.5374 35.4422 45.5427 35.439 45.544 35.4338C45.5453 35.4286 45.5421 35.4233 45.5369 35.422C45.3577 35.3746 45.1735 35.3483 44.9881 35.3436C44.8 35.3334 44.5961 35.3334 44.4291 35.2433C44.4174 35.2378 44.408 35.2543 44.4189 35.2605L44.4213 35.2629Z"/><path fill="#000" d="M44.8516 35.7188C44.9613 35.7298 45.0703 35.7447 45.1793 35.7627C45.231 35.7706 45.2828 35.78 45.3361 35.7902L45.4145 35.8051L45.4513 35.8129L45.4756 35.8184C45.4835 35.8223 45.4928 35.8223 45.5007 35.8184L45.5054 35.8294C45.5054 35.8168 45.489 35.8121 45.4866 35.8239C45.4856 35.8282 45.4875 35.8326 45.4913 35.8348C45.5156 35.8458 45.5242 35.816 45.5015 35.8051C45.4691 35.7935 45.4354 35.7859 45.4012 35.7823L45.2898 35.7604C45.1466 35.7348 45.0024 35.7144 44.8571 35.6992C44.8445 35.6992 44.8445 35.7173 44.8571 35.7188H44.8516Z"/><path fill="#000" d="M45.0991 36.1382C45.1809 36.1593 45.2609 36.1868 45.3383 36.2206C45.35 36.2261 45.3602 36.2088 45.3485 36.2041C45.2695 36.1689 45.1877 36.1406 45.1038 36.1194C45.0987 36.1181 45.0934 36.1213 45.0921 36.1265C45.0908 36.1317 45.0939 36.1369 45.0991 36.1382V36.1382Z"/><path fill="#000" d="M44.847 36.3886L45.3723 36.6285C45.3841 36.6332 45.3935 36.6168 45.3825 36.6113L44.8564 36.3761C44.8455 36.3706 44.8353 36.3878 44.847 36.3925V36.3886Z"/><path fill="#000" d="M44.4482 36.5601C44.7612 36.7266 45.084 36.8737 45.4149 37.0007C45.4267 37.0007 45.4314 36.9858 45.4196 36.9819C45.0907 36.8561 44.7698 36.7105 44.4584 36.546C44.4467 36.5405 44.4373 36.557 44.4482 36.5633V36.5601Z"/><path fill="#000" d="M44.3778 36.9398C44.7018 37.1004 45.0372 37.2369 45.3813 37.3483C45.393 37.3483 45.3985 37.3334 45.3868 37.3295C45.0443 37.2179 44.7105 37.0814 44.388 36.921C44.377 36.9155 44.3668 36.932 44.3778 36.9375V36.9398Z"/><path fill="#000" d="M44.1857 37.2918C44.4068 37.3749 44.6177 37.4823 44.8372 37.5686C44.9445 37.6121 45.0548 37.6474 45.1673 37.6744C45.1955 37.6815 45.2245 37.6846 45.2528 37.6917C45.2606 37.6917 45.2825 37.7058 45.2912 37.7003C45.2962 37.6975 45.2993 37.6923 45.2993 37.6866C45.2993 37.6809 45.2962 37.6756 45.2912 37.6728C45.2894 37.6705 45.2866 37.6692 45.2837 37.6692C45.2808 37.6692 45.2781 37.6705 45.2763 37.6728C45.2684 37.683 45.2857 37.6932 45.2927 37.6823H45.2778C45.2724 37.6775 45.2778 37.6752 45.2645 37.6697C45.2535 37.6664 45.2422 37.6643 45.2308 37.6634C45.2049 37.6587 45.1798 37.6532 45.1524 37.647C45.1046 37.636 45.0575 37.6219 45.0113 37.607C44.9125 37.5756 44.8161 37.5372 44.7204 37.4964C44.5432 37.418 44.3684 37.3396 44.1873 37.2683C44.1755 37.2636 44.1708 37.2832 44.1826 37.2871L44.1857 37.2918Z"/><path fill="#000" d="M44.0355 37.4701C44.4003 37.7161 44.7865 37.9286 45.1895 38.1051C45.2013 38.1098 45.2107 38.0934 45.1997 38.0879C44.7966 37.9115 44.4104 37.699 44.0457 37.4528C44.0355 37.4458 44.0253 37.463 44.0355 37.4701Z"/><path fill="#000" d="M43.604 37.6396C44.0744 37.9728 44.6193 38.1797 45.1579 38.3773C45.1696 38.382 45.1743 38.3632 45.1626 38.3585C44.6255 38.1609 44.0846 37.9547 43.6142 37.6231C43.6032 37.6153 43.5938 37.6325 43.604 37.6396Z"/><path fill="#000" d="M43.4595 37.8724C43.9503 38.2088 44.4661 38.5569 45.069 38.6447C45.0808 38.6447 45.0863 38.6274 45.0737 38.6251C44.4732 38.538 43.9589 38.1907 43.4689 37.8552C43.4587 37.8481 43.4493 37.8654 43.4595 37.8724V37.8724Z"/><path fill="#000" d="M43.2067 37.7839C43.2821 37.8225 43.367 37.8386 43.4513 37.8302C43.4638 37.8302 43.4638 37.8098 43.4513 37.8106C43.3703 37.8188 43.2887 37.8035 43.2161 37.7667C43.2051 37.7612 43.1949 37.7777 43.2059 37.7839H43.2067Z"/><path fill="#000" d="M33.1793 37.6729C33.7109 37.9575 34.2471 38.2444 34.8257 38.4177C34.9925 38.4682 35.1625 38.5075 35.3345 38.5353C35.3471 38.5353 35.3526 38.5188 35.34 38.5165C34.7411 38.42 34.1828 38.1731 33.6466 37.8979C33.4898 37.8195 33.3408 37.7372 33.1887 37.6556C33.1778 37.6494 33.1676 37.6666 33.1785 37.6729H33.1793Z"/><path fill="#000" d="M33.4916 38.5945C33.7315 38.7184 33.9766 38.8326 34.227 38.9371C34.2387 38.9418 34.2434 38.923 34.2324 38.9183C33.9842 38.8138 33.7404 38.7001 33.501 38.5773C33.49 38.5718 33.4798 38.5883 33.4916 38.5945Z"/><path fill="#000" d="M33.0933 19.2808C33.5806 19.3877 33.9891 19.7181 34.1956 20.1722C34.2011 20.1832 34.2175 20.1722 34.2128 20.162C34.0034 19.7034 33.5904 19.37 33.098 19.262C33.0946 19.2612 33.0911 19.2622 33.0887 19.2647C33.0863 19.2672 33.0854 19.2708 33.0863 19.2741C33.0873 19.2774 33.0899 19.28 33.0933 19.2808V19.2808Z"/><path fill="#000" d="M33.8177 18.7468C34.1399 18.8875 34.4273 19.097 34.6597 19.3607C34.6684 19.3701 34.6817 19.3607 34.6738 19.3474C34.44 19.0835 34.1513 18.8739 33.8279 18.7335C33.8161 18.728 33.806 18.7452 33.8177 18.75V18.7468Z"/><path fill="#000" d="M39.2715 31.2605L39.5365 31.6376C39.5436 31.6478 39.5608 31.6376 39.5538 31.6274L39.288 31.2503C39.2809 31.2401 39.2637 31.2503 39.2715 31.2605Z"/><path fill="#000" d="M40.584 30.2946C40.6232 30.6437 40.6493 30.9939 40.6624 31.3451C40.6637 31.3495 40.6677 31.3525 40.6722 31.3525C40.6768 31.3525 40.6808 31.3495 40.682 31.3451C40.6668 30.9939 40.6407 30.6437 40.6036 30.2946C40.6036 30.282 40.5832 30.282 40.584 30.2946V30.2946Z"/><path fill="#000" d="M42.1337 30.4976L41.8985 31.3717C41.898 31.3768 41.9013 31.3814 41.9063 31.3825C41.9112 31.3837 41.9162 31.3811 41.9181 31.3764L42.1533 30.5023C42.1546 30.4971 42.1514 30.4918 42.1462 30.4905C42.141 30.4892 42.1358 30.4924 42.1345 30.4976H42.1337Z"/><path fill="#000" d="M43.0813 31.8822C43.2178 31.7512 43.3343 31.6009 43.4271 31.4361C43.4288 31.4331 43.4288 31.4295 43.427 31.4266C43.4253 31.4237 43.4222 31.4219 43.4188 31.4219C43.4154 31.4219 43.4123 31.4237 43.4106 31.4267C43.3184 31.5898 43.2027 31.7385 43.0672 31.868C43.0586 31.8767 43.0719 31.8908 43.0813 31.8822V31.8822Z"/><path fill="#2A7FFF" d="M41.3892 22.7377C41.7395 22.3875 42.3074 22.3875 42.6576 22.7377V22.7377C43.0079 23.088 43.0079 23.6559 42.6576 24.0061V24.0061C42.3074 24.3564 41.7395 24.3564 41.3892 24.0061V24.0061C41.039 23.6559 41.039 23.088 41.3892 22.7377V22.7377Z"/><path fill-rule="evenodd" stroke="#000" d="M30.8161 38.7751H29.1093C27.5726 38.7751 26.3269 37.5294 26.3269 35.9927V30.471C26.3265 30.2742 26.2108 30.096 26.0313 30.0155L25.0356 29.571C24.788 29.4607 24.6285 29.2149 24.6287 28.9438V22.4812C24.6249 20.0418 25.4756 17.6782 27.0333 15.8008L21.528 21.2676C19.2822 23.2541 17.9974 26.1093 18 29.1076V35.5701C17.9998 35.8412 18.1593 36.087 18.4069 36.1973L19.4026 36.6419C19.5821 36.7223 19.6978 36.9006 19.6981 37.0974V42.6191C19.6981 44.1558 20.9439 45.4015 22.4806 45.4015H24.1936V52.9059H38.9681L45.5968 46.2796H30.8161V38.7751Z" clip-rule="evenodd"/><path fill-rule="evenodd" stroke="#000" d="M45.5946 46.2793H30.817L24.1914 52.9049H38.969L45.5946 46.2793Z" clip-rule="evenodd"/><path fill="#000" stroke="#000" d="M45.5946 46.2793H30.817L24.1914 52.9049H38.969L45.5946 46.2793Z"/><path fill="#000" stroke="#000" d="M18.2188 26.9823C19.5672 26.6498 22.6938 25.9003 23.3759 25.8658C23.8016 25.8447 24.1395 25.7976 24.3763 25.709C24.5296 25.6481 24.6296 25.4992 24.628 25.3343V22.4805C24.6278 21.8894 24.6774 21.2993 24.7761 20.7165V20.7118V20.693C24.799 20.5679 24.7673 20.4389 24.6889 20.3387C24.6105 20.2385 24.4931 20.1765 24.3661 20.1685H24.3567C24.0384 20.1536 23.3994 20.0854 22.7887 20.0117L21.5264 21.2661C19.8362 22.7649 18.676 24.77 18.2188 26.9823H18.2188Z"/></svg>