<svg width="60" height="55" viewBox="0 0 60 55" fill="none" xmlns="http://www.w3.org/2000/svg">
<path d="M59.0756 11.3926L47.332 14.2079V14.9457L59.0756 17.761V11.3926Z" fill="#F8F9F9"/>
<path d="M59.0756 11.3926L47.332 14.2079V14.9457L59.0756 17.761" stroke="black" stroke-width="0.25"/>
<path d="M1.89453 14.576C1.89453 9.01505 7.09323 4.91551 12.5013 6.21147L45.8565 14.2075V14.9452L12.5036 22.942C7.09324 24.2372 1.89453 20.1377 1.89453 14.576Z" fill="#F8F9F9"/>
<path d="M22.1387 19.3297L24.8552 20.8977V17.7617L22.1387 19.3297Z" fill="#2A7FFF"/>
<ellipse cx="22.5287" cy="8.42124" rx="1.60093" ry="1.60093" fill="#A77C18"/>
<ellipse cx="7.75947" cy="12.1813" rx="5.70674" ry="5.70674" fill="#EDEDED"/>
<path d="M45.8549 14.9453L12.502 22.9405" stroke="black" stroke-width="0.25"/>
<path d="M12.502 6.21289L45.8549 14.2089" stroke="black" stroke-width="0.25"/>
<path d="M45.8242 13.9688H47.3013V15.1863H45.8242V13.9688Z" fill="#BFC2C8"/>
<path fill-rule="evenodd" clip-rule="evenodd" d="M45.8242 13.9688H47.3013V15.1863H45.8242V13.9688Z" stroke="black"/>
<path d="M48.4452 32.2463H44.6797L45.9341 15.6953H47.1908L48.4452 32.2463Z" fill="#EDEDED"/>
<path d="M45.8535 16.7521L47.2302 16.2206L47.1902 15.6953H47.1487L45.8966 16.179L45.8535 16.7521Z" fill="#BFC2C8"/>
<path d="M45.748 18.1564L47.3317 17.5449L47.291 17.0039L45.7912 17.5833L45.748 18.1564Z" fill="#BFC2C8"/>
<path d="M45.6406 19.5586L47.4313 18.8671L47.3905 18.3262L45.6845 18.9855L45.6406 19.5586Z" fill="#BFC2C8"/>
<path d="M45.5352 20.962L47.532 20.1906L47.4912 19.6504L45.5783 20.3889L45.5352 20.962Z" fill="#BFC2C8"/>
<path d="M45.4277 22.3662L47.6316 21.5148L47.5908 20.9746L45.4709 21.7931L45.4277 22.3662Z" fill="#BFC2C8"/>
<path d="M45.3223 23.7684L47.7331 22.8371L47.6923 22.2969L45.3662 23.1953L45.3223 23.7684Z" fill="#BFC2C8"/>
<path d="M45.2168 25.1726L47.8338 24.1621L47.7922 23.6211L45.2599 24.5995L45.2168 25.1726Z" fill="#BFC2C8"/>
<path d="M45.1094 26.5749L47.9333 25.4843L47.8918 24.9434L45.1525 26.0018L45.1094 26.5749Z" fill="#BFC2C8"/>
<path d="M45.002 27.979L48.0329 26.8085L47.9913 26.2676L45.0459 27.4059L45.002 27.979Z" fill="#BFC2C8"/>
<path d="M44.8965 29.3832L48.1336 28.1328L48.0921 27.5918L44.9396 28.8101L44.8965 29.3832Z" fill="#BFC2C8"/>
<path d="M44.791 30.7855L48.2351 29.455L48.1936 28.9141L44.8341 30.2124L44.791 30.7855Z" fill="#BFC2C8"/>
<path d="M44.6836 32.1897L48.3347 30.7792L48.2931 30.2383L44.7275 31.6166L44.6836 32.1897Z" fill="#BFC2C8"/>
<path d="M48.0601 32.2469L48.4333 32.1027L48.3925 31.5625L46.6191 32.2469H48.0601Z" fill="#BFC2C8"/>
<path fill-rule="evenodd" clip-rule="evenodd" d="M48.4452 32.2463H44.6797L45.9341 15.6953H47.1908L48.4452 32.2463Z" stroke="black"/>
<ellipse cx="46.7665" cy="34.8517" rx="5.36413" ry="3.36728" fill="black"/>
<path d="M59.0752 46.3876H43.5999C42.6688 46.3871 41.9143 45.6322 41.9143 44.7012V43.6428C41.9138 42.712 41.1594 41.9576 40.2287 41.9572H29.3985C28.4677 41.9568 27.7133 41.2023 27.7129 40.2716V39.9039C27.7133 38.9731 28.4677 38.2187 29.3985 38.2183C30.3295 38.2183 31.0844 37.4638 31.0849 36.5327V36.2489C31.0849 35.3175 30.3299 34.5625 29.3985 34.5625H59.0752" fill="#F8F9F9"/>
<path d="M29.2237 40.2716V39.9039C29.2241 38.9731 29.9785 38.2187 30.9093 38.2183C31.8403 38.2183 32.5952 37.4637 32.5956 36.5327V36.2489C32.5956 35.3175 31.8406 34.5625 30.9093 34.5625H29.3985C30.3299 34.5625 31.0849 35.3175 31.0849 36.2489V36.5303C31.0844 37.4614 30.3295 38.2159 29.3985 38.2159C28.4677 38.2164 27.7133 38.9708 27.7129 39.9015V40.2692C27.7133 41.2 28.4677 41.9544 29.3985 41.9548H30.9093C29.9794 41.9544 29.2254 41.2014 29.2237 40.2716V40.2716Z" fill="#EDEDED"/>
<path d="M43.4265 44.701V43.6426C43.426 42.7119 42.6716 41.9575 41.7409 41.957H40.2285C41.1593 41.9575 41.9137 42.7119 41.9141 43.6426V44.701C41.9141 45.6321 42.6687 46.387 43.5997 46.3874H45.1105C44.18 46.3861 43.4265 45.6315 43.4265 44.701V44.701Z" fill="#EDEDED"/>
<path d="M23.547 9.57449H26.8571C26.8787 9.57449 26.8963 9.55694 26.8963 9.53529C26.8963 9.51364 26.8787 9.49609 26.8571 9.49609H23.547C23.5254 9.49609 23.5078 9.51364 23.5078 9.53529C23.5078 9.55694 23.5254 9.57449 23.547 9.57449Z" fill="black"/>
<path d="M26.9533 9.47403C26.7126 9.17062 26.4453 8.82488 26.4931 8.41328C26.5036 8.21487 26.6206 8.03765 26.7989 7.94994C26.9789 7.86217 27.1957 7.91255 27.3186 8.07067C27.3477 8.11144 27.4151 8.07067 27.3861 8.03069C27.165 7.71709 27.2136 7.30549 27.4213 6.99267C27.6652 6.62498 28.0948 6.47758 28.5237 6.52227C29.4919 6.614 30.0815 7.4764 30.5691 8.21806C30.5879 8.24707 30.6475 8.24002 30.642 8.19846C30.6198 7.98113 30.753 7.77797 30.9611 7.7116C31.1783 7.63869 31.4064 7.72885 31.5703 7.87467C31.8682 8.13966 31.9395 8.55362 32.0038 8.9268C32.0076 8.94547 32.024 8.9589 32.043 8.9589C32.0621 8.9589 32.0785 8.94547 32.0822 8.9268C32.1144 8.74334 32.2955 8.66651 32.4648 8.68219C32.6342 8.69787 32.769 8.80842 32.8921 8.91269C33.0654 9.07091 33.2608 9.20297 33.4723 9.30469C33.8987 9.48876 34.3782 9.50858 34.8184 9.36035C34.8662 9.34389 34.8458 9.26862 34.7972 9.28195C34.1332 9.50461 33.4903 9.31802 32.9713 8.87349C32.8019 8.7308 32.6075 8.574 32.3723 8.59909C32.1954 8.60422 32.0445 8.7289 32.0062 8.90171H32.0846C32.0015 8.42582 31.876 7.85272 31.3727 7.65202C31.0003 7.50384 30.5103 7.75707 30.566 8.20082L30.6397 8.18043C30.1042 7.36507 29.3931 6.36782 28.2877 6.43917C27.8776 6.45413 27.505 6.68173 27.3045 7.03971C27.1273 7.36429 27.1046 7.76178 27.321 8.07302L27.3884 8.03304C27.1532 7.70062 26.6562 7.81509 26.4884 8.15299C26.2414 8.65162 26.6021 9.15494 26.9008 9.53205C26.9321 9.57125 26.987 9.51558 26.9557 9.47638L26.9533 9.47403Z" fill="black"/>
<path d="M10.0529 3.64871H12.989C13.0106 3.64871 13.0282 3.63116 13.0282 3.60951C13.0282 3.58786 13.0106 3.57031 12.989 3.57031H10.0529C10.0312 3.57031 10.0137 3.58786 10.0137 3.60951C10.0137 3.63116 10.0312 3.64871 10.0529 3.64871Z" fill="black"/>
<path d="M12.9556 3.60447C12.8133 3.42211 12.7898 3.17373 12.8953 2.96787C12.9572 2.85265 13.0685 2.7721 13.1973 2.74918C13.3261 2.72626 13.4583 2.7635 13.5562 2.85027C13.5661 2.85991 13.5803 2.86365 13.5936 2.86011C13.607 2.85658 13.6175 2.84628 13.6213 2.83302C13.6384 2.69162 13.6797 2.55423 13.7436 2.4269C13.8337 2.27481 14.0627 2.16583 14.1763 2.36575C14.1871 2.38139 14.2074 2.3873 14.2249 2.37989C14.2424 2.37248 14.2522 2.35379 14.2485 2.33518C14.1379 1.95807 14.0634 1.53471 14.2061 1.15526C14.3308 0.825191 14.7087 0.495127 15.0685 0.693479C15.3617 0.850279 15.5891 1.22503 15.7632 1.50022C15.9637 1.82021 16.1268 2.16218 16.2492 2.51942C16.2626 2.5594 16.3276 2.55548 16.3276 2.50922C16.3167 2.13682 16.7706 1.96042 17.0497 2.17367C17.3288 2.38692 17.415 2.76716 17.4856 3.09017C17.495 3.13643 17.5577 3.12075 17.564 3.07998C17.593 2.8095 17.9395 2.57978 18.1716 2.79147C18.3456 2.94827 18.3417 3.22423 18.5322 3.37711C18.7086 3.51902 18.9517 3.53862 19.1681 3.56292C19.4976 3.5995 19.8292 3.61339 20.1606 3.60447C20.2108 3.60447 20.2108 3.52607 20.1606 3.52607C19.7445 3.54473 19.3276 3.51845 18.9172 3.44767C18.7126 3.40769 18.5526 3.33007 18.4468 3.14113C18.3778 3.01883 18.3504 2.87379 18.2563 2.76559C17.9874 2.45199 17.5232 2.72326 17.4856 3.07919L17.564 3.06822C17.4856 2.69582 17.3421 2.12193 16.9078 2.01374C16.584 1.93534 16.2422 2.17054 16.2524 2.50844L16.3308 2.49825C16.1823 2.06082 15.973 1.64646 15.7091 1.26737C15.5185 0.997671 15.2575 0.585287 14.8945 0.554711C14.5691 0.527271 14.283 0.789911 14.1591 1.0698C13.9788 1.47434 14.0556 1.94553 14.1756 2.35478L14.2477 2.3242C14.1738 2.19084 14.0088 2.13823 13.8714 2.20425C13.6424 2.2999 13.5891 2.59625 13.5491 2.81028L13.6142 2.79303C13.5136 2.70045 13.3799 2.6524 13.2433 2.65978C13.1068 2.66716 12.9791 2.72934 12.889 2.83223C12.7063 3.07039 12.7063 3.4016 12.889 3.63975C12.9196 3.67895 12.9878 3.63975 12.9572 3.59977L12.9556 3.60447Z" fill="black"/>
<path d="M28.2599 21.6194H30.0858C30.1075 21.6194 30.125 21.6019 30.125 21.5802C30.125 21.5586 30.1075 21.541 30.0858 21.541H28.2599C28.2383 21.541 28.2207 21.5586 28.2207 21.5802C28.2207 21.6019 28.2383 21.6194 28.2599 21.6194Z" fill="black"/>
<path d="M30.0356 21.5044C29.7902 21.299 29.7455 20.8897 29.987 20.6592C30.2285 20.4288 30.6691 20.5087 30.8494 20.7902C30.8721 20.8262 30.9356 20.8035 30.9207 20.7596C30.789 20.3754 30.9991 19.8972 31.406 19.778C31.8411 19.6502 32.3045 19.9976 32.3523 20.4358C32.3493 20.4575 32.3644 20.4775 32.386 20.4805C32.4077 20.4835 32.4277 20.4684 32.4307 20.4468C32.5052 20.2116 32.5954 19.9356 32.8439 19.8368C33.0924 19.738 33.3927 19.8862 33.5683 20.076C33.8505 20.3801 33.9305 20.878 34.2739 21.1249C34.3712 21.203 34.5028 21.223 34.6189 21.1775C34.6643 21.161 34.7051 21.1289 34.7521 21.1155C34.8674 21.0818 34.9748 21.1218 35.0814 21.1532C35.2006 21.1877 35.3166 21.2222 35.4413 21.2512C35.9292 21.3669 36.4294 21.4227 36.9309 21.4174C36.9525 21.4174 36.9701 21.3998 36.9701 21.3782C36.9701 21.3565 36.9525 21.339 36.9309 21.339C36.3356 21.3449 35.7427 21.264 35.1708 21.0991C35.0553 21.0525 34.9323 21.0273 34.8078 21.0246C34.709 21.0324 34.6369 21.11 34.5436 21.121C34.2206 21.1587 34.0458 20.711 33.9242 20.4828C33.7416 20.141 33.4938 19.7678 33.0689 19.7279C32.644 19.6879 32.4613 20.083 32.3531 20.4256L32.4315 20.4358C32.3805 19.9654 31.9101 19.5844 31.4335 19.6894C30.9568 19.7945 30.6949 20.3386 30.8463 20.7808L30.9176 20.7502C30.7232 20.4413 30.2645 20.3347 29.9705 20.573C29.6765 20.8113 29.693 21.3162 29.9846 21.5593C30.0231 21.5914 30.0787 21.5365 30.0395 21.5044H30.0356Z" fill="black"/>
<path d="M6.05218 23.8213C6.02004 23.9389 5.99025 24.0565 5.96124 24.1749C5.93223 24.2933 5.87657 24.4477 5.88833 24.5755C5.89225 24.6257 5.97143 24.6257 5.96673 24.5755C5.95418 24.4462 6.01377 24.2902 6.04513 24.1655C6.07178 24.0573 6.09922 23.9499 6.12823 23.8417C6.13187 23.8277 6.12777 23.8128 6.11746 23.8027C6.10715 23.7925 6.09221 23.7886 6.07826 23.7925C6.06431 23.7963 6.05347 23.8073 6.04983 23.8213H6.05218Z" fill="black"/>
<path d="M5.99805 23.8004C7.15602 24.2254 6.8479 23.2273 6.86594 22.7891C6.86594 22.7601 6.86594 22.7311 6.86594 22.7021C6.95087 22.6644 6.99304 22.5682 6.96315 22.4802C6.94117 22.4272 6.92206 22.373 6.90592 22.3179C6.86953 22.202 6.84201 22.0836 6.8236 21.9635C6.76538 21.6016 6.68897 21.2429 6.59467 20.8887" stroke="black"/>
<path d="M5.604 22.3138C5.65574 22.3036 5.69338 22.382 5.70827 22.4181C5.72341 22.4549 5.73139 22.4943 5.73179 22.5341C5.73179 22.5467 5.75218 22.5467 5.75139 22.5341C5.75144 22.473 5.73403 22.4132 5.70122 22.3616C5.6777 22.3248 5.64634 22.2832 5.59851 22.295C5.59466 22.2974 5.59288 22.3021 5.59416 22.3065C5.59543 22.3108 5.59945 22.3138 5.604 22.3138Z" fill="black"/>
<path d="M5.65734 22.4499C5.67905 22.4386 5.70549 22.4417 5.72398 22.4578C5.73417 22.4656 5.74358 22.4484 5.73339 22.4405C5.70882 22.4208 5.67486 22.4178 5.64714 22.4327C5.63617 22.4382 5.64714 22.4554 5.65734 22.4499Z" fill="black"/>
<path d="M4.3892 23.2055C4.28572 23.6555 4.19477 24.1079 4.08345 24.5556C4.0776 24.5772 4.09041 24.5995 4.11206 24.6053C4.13371 24.6112 4.156 24.5984 4.16184 24.5767C4.27317 24.1291 4.36333 23.6759 4.46682 23.2267C4.4778 23.1773 4.40253 23.1569 4.38842 23.2055H4.3892Z" fill="black"/>
<path d="M6.69346 22.9051L6.60487 22.804C6.57116 22.7656 6.51628 22.8212 6.54921 22.8588L6.6378 22.9608C6.67151 22.9984 6.72639 22.9427 6.69346 22.9051Z" fill="black"/>
<path d="M6.58523 22.1374C6.57597 22.1608 6.57247 22.1861 6.57504 22.2111C6.58052 22.2605 6.65892 22.2613 6.65344 22.2111C6.6514 22.1933 6.65382 22.1752 6.66049 22.1586C6.67931 22.1115 6.60326 22.0912 6.58209 22.1374H6.58523Z" fill="black"/>
<path d="M6.5693 21.9019C6.59953 21.8905 6.63212 21.8867 6.66416 21.8909C6.71355 21.8988 6.73472 21.8227 6.68455 21.8125C6.63887 21.8048 6.59198 21.8085 6.54813 21.8235C6.50109 21.8392 6.52148 21.9152 6.5693 21.9019Z" fill="black"/>
<path d="M5.31445 24.625C5.31445 24.625 7.05493 24.3898 7.7574 25.409C8.31707 26.2018 8.91901 26.9639 9.5606 27.692C9.93774 27.4548 10.347 27.2728 10.7758 27.1519C11.2901 27.0131 12.3799 26.6132 12.3971 26.4384" stroke="black"/>
<path d="M6.57812 27.7965C6.57812 27.7965 6.92544 27.744 7.25237 28.1799C7.57929 28.6158 8.61653 29.9925 9.98931 29.417C11.3621 28.8416 12.9074 27.2383 12.9074 27.2383" stroke="black"/>
<path d="M7.26484 28.2108C7.91696 27.9186 8.47993 27.4587 8.89635 26.878C8.92536 26.8372 8.85793 26.7996 8.82814 26.8388C8.41846 27.4069 7.86551 27.8562 7.22564 28.141C7.17939 28.1622 7.21937 28.2296 7.26484 28.2092V28.2108Z" fill="black"/>
<path d="M9.47807 27.6652C9.5455 27.7561 9.60665 27.851 9.6678 27.9458C9.69446 27.9882 9.76266 27.9458 9.73522 27.9058C9.67486 27.811 9.6137 27.7161 9.54628 27.626C9.51649 27.586 9.44828 27.626 9.47807 27.6652Z" fill="black"/>
<path d="M2.43391 26.6055C2.43391 26.6055 1.99958 29.4859 1.67108 30.0786C1.34258 30.6713 1.23596 30.7411 1.5182 31.1762" stroke="black"/>
<path d="M7.24523 28.1738C7.24523 28.1738 6.71054 30.3079 6.78502 30.761C6.8595 31.2142 7.04452 31.81 6.37891 31.81" stroke="black"/>
<path d="M1.62624 30.9281C2.404 30.8014 3.19565 30.784 3.97824 30.8763C4.78654 30.9618 5.63483 31.1296 6.35689 31.5177C6.4008 31.542 6.44078 31.4738 6.39609 31.4502C5.67952 31.0645 4.84534 30.8952 4.04409 30.805C3.23269 30.7048 2.41114 30.7209 1.60428 30.8528C1.55489 30.8615 1.57606 30.9367 1.62545 30.9312L1.62624 30.9281Z" fill="black"/>
<path d="M6.37861 31.4844L6.36842 31.5824C6.33554 31.889 6.37006 32.1991 6.46956 32.491C7.00895 34.0708 8.80196 39.7219 8.86233 45.2593C8.92348 50.8813 8.9909 52.5505 9.00815 52.904C9.01072 52.9549 9.03394 53.0025 9.07244 53.0358L9.29509 53.231C9.35447 53.2832 9.37508 53.3668 9.34675 53.4406C9.31842 53.5144 9.24713 53.5628 9.16809 53.5618H6.75572C6.65756 53.5627 6.57494 53.4886 6.56521 53.3909C6.50876 52.8131 6.29708 50.7253 5.79845 46.5168C5.71828 45.7201 5.69417 44.9187 5.72633 44.1185C5.75275 43.2014 5.59686 42.2882 5.26769 41.4318C4.50877 39.4545 3.19636 35.8654 3.12109 34.56" stroke="black"/>
<path d="M6.60476 42.4177L6.78116 42.453C6.79292 42.453 6.7984 42.4365 6.78586 42.4342L6.61024 42.3989C6.5977 42.3989 6.59221 42.4153 6.60476 42.4177Z" fill="black"/>
<path d="M6.57826 42.7956L6.82522 42.7258C6.82907 42.7234 6.83085 42.7187 6.82957 42.7144C6.8283 42.71 6.82428 42.707 6.81973 42.707L6.57356 42.7768C6.56101 42.7768 6.5665 42.7995 6.57826 42.7956Z" fill="black"/>
<path d="M5.34449 24.6236C5.34449 24.6236 3.83451 24.6417 3.33275 24.6025C2.83099 24.5633 0.878044 24.1109 2.21241 27.9258" stroke="black"/>
<path d="M8.32115 25.9579C8.4036 25.8723 8.50556 25.808 8.61829 25.7705C8.66862 25.7521 8.72154 25.7418 8.77509 25.7399C8.84094 25.725 8.86368 25.7674 8.84251 25.8669C8.81742 25.8716 8.79312 25.8763 8.76803 25.8795C8.65043 25.9202 8.71942 26.0676 8.73275 26.1664C8.73981 26.2158 8.81585 26.1946 8.81115 26.1452C8.80017 26.0668 8.76333 25.9837 8.84565 25.9461C8.8919 25.9249 8.93345 25.9226 8.9656 25.8787C8.98672 25.8517 8.99606 25.8174 8.99148 25.7834C8.98691 25.7494 8.96881 25.7188 8.94129 25.6984C8.85113 25.6286 8.70061 25.6639 8.60261 25.6984C8.47687 25.7398 8.36307 25.8111 8.27097 25.9061C8.25776 25.9218 8.25881 25.945 8.2734 25.9593C8.28798 25.9737 8.31118 25.9744 8.32664 25.961L8.32115 25.9579Z" fill="black"/>
<path d="M7.69394 28.7566C7.48774 29.02 7.27136 29.2913 6.97266 29.445C7.07719 29.1104 7.16709 28.7723 7.24235 28.4305C7.26249 28.3591 7.2707 28.285 7.26666 28.2109C7.35386 28.4234 7.49102 28.6116 7.6665 28.7597" fill="black"/>
<path d="M7.66616 28.7284C7.46075 28.9918 7.25142 29.2482 6.95272 29.4105L7.01073 29.4552C7.07659 29.2404 7.13852 29.024 7.1934 28.806C7.25612 28.6133 7.29406 28.4133 7.3063 28.211L7.23339 28.2306C7.32445 28.4456 7.46302 28.6373 7.63872 28.7911C7.67635 28.8248 7.73201 28.7692 7.69438 28.7355C7.52468 28.5857 7.39073 28.3998 7.30238 28.1914C7.2867 28.1545 7.22868 28.1749 7.22947 28.211C7.22947 28.4258 7.15499 28.6508 7.10089 28.8578C7.05072 29.0506 6.99505 29.2427 6.93704 29.434C6.93269 29.4493 6.93806 29.4658 6.95062 29.4756C6.96319 29.4854 6.98044 29.4866 6.99427 29.4787C7.29689 29.3133 7.51328 29.0522 7.72339 28.7841C7.75396 28.7449 7.69908 28.6892 7.66772 28.7284H7.66616Z" fill="black"/>
<path d="M5.52672 33.6613C5.77379 33.329 5.9436 32.9457 6.02378 32.5394C6.02508 32.5342 6.02192 32.5289 6.01672 32.5276C6.01153 32.5263 6.00626 32.5295 6.00496 32.5347C5.92513 32.9391 5.75584 33.3206 5.50948 33.6511C5.50242 33.6613 5.51967 33.6707 5.52672 33.6613Z" fill="black"/>
<path d="M6.30309 31.961C6.30309 31.961 2.2012 32.8156 1.01188 33.5996C1.01188 33.5996 0.99698 32.0912 1.25727 31.6341L1.46424 31.2421C1.46424 31.2421 1.60144 30.9222 1.89388 30.8666C2.18631 30.8109 3.4948 30.7835 3.82016 30.818C4.14552 30.8525 5.29879 31.0532 5.61552 31.1645C5.93226 31.2758 6.24272 31.4083 6.24272 31.4083C6.24272 31.4083 6.35719 31.377 6.37208 31.5471C6.37997 31.6892 6.37788 31.8317 6.36581 31.9736L6.30309 31.961Z" fill="black"/>
<path d="M2.34535 26.9551C2.34535 26.9551 2.21755 27.1989 2.00195 27.1683C2.00195 27.1683 2.17208 28.0221 2.24343 27.7744C2.31477 27.5266 2.34535 26.9551 2.34535 26.9551Z" fill="black"/>
<path d="M19.298 23.455C19.2125 23.702 19.1969 23.9654 19.1702 24.2241C19.1647 24.2743 19.2431 24.2735 19.2486 24.2241C19.2613 23.9706 19.3032 23.7194 19.3733 23.4754C19.3897 23.4276 19.3137 23.4072 19.2949 23.455H19.298Z" fill="black"/>
<path d="M19.1388 23.3906C19.1388 23.3906 19.0361 23.4918 19.243 23.7568C19.243 23.7568 19.3152 23.5412 19.3214 23.5216C19.3277 23.502 19.3818 23.4267 19.2477 23.4251C19.1137 23.4236 19.1388 23.3906 19.1388 23.3906Z" fill="black"/>
<path d="M19.1152 23.3807C20.2356 23.7962 20.2128 22.9307 20.2285 22.5026C20.2285 22.4744 20.2285 22.4461 20.2285 22.4171C20.3111 22.3806 20.3522 22.2871 20.3234 22.2015C20.3019 22.1503 20.2833 22.098 20.2677 22.0447C20.233 21.9316 20.2068 21.816 20.1893 21.699C20.1334 21.3453 20.0596 20.9947 19.9682 20.6484" stroke="black"/>
<path d="M19.3462 21.975C19.3948 21.9601 19.4363 22.0283 19.4544 22.0628C19.4733 22.0981 19.4853 22.1367 19.4897 22.1765C19.4897 22.189 19.51 22.189 19.5093 22.1765C19.5036 22.12 19.4833 22.0659 19.4505 22.0197C19.4254 21.9844 19.3885 21.9413 19.3407 21.9562C19.3368 21.9586 19.3351 21.9633 19.3363 21.9676C19.3376 21.972 19.3416 21.975 19.3462 21.975Z" fill="black"/>
<path d="M19.4112 22.1002C19.4307 22.0872 19.4561 22.0872 19.4755 22.1002C19.4865 22.1065 19.4959 22.09 19.4857 22.083C19.4599 22.0664 19.4268 22.0664 19.4011 22.083C19.3901 22.0892 19.4011 22.1065 19.4112 22.1002Z" fill="black"/>
<path d="M17.968 22.866C17.881 23.2949 17.8363 23.7409 17.6881 24.1549C17.6708 24.2027 17.7461 24.2231 17.7665 24.1761C17.9155 23.7621 17.9594 23.3137 18.0464 22.8872C18.0566 22.8378 17.9813 22.8166 17.968 22.866Z" fill="black"/>
<path d="M15.8433 25.2758C15.7093 25.87 15.6145 26.4724 15.5595 27.079C15.5117 27.54 15.4811 28.0198 15.3345 28.4596C15.271 28.6641 15.1682 28.8543 15.0319 29.0194C14.8751 29.2037 14.6524 29.3236 14.4831 29.4992C14.3416 29.6322 14.2745 29.8262 14.3035 30.0182C14.3435 30.2213 14.5019 30.3522 14.5756 30.5372C14.5936 30.5835 14.6697 30.5631 14.654 30.5161C14.5873 30.3467 14.4415 30.2205 14.3929 30.041C14.3027 29.707 14.5983 29.4922 14.8241 29.3126C15.1198 29.0824 15.3343 28.7638 15.4364 28.4032C15.5579 27.9939 15.5932 27.5596 15.6332 27.137C15.6887 26.5181 15.7845 25.9034 15.9201 25.297C15.9319 25.2476 15.8558 25.2272 15.8417 25.2758H15.8433Z" fill="black"/>
<path d="M19.5684 31.216C18.054 30.4507 16.3861 30.0377 14.6896 30.0078C14.6679 30.0078 14.6504 30.0254 14.6504 30.047C14.6504 30.0687 14.6679 30.0862 14.6896 30.0862C16.3721 30.1159 18.0262 30.5251 19.5284 31.2834C19.5731 31.3061 19.6131 31.2387 19.5684 31.216Z" fill="black"/>
<path d="M19.9563 21.862C19.9471 21.8849 19.9436 21.9096 19.9461 21.9342C19.9516 21.9843 20.03 21.9843 20.0245 21.9342C20.0225 21.9168 20.025 21.8993 20.0316 21.8832C20.0496 21.8362 19.9743 21.8158 19.9532 21.862H19.9563Z" fill="black"/>
<path d="M19.8616 22.4309C19.8734 22.5047 19.9259 22.5654 19.9972 22.5877C20.0451 22.6034 20.0662 22.5281 20.0184 22.5093C19.975 22.494 19.9444 22.4548 19.94 22.409C19.9322 22.3596 19.8561 22.3807 19.8616 22.4301V22.4309Z" fill="black"/>
<path d="M19.9064 21.5979H19.9323C19.9539 21.5979 19.9715 21.5804 19.9715 21.5587C19.9715 21.5371 19.9539 21.5195 19.9323 21.5195H19.9064C19.8847 21.5195 19.8672 21.5371 19.8672 21.5587C19.8672 21.5804 19.8847 21.5979 19.9064 21.5979Z" fill="black"/>
<path d="M19.5995 21.8237C19.5901 21.8509 19.5686 21.8723 19.5412 21.8813C19.5138 21.8904 19.4838 21.8862 19.46 21.87C19.4277 21.8423 19.3849 21.8301 19.3429 21.8365C19.3008 21.843 19.2637 21.8675 19.2413 21.9037C19.1386 22.033 19.2326 22.2118 19.2969 22.3051C19.3236 22.3439 19.3213 22.3957 19.2914 22.4321C19.213 22.5269 19.0562 22.7088 18.8994 22.868C18.7198 23.0513 18.474 23.1547 18.2174 23.1549H17.9586C17.9509 23.155 17.9435 23.1519 17.9383 23.1463C17.8504 23.0499 17.1151 22.2133 17.2719 21.4568C17.3393 21.0978 17.5616 20.7869 17.8795 20.6069C18.033 20.521 18.1748 20.4156 18.3012 20.2933C18.458 20.1412 18.7646 19.975 19.3408 20.106C19.7734 20.2085 20.1379 20.4981 20.3357 20.8962C20.5043 21.2137 20.3577 21.4121 20.0072 21.3321C19.8976 21.3074 19.7929 21.2645 19.6975 21.2051C19.6876 21.1986 19.6746 21.1991 19.6651 21.2063C19.6556 21.2135 19.6516 21.2259 19.6552 21.2373C19.7031 21.377 19.7031 21.5287 19.6552 21.6685L19.5995 21.8237Z" fill="black"/>
<path d="M20.2062 28.215C20.2062 28.1954 19.7358 30.2244 19.8738 30.8257C20.0047 31.4027 19.8793 31.5415 19.5469 31.7712" stroke="black"/>
<path d="M18.9746 24.2533C18.9746 24.2533 20.6343 24.1749 20.8774 24.6218C21.1204 25.0687 22.0071 28.6061 22.0071 28.6061" stroke="black"/>
<path d="M22.0996 28.9072C22.0557 28.7729 22.0173 28.6367 21.9844 28.4987C21.9844 28.4987 22.3097 27.692 22.6335 26.9394C22.8579 26.4172 22.9906 25.8602 23.0255 25.293C23.0579 25.0579 23.1379 24.8319 23.2607 24.6289" stroke="black"/>
<path d="M20.0566 27.6926C20.1469 27.9406 20.2215 28.1941 20.2801 28.4515C20.2801 28.4515 20.7144 30.8999 22.0049 30.6467C23.2264 30.4115 23.7195 27.0779 23.7603 25.9654C23.7575 25.8469 23.8024 25.7323 23.8849 25.6471C24.0049 25.5366 24.1358 25.3053 24.2307 25.1328" stroke="black"/>
<path d="M19.4428 31.1966L19.4945 31.5596C19.5284 31.7996 19.5848 32.0358 19.6631 32.2652C20.1523 33.703 22.0316 39.5932 22.0935 45.3713C22.097 45.5623 21.9709 45.7315 21.787 45.7829C20.6948 46.084 16.8862 46.9589 12.9889 45.8151C12.7683 45.7494 12.6402 45.5198 12.7004 45.2976L13.6577 41.7516C14.0927 40.1436 14.2554 38.4741 14.139 36.8124C14.0081 34.9621 13.885 32.6337 14.0324 32.0033C14.288 30.9136 14.7506 30.5365 14.8344 30.0527" stroke="black"/>
<path d="M19.0293 24.2486C19.0536 24.2486 17.1093 24.1961 16.1458 24.1702C15.5695 24.1537 15.0858 24.8687 15.6307 26.7417" stroke="black"/>
<path d="M21.7874 45.7832C21.7874 45.7832 21.9857 52.5883 22.0963 52.8439C22.2068 53.0995 22.8144 53.5495 22.7093 53.5621C22.6043 53.5746 21.3765 53.5621 20.8317 53.5621C20.7112 53.5628 20.6097 53.4724 20.5965 53.3527C20.5243 52.7208 20.3072 50.8157 20.1943 49.998C20.0579 49.0109 19.6157 47.0556 19.7772 46.194" stroke="black"/>
<path d="M15.6092 46.3128C15.6092 46.3128 14.6002 51.3547 14.3399 52.6342C14.3064 52.7974 14.3633 52.9661 14.4888 53.0756L14.8024 53.3469C14.8415 53.3803 14.8558 53.4345 14.8384 53.4829C14.821 53.5313 14.7755 53.5639 14.724 53.5648H13.0133C12.9351 53.565 12.8603 53.5327 12.8068 53.4756C12.7533 53.4186 12.7259 53.3418 12.7311 53.2638C12.7734 52.6099 12.8801 51.0341 12.9796 49.9404C13.1074 48.5292 13.5284 46.1192 13.6641 45.9961" stroke="black"/>
<path d="M19.4947 31.5594C19.4947 31.5594 14.8942 31.4222 14.0938 31.7711C14.0938 31.7711 14.4128 30.9596 14.4669 30.8593C14.521 30.7589 14.7162 30.4061 14.75 30.3238C14.7837 30.2415 14.7923 30.0298 15.022 30.0502C15.2517 30.0706 17.2494 30.2611 18.3462 30.7291L19.2917 31.1211C19.2917 31.1211 19.4328 31.1274 19.4641 31.3422" fill="black"/>
<path d="M13.4043 47.2411C13.4043 47.2411 15.2992 47.579 15.369 47.5077C15.4388 47.4363 15.5611 46.5489 15.5611 46.5489C15.5611 46.5489 15.6763 46.3231 15.4662 46.2995C15.2561 46.276 14.1224 46.0941 14.1224 46.0941C14.1224 46.0941 13.6144 45.8778 13.5901 46.1725C13.5496 46.4565 13.4875 46.7369 13.4043 47.0114" fill="black"/>
<path d="M19.8285 47.675C19.8285 47.675 21.6591 47.675 21.841 47.3841L21.8057 46.2865L21.7971 45.9917C21.7971 45.9917 21.8755 45.7691 21.5086 45.8561C21.1417 45.9431 20.1444 46.1384 20.1444 46.1384C20.1444 46.1384 19.7689 46.078 19.7587 46.3869C19.7485 46.6958 19.8285 47.675 19.8285 47.675Z" fill="black"/>
<path d="M12.7023 53.1192C12.8732 53.0408 13.0519 52.9561 13.244 52.949C13.4792 52.9404 13.5678 53.0604 13.7536 53.1458C13.8648 53.1846 13.9825 53.2014 14.1001 53.1952L14.6129 53.2211C14.6262 53.2211 14.6254 53.2023 14.6129 53.2015C14.4177 53.1921 14.2209 53.1858 14.0272 53.1725C13.8973 53.1703 13.7704 53.1327 13.6603 53.0635C13.6095 53.0263 13.5552 52.9942 13.498 52.9679C13.2252 52.8612 12.939 52.9882 12.6921 53.1027C12.6811 53.1074 12.6921 53.1247 12.7023 53.1192Z" fill="black"/>
<path d="M20.6052 53.2497C20.6934 53.1684 20.7983 53.1074 20.9125 53.0709C21.0427 53.0419 21.1273 53.0874 21.2363 53.136C21.3282 53.1822 21.4265 53.2144 21.528 53.2317C21.8463 53.2748 22.1607 53.1682 22.4743 53.2693C22.4868 53.2693 22.4915 53.2544 22.4797 53.2505C22.0925 53.125 21.6769 53.3116 21.2983 53.1446C21.1901 53.0968 21.0897 53.0325 20.9666 53.0419C20.8224 53.0537 20.7009 53.1501 20.5911 53.2364C20.5817 53.2442 20.595 53.2575 20.6052 53.2497Z" fill="black"/>
<path d="M8.77413 25.7024C8.77413 25.7024 8.57264 24.1305 8.85802 23.0266C8.86964 22.9803 8.90439 22.9433 8.94988 22.9288C8.99538 22.9142 9.04514 22.9243 9.08146 22.9553C9.26648 23.1121 9.63026 23.2689 10.1869 22.8604C11.0493 22.2332 11.8333 22.6252 12.3821 23.0956C12.7592 23.4186 13.6185 23.261 14.1187 23.1301C14.1746 23.1149 14.2341 23.1362 14.2676 23.1836C14.3011 23.2309 14.3014 23.2941 14.2684 23.3418C13.8325 23.969 12.9309 25.3614 12.9309 26.0748" stroke="black"/>
<path d="M12.5851 25.8856C12.519 25.959 12.4648 26.0424 12.4244 26.1325C12.3892 26.2349 12.3614 26.3397 12.3413 26.4461C12.3354 26.4678 12.3482 26.4901 12.3699 26.4959C12.3915 26.5018 12.4138 26.489 12.4197 26.4673C12.444 26.3795 12.4494 26.2893 12.4816 26.2031C12.5189 26.1053 12.5739 26.0152 12.6439 25.9373C12.6768 25.8997 12.6219 25.844 12.5882 25.8817L12.5851 25.8856Z" fill="black"/>
<path d="M13.3205 25.7929C13.1755 25.909 13.0177 26.0082 12.8501 26.0884C12.8046 26.1112 12.8446 26.1786 12.8901 26.1566C13.0621 26.0724 13.2239 25.9688 13.3723 25.8478C13.4122 25.8164 13.3558 25.7607 13.3174 25.7929H13.3205Z" fill="black"/>
<path d="M13.3199 26.1486C13.2981 26.1944 13.257 26.2281 13.2078 26.2403C13.1861 26.2461 13.1733 26.2684 13.1791 26.2901C13.185 26.3117 13.2073 26.3245 13.2289 26.3187C13.2972 26.3003 13.3543 26.2534 13.3857 26.1901C13.4077 26.1454 13.3403 26.1054 13.3175 26.1509L13.3199 26.1486Z" fill="black"/>
<path d="M13.435 26.4637C13.39 26.5138 13.3395 26.5588 13.2845 26.5978C13.2437 26.6268 13.2845 26.6942 13.3237 26.6652C13.3847 26.623 13.4407 26.5741 13.4907 26.5194C13.5244 26.4817 13.4695 26.4261 13.435 26.4637Z" fill="black"/>
<path d="M13.3806 26.9099C13.2528 27.0667 13.0215 27.0667 12.8804 27.2101C12.8451 27.2462 12.9008 27.3019 12.9361 27.2658C13.0764 27.12 13.3053 27.1262 13.4363 26.9655C13.4676 26.9263 13.4127 26.8707 13.3806 26.9099Z" fill="black"/>
<path d="M1.79571 30.9355C1.79571 30.9355 0.0709061 31.8763 1.63891 37.1291C2.54678 40.1711 2.65811 41.7547 2.50131 42.9307C2.34451 44.1067 2.03091 47.9483 2.10931 50.1435C2.1783 52.0698 2.30766 52.7307 2.33823 53.285C2.34532 53.414 2.45208 53.5149 2.58127 53.5147H4.65731C4.75597 53.5148 4.84494 53.4554 4.8827 53.3642C4.92047 53.2731 4.89958 53.1682 4.82979 53.0984L4.62908 52.8977C4.57362 52.8423 4.54823 52.7635 4.56087 52.6861C4.71767 51.7453 5.71649 45.7265 5.71649 44.4987" stroke="black"/>
<path d="M2.24317 52.6388C2.24755 52.6376 2.25056 52.6336 2.25056 52.629C2.25056 52.6245 2.24755 52.6205 2.24317 52.6192C2.23901 52.6181 2.23456 52.6196 2.23206 52.6232C2.22955 52.6267 2.22955 52.6314 2.23206 52.6349C2.23456 52.6385 2.23901 52.64 2.24317 52.6388Z" fill="black"/>
<path d="M2.24177 52.5231L3.20295 52.4995C3.27351 52.4995 3.40052 52.5262 3.46324 52.4792C3.51106 52.4423 3.51185 52.3584 3.54164 52.3129C3.58633 52.2463 3.56986 52.2345 3.60906 52.3294C3.62147 52.3837 3.64015 52.4363 3.66473 52.4862C3.67841 52.5089 3.70079 52.5251 3.72666 52.5309C3.81604 52.5654 3.97127 52.5254 4.06614 52.5223L4.59142 52.505C4.60396 52.505 4.60396 52.4846 4.59142 52.4854L3.99087 52.505C3.88346 52.5089 3.74862 52.5474 3.67022 52.4478C3.62553 52.3913 3.60828 52.2628 3.58554 52.1938C3.58396 52.19 3.58025 52.1875 3.57614 52.1875C3.57202 52.1875 3.56831 52.19 3.56673 52.1938C3.52126 52.3098 3.48833 52.436 3.35662 52.4729C3.25078 52.5035 3.083 52.4799 2.97246 52.4823L2.24177 52.5003C2.23739 52.5016 2.23438 52.5056 2.23438 52.5101C2.23438 52.5147 2.23739 52.5187 2.24177 52.5199V52.5231Z" fill="black"/>
<path d="M6.50745 52.6463C6.82106 52.633 7.14955 52.6408 7.46394 52.6047C7.53305 52.6041 7.60002 52.5807 7.65445 52.5381C7.70462 52.4895 7.68581 52.3923 7.72501 52.3539C7.8136 52.2684 7.78773 52.4479 7.81752 52.4864C7.85672 52.5373 7.92885 52.5256 7.9853 52.5279C8.31693 52.5389 8.64934 52.5483 8.98098 52.5585C8.98535 52.5572 8.98837 52.5532 8.98837 52.5487C8.98837 52.5441 8.98535 52.5401 8.98098 52.5389L8.17659 52.5138C8.11278 52.5171 8.04881 52.5153 7.9853 52.5083L7.82144 52.4464L7.81203 52.368C7.79322 52.317 7.80262 52.3029 7.76656 52.2645C7.76479 52.2627 7.7624 52.2617 7.7599 52.2617C7.75739 52.2617 7.755 52.2627 7.75323 52.2645C7.72693 52.3046 7.70758 52.3489 7.696 52.3954C7.6176 52.5789 7.47648 52.5844 7.30008 52.5922L6.50745 52.6251C6.49491 52.6251 6.49491 52.6455 6.50745 52.6447V52.6463Z" fill="black"/>
<path d="M3.69854 42.6271H4.25988C4.26426 42.6259 4.26728 42.6219 4.26728 42.6173C4.26728 42.6128 4.26426 42.6088 4.25988 42.6075H3.69854C3.69438 42.6063 3.68992 42.6079 3.68742 42.6114C3.68492 42.615 3.68492 42.6197 3.68742 42.6232C3.68992 42.6267 3.69438 42.6283 3.69854 42.6271Z" fill="black"/>
<path d="M3.90401 43.0307L4.31247 42.9288C4.31578 42.926 4.3168 42.9214 4.31495 42.9175C4.31311 42.9136 4.30886 42.9115 4.30463 42.9123L3.89539 43.0142C3.89154 43.0166 3.88976 43.0213 3.89103 43.0257C3.89231 43.0301 3.89632 43.0331 3.90087 43.033L3.90401 43.0307Z" fill="black"/>
<path d="M5.61914 20.1094C5.25026 20.0821 4.8851 20.1984 4.59994 20.434C4.48477 20.5293 4.35437 20.6046 4.21422 20.6566C3.95409 20.7558 3.74175 20.9508 3.62073 21.2015C3.35652 21.7072 4.1319 23.1003 4.32162 23.4265C4.34783 23.4717 4.39363 23.5022 4.4455 23.5088C4.77399 23.5535 5.06721 23.5574 5.22322 23.4939C5.4255 23.4116 5.58386 22.8957 5.6262 22.7452C5.63319 22.7195 5.62669 22.6921 5.60895 22.6723C5.47175 22.5084 5.41138 22.2285 5.55878 22.1548C5.65521 22.107 5.72185 22.1768 5.7587 22.2379C5.77021 22.2556 5.78832 22.2678 5.80897 22.272C5.82961 22.2761 5.85105 22.2717 5.86846 22.2599C5.89615 22.2404 5.90816 22.2053 5.89825 22.1729L5.8371 21.9792C5.82886 21.9555 5.8333 21.9292 5.84886 21.9095C5.90264 21.8436 5.91838 21.7545 5.89041 21.6743C5.88089 21.6407 5.89462 21.605 5.92412 21.5864C6.09817 21.4814 6.63599 21.1505 6.83278 20.9428C7.06876 20.6966 6.40471 20.1603 5.61914 20.1094Z" fill="black"/>
<path d="M8.73633 26.303C8.75514 26.4901 8.78128 26.6764 8.81473 26.862C8.82257 26.9121 8.89861 26.891 8.89313 26.8416C8.86333 26.6628 8.83929 26.4833 8.821 26.303C8.81551 26.2536 8.73711 26.2528 8.7426 26.303H8.73633Z" fill="black"/>
<path d="M8.62219 29.4897C8.50145 29.9303 8.35485 30.3732 8.25998 30.8225C8.19177 31.1471 8.57358 31.325 8.82211 31.4395C9.16873 31.5982 9.54726 31.6749 9.92833 31.6637C10.1188 31.6567 10.2882 31.5955 10.4771 31.5634C10.757 31.5148 10.953 31.6786 11.2047 31.7586C11.8235 31.945 12.4941 31.7521 12.9193 31.2654C13.0263 31.1279 13.1483 31.0027 13.2831 30.8923C13.4477 30.7739 13.6649 30.7888 13.8225 30.6657C14.0334 30.4995 14.0577 30.2047 13.9989 29.9601C13.8867 29.5195 13.6069 29.1063 13.414 28.6955C13.193 28.2442 13.0325 27.7658 12.9365 27.2725C12.9279 27.2231 12.8527 27.2435 12.8581 27.2929C12.9804 27.9938 13.2862 28.6336 13.6006 29.2655C13.7668 29.5994 14.0592 30.0259 13.9063 30.4101C13.817 30.6351 13.639 30.6516 13.4359 30.7237C13.3274 30.7629 13.2279 30.8237 13.1435 30.9024C12.9083 31.1173 12.7445 31.3846 12.4583 31.5485C12.1657 31.7133 11.8283 31.7811 11.4948 31.7421C11.3266 31.7208 11.1629 31.6723 11.0103 31.5986C10.8668 31.532 10.7327 31.4646 10.5689 31.4748C10.3878 31.485 10.2184 31.5594 10.0381 31.5798C9.82971 31.5979 9.61982 31.586 9.41481 31.5445C9.09259 31.4834 8.2443 31.2513 8.34387 30.8131C8.44344 30.3748 8.57907 29.946 8.69745 29.514C8.70109 29.5 8.69699 29.4851 8.68668 29.4749C8.67637 29.4648 8.66143 29.4609 8.64748 29.4647C8.63353 29.4686 8.62269 29.4796 8.61905 29.4936L8.62219 29.4897Z" fill="black"/>
<path d="M13.0208 27.9259C13.0208 27.9259 11.1565 29.9831 10.015 30.1446C8.87349 30.3061 8.52539 29.9878 8.52539 29.9878L8.62888 29.4045L9.11182 29.544C9.2992 29.5997 9.77195 29.5488 10.0738 29.3614C10.3756 29.174 11.267 28.662 11.267 28.662L12.4948 27.6389C12.4948 27.6389 12.857 27.1842 12.9064 27.3818" fill="black"/>
<path d="M3.86719 37.5273C3.86719 37.5273 5.02751 41.6386 5.07847 42.9205C5.12943 44.2023 5.53005 46.3881 5.53005 46.3881C5.53005 46.3881 5.84365 43.884 5.67196 43.0224C5.53108 42.3728 5.35414 41.7315 5.14197 41.1016" fill="black"/>
<path d="M2.09104 24.8805L2.04008 24.915C2.02989 24.9229 2.04008 24.9393 2.05028 24.9323L2.10045 24.897C2.11143 24.8899 2.10045 24.8735 2.09104 24.8805Z" fill="black"/>
<path d="M2.09449 24.9599C2.23162 25.1096 2.45006 25.1527 2.6338 25.0665C2.81754 24.9803 2.92395 24.7847 2.89652 24.5836C2.89652 24.5711 2.87535 24.5711 2.87692 24.5836C2.90428 24.7766 2.80268 24.965 2.62635 25.0481C2.45001 25.1312 2.24009 25.0898 2.1086 24.9458C2.09998 24.9372 2.08586 24.9505 2.09449 24.9599Z" fill="black"/>
<path d="M2.69201 26.2532C2.7853 25.9898 3.02834 25.7938 3.2949 25.9937C3.44051 26.1139 3.51907 26.297 3.5058 26.4853C3.48071 26.7205 3.29569 26.8412 3.0746 26.8695C2.78687 26.9071 2.6826 26.704 2.65829 26.4579C2.65829 26.4453 2.63791 26.4453 2.63869 26.4579C2.66065 26.6774 2.73434 26.893 2.98993 26.8977C3.24551 26.9024 3.50109 26.7573 3.52853 26.4877C3.54296 26.2522 3.42102 26.0293 3.21493 25.9145C2.95621 25.7922 2.75473 26.0259 2.67633 26.2477C2.67241 26.2595 2.69122 26.265 2.69514 26.2532H2.69201Z" fill="black"/>
<path d="M1.74692 26.007C1.88334 26.1333 1.92291 26.333 1.84492 26.5017C1.83944 26.5127 1.85668 26.5229 1.86217 26.5112C1.94424 26.3347 1.90342 26.1255 1.76103 25.9929C1.75163 25.9843 1.7383 25.9984 1.74692 26.007Z" fill="black"/>
<path d="M4.57842 24.9382C4.36125 25.0228 4.09156 25.3623 4.15898 25.6077C4.2264 25.8531 4.58234 25.879 4.78618 25.7974C5.00178 25.7088 5.22287 25.4634 5.16799 25.2118C5.13741 25.0722 4.88026 24.7508 4.7556 24.9766C4.74933 24.9876 4.76658 24.997 4.77285 24.986C4.88653 24.928 4.97277 24.9389 5.03157 25.0197C5.10216 25.0879 5.14608 25.1791 5.15544 25.2769C5.15462 25.3691 5.12742 25.4591 5.07704 25.5364C4.98807 25.6766 4.8471 25.7759 4.68504 25.8123C4.39183 25.8774 4.0798 25.6939 4.23189 25.3505C4.30402 25.189 4.42319 25.0244 4.59096 24.9585C4.60194 24.9546 4.59723 24.935 4.58547 24.9397L4.57842 24.9382Z" fill="black"/>
<path d="M4.36418 27.3253C4.37437 27.0368 4.59311 26.8282 4.86751 26.7702C5.17483 26.7059 5.38573 26.9106 5.44296 27.1967C5.57546 27.8576 4.70992 28.0458 4.36104 27.5738C4.3532 27.5636 4.33595 27.5738 4.34379 27.584C4.51349 27.8296 4.8265 27.9314 5.10819 27.8325C5.37816 27.7477 5.53383 27.4657 5.46178 27.192C5.40768 26.9231 5.22266 26.7067 4.92944 26.7396C4.61584 26.7749 4.35634 27.0039 4.34458 27.3253C4.34458 27.3378 4.36339 27.3378 4.36418 27.3253Z" fill="black"/>
<path d="M6.56018 25.8342C6.29441 25.8625 6.08978 26.2121 6.09997 26.4614C6.11884 26.7379 6.35388 26.9493 6.63074 26.9389C6.96786 26.924 7.1325 26.6473 7.22737 26.358C7.26578 26.2404 7.30028 26.1032 7.22737 25.9903C7.14897 25.864 6.95532 25.7849 6.81655 25.7598C6.80401 25.7598 6.79852 25.777 6.81106 25.7786C6.93331 25.7998 7.04744 25.854 7.14113 25.9354C7.26343 26.0506 7.25559 26.2059 7.20698 26.354C7.12858 26.5955 7.00393 26.8456 6.73266 26.9028C6.47467 26.9668 6.21187 26.8171 6.13525 26.5626C6.06234 26.3062 6.27089 25.8821 6.55861 25.8515C6.57116 25.8515 6.57116 25.8311 6.55861 25.8319L6.56018 25.8342Z" fill="black"/>
<path d="M6.50027 24.7554C6.49355 24.9515 6.61191 25.1303 6.79506 25.2008C6.88051 25.236 7.03026 25.298 7.12747 25.2697C7.20587 25.2462 7.25526 25.1459 7.30073 25.0886C7.30857 25.0784 7.29446 25.0643 7.28662 25.0745C7.25741 25.125 7.22096 25.171 7.17843 25.2109C7.08514 25.269 6.9644 25.2376 6.86875 25.2062C6.65864 25.1372 6.51752 24.9852 6.51987 24.7554C6.51862 24.7511 6.51462 24.748 6.51007 24.748C6.50552 24.748 6.50152 24.7511 6.50027 24.7554Z" fill="black"/>
<path d="M7.007 27.8956C7.16772 27.7318 7.38959 27.8345 7.53384 27.9623C7.54325 27.9701 7.55736 27.9568 7.54796 27.9482C7.39116 27.8125 7.16066 27.713 6.99288 27.8823C6.9892 27.8862 6.98938 27.8924 6.99328 27.896C6.99717 27.8997 7.00332 27.8995 7.007 27.8956Z" fill="black"/>
<path d="M8.39335 26.3861C8.3165 26.5523 8.27895 26.7339 8.28359 26.9169C8.29535 27.0933 8.41451 27.2305 8.4545 27.3967C8.4545 27.4092 8.47567 27.4037 8.47331 27.3912C8.44274 27.2595 8.35728 27.156 8.32122 27.0251C8.2632 26.8189 8.32984 26.586 8.41059 26.3979C8.4153 26.3861 8.39805 26.3767 8.39335 26.3877V26.3861Z" fill="black"/>
<path d="M2.48266 28.2688C2.66926 28.025 2.87466 27.9387 3.16318 28.112C3.38583 28.2445 3.47677 28.4554 3.37642 28.7C3.29388 28.898 3.13027 29.051 2.92719 29.1202C2.78668 29.1566 2.63721 29.1274 2.52079 29.0407C2.40437 28.954 2.33354 28.8192 2.32822 28.6741C2.32822 28.6616 2.30783 28.6616 2.30862 28.6741C2.31738 28.9344 2.52505 29.1442 2.78529 29.1555C3.05812 29.1641 3.31998 28.9258 3.40778 28.6788C3.50657 28.3997 3.35917 28.1872 3.11535 28.0626C2.82998 27.916 2.64495 28.025 2.4662 28.2609C2.45836 28.2711 2.47561 28.2805 2.48266 28.2711V28.2688Z" fill="black"/>
<path d="M4.09542 29.406C4.15568 29.1571 4.37417 28.9787 4.63011 28.9693C4.93666 28.9693 5.14128 29.2249 5.1452 29.5181C5.15539 30.1971 4.29456 30.2559 4.06642 29.6789C4.0625 29.6671 4.0429 29.6718 4.0476 29.6836C4.2828 30.2841 5.17264 30.2167 5.1648 29.5181C5.17534 29.2425 4.97969 29.0019 4.70773 28.956C4.41059 28.9074 4.15501 29.1261 4.07661 29.4005C4.07661 29.4123 4.0915 29.4178 4.09542 29.406Z" fill="black"/>
<path d="M6.3147 28.0535C6.0795 28.28 5.88507 28.6383 6.1971 28.9033C6.47542 29.1385 6.79607 28.9668 6.9811 28.7167C6.98894 28.7065 6.97169 28.6964 6.96463 28.7065C6.77491 28.9621 6.40329 29.1393 6.1579 28.8312C5.93838 28.556 6.11399 28.2738 6.32881 28.0676C6.33822 28.059 6.32411 28.0448 6.3147 28.0535Z" fill="black"/>
<path d="M6.05866 31.2081C6.08117 30.8747 6.36114 30.6174 6.69527 30.6232C6.69965 30.622 6.70266 30.618 6.70266 30.6134C6.70266 30.6089 6.69965 30.6049 6.69527 30.6036C6.35034 30.5979 6.0616 30.8638 6.03906 31.2081C6.03906 31.2214 6.05709 31.2206 6.05866 31.2081Z" fill="black"/>
<path d="M1.85909 30.1571C2.00883 30.1155 2.16406 30.2943 2.25109 30.3923C2.36837 30.5025 2.43238 30.6579 2.4267 30.8188C2.4267 30.8313 2.44474 30.8313 2.4463 30.8188C2.45963 30.6298 2.3679 30.4762 2.23462 30.3484C2.13741 30.2511 1.99942 30.0983 1.85046 30.1398C1.84661 30.1422 1.84484 30.1469 1.84611 30.1513C1.84739 30.1557 1.8514 30.1587 1.85595 30.1586L1.85909 30.1571Z" fill="black"/>
<path d="M3.45168 30.6688C3.64689 30.2587 4.35485 30.512 4.37131 30.9189C4.37131 30.9314 4.39169 30.9314 4.39091 30.9189C4.37288 30.4916 3.63748 30.2337 3.43443 30.6594C3.42972 30.6703 3.44619 30.6805 3.45168 30.6688Z" fill="black"/>
<path d="M9.44422 23.9316C9.5251 24.0011 9.61315 24.0619 9.70686 24.1127C9.70969 24.1159 9.71424 24.1167 9.71801 24.1149C9.72179 24.113 9.72386 24.1089 9.72309 24.1047C9.72232 24.1006 9.7189 24.0975 9.7147 24.0971C9.62282 24.0465 9.53639 23.9866 9.45677 23.9183C9.44658 23.9105 9.43325 23.9246 9.44266 23.9324L9.44422 23.9316Z" fill="black"/>
<path d="M9.52185 24.1928C9.55456 24.0582 9.63438 23.9397 9.74686 23.8588C9.75705 23.851 9.74686 23.8345 9.73745 23.8416C9.6197 23.9248 9.53613 24.0479 9.50224 24.1881C9.50095 24.1933 9.50411 24.1986 9.5093 24.1999C9.5145 24.2012 9.51976 24.198 9.52106 24.1928H9.52185Z" fill="black"/>
<path d="M10.106 24.0914C10.3456 24.0428 10.5947 24.078 10.8116 24.191C11.0193 24.3157 11.0522 24.6457 10.9958 24.8629C10.9393 25.0801 10.7606 25.1765 10.6038 25.3082C10.4819 25.4118 10.3762 25.5331 10.2902 25.6681C10.1836 25.8366 10.0048 26.1518 10.1444 26.347C10.1976 26.4126 10.2757 26.4529 10.36 26.4583C10.6163 26.5022 10.8257 26.5312 10.9205 26.8143C10.9205 26.826 10.9433 26.8213 10.9393 26.8096C10.8868 26.621 10.726 26.4824 10.5317 26.4583C10.494 26.4513 10.4533 26.4505 10.4172 26.4458C10.2979 26.4336 10.1907 26.3674 10.1263 26.2663C10.0228 26.0483 10.3027 25.6587 10.4399 25.5011C10.5771 25.3435 10.7441 25.2494 10.8829 25.1091C11.0687 24.917 11.0977 24.5454 10.9652 24.3141C10.8084 24.042 10.3662 24.0303 10.0989 24.0789C10.0864 24.0789 10.0918 24.0993 10.1044 24.0977L10.106 24.0914Z" fill="black"/>
<path d="M11.4773 29.1554C11.5698 29.3741 11.5745 29.5678 11.5902 29.8014C11.5943 29.9135 11.6299 30.0222 11.6929 30.115C11.8489 30.3304 12.1341 30.4075 12.3773 30.3C12.3891 30.2953 12.3836 30.2765 12.3719 30.2812C12.2237 30.3448 12.055 30.3401 11.9107 30.2682C11.7663 30.1963 11.6609 30.0646 11.6224 29.908C11.5879 29.7645 11.6224 29.6117 11.5996 29.4666C11.5785 29.3582 11.544 29.2529 11.4969 29.153C11.4914 29.1413 11.4726 29.1468 11.4773 29.1585V29.1554Z" fill="black"/>
<path d="M12.6827 30.2716C12.6297 30.2427 12.591 30.193 12.5761 30.1344C12.5709 30.1086 12.5709 30.0819 12.5761 30.056C12.5832 30.0059 12.6396 29.9259 12.6843 29.991C12.7058 30.0419 12.7118 30.0981 12.7016 30.1525C12.698 30.2199 12.691 30.2872 12.6804 30.3539C12.6804 30.3665 12.6969 30.3712 12.6992 30.3594C12.7071 30.3061 12.7776 29.8702 12.6208 29.9439C12.562 29.9706 12.551 30.0623 12.5589 30.1164C12.5693 30.1891 12.6139 30.2523 12.6788 30.2865C12.6898 30.2928 12.7 30.2755 12.689 30.2701L12.6827 30.2716Z" fill="black"/>
<path d="M18.1542 20.7953C18.1542 20.7953 18.2397 18.6926 17.0644 18.7091C15.8892 18.7255 14.9531 20.4974 14.9531 20.4974C14.9531 20.4974 15.2087 20.9058 15.8555 21.1246L16.5548 20.5115L16.0742 21.2775C16.0742 21.2775 16.6505 21.4774 16.9625 21.4648C16.9625 21.4648 17.5113 19.9494 18.0045 20.7671" fill="black"/>
<path d="M23.819 24.3124C23.7395 24.54 23.6016 24.7428 23.4192 24.9004C23.3808 24.9333 23.4365 24.9882 23.4741 24.9553C23.6669 24.7886 23.8121 24.5738 23.8951 24.3328C23.9116 24.285 23.8355 24.2646 23.8167 24.3124H23.819Z" fill="black"/>
<path d="M23.9518 24.6232C23.9531 24.6832 23.9322 24.7416 23.893 24.787C23.86 24.8247 23.9149 24.8803 23.9486 24.8419C24.0008 24.7811 24.0287 24.7033 24.027 24.6232C24.027 24.6015 24.0095 24.584 23.9878 24.584C23.9662 24.584 23.9486 24.6015 23.9486 24.6232H23.9518Z" fill="black"/>
<path d="M24.1209 24.8488C24.1123 24.9017 24.0889 24.9512 24.0535 24.9915C24.0198 25.0283 24.0747 25.084 24.1084 25.0464C24.154 24.9969 24.1845 24.9354 24.1962 24.8692C24.2048 24.8206 24.1296 24.7986 24.1178 24.8488H24.1209Z" fill="black"/>
<path d="M23.7548 24.5499L23.9838 23.4782C23.9968 23.4178 23.9818 23.3547 23.943 23.3066C23.9041 23.2585 23.8457 23.2305 23.7838 23.2305H22.8336C22.7371 23.2304 22.6536 23.2977 22.6329 23.392L22.1257 25.7322C22.1127 25.7929 22.1277 25.8561 22.1667 25.9044C22.2057 25.9526 22.2644 25.9807 22.3264 25.9807H22.934" stroke="black"/>
<path d="M22.9794 25.9821C23.0855 25.9452 23.2006 25.943 23.3079 25.9758C23.3526 25.9907 23.46 26.0291 23.4804 26.0707C23.4851 26.12 23.4851 26.1696 23.4804 26.2189C23.4799 26.2235 23.4829 26.2279 23.4874 26.2291C23.4919 26.2302 23.4967 26.2279 23.4985 26.2236C23.562 26.1122 23.6161 26.0809 23.7337 26.1789C23.7438 26.1867 23.758 26.1726 23.7478 26.1648C23.7101 26.1342 23.6129 26.0581 23.5612 26.0793C23.5416 26.0864 23.5353 26.1209 23.5235 26.1342C23.4593 26.2126 23.5235 26.1146 23.5071 26.0762C23.4812 26.0213 23.3848 25.9829 23.3322 25.9641C23.2155 25.9234 23.0884 25.9234 22.9716 25.9641C22.9598 25.9641 22.9645 25.9868 22.9771 25.9829L22.9794 25.9821Z" fill="black"/>
<path d="M15.9083 24.9461C15.9744 24.6573 16.1119 24.3896 16.3081 24.1676C16.316 24.1582 16.3018 24.1441 16.294 24.1535C16.0964 24.3774 15.9571 24.6468 15.8887 24.9375C15.8887 24.9493 15.9051 24.9547 15.9083 24.9422V24.9461Z" fill="black"/>
<path d="M16.853 24.212C16.2525 25.0478 16.2925 26.1022 16.247 27.0822C16.2007 28.1976 15.9038 29.2882 15.3783 30.2731C15.372 30.2841 15.3893 30.2943 15.3948 30.2833C15.8773 29.3885 16.1681 28.403 16.2485 27.3896C16.3309 26.3178 16.2062 25.1481 16.8695 24.2254C16.8773 24.2152 16.8601 24.205 16.853 24.2152V24.212Z" fill="black"/>
<path d="M17.5486 24.1629C16.8861 24.9892 17.1048 26.0899 17.1025 27.0637C17.0974 28.2047 16.8491 29.3315 16.3742 30.369C16.3687 30.3808 16.3851 30.391 16.3906 30.3792C16.8171 29.4477 17.0624 28.4436 17.1135 27.4204C17.1644 26.3502 16.8312 25.088 17.5627 24.1754C17.5705 24.166 17.5564 24.1519 17.5486 24.1613V24.1629Z" fill="black"/>
<path d="M18.3263 24.264C17.9249 25.2542 18.1021 26.3322 18.0911 27.3702C18.0779 28.513 17.8799 29.6462 17.5047 30.7257C17.5 30.7375 17.5188 30.743 17.5235 30.7312C17.8831 29.6963 18.0804 28.6121 18.1083 27.5168C18.1342 26.4349 17.9249 25.3036 18.3435 24.2695C18.3482 24.2577 18.3294 24.253 18.3247 24.264H18.3263Z" fill="black"/>
<path d="M19.3963 24.2943C18.9259 25.2422 19.1125 26.3202 19.1454 27.3347C19.1837 28.5732 19.0633 29.8115 18.7871 31.0195C18.7871 31.032 18.8036 31.0367 18.8059 31.025C19.0654 29.8899 19.1878 28.7278 19.1705 27.5636C19.1532 26.484 18.9149 25.3159 19.4135 24.3061C19.419 24.2943 19.4018 24.2849 19.3963 24.2959V24.2943Z" fill="black"/>
<path d="M20.3452 24.3722C19.6302 25.2393 19.7894 26.4106 19.9579 27.4353C19.9579 27.4479 19.9791 27.4424 19.9767 27.4298C19.8097 26.4106 19.649 25.2472 20.3593 24.3864C20.3672 24.3769 20.3531 24.3628 20.3452 24.3722Z" fill="black"/>
<path d="M20.0119 27.506C20.0162 27.5048 20.0192 27.5008 20.0192 27.4962C20.0192 27.4917 20.0162 27.4877 20.0119 27.4864C20.0075 27.4877 20.0045 27.4917 20.0045 27.4962C20.0045 27.5008 20.0075 27.5048 20.0119 27.506Z" fill="black"/>
<path d="M20.805 24.6029C20.4914 25.205 20.5039 25.9945 20.5815 26.6523C20.6694 27.3924 20.8951 28.1074 21.1633 28.7989C21.295 29.1344 21.4377 29.4645 21.5819 29.7945C21.6494 29.9466 21.7301 30.2406 21.9551 30.192C22.1801 30.1434 22.355 29.7945 22.453 29.6064C22.6028 29.3049 22.7337 28.9943 22.845 28.6766C23.1393 27.8737 23.3612 27.0462 23.5082 26.2038C23.5082 26.1921 23.491 26.1866 23.4886 26.1991C23.3797 26.8246 23.2296 27.4421 23.0394 28.0478C22.8528 28.6374 22.6544 29.2693 22.3244 29.7961C22.2792 29.8701 22.2289 29.9409 22.1738 30.0078C22.1565 30.0314 22.1365 30.053 22.1143 30.0721C22.086 30.0932 21.8124 30.1426 21.7756 30.1199C21.6744 30.058 21.6149 29.8173 21.571 29.7161C21.4322 29.4025 21.2958 29.0819 21.1703 28.7597C20.9283 28.1626 20.7501 27.5416 20.6388 26.9071C20.5227 26.1819 20.4726 25.2834 20.8238 24.6123C20.8293 24.6013 20.8128 24.5911 20.8066 24.6029H20.805Z" fill="black"/>
<path d="M16.2379 39.9241C17.0865 39.9868 17.9397 39.9194 18.7679 39.7242C18.7797 39.7242 18.7749 39.7022 18.7624 39.7054C17.936 39.9003 17.0846 39.9675 16.2379 39.9045C16.2254 39.9045 16.2254 39.9233 16.2379 39.9241Z" fill="black"/>
<path d="M17.0288 39.1552C17.2649 39.2179 17.5134 39.2163 17.7485 39.1505C17.7611 39.1505 17.7556 39.1278 17.7438 39.1317C17.5118 39.1967 17.2665 39.1984 17.0335 39.1364C17.0283 39.1351 17.0231 39.1382 17.0218 39.1434C17.0205 39.1486 17.0236 39.1539 17.0288 39.1552Z" fill="black"/>
<path d="M17.0836 38.6798L17.5987 38.6116C17.6113 38.6116 17.6113 38.5896 17.5987 38.592L17.0836 38.6602C17.0711 38.6602 17.0711 38.6813 17.0836 38.6798Z" fill="black"/>
<path d="M22.7246 34.5645H29.3996C30.33 34.5645 31.0847 35.318 31.086 36.2485V36.5299C31.0855 37.461 30.3306 38.2155 29.3996 38.2155C28.4688 38.216 27.7144 38.9704 27.714 39.9011V40.2688C27.7144 41.1996 28.4688 41.954 29.3996 41.9544H40.2298C41.1605 41.9549 41.9149 42.7093 41.9154 43.64V44.6984C41.9154 45.6295 42.6699 46.3844 43.601 46.3848H59.0763" stroke="black"/>
<path d="M21.6875 34.5646H59.0757" stroke="black"/>
<rect x="45.5684" y="15.1855" width="1.99136" height="0.511169" rx="0.255585" stroke="black"/>
<rect x="45.5664" y="15.1855" width="1.99136" height="0.511169" rx="0.255585" fill="black"/>
<path d="M46.442 12.4677L45.5161 13.8162C45.4852 13.861 45.4817 13.9193 45.5071 13.9675C45.5324 14.0157 45.5824 14.0459 45.6368 14.0459H47.4894C47.5438 14.0459 47.5938 14.0157 47.6191 13.9675C47.6445 13.9193 47.641 13.861 47.6101 13.8162L46.6842 12.4677C46.6567 12.428 46.6114 12.4043 46.5631 12.4043C46.5148 12.4043 46.4695 12.428 46.442 12.4677Z" fill="black"/>
<ellipse cx="6.6872" cy="11.3395" rx="5.70674" ry="5.70674" fill="#BFC2C8"/>
<circle cx="6.68826" cy="11.3387" r="5.11795" fill="#EDEDED"/>
<ellipse cx="6.6872" cy="11.3395" rx="5.70674" ry="5.70674" stroke="black"/>
<path d="M7.6824 11.7261L9.36565 8.87545C9.40088 8.81403 9.39058 8.73662 9.34051 8.68655C9.29044 8.63649 9.21303 8.62619 9.15161 8.66142L6.30099 10.3455C6.05089 10.4928 5.84235 10.7014 5.69496 10.9515L4.01171 13.8013C3.97574 13.8628 3.9857 13.9408 4.03596 13.9912C4.08622 14.0416 4.16416 14.0519 4.22574 14.0161L7.07558 12.336C7.32613 12.1872 7.5349 11.9774 7.6824 11.7261Z" fill="black"/>
<ellipse cx="6.68758" cy="11.3399" rx="0.357503" ry="0.357504" fill="#BFC2C8"/>
<path d="M27.0508 13.6523L28.8386 11.8645L30.6265 13.6523L28.8386 15.4402L27.0508 13.6523Z" fill="#E74F4F"/>
<path d="M17.3837 13.5117H15.7271L14.8984 14.9464L15.7271 16.3812H17.3837L18.2124 14.9464L17.3837 13.5117Z" fill="#2D978C"/>
<path d="M40.4274 10.0074L43.8456 12.7295C43.855 12.7373 43.8691 12.724 43.8589 12.7161L40.4407 9.99644C40.4313 9.9886 40.4172 10.0027 40.4274 10.0105V10.0074Z" fill="black"/>
<path d="M44.1814 11.5359L44.6416 12.225C44.6486 12.236 44.6651 12.225 44.6588 12.2156L44.1986 11.5257C44.1915 11.5155 44.1743 11.5257 44.1814 11.5359Z" fill="black"/>
<path d="M42.3652 18.1493L43.8776 17.0517C43.8877 17.0446 43.8776 17.0274 43.8681 17.0352L42.3558 18.1328C42.3456 18.1399 42.3558 18.1571 42.3652 18.1493Z" fill="black"/>
<path d="M44.3449 18.3578L44.8028 17.8199C44.8106 17.8105 44.7965 17.7964 44.7887 17.8058L44.3308 18.3437C44.3222 18.3539 44.3363 18.3672 44.3449 18.3578Z" fill="black"/>
<path d="M42.5344 19.3815L42.8409 19.075C42.8446 19.0711 42.8444 19.0649 42.8405 19.0612C42.8366 19.0576 42.8305 19.0577 42.8268 19.0616L42.5203 19.3682C42.5116 19.3768 42.5258 19.3909 42.5344 19.3815Z" fill="black"/>
<path d="M45.3262 11.5582C45.3291 11.7023 45.3648 11.8438 45.4304 11.9721C45.4359 11.9831 45.4532 11.9721 45.4469 11.9619C45.383 11.8368 45.3484 11.6987 45.3458 11.5582C45.3445 11.5538 45.3405 11.5508 45.336 11.5508C45.3314 11.5508 45.3274 11.5538 45.3262 11.5582H45.3262Z" fill="black"/>
</svg>
