<svg width="286" height="286" viewBox="0 0 286 286" fill="none" xmlns="http://www.w3.org/2000/svg">
<path d="M133.71 108.333C136.536 111.7 139.644 114.82 143 117.659C146.356 114.82 149.463 111.7 152.29 108.333C149.135 90.5372 152.372 72.1988 161.429 56.558C163.665 52.6882 166.231 49.0184 169.097 45.5895C165.979 27.8691 156.744 11.8038 143 0.191406C129.254 11.8065 120.018 27.8759 116.902 45.6003C119.769 49.0257 122.334 52.6919 124.571 56.558C133.627 72.1988 136.864 90.5372 133.71 108.333V108.333Z" fill="#EDEDED"/>
<path d="M152.29 177.667C149.463 174.3 146.356 171.18 143 168.341C139.644 171.18 136.536 174.3 133.71 177.667C136.864 195.463 133.627 213.801 124.571 229.442C122.335 233.312 119.769 236.982 116.902 240.41C120.021 258.131 129.256 274.196 143 285.809C156.746 274.193 165.981 258.124 169.097 240.4C166.231 236.974 163.666 233.308 161.429 229.442C152.372 213.801 149.135 195.463 152.29 177.667V177.667Z" fill="#EDEDED"/>
<path d="M117.623 117.623C121.756 119.13 126.01 120.282 130.338 121.067C131.823 116.926 132.951 112.666 133.71 108.334C122.082 94.501 115.717 77.0035 115.74 58.9326C115.74 54.4635 116.126 50.0028 116.895 45.6005C105.337 31.8103 89.3065 22.5125 71.5973 19.3271C65.499 36.2564 65.5345 54.7887 71.6977 71.6944C93.0194 79.4846 109.819 96.2838 117.609 117.605L117.623 117.623Z" fill="#EDEDED"/>
<path d="M133.71 108.334C136.864 90.5375 133.627 72.1991 124.571 56.5583C122.335 52.6885 119.769 49.0187 116.902 45.5898C116.13 49.9956 115.742 54.4599 115.74 58.9327C115.717 77.0036 122.082 94.5012 133.71 108.334V108.334Z" fill="#EDEDED"/>
<path d="M168.376 168.377C164.243 166.87 159.99 165.719 155.661 164.934C154.177 169.074 153.049 173.334 152.29 177.667C163.918 191.499 170.283 208.997 170.259 227.068C170.26 231.537 169.873 235.997 169.104 240.4C180.663 254.19 196.693 263.488 214.402 266.673C220.5 249.744 220.465 231.212 214.302 214.306C192.98 206.516 176.181 189.717 168.391 168.395L168.376 168.377Z" fill="#EDEDED"/>
<path d="M152.29 177.666C149.135 195.462 152.372 213.801 161.429 229.441C163.665 233.311 166.231 236.981 169.097 240.41C169.869 236.004 170.258 231.54 170.259 227.067C170.283 208.996 163.918 191.499 152.29 177.666V177.666Z" fill="#EDEDED"/>
<path d="M108.333 133.71C112.666 132.95 116.926 131.822 121.066 130.338C120.281 126.01 119.129 121.756 117.623 117.623C96.3014 109.833 79.5021 93.0335 71.712 71.7119C54.8063 65.5487 36.2739 65.5132 19.3447 71.6114C22.5285 89.3232 31.8265 105.356 45.618 116.916C50.0139 116.141 54.4686 115.748 58.9322 115.74C77.0031 115.717 94.5007 122.081 108.333 133.71V133.71Z" fill="#EDEDED"/>
<path d="M117.623 117.623C109.833 96.3013 93.0341 79.502 71.7124 71.7119C79.5025 93.0336 96.3018 109.833 117.623 117.623V117.623Z" fill="#EDEDED"/>
<path d="M177.666 152.29C173.334 153.049 169.074 154.177 164.933 155.662C165.718 159.99 166.87 164.244 168.376 168.377C189.698 176.167 206.497 192.966 214.287 214.288C231.193 220.451 249.726 220.487 266.655 214.388C263.471 196.677 254.173 180.644 240.381 169.083C235.986 169.859 231.531 170.252 227.067 170.26C208.996 170.283 191.499 163.918 177.666 152.29V152.29Z" fill="#EDEDED"/>
<path d="M168.376 168.377C176.167 189.699 192.966 206.498 214.287 214.288C206.497 192.966 189.698 176.167 168.376 168.377V168.377Z" fill="#EDEDED"/>
<path d="M108.333 152.29C111.7 149.463 114.82 146.356 117.659 143C114.82 139.644 111.7 136.536 108.333 133.71C90.5372 136.864 72.1988 133.627 56.558 124.571C52.6882 122.335 49.0184 119.769 45.5895 116.902C27.8691 120.021 11.8038 129.256 0.191406 143C11.8065 156.746 27.8759 165.981 45.6003 169.097C49.0257 166.231 52.6919 163.665 56.558 161.429C72.1988 152.372 90.5372 149.135 108.333 152.29V152.29Z" fill="#EDEDED"/>
<path d="M108.333 133.71C94.5007 122.082 77.0031 115.717 58.9322 115.74C54.4632 115.74 50.0025 116.126 45.6001 116.895C49.0253 119.764 52.6914 122.332 56.5578 124.571C72.1986 133.627 90.537 136.864 108.333 133.71V133.71Z" fill="#EDEDED"/>
<path d="M285.808 143C274.193 129.254 258.124 120.018 240.4 116.902C236.974 119.769 233.308 122.334 229.442 124.571C213.801 133.627 195.463 136.864 177.666 133.71C174.3 136.536 171.18 139.644 168.341 143C171.18 146.356 174.3 149.463 177.666 152.29C195.463 149.135 213.801 152.372 229.442 161.429C233.312 163.665 236.981 166.231 240.41 169.097C258.131 165.979 274.196 156.744 285.808 143V143Z" fill="#EDEDED"/>
<path d="M177.667 152.29C191.499 163.918 208.997 170.283 227.067 170.259C231.537 170.26 235.997 169.873 240.4 169.104C236.974 166.236 233.308 163.668 229.442 161.429C213.801 152.372 195.463 149.135 177.667 152.29V152.29Z" fill="#EDEDED"/>
<path d="M117.623 168.377C119.13 164.244 120.282 159.99 121.067 155.662C116.926 154.177 112.666 153.049 108.334 152.29C94.501 163.918 77.0035 170.283 58.9326 170.26C54.4635 170.26 50.0029 169.874 45.6005 169.105C31.8103 180.663 22.5125 196.693 19.3271 214.403C36.2564 220.501 54.7887 220.465 71.6944 214.302C79.4846 192.981 96.2838 176.181 117.605 168.391L117.623 168.377Z" fill="#EDEDED"/>
<path d="M108.333 152.29C90.537 149.135 72.1986 152.372 56.5578 161.429C52.688 163.665 49.0182 166.231 45.5894 169.097C49.9951 169.869 54.4594 170.258 58.9323 170.259C77.0031 170.283 94.5007 163.918 108.333 152.29V152.29Z" fill="#EDEDED"/>
<path d="M168.376 117.624C166.87 121.757 165.718 126.01 164.933 130.339C169.074 131.823 173.334 132.951 177.666 133.71C191.499 122.082 208.996 115.717 227.067 115.741C231.536 115.74 235.997 116.126 240.399 116.895C254.19 105.337 263.487 89.3069 266.673 71.5978C249.743 65.4995 231.211 65.535 214.305 71.6982C206.515 93.0199 189.716 109.819 168.394 117.609L168.376 117.624Z" fill="#EDEDED"/>
<path d="M177.667 133.71C195.463 136.864 213.801 133.627 229.442 124.571C233.312 122.335 236.982 119.769 240.41 116.902C236.005 116.13 231.54 115.742 227.068 115.74C208.997 115.717 191.499 122.082 177.667 133.71H177.667Z" fill="#EDEDED"/>
<path d="M133.71 177.667C132.951 173.334 131.823 169.074 130.339 164.934C126.01 165.719 121.756 166.87 117.623 168.377C109.833 189.699 93.034 206.498 71.7124 214.288C65.5492 231.194 65.5137 249.726 71.6119 266.655C89.3237 263.471 105.357 254.174 116.917 240.382C116.142 235.986 115.748 231.531 115.74 227.068C115.717 208.997 122.082 191.499 133.71 177.667V177.667Z" fill="#EDEDED"/>
<path d="M133.71 177.666C122.082 191.499 115.717 208.996 115.74 227.067C115.74 231.536 116.126 235.997 116.895 240.399C119.764 236.974 122.332 233.308 124.571 229.441C133.627 213.801 136.864 195.462 133.71 177.666V177.666Z" fill="#EDEDED"/>
<path d="M117.623 168.377C96.3018 176.167 79.5025 192.966 71.7124 214.288C93.0341 206.498 109.833 189.699 117.623 168.377V168.377Z" fill="#EDEDED"/>
<path d="M152.29 108.333C153.049 112.666 154.177 116.926 155.661 121.066C159.99 120.281 164.243 119.129 168.376 117.623C176.166 96.3014 192.966 79.5021 214.287 71.712C220.451 54.8063 220.486 36.2739 214.388 19.3447C196.676 22.5285 180.643 31.8265 169.083 45.618C169.858 50.0139 170.252 54.4686 170.259 58.9322C170.283 77.0031 163.918 94.5007 152.29 108.333H152.29Z" fill="#EDEDED"/>
<path d="M152.29 108.334C163.918 94.5012 170.283 77.0036 170.259 58.9327C170.26 54.4637 169.873 50.003 169.104 45.6006C166.236 49.0258 163.668 52.6919 161.429 56.5583C152.372 72.1991 149.135 90.5375 152.29 108.334V108.334Z" fill="#EDEDED"/>
<path d="M168.376 117.623C189.698 109.833 206.497 93.0336 214.287 71.7119C192.966 79.502 176.167 96.3013 168.376 117.623H168.376Z" fill="#EDEDED"/>
<path d="M66.0913 172.194L75.8001 181.903L66.0913 191.612L56.3825 181.903L66.0913 172.194Z" fill="#2D978C"/>
<ellipse cx="79.7395" cy="154.281" rx="11.2805" ry="11.2805" fill="#E74F4F"/>
<path d="M99.4811 138.864L104.693 144.503C104.8 144.619 104.962 144.669 105.116 144.634C105.27 144.599 105.395 144.485 105.442 144.334L107.72 136.999C107.768 136.848 107.731 136.683 107.624 136.567C107.516 136.45 107.354 136.4 107.2 136.436L99.7071 138.129C99.5527 138.165 99.429 138.28 99.3824 138.432C99.3359 138.583 99.3735 138.748 99.4811 138.864V138.864Z" fill="#A77C18"/>
<path d="M86.3677 133.789L92.415 127.742L90.1984 119.481L81.938 117.265L75.8906 123.316L78.1037 131.576L86.3677 133.789Z" fill="#2A7FFF"/>
<path d="M229.614 181.904L219.906 191.613L210.197 181.904L219.906 172.196L229.614 181.904Z" fill="#2D978C"/>
<ellipse cx="206.26" cy="154.281" rx="11.2805" ry="11.2805" fill="#E74F4F"/>
<path d="M186.518 138.864L181.307 144.503C181.199 144.619 181.038 144.669 180.883 144.634C180.729 144.599 180.605 144.485 180.557 144.334L178.279 136.999C178.232 136.848 178.268 136.683 178.376 136.567C178.483 136.45 178.645 136.4 178.8 136.436L186.292 138.129C186.447 138.165 186.57 138.28 186.617 138.432C186.664 138.583 186.626 138.748 186.518 138.864V138.864Z" fill="#A77C18"/>
<path d="M199.632 133.789L193.584 127.742L195.801 119.481L204.062 117.265L210.109 123.316L207.896 131.576L199.632 133.789Z" fill="#2A7FFF"/>
<path d="M130.285 116.834C130.396 116.75 130.55 116.75 130.661 116.834C130.777 116.931 130.868 117.054 130.927 117.193C131.077 117.482 131.171 117.797 131.203 118.122C131.203 118.179 131.3 118.179 131.292 118.122C131.252 117.741 131.13 117.374 130.934 117.046C130.863 116.907 130.75 116.794 130.611 116.723C130.48 116.654 130.321 116.673 130.209 116.769C130.191 116.786 130.191 116.814 130.207 116.832C130.224 116.85 130.252 116.851 130.27 116.834H130.285Z" fill="black"/>
<path d="M130.722 117.4V117.4L130.758 117.383C130.791 117.374 130.826 117.374 130.858 117.383C130.937 117.412 131.002 117.471 131.038 117.548C131.051 117.568 131.078 117.575 131.099 117.562C131.12 117.549 131.126 117.522 131.113 117.501C131.064 117.4 130.974 117.324 130.866 117.293C130.764 117.268 130.659 117.315 130.611 117.408C130.606 117.432 130.62 117.457 130.643 117.465C130.668 117.47 130.692 117.456 130.701 117.433L130.722 117.4Z" fill="black"/>
<path d="M155.912 116.769C155.803 116.675 155.647 116.655 155.518 116.719C155.375 116.788 155.259 116.903 155.188 117.046C154.992 117.374 154.87 117.741 154.829 118.122C154.829 118.179 154.915 118.179 154.919 118.122C154.951 117.797 155.044 117.482 155.195 117.193C155.252 117.061 155.339 116.944 155.45 116.852C155.559 116.757 155.719 116.749 155.837 116.834C155.855 116.851 155.883 116.85 155.9 116.832C155.917 116.814 155.916 116.786 155.898 116.769H155.912Z" fill="black"/>
<path d="M155.514 117.375C155.466 117.283 155.361 117.236 155.26 117.261C155.151 117.292 155.061 117.367 155.012 117.469C154.999 117.489 155.006 117.517 155.026 117.53C155.047 117.543 155.074 117.536 155.087 117.515C155.123 117.439 155.188 117.38 155.267 117.35C155.298 117.341 155.332 117.341 155.364 117.35L155.403 117.368C155.412 117.376 155.42 117.386 155.425 117.397C155.433 117.421 155.457 117.434 155.482 117.429C155.505 117.421 155.519 117.396 155.514 117.372V117.375Z" fill="black"/>
<path d="M142.82 116.888C142.899 118.366 142.948 119.845 142.967 121.325C142.967 121.424 143.048 121.504 143.147 121.504C143.246 121.504 143.326 121.424 143.326 121.325C143.309 119.845 143.26 118.366 143.179 116.888C143.179 116.658 142.82 116.658 142.82 116.888Z" fill="black"/>
<path d="M140.873 123.151C141.704 123.567 142.626 123.771 143.556 123.743C143.785 123.743 143.785 123.384 143.556 123.384C142.687 123.416 141.824 123.23 141.045 122.842C140.837 122.738 140.658 123.047 140.862 123.151H140.873Z" fill="black"/>
<path d="M132.577 106.831C132.218 109.851 131.834 112.868 131.612 115.895L131.945 115.805C131.608 115.185 131.013 114.514 130.299 114.338C129.585 114.162 129.062 114.715 128.803 115.31C128.236 116.74 128.525 118.367 129.549 119.514C130.103 120.123 130.824 120.555 131.622 120.755L131.49 120.583C131.539 121.908 131.694 123.227 131.952 124.528C132.137 125.457 132.45 126.355 132.881 127.197C133.982 129.232 135.712 130.857 137.813 131.827C139.219 132.549 140.749 132.997 142.322 133.147C144.007 133.225 145.688 132.917 147.236 132.247C149.47 131.347 151.49 129.898 152.767 127.821C153.907 125.963 154.248 123.822 154.442 121.68C154.474 121.322 154.496 120.963 154.51 120.604L154.377 120.776C155.478 120.51 156.418 119.795 156.969 118.806C157.521 117.816 157.634 116.642 157.282 115.565C157.092 114.991 156.673 114.352 156.006 114.327C155.583 114.353 155.182 114.527 154.876 114.819C154.538 115.097 154.259 115.44 154.054 115.827L154.388 115.916C154.166 112.889 153.771 109.873 153.423 106.852C153.394 106.626 153.036 106.623 153.064 106.852C153.423 109.873 153.807 112.889 154.029 115.916C154.031 115.997 154.086 116.066 154.163 116.088C154.241 116.109 154.323 116.077 154.366 116.01C154.657 115.464 155.202 114.808 155.848 114.697C156.493 114.586 156.838 115.299 156.981 115.798C157.346 117.075 157.003 118.45 156.081 119.406C155.587 119.904 154.967 120.259 154.287 120.432C154.209 120.452 154.156 120.524 154.158 120.604C154.111 121.887 153.962 123.165 153.714 124.424C153.54 125.314 153.245 126.175 152.838 126.985C151.785 128.957 150.123 130.536 148.1 131.487C146.713 132.209 145.199 132.656 143.642 132.803C142.767 132.864 141.887 132.799 141.031 132.609C140.297 132.433 139.577 132.2 138.879 131.913C136.726 131.042 134.761 129.621 133.538 127.609C132.444 125.816 132.103 123.728 131.931 121.662C131.899 121.304 131.881 120.945 131.866 120.604C131.866 120.525 131.814 120.454 131.737 120.432C129.78 119.963 128.554 118.017 128.975 116.049C129.079 115.55 129.334 114.815 129.912 114.697C130.295 114.621 130.697 114.905 130.988 115.142C131.267 115.386 131.498 115.68 131.669 116.01C131.712 116.077 131.795 116.109 131.872 116.088C131.95 116.066 132.004 115.997 132.006 115.916C132.229 112.889 132.623 109.873 132.971 106.852C133 106.626 132.641 106.626 132.612 106.852L132.577 106.831Z" fill="black"/>
<path d="M136.601 114.14C137.028 113.984 137.48 113.907 137.935 113.911C138.398 113.861 138.865 113.877 139.323 113.957C139.549 114.004 139.646 113.66 139.42 113.599C138.918 113.511 138.407 113.492 137.899 113.541C137.394 113.543 136.893 113.638 136.422 113.821C136.214 113.918 136.393 114.23 136.601 114.129V114.14Z" fill="black"/>
<path d="M136.691 117.892C137.301 118.248 138.031 118.338 138.71 118.139C138.809 118.114 138.868 118.012 138.843 117.913C138.817 117.814 138.716 117.755 138.617 117.781C138.031 117.956 137.398 117.881 136.87 117.573C136.786 117.535 136.687 117.566 136.641 117.646C136.595 117.725 136.616 117.827 136.691 117.881V117.892Z" fill="black"/>
<path d="M136.418 118.269C136.601 118.147 136.76 117.993 136.888 117.814C136.937 117.727 136.908 117.617 136.823 117.566C136.778 117.548 136.728 117.548 136.683 117.566C136.639 117.581 136.601 117.61 136.576 117.649L136.536 117.706L136.565 117.666C136.488 117.768 136.398 117.859 136.296 117.936L136.332 117.91L136.239 117.975C136.198 117.999 136.168 118.037 136.156 118.083C136.142 118.13 136.149 118.18 136.174 118.222C136.198 118.262 136.237 118.292 136.282 118.305C136.328 118.317 136.376 118.31 136.418 118.287V118.269Z" fill="black"/>
<path d="M136.974 118.584C137.143 118.479 137.278 118.327 137.361 118.147C137.372 118.125 137.38 118.102 137.383 118.078C137.388 118.055 137.388 118.03 137.383 118.007C137.37 117.962 137.34 117.923 137.3 117.899C137.255 117.881 137.205 117.881 137.16 117.899C137.116 117.914 137.078 117.943 137.053 117.982C137.027 118.046 136.992 118.107 136.949 118.161L136.978 118.125C136.934 118.18 136.883 118.23 136.827 118.272L136.863 118.243L136.795 118.294C136.756 118.317 136.728 118.354 136.716 118.398C136.696 118.442 136.696 118.493 136.716 118.538C136.738 118.578 136.775 118.608 136.82 118.62C136.867 118.632 136.917 118.626 136.96 118.602L136.974 118.584Z" fill="black"/>
<path d="M137.727 118.786C137.886 118.62 137.993 118.412 138.036 118.187C138.046 118.139 138.04 118.09 138.018 118.047C137.993 118.007 137.955 117.977 137.91 117.964C137.864 117.952 137.815 117.958 137.774 117.982C137.732 118.004 137.702 118.044 137.691 118.09C137.677 118.166 137.655 118.24 137.627 118.312L137.645 118.269C137.61 118.348 137.565 118.423 137.512 118.491L137.541 118.456C137.52 118.483 137.497 118.51 137.473 118.534C137.412 118.606 137.417 118.712 137.484 118.778C137.55 118.844 137.656 118.847 137.727 118.786V118.786Z" fill="black"/>
<path d="M149.725 113.832C149.254 113.649 148.753 113.554 148.248 113.552C147.74 113.503 147.229 113.522 146.727 113.609C146.501 113.659 146.598 114.004 146.824 113.968C147.282 113.89 147.749 113.874 148.212 113.921C148.667 113.917 149.119 113.995 149.546 114.151C149.754 114.251 149.933 113.939 149.725 113.842V113.832Z" fill="black"/>
<path d="M149.277 117.58C148.748 117.888 148.116 117.964 147.53 117.788C147.431 117.762 147.33 117.821 147.304 117.92C147.278 118.02 147.338 118.121 147.437 118.146C148.116 118.343 148.846 118.251 149.456 117.892C149.53 117.838 149.552 117.736 149.506 117.657C149.459 117.577 149.36 117.545 149.277 117.583V117.58Z" fill="black"/>
<path d="M149.908 117.957L149.815 117.892L149.851 117.917C149.749 117.841 149.658 117.75 149.582 117.648L149.61 117.688L149.571 117.63C149.545 117.591 149.507 117.562 149.463 117.548C149.417 117.535 149.368 117.541 149.326 117.564C149.284 117.588 149.253 117.627 149.241 117.673C149.229 117.721 149.235 117.771 149.259 117.813C149.386 117.993 149.545 118.147 149.729 118.269C149.77 118.293 149.819 118.299 149.865 118.287C149.91 118.273 149.948 118.244 149.973 118.204C150.02 118.118 149.992 118.009 149.908 117.957V117.957Z" fill="black"/>
<path d="M149.356 118.276L149.288 118.225L149.324 118.254C149.267 118.212 149.217 118.162 149.173 118.107L149.202 118.143C149.158 118.089 149.123 118.028 149.098 117.964C149.072 117.925 149.034 117.895 148.99 117.881C148.945 117.865 148.895 117.865 148.85 117.881C148.81 117.905 148.781 117.944 148.768 117.989V118.039C148.769 118.07 148.777 118.101 148.793 118.129C148.876 118.309 149.011 118.461 149.18 118.566C149.223 118.59 149.273 118.596 149.32 118.584C149.364 118.572 149.402 118.542 149.424 118.502C149.472 118.417 149.445 118.31 149.363 118.258L149.356 118.276Z" fill="black"/>
<path d="M148.674 118.534C148.65 118.51 148.627 118.483 148.606 118.456L148.635 118.491C148.582 118.423 148.537 118.348 148.502 118.269V118.312C148.473 118.24 148.452 118.166 148.437 118.09C148.425 118.044 148.395 118.006 148.355 117.982C148.314 117.958 148.265 117.952 148.219 117.964C148.174 117.977 148.136 118.007 148.111 118.047C148.095 118.092 148.095 118.141 148.111 118.187C148.153 118.412 148.26 118.62 148.419 118.786C148.453 118.819 148.499 118.839 148.547 118.839C148.595 118.839 148.64 118.819 148.674 118.786C148.741 118.715 148.741 118.605 148.674 118.534V118.534Z" fill="black"/>
<path d="M131.978 115.74L132.458 112.239C132.468 112.07 132.516 111.906 132.598 111.759C132.771 111.548 133.008 111.401 133.272 111.339C136.408 110.159 138.854 107.642 139.944 104.474C141.404 105.955 143.093 107.268 145.055 107.967C147.017 108.667 149.277 108.685 151.11 107.709C151.071 108.784 151.841 109.718 152.903 109.886C153.076 109.887 153.246 109.927 153.402 110.001C153.572 110.139 153.681 110.339 153.706 110.557C154.09 112.203 153.753 113.997 154.402 115.557C154.298 115.04 155.051 114.84 155.338 114.384C155.434 114.212 155.495 114.023 155.518 113.828C155.876 111.841 156.185 109.822 156.045 107.806C155.905 105.79 155.288 103.756 153.986 102.211C152.738 100.729 150.973 99.8038 149.23 98.9573C147.881 98.3009 146.44 97.6589 144.947 97.7844C143.359 97.9171 141.967 98.9071 140.826 100.023C139.943 99.248 138.726 98.9775 137.598 99.3052C136.5 99.639 135.51 100.258 134.729 101.099C132.677 103.139 131.44 105.851 130.478 108.581C130.28 109.088 130.159 109.623 130.12 110.166C130.123 110.726 130.208 111.283 130.371 111.82L130.841 113.678C130.904 114 131.026 114.309 131.199 114.589C131.44 114.947 131.859 115.223 131.895 115.665" fill="black"/>
<path d="M132.15 115.776C132.311 114.6 132.462 113.42 132.638 112.243C132.644 111.994 132.78 111.765 132.996 111.641C133.229 111.531 133.469 111.436 133.714 111.357C134.119 111.189 134.516 110.999 134.901 110.787C136.449 109.917 137.775 108.702 138.778 107.236C139.354 106.394 139.812 105.477 140.138 104.51L139.84 104.589C142.139 106.917 145.152 108.893 148.563 108.617C149.493 108.544 150.398 108.285 151.224 107.853L150.952 107.699C150.925 108.775 151.642 109.729 152.684 110.001C152.985 110.073 153.337 110.001 153.48 110.36C153.591 110.685 153.658 111.022 153.681 111.364C153.757 112.039 153.764 112.717 153.81 113.395C153.838 114.145 153.984 114.886 154.244 115.59C154.27 115.689 154.371 115.748 154.47 115.722C154.569 115.697 154.629 115.595 154.603 115.496C154.556 115.184 155.03 114.948 155.224 114.779C155.534 114.496 155.722 114.104 155.751 113.685C155.948 112.609 156.11 111.515 156.217 110.418C156.393 108.387 156.271 106.289 155.5 104.381C155.153 103.494 154.658 102.673 154.036 101.953C153.414 101.258 152.697 100.654 151.906 100.159C151.08 99.6469 150.225 99.1834 149.345 98.7712C148.438 98.2874 147.474 97.9198 146.475 97.6772C145.424 97.454 144.328 97.5669 143.344 98C142.368 98.4592 141.484 99.0911 140.733 99.8652H140.988C139.951 98.8931 138.387 98.7891 137.103 99.2733C135.668 99.8185 134.521 100.956 133.592 102.143C132.659 103.366 131.883 104.701 131.282 106.117C130.97 106.834 130.69 107.552 130.428 108.269C130.097 109.017 129.943 109.83 129.976 110.647C130.041 111.124 130.138 111.596 130.267 112.06L130.625 113.538C130.7 113.954 130.851 114.353 131.07 114.715C131.278 115.001 131.658 115.26 131.709 115.633C131.741 115.859 132.1 115.862 132.067 115.633C132.022 115.363 131.897 115.113 131.709 114.915C131.466 114.673 131.274 114.384 131.145 114.065C130.884 113.28 130.722 112.448 130.521 111.644C130.408 111.243 130.337 110.83 130.31 110.414C130.302 110.005 130.361 109.598 130.485 109.209C130.697 108.491 130.973 107.792 131.249 107.103C131.787 105.719 132.471 104.396 133.29 103.158C134.082 101.911 135.132 100.847 136.368 100.037C137.681 99.2447 139.517 98.9936 140.726 100.131C140.797 100.198 140.909 100.198 140.98 100.131C142.318 98.8214 143.99 97.7274 145.941 97.9785C146.964 98.1482 147.954 98.4813 148.871 98.9649C149.711 99.3666 150.55 99.7827 151.346 100.263C152.147 100.725 152.883 101.292 153.534 101.949C154.176 102.623 154.693 103.405 155.062 104.259C155.859 106.085 156.02 108.115 155.88 110.08C155.783 111.293 155.618 112.499 155.385 113.692C155.371 113.952 155.28 114.202 155.123 114.41C154.986 114.54 154.84 114.66 154.686 114.768C154.391 114.94 154.223 115.268 154.255 115.608L154.614 115.514C154.108 114.259 154.212 112.9 154.083 111.569C154.056 111.25 154.01 110.932 153.947 110.618C153.911 110.346 153.784 110.093 153.588 109.901C153.362 109.715 153.064 109.747 152.792 109.682C152.529 109.617 152.284 109.495 152.074 109.324C151.578 108.937 151.299 108.334 151.325 107.706C151.324 107.642 151.29 107.583 151.235 107.551C151.179 107.52 151.111 107.52 151.056 107.552C149.608 108.275 147.956 108.48 146.375 108.133C144.83 107.791 143.38 107.108 142.132 106.135C141.412 105.589 140.735 104.989 140.105 104.341C140.06 104.297 139.995 104.28 139.934 104.296C139.873 104.313 139.825 104.36 139.808 104.42C138.913 107.02 137.083 109.193 134.675 110.518C134.279 110.736 133.869 110.929 133.448 111.095C133.05 111.25 132.595 111.368 132.415 111.813C132.321 112.112 132.265 112.422 132.25 112.735L132.117 113.699L131.838 115.708C131.809 115.934 132.153 116.031 132.196 115.805L132.15 115.776Z" fill="black"/>
<path d="M131.013 114.585C128.569 112.137 127.175 108.835 127.125 105.377C127.117 101.905 128.692 98.6187 131.404 96.4499C133.444 94.8825 135.988 94.1221 138.161 92.7447C139.284 92.0274 140.396 90.9729 140.356 89.6457C140.338 89.0073 140.051 88.4083 139.904 87.7842C139.391 85.6321 140.729 83.3043 142.684 82.2569C144.639 81.2096 147.042 81.2777 149.14 81.9772C150.363 82.3825 151.536 82.9922 152.813 83.1536C154.09 83.315 155.575 82.881 156.142 81.7189C156.64 80.7003 156.292 79.47 156.554 78.3688C156.788 77.5382 157.345 76.8359 158.101 76.4188C158.856 76.0016 159.747 75.9043 160.575 76.1486C161.482 76.4499 162.25 77.1709 163.204 77.2426C164.28 77.3251 165.231 76.5468 165.815 75.6501C166.4 74.7534 166.737 73.7096 167.307 72.8021C169.101 69.9721 173.046 69.0324 176.224 70.1049C179.402 71.1773 181.795 73.8961 183.251 76.9198C185.586 81.7548 185.686 87.8272 182.734 92.3107C180.751 95.3236 177.501 97.5905 176.493 101.052C175.629 104.022 176.543 107.533 174.768 110.065C172.537 113.247 167.533 112.863 164.603 115.417C163.764 116.152 163.132 117.096 162.376 117.928C160.299 120.177 157.576 121.109 154.521 120.933C155.912 120.091 157.107 119.344 157.39 117.763C158.075 114.007 155.909 114.212 155.066 114.8C155.313 112.056 154.506 108.559 152.555 106.629C150.604 104.7 148.018 103.491 145.381 102.684C143.301 102.052 140.977 101.676 139.015 102.608C137.515 103.326 136.454 104.696 135.453 106.019C134.147 107.745 132.788 109.606 132.702 111.776" fill="black"/>
<path d="M131.138 114.46C129.26 112.557 127.992 110.139 127.494 107.512C127.024 104.949 127.432 102.301 128.652 99.9981C129.246 98.877 130.034 97.8702 130.98 97.0246C132.038 96.1447 133.211 95.4135 134.467 94.851C135.73 94.2805 136.963 93.646 138.161 92.95C139.129 92.3474 140.145 91.5153 140.446 90.3496C140.572 89.7024 140.509 89.0328 140.266 88.4199C140.053 87.8354 139.952 87.2161 139.969 86.5942C140.066 85.3939 140.587 84.2674 141.439 83.4163C143.362 81.4364 146.414 81.3144 148.911 82.0928C150.259 82.516 151.536 83.2226 152.96 83.3482C154.039 83.4876 155.124 83.1331 155.912 82.3833C156.845 81.4005 156.551 80.0483 156.68 78.8288C156.816 77.6816 157.601 76.7154 158.695 76.3467C159.191 76.1664 159.727 76.1255 160.245 76.2284C160.891 76.3682 161.439 76.7592 162.038 77.0461C162.538 77.3295 163.112 77.4545 163.685 77.4048C164.254 77.3049 164.781 77.0406 165.202 76.6444C166.238 75.7154 166.637 74.3417 167.289 73.1688C167.859 72.1912 168.683 71.3866 169.675 70.841C171.667 69.7677 174.017 69.5715 176.16 70.2994C178.538 71.1028 180.464 72.8711 181.873 74.9228C184.743 79.1265 185.661 84.7865 183.889 89.5964C183.449 90.7737 182.845 91.8833 182.096 92.8926C181.353 93.8969 180.5 94.8152 179.671 95.7621C178.064 97.5555 176.536 99.4852 176.084 101.924C175.906 103.176 175.8 104.437 175.769 105.701C175.69 106.935 175.546 108.212 174.983 109.331C173.972 111.343 171.852 112.179 169.836 112.835C167.82 113.492 165.643 114.094 164.097 115.647C163.129 116.616 162.39 117.778 161.335 118.664C160.39 119.456 159.291 120.044 158.107 120.389C156.932 120.716 155.709 120.844 154.492 120.766L154.581 121.099C155.408 120.665 156.156 120.095 156.794 119.413C157.359 118.663 157.665 117.749 157.666 116.809C157.727 115.762 157.458 114.381 156.181 114.299C155.742 114.282 155.309 114.408 154.947 114.657L155.22 114.812C155.414 112.675 155.034 110.525 154.119 108.585C153.122 106.533 151.249 105.106 149.277 104.062C148.203 103.502 147.083 103.035 145.93 102.667C144.745 102.254 143.514 101.989 142.264 101.878C141.063 101.769 139.855 101.985 138.767 102.505C137.751 103.071 136.863 103.842 136.16 104.769C135.294 105.797 134.501 106.884 133.785 108.022C133.042 109.14 132.595 110.428 132.487 111.766C132.487 111.996 132.845 111.996 132.845 111.766C132.96 109.421 134.528 107.462 135.901 105.669C136.565 104.727 137.372 103.896 138.294 103.205C139.281 102.544 140.446 102.2 141.633 102.218C142.852 102.24 144.06 102.442 145.22 102.817C146.336 103.143 147.425 103.557 148.477 104.055C150.41 104.98 152.39 106.271 153.498 108.158C154.617 110.175 155.097 112.484 154.876 114.779C154.876 114.843 154.91 114.902 154.966 114.934C155.021 114.966 155.089 114.965 155.145 114.934C155.668 114.575 156.479 114.464 156.938 114.987C157.251 115.445 157.392 115.999 157.336 116.551C157.365 117.425 157.124 118.287 156.644 119.019C156.077 119.779 155.209 120.274 154.416 120.755C154.349 120.798 154.317 120.88 154.338 120.958C154.36 121.035 154.429 121.09 154.51 121.092C156.98 121.284 159.434 120.556 161.4 119.048C162.501 118.176 163.265 117.017 164.223 116.01C165.037 115.19 166.014 114.55 167.092 114.134C169.083 113.312 171.289 112.943 173.136 111.788C174.051 111.231 174.795 110.433 175.288 109.482C175.794 108.351 176.073 107.133 176.109 105.895C176.143 104.575 176.251 103.257 176.432 101.949C176.671 100.716 177.159 99.5442 177.867 98.506C179.269 96.4113 181.21 94.747 182.645 92.6774C185.632 88.3733 185.747 82.5949 183.807 77.8424C182.013 73.4593 178.093 69.2054 172.978 69.5139C170.797 69.6466 168.627 70.5899 167.318 72.4012C166.486 73.5454 166.174 75.0088 165.223 76.0705C164.81 76.5724 164.238 76.9189 163.602 77.0533C162.885 77.1645 162.268 76.8273 161.672 76.501C161.17 76.1841 160.613 75.9651 160.03 75.8553C159.505 75.7941 158.974 75.8593 158.48 76.0454C157.488 76.3993 156.716 77.1947 156.393 78.1975C156.034 79.4601 156.601 81.0275 155.675 82.0999C154.868 83.0218 153.48 83.1473 152.354 82.907C150.919 82.6021 149.617 81.8632 148.183 81.5368C146.869 81.2225 145.501 81.2127 144.183 81.5081C141.845 82.0677 139.85 83.983 139.617 86.4471C139.567 87.0528 139.637 87.6625 139.825 88.2405C140.037 88.9579 140.288 89.6179 140.073 90.3496C139.696 91.6301 138.405 92.4407 137.311 93.0504C134.901 94.3991 132.2 95.2599 130.216 97.2685C128.445 99.1023 127.322 101.466 127.02 103.997C126.727 106.634 127.265 109.296 128.559 111.612C129.182 112.754 129.961 113.805 130.873 114.733C131.034 114.898 131.285 114.643 131.124 114.478L131.138 114.46Z" fill="black"/>
<path d="M136.63 131.163C137.135 131.579 136.967 132.479 136.956 133.05L136.913 135.496L136.823 140.431C136.823 140.53 136.904 140.611 137.003 140.611C137.102 140.611 137.182 140.53 137.182 140.431L137.275 135.231L137.322 132.652C137.322 132.06 137.39 131.328 136.881 130.908C136.705 130.761 136.45 131.016 136.63 131.163V131.163Z" fill="black"/>
<path d="M136.902 139.255C132.042 140.847 126.838 140.847 121.942 142.282C119.767 142.884 117.698 143.818 115.808 145.051C113.916 146.32 112.363 148.033 111.285 150.04C110.364 151.888 109.594 153.807 108.983 155.779C108.541 157.063 108.122 158.351 107.702 159.639C106.595 163.065 105.519 166.501 104.474 169.947C103.595 172.877 102.706 175.815 101.992 178.792C101.938 179.018 101.884 179.248 101.834 179.477C101.784 179.707 102.128 179.8 102.193 179.574C102.799 176.801 103.627 174.075 104.445 171.357C105.471 167.894 106.536 164.446 107.641 161.012C108.093 159.599 108.553 158.19 109.022 156.783C109.553 155.209 110.08 153.631 110.719 152.099C111.188 150.923 111.783 149.801 112.494 148.753C113.138 147.839 113.897 147.013 114.754 146.296C116.491 144.89 118.466 143.807 120.586 143.1C122.853 142.333 125.186 141.779 127.555 141.443C130.116 141.037 132.702 140.725 135.224 140.098C135.823 139.947 136.414 139.778 137.017 139.585C137.236 139.517 137.143 139.169 136.924 139.226L136.902 139.255Z" fill="black"/>
<path d="M78.5162 164.101C79.0649 167.365 79.707 170.619 80.5032 173.832C81.292 177.05 82.2681 180.219 83.4265 183.323C84.3725 185.87 85.461 188.362 86.6869 190.787C87.8731 193.21 89.3628 195.473 91.1202 197.52C92.9566 199.582 95.2414 201.365 97.8418 202.34C99.1344 202.836 100.524 203.027 101.902 202.9C103.376 202.735 104.782 202.193 105.984 201.325C108.287 199.708 110.084 197.423 111.622 195.095C113.018 192.982 114.23 190.751 115.414 188.513C116.597 186.275 117.713 184.087 118.778 181.827C119.843 179.645 120.777 177.402 121.576 175.109C121.726 174.657 121.866 174.205 121.988 173.743C122.014 173.644 121.955 173.543 121.855 173.517C121.756 173.491 121.655 173.55 121.63 173.65C121.009 175.797 120.215 177.89 119.255 179.908C118.218 182.215 117.103 184.485 115.93 186.723C114.854 188.797 113.778 190.863 112.569 192.868C111.135 195.285 109.531 197.652 107.49 199.596C106.444 200.657 105.196 201.498 103.821 202.071C102.522 202.563 101.114 202.695 99.7464 202.455C98.3199 202.181 96.9558 201.647 95.722 200.881C94.5562 200.18 93.4732 199.35 92.4939 198.406C90.6186 196.535 89.0271 194.399 87.7701 192.068C86.4995 189.752 85.3816 187.356 84.4236 184.894C83.2401 181.945 82.2293 178.929 81.3964 175.863C80.5427 172.721 79.8505 169.535 79.2622 166.336C79.1187 165.551 78.9824 164.769 78.8497 163.983C78.8103 163.757 78.4659 163.854 78.4911 164.08L78.5162 164.101Z" fill="black"/>
<path d="M85.6111 161.292C87.5757 164.38 89.8055 167.29 92.2753 169.99C94.7861 172.641 97.5766 174.969 100.08 177.609C101.529 179.096 102.812 180.738 103.904 182.505C104.026 182.702 104.334 182.523 104.216 182.325C102.329 179.198 99.718 176.637 97.0745 174.155C95.7474 172.91 94.4131 171.676 93.129 170.374C91.8557 169.06 90.6581 167.674 89.5422 166.224C88.2653 164.582 87.0781 162.867 85.9375 161.124C85.8119 160.934 85.4999 161.124 85.6254 161.307L85.6111 161.292Z" fill="black"/>
<path d="M85.7616 161.598C87.0744 159.306 86.4252 156.598 85.5572 154.277C85.3563 153.75 85.177 153.136 84.7394 152.753C84.4053 152.434 83.9105 152.352 83.4912 152.545C83.0321 152.796 82.9603 153.359 83.0392 153.825C83.1319 154.133 83.1967 154.449 83.2329 154.768C83.2329 155.07 82.8958 155.238 82.7057 155.428C81.8558 156.287 81.4678 157.5 81.6619 158.692C81.6978 158.922 82.0457 158.825 82.0206 158.599C81.871 157.624 82.1524 156.632 82.7917 155.88C83.0679 155.554 83.5665 155.31 83.6024 154.844C83.649 154.316 83.2903 153.825 83.3979 153.291C83.5055 152.756 84.1153 152.677 84.4991 153.004C84.8828 153.33 85.0729 153.965 85.2523 154.438C85.6954 155.53 85.9921 156.676 86.1346 157.846C86.2848 159.072 86.0505 160.314 85.4639 161.4C85.4134 161.487 85.4423 161.597 85.5285 161.648C85.6146 161.698 85.7254 161.67 85.776 161.583L85.7616 161.598Z" fill="black"/>
<path d="M78.8215 163.922C76.9527 161.469 75.0302 158.814 74.6644 155.672C74.5552 154.79 74.594 153.895 74.7791 153.025C74.8294 152.799 74.4814 152.702 74.4205 152.928C73.7031 156.131 75.102 159.277 76.8667 161.895C77.3832 162.659 77.9427 163.398 78.4951 164.13C78.635 164.309 78.947 164.13 78.8071 163.947L78.8215 163.922Z" fill="black"/>
<path d="M77.2393 154.869C76.9703 153.56 76.8233 152.096 77.537 150.898C77.5697 150.843 77.5702 150.774 77.5382 150.717C77.5063 150.661 77.4468 150.626 77.3822 150.626C77.3176 150.626 77.2577 150.66 77.225 150.715C76.4646 152.003 76.6045 153.56 76.895 154.962C76.9416 155.188 77.286 155.095 77.2537 154.869H77.2393Z" fill="black"/>
<path d="M79.1335 153.262C78.9055 152.171 79.0468 151.035 79.5352 150.034C79.6357 149.829 79.3272 149.646 79.2268 149.854C78.6924 150.941 78.5383 152.175 78.7892 153.359C78.8358 153.585 79.1801 153.488 79.1479 153.262H79.1335Z" fill="black"/>
<path d="M80.844 150.507C80.9904 149.989 81.4712 149.637 82.0098 149.654C82.5926 149.691 83.119 150.015 83.4158 150.518C83.6597 150.909 83.9502 151.565 83.7745 152.032C83.5341 152.717 82.6482 151.989 82.3039 151.816C82.2558 151.789 82.1978 151.785 82.1466 151.806C82.0955 151.827 82.0569 151.871 82.042 151.924C81.8106 152.906 82.1619 153.933 82.9459 154.567C83.1253 154.707 83.3799 154.456 83.2006 154.313C82.5091 153.77 82.1921 152.878 82.3864 152.021L82.1245 152.128C82.6052 152.369 83.1037 152.846 83.6848 152.609C84.1905 152.408 84.2192 151.802 84.1188 151.347C83.8713 150.242 82.9495 149.116 81.7013 149.316C81.1147 149.41 80.6382 149.84 80.4854 150.414C80.428 150.636 80.7759 150.733 80.844 150.507V150.507Z" fill="black"/>
<path d="M122.788 158.911C121.93 160.953 121.355 163.104 121.081 165.302C120.868 167.161 120.892 169.038 121.153 170.891C121.594 174.119 122.727 177.142 123.75 180.216C124.592 182.727 125.407 185.482 124.801 188.157C124.554 189.064 124.239 189.95 123.857 190.808C123.445 191.852 123.047 193.003 123.287 194.137C123.527 195.27 124.463 196.041 125.339 196.737C126.242 197.453 127.192 198.107 128.183 198.695C132.235 201.087 136.86 202.338 141.565 202.315C142.132 202.315 142.699 202.286 143.265 202.243C143.495 202.243 143.499 201.884 143.265 201.884C138.612 202.22 133.955 201.279 129.797 199.162C128.76 198.634 127.762 198.035 126.809 197.368C126.331 197.038 125.869 196.693 125.425 196.332C124.953 195.98 124.523 195.576 124.144 195.127C123.409 194.165 123.506 192.975 123.846 191.898C124.187 190.822 124.686 189.865 125.001 188.81C125.776 186.231 125.184 183.541 124.399 181.041C123.466 178.068 122.301 175.17 121.716 172.099C120.951 168.27 121.229 164.306 122.523 160.622C122.709 160.073 122.917 159.546 123.14 158.99C123.226 158.774 122.882 158.681 122.781 158.893L122.788 158.911Z" fill="black"/>
<path d="M121.095 167.114C120.417 170.084 120.787 174.442 120.482 177.473C120.75 176.258 121.124 175.068 121.601 173.918C121.657 173.806 121.693 173.684 121.709 173.56C121.703 173.38 121.659 173.204 121.579 173.043C121.178 172.064 120.966 169.84 120.988 168.782" fill="black"/>
<path d="M120.923 167.067C120.66 168.366 120.518 169.687 120.5 171.013C120.45 172.447 120.46 173.857 120.424 175.281C120.406 175.998 120.374 176.748 120.302 177.476C120.285 177.677 120.611 177.72 120.661 177.523C120.821 176.805 121.018 176.097 121.249 175.399C121.364 175.041 121.49 174.707 121.608 174.363C121.776 174.07 121.868 173.739 121.874 173.401C121.816 173.165 121.74 172.933 121.644 172.709C121.576 172.487 121.522 172.257 121.475 172.028C121.366 171.487 121.287 170.941 121.239 170.392C121.184 169.855 121.157 169.315 121.16 168.774C121.16 168.675 121.079 168.595 120.98 168.595C120.881 168.595 120.801 168.675 120.801 168.774C120.794 169.768 120.88 170.76 121.056 171.737C121.122 172.19 121.234 172.634 121.389 173.064C121.461 173.205 121.506 173.359 121.522 173.516C121.499 173.697 121.443 173.872 121.357 174.033C121.217 174.391 121.088 174.718 120.97 175.062C120.701 175.837 120.478 176.628 120.302 177.429L120.661 177.476C120.93 174.764 120.726 172.031 120.955 169.316C121.01 168.592 121.115 167.873 121.271 167.164C121.321 166.938 120.973 166.841 120.912 167.067H120.923Z" fill="black"/>
<path d="M103.778 180.145C104.347 180.542 104.759 181.126 104.944 181.795C104.955 181.813 104.976 181.821 104.996 181.815C105.016 181.809 105.03 181.791 105.03 181.77C104.839 181.079 104.413 180.476 103.825 180.066C103.778 180.034 103.731 180.113 103.778 180.145V180.145Z" fill="black"/>
<path d="M104.904 179.585C105.189 179.806 105.404 180.105 105.521 180.446C105.543 180.5 105.629 180.479 105.607 180.425C105.484 180.062 105.256 179.743 104.951 179.51C104.904 179.474 104.861 179.553 104.904 179.585V179.585Z" fill="black"/>
<path d="M107.663 161.059C110.88 163.639 114.28 165.982 117.835 168.071C118.847 168.664 119.869 169.236 120.902 169.786C120.952 169.815 120.999 169.736 120.948 169.71C117.327 167.779 113.851 165.588 110.547 163.154C109.59 162.453 108.655 161.736 107.742 161.002C107.695 160.966 107.631 161.03 107.677 161.066L107.663 161.059Z" fill="black"/>
<path d="M122.996 142.538C124.548 145.969 126.545 149.18 128.936 152.089C131.26 154.943 134.08 157.354 137.261 159.205C139.066 160.23 140.994 161.019 143 161.551C143.024 161.557 143.048 161.543 143.054 161.519C143.06 161.495 143.045 161.471 143.022 161.465C139.464 160.482 136.161 158.742 133.337 156.365C130.499 153.976 128.047 151.161 126.07 148.022C124.946 146.254 123.945 144.411 123.075 142.505C123.05 142.455 122.975 142.505 122.996 142.552V142.538Z" fill="black"/>
<path d="M149.119 130.902C148.62 131.311 148.667 132.021 148.678 132.598L148.724 135.224L148.817 140.425C148.817 140.524 148.898 140.604 148.997 140.604C149.096 140.604 149.176 140.524 149.176 140.425L149.097 135.489L149.054 133.043C149.054 132.473 148.878 131.572 149.381 131.156C149.56 131.009 149.305 130.755 149.129 130.902H149.119Z" fill="black"/>
<path d="M149 139.599C153.839 141.177 159.018 141.192 163.896 142.623C166.042 143.216 168.084 144.131 169.954 145.338C170.887 145.958 171.742 146.688 172.501 147.512C173.298 148.396 173.975 149.383 174.513 150.446C175.386 152.246 176.123 154.109 176.716 156.02C177.157 157.307 177.576 158.598 177.996 159.893C179.096 163.298 180.161 166.714 181.192 170.141C182.063 173.043 182.946 175.951 183.652 178.9C183.706 179.129 183.76 179.359 183.81 179.588C183.86 179.818 184.205 179.718 184.169 179.492C183.559 176.701 182.734 173.957 181.902 171.22C180.867 167.727 179.791 164.246 178.674 160.779C178.218 159.37 177.763 157.96 177.289 156.554C176.741 154.915 176.185 153.272 175.496 151.683C175.022 150.524 174.42 149.421 173.703 148.394C173.059 147.511 172.308 146.711 171.468 146.012C169.725 144.609 167.75 143.523 165.632 142.802C163.361 142.025 161.022 141.463 158.645 141.124C156.056 140.711 153.441 140.406 150.894 139.764C150.294 139.614 149.696 139.444 149.101 139.255C148.882 139.183 148.789 139.527 149.008 139.614L149 139.599Z" fill="black"/>
<path d="M207.139 164.004C206.598 167.232 205.97 170.41 205.192 173.574C204.423 176.734 203.473 179.848 202.347 182.9C201.418 185.439 200.347 187.925 199.141 190.346C197.976 192.744 196.519 194.99 194.804 197.032C193.011 199.101 190.773 200.912 188.201 201.913C186.913 202.439 185.52 202.656 184.134 202.548C182.653 202.38 181.244 201.818 180.055 200.92C177.785 199.27 176.02 196.974 174.503 194.636C173.158 192.566 171.992 190.392 170.826 188.212C169.661 186.031 168.563 183.846 167.516 181.619C166.467 179.466 165.547 177.253 164.761 174.991C164.614 174.549 164.478 174.105 164.356 173.653C164.33 173.554 164.229 173.494 164.13 173.52C164.031 173.546 163.971 173.647 163.997 173.746C164.626 175.923 165.432 178.045 166.408 180.091C167.458 182.437 168.603 184.754 169.786 187.024C170.887 189.148 172.01 191.264 173.24 193.312C174.7 195.744 176.343 198.125 178.438 200.055C179.49 201.084 180.732 201.898 182.096 202.451C183.402 202.934 184.811 203.07 186.185 202.846C187.603 202.599 188.962 202.091 190.195 201.35C191.404 200.653 192.528 199.819 193.545 198.864C195.458 197.01 197.083 194.88 198.366 192.544C199.671 190.206 200.816 187.782 201.791 185.288C202.995 182.316 204.024 179.277 204.872 176.185C205.751 172.989 206.458 169.75 207.057 166.501C207.203 165.704 207.343 164.907 207.476 164.108C207.516 163.882 207.172 163.785 207.118 164.011L207.139 164.004Z" fill="black"/>
<path d="M200.073 161.124C198.099 164.235 195.85 167.163 193.355 169.873C190.844 172.513 188.043 174.84 185.55 177.487C184.131 178.962 182.873 180.584 181.798 182.326C181.68 182.523 181.988 182.703 182.11 182.505C184.008 179.36 186.651 176.795 189.312 174.295C190.64 173.051 191.974 171.817 193.258 170.511C194.531 169.193 195.728 167.804 196.845 166.35C198.104 164.722 199.277 163.029 200.406 161.307C200.532 161.114 200.22 160.949 200.094 161.124H200.073Z" fill="black"/>
<path d="M200.55 161.414C199.377 159.373 199.872 156.938 200.618 154.843C200.773 154.305 200.989 153.786 201.264 153.297C201.497 152.939 202.121 152.53 202.483 152.978C202.846 153.426 202.523 154.033 202.437 154.495C202.379 154.711 202.401 154.94 202.498 155.141C202.638 155.328 202.804 155.494 202.993 155.632C203.785 156.402 204.158 157.506 203.993 158.599C203.954 158.825 204.302 158.921 204.352 158.692C204.521 157.639 204.24 156.564 203.577 155.729C203.406 155.524 203.216 155.334 203.011 155.162C202.909 155.09 202.831 154.989 202.788 154.872C202.771 154.672 202.799 154.471 202.871 154.284C202.996 153.789 203.129 153.208 202.788 152.774C202.469 152.407 201.932 152.325 201.518 152.58C201.086 152.875 200.772 153.313 200.632 153.817C200.114 155.035 199.752 156.314 199.556 157.623C199.354 158.988 199.596 160.381 200.249 161.597C200.281 161.653 200.341 161.687 200.406 161.687C200.471 161.686 200.53 161.651 200.562 161.595C200.594 161.539 200.593 161.47 200.561 161.414H200.55Z" fill="black"/>
<path d="M207.491 164.105C209.42 161.569 211.357 158.843 211.705 155.583C211.802 154.693 211.755 153.793 211.565 152.918C211.519 152.692 211.171 152.789 211.207 153.015C211.892 156.149 210.489 159.223 208.75 161.759C208.244 162.498 207.706 163.212 207.164 163.911C207.024 164.098 207.336 164.27 207.476 164.094L207.491 164.105Z" fill="black"/>
<path d="M209.104 154.962C209.395 153.56 209.535 152.003 208.774 150.715C208.742 150.66 208.682 150.626 208.617 150.626C208.553 150.626 208.493 150.661 208.461 150.717C208.429 150.774 208.43 150.843 208.462 150.898C209.18 152.096 209.029 153.56 208.76 154.869C208.713 155.091 209.058 155.188 209.119 154.962H209.104Z" fill="black"/>
<path d="M207.203 153.359C207.454 152.175 207.3 150.941 206.766 149.854C206.665 149.646 206.357 149.829 206.457 150.034C206.944 151.036 207.086 152.171 206.859 153.262C206.812 153.488 207.157 153.585 207.218 153.359H207.203Z" fill="black"/>
<path d="M205.5 150.413C205.369 149.916 204.991 149.521 204.499 149.37C203.947 149.212 203.353 149.324 202.896 149.671C202.426 150.031 202.087 150.535 201.931 151.106C201.795 151.554 201.698 152.182 202.128 152.515C202.709 152.96 203.351 152.386 203.861 152.131L203.599 152.024C203.793 152.881 203.476 153.773 202.785 154.316C202.605 154.459 202.86 154.71 203.039 154.57C203.823 153.936 204.175 152.909 203.943 151.927C203.928 151.874 203.89 151.83 203.839 151.809C203.787 151.788 203.729 151.792 203.681 151.819C203.323 151.995 202.458 152.716 202.211 152.035C202.046 151.572 202.34 150.908 202.569 150.521C202.866 150.018 203.393 149.694 203.975 149.657C204.515 149.637 204.997 149.99 205.141 150.51C205.195 150.736 205.543 150.639 205.5 150.417V150.413Z" fill="black"/>
<path d="M162.863 159.008C163.723 161.039 164.296 163.179 164.567 165.368C164.773 167.192 164.748 169.034 164.492 170.852C164.051 174.033 162.932 177.035 161.92 180.07C161.081 182.581 160.292 185.26 160.787 187.925C160.957 188.725 161.208 189.507 161.536 190.256C161.967 191.311 162.483 192.441 162.422 193.606C162.358 194.862 161.436 195.651 160.521 196.386C159.627 197.103 158.684 197.756 157.698 198.341C153.685 200.729 149.097 201.979 144.427 201.957C143.861 201.957 143.294 201.928 142.724 201.885C142.494 201.885 142.498 202.243 142.724 202.243C147.417 202.578 152.113 201.632 156.31 199.507C157.348 198.98 158.348 198.38 159.302 197.713C159.78 197.383 160.249 197.035 160.708 196.67C161.185 196.314 161.626 195.913 162.024 195.472C163.656 193.513 162.171 191.103 161.465 189.094C160.55 186.49 161.106 183.764 161.913 181.203C162.853 178.18 164.043 175.242 164.632 172.118C165.399 168.25 165.118 164.248 163.818 160.525C163.626 159.973 163.421 159.428 163.201 158.89C163.111 158.678 162.767 158.771 162.842 158.987L162.863 159.008Z" fill="black"/>
<path d="M164.904 167.114C165.582 170.084 165.213 174.442 165.518 177.473C165.25 176.258 164.875 175.068 164.399 173.918C164.343 173.806 164.307 173.684 164.291 173.56C164.296 173.38 164.34 173.204 164.42 173.043C164.822 172.064 165.034 169.84 165.012 168.782" fill="black"/>
<path d="M164.729 167.164C164.99 168.454 165.128 169.765 165.141 171.081C165.188 172.491 165.181 173.904 165.216 175.313C165.216 176.031 165.267 176.748 165.338 177.466L165.697 177.419C165.543 176.715 165.353 176.019 165.127 175.335C165.016 174.998 164.894 174.664 164.768 174.338C164.643 174.011 164.409 173.649 164.517 173.291C164.585 173.075 164.682 172.871 164.743 172.652C164.804 172.433 164.861 172.179 164.908 171.935C165.005 171.411 165.073 170.859 165.123 170.346C165.177 169.819 165.202 169.29 165.198 168.76C165.198 168.661 165.118 168.581 165.019 168.581C164.92 168.581 164.84 168.661 164.84 168.76C164.85 169.783 164.758 170.804 164.567 171.809C164.467 172.271 164.332 172.724 164.162 173.165C164.069 173.472 164.104 173.803 164.259 174.083C164.399 174.442 164.528 174.768 164.65 175.116C164.922 175.904 165.149 176.706 165.331 177.519C165.374 177.713 165.69 177.677 165.69 177.473C165.417 174.725 165.629 171.956 165.385 169.223C165.327 168.5 165.222 167.781 165.069 167.071C165.019 166.845 164.671 166.942 164.711 167.168L164.729 167.164Z" fill="black"/>
<path d="M182.175 180.066C181.587 180.476 181.16 181.079 180.97 181.77C180.97 181.791 180.983 181.809 181.003 181.815C181.023 181.821 181.045 181.813 181.056 181.795C181.24 181.126 181.653 180.542 182.222 180.145C182.268 180.113 182.222 180.034 182.175 180.066V180.066Z" fill="black"/>
<path d="M181.048 179.521C180.744 179.754 180.516 180.072 180.392 180.435C180.371 180.489 180.457 180.511 180.478 180.457C180.596 180.116 180.81 179.817 181.095 179.596C181.138 179.564 181.095 179.485 181.048 179.521V179.521Z" fill="black"/>
<path d="M178.273 160.995C175.05 163.579 171.644 165.926 168.082 168.018C167.085 168.601 166.075 169.166 165.052 169.711C165.001 169.736 165.052 169.815 165.098 169.786C168.76 167.837 172.274 165.622 175.611 163.158C176.534 162.476 177.443 161.777 178.337 161.059C178.384 161.024 178.337 160.959 178.273 160.995V160.995Z" fill="black"/>
<path d="M162.924 142.491C161.383 145.906 159.398 149.103 157.02 152C154.701 154.85 151.887 157.259 148.713 159.112C146.908 160.138 144.98 160.928 142.975 161.465C142.951 161.471 142.936 161.495 142.942 161.519C142.948 161.543 142.972 161.557 142.996 161.551C146.539 160.576 149.83 158.852 152.648 156.494C155.499 154.104 157.959 151.285 159.94 148.137C161.087 146.344 162.107 144.473 162.992 142.538C163.014 142.484 162.939 142.441 162.914 142.491H162.924Z" fill="black"/>
<path d="M137.028 131.321C138.773 133.127 140.907 134.51 143.269 135.364C144.404 135.868 145.582 136.273 146.787 136.572C147.47 136.681 148.145 136.828 148.81 137.014C148.775 135.184 148.918 133.229 148.735 131.411C148.323 131.739 147.857 131.992 147.358 132.161C145.425 132.878 143.366 133.498 141.328 133.176C140.319 132.977 139.336 132.662 138.398 132.24L137.523 131.881" fill="black"/>
<path d="M136.902 131.446C138.158 132.58 139.431 133.717 140.941 134.509C141.716 134.918 142.534 135.248 143.344 135.586C144.155 135.923 144.991 136.26 145.855 136.515C146.816 136.801 147.824 136.873 148.775 137.189C148.829 137.203 148.887 137.192 148.931 137.158C148.976 137.125 149.003 137.073 149.004 137.017C148.968 135.148 149.108 133.276 148.929 131.414C148.926 131.343 148.883 131.28 148.818 131.253C148.752 131.225 148.677 131.238 148.624 131.285C148.122 131.678 147.546 131.967 146.931 132.135C146.208 132.404 145.469 132.629 144.718 132.809C143.952 132.997 143.165 133.091 142.376 133.089C141.587 133.067 140.807 132.928 140.059 132.677C139.22 132.4 138.405 132.049 137.584 131.715C137.372 131.629 137.279 131.977 137.491 132.074C139.001 132.684 140.514 133.383 142.154 133.451C143.793 133.52 145.382 133.093 146.892 132.533C147.566 132.293 148.326 132.053 148.861 131.55L148.556 131.425C148.735 133.286 148.595 135.159 148.631 137.027L148.857 136.855C148.04 136.59 147.175 136.497 146.347 136.292C145.517 136.063 144.703 135.779 143.911 135.442C142.301 134.793 140.73 134.126 139.338 133.068C138.574 132.49 137.867 131.848 137.157 131.206C136.985 131.052 136.734 131.306 136.902 131.461V131.446Z" fill="black"/>
<path d="M88.2762 235.249C89.3908 231.978 90.8822 228.849 92.7203 225.923C94.4521 223.192 96.6608 220.795 99.2411 218.846C100.677 217.783 102.244 216.911 103.904 216.249C103.958 216.228 103.933 216.142 103.879 216.16C100.942 217.359 98.2945 219.172 96.1134 221.475C93.79 223.94 91.8691 226.756 90.4211 229.818C89.5739 231.579 88.8243 233.384 88.1758 235.227C88.1578 235.281 88.2439 235.302 88.2655 235.249H88.2762Z" fill="black"/>
<path d="M101.827 214.94C103.022 214.291 104.376 213.991 105.733 214.076C105.79 214.076 105.79 213.99 105.733 213.986C104.361 213.902 102.994 214.207 101.787 214.865C101.737 214.89 101.787 214.969 101.834 214.94H101.827Z" fill="black"/>
<path d="M101.16 212.76C102.288 212.34 103.487 212.146 104.689 212.189C104.709 212.184 104.723 212.165 104.723 212.145C104.723 212.124 104.709 212.105 104.689 212.1C103.478 212.056 102.271 212.251 101.135 212.674C101.081 212.695 101.106 212.781 101.16 212.76V212.76Z" fill="black"/>
<path d="M101.174 210.607L102.031 210.417C102.089 210.417 102.064 210.317 102.006 210.328L101.149 210.521C101.095 210.521 101.117 210.618 101.174 210.607Z" fill="black"/>
<path d="M197.813 235.288C196.686 231.987 195.176 228.829 193.312 225.88C191.571 223.148 189.351 220.753 186.759 218.81C185.322 217.752 183.755 216.883 182.096 216.224C182.042 216.203 182.017 216.289 182.071 216.31C185.015 217.515 187.667 219.337 189.847 221.655C192.134 224.096 194.027 226.879 195.457 229.904C196.309 231.668 197.061 233.479 197.709 235.327C197.731 235.381 197.817 235.36 197.799 235.302L197.813 235.288Z" fill="black"/>
<path d="M184.219 214.926C183.012 214.27 181.645 213.967 180.274 214.051C180.217 214.051 180.217 214.144 180.274 214.14C181.632 214.054 182.986 214.353 184.18 215.005C184.23 215.033 184.277 214.955 184.227 214.926H184.219Z" fill="black"/>
<path d="M184.865 212.738C183.729 212.316 182.522 212.121 181.311 212.164C181.291 212.17 181.277 212.188 181.277 212.209C181.277 212.23 181.291 212.248 181.311 212.254C182.513 212.211 183.712 212.405 184.84 212.824C184.894 212.846 184.919 212.756 184.865 212.738Z" fill="black"/>
<path d="M184.851 210.582L183.994 210.392C183.936 210.392 183.911 210.467 183.969 210.478L184.826 210.668C184.847 210.668 184.865 210.654 184.871 210.634C184.877 210.614 184.868 210.593 184.851 210.582V210.582Z" fill="black"/>
<path d="M123.039 197.613C123.448 197.55 123.825 197.358 124.115 197.064C124.417 196.754 124.603 196.35 124.643 195.92C124.643 195.821 124.562 195.74 124.463 195.74C124.365 195.742 124.286 195.821 124.284 195.92C124.247 196.263 124.092 196.584 123.846 196.827C123.595 197.07 123.271 197.225 122.925 197.268C122.83 197.294 122.774 197.392 122.799 197.487C122.828 197.581 122.926 197.636 123.021 197.613H123.039Z" fill="black"/>
<path d="M189.144 255.78C189.013 255.064 188.733 254.383 188.323 253.782C187.918 253.294 187.369 252.945 186.755 252.785C186.107 252.619 185.441 252.53 184.772 252.519C184.023 252.492 183.276 252.425 182.534 252.318C179.474 251.841 176.63 250.525 174.019 248.886C173.351 248.472 172.695 248.039 172.049 247.587L171.59 247.268C171.44 247.157 171.321 247.021 171.128 247.064C170.706 247.185 170.29 247.327 169.883 247.491C168.192 248.065 166.501 248.632 164.808 249.194C161.419 250.318 158.021 251.413 154.614 252.48C151.207 253.546 147.775 254.595 144.32 255.626L143.061 255.984C142.976 256.001 142.914 256.076 142.914 256.164C142.914 256.251 142.976 256.326 143.061 256.343C147.906 257.778 152.767 259.156 157.645 260.478C162.523 261.801 167.409 263.088 172.304 264.341L176.002 265.274C177.078 265.547 178.201 265.801 179.273 266.149C180.331 266.469 181.335 266.946 182.25 267.566C183.162 268.272 184.019 269.045 184.815 269.879C186.411 271.399 188.21 272.69 190.159 273.717C190.4 273.843 190.643 273.965 190.877 274.076C191.124 274.219 191.385 274.34 191.655 274.435C191.956 274.514 192.319 274.076 192.483 273.872C192.916 273.2 193.098 272.397 192.996 271.605C192.891 270.616 192.692 269.64 192.405 268.689C192.091 267.462 191.78 266.235 191.472 265.009L189.596 257.602L189.133 255.783C189.08 255.561 188.732 255.654 188.775 255.88C189.461 258.587 190.147 261.295 190.834 264.004C191.183 265.374 191.529 266.745 191.874 268.115C192.212 269.212 192.46 270.335 192.616 271.472C192.695 272.448 192.577 273.592 191.641 274.126H191.82C190.381 273.496 189.009 272.723 187.724 271.82C186.435 270.879 185.224 269.837 184.101 268.703C183.549 268.144 182.949 267.634 182.308 267.179C181.672 266.755 180.991 266.404 180.278 266.131C178.754 265.589 177.196 265.145 175.615 264.804C172.14 263.946 168.67 263.054 165.202 262.128C161.735 261.203 158.268 260.267 154.801 259.32C151.329 258.363 147.861 257.377 144.399 256.361L143.129 256.002V256.361C146.807 255.278 150.472 254.166 154.126 253.025C157.78 251.884 161.441 250.706 165.109 249.488C167.156 248.809 169.2 248.12 171.242 247.419H171.106C173.342 249.092 175.772 250.486 178.344 251.572C179.603 252.079 180.913 252.451 182.25 252.681C182.894 252.787 183.543 252.858 184.194 252.892C184.822 252.906 185.449 252.958 186.07 253.047C186.723 253.125 187.336 253.4 187.828 253.836C188.387 254.388 188.588 255.181 188.775 255.92C188.8 255.986 188.858 256.033 188.928 256.045C188.997 256.056 189.068 256.029 189.112 255.975C189.157 255.92 189.169 255.846 189.144 255.78V255.78Z" fill="black"/>
<path d="M122.989 197.261C122.485 197.266 121.984 197.197 121.5 197.057C121.002 196.956 120.503 196.863 120.005 196.77C119.005 196.583 118.003 196.409 116.999 196.246C115.024 195.931 113.04 195.667 111.048 195.457C110.984 195.456 110.925 195.49 110.894 195.547C109.951 196.946 108.876 198.252 107.684 199.446C106.461 200.636 105.069 201.712 103.423 202.236C100.249 203.248 97.0276 201.906 94.4559 200.055C92.9486 198.944 91.6037 197.628 90.4602 196.146C90.4162 196.089 90.3424 196.065 90.2737 196.085C86.4573 196.82 82.5011 197.817 79.1259 199.819C77.6179 200.688 76.2809 201.824 75.1804 203.172C74.0345 204.653 73.2265 206.367 72.8131 208.194C71.1309 215.199 73.8892 222.491 78.2615 227.943C83.0642 233.947 89.9042 237.814 96.8805 240.766C100.568 242.326 104.338 243.674 108.107 245.016C110.221 245.767 112.337 246.506 114.456 247.233C114.624 247.29 114.815 247.408 114.994 247.351C115.235 247.219 115.458 247.056 115.657 246.867C116.099 246.544 116.533 246.214 116.97 245.88C117.81 245.237 118.646 244.59 119.481 243.94C126.173 238.727 133.2 233.961 140.518 229.672C141.389 229.162 142.268 228.656 143.15 228.161C143.205 228.128 143.238 228.069 143.238 228.005C143.238 227.942 143.205 227.883 143.15 227.849C138.44 225.19 133.625 222.731 128.706 220.471C126.285 219.359 123.846 218.294 121.375 217.293C118.962 216.267 116.458 215.469 113.896 214.908C111.124 214.352 108.254 214.266 105.514 215.041C105.415 215.067 105.356 215.168 105.381 215.267C105.407 215.366 105.508 215.425 105.607 215.4C110.629 213.965 115.858 215.514 120.557 217.362C125.492 219.306 130.32 221.544 135.048 223.933C137.721 225.284 140.361 226.697 142.967 228.172V227.86C135.801 231.906 128.901 236.407 122.311 241.336C120.636 242.591 118.99 243.89 117.329 245.167C116.934 245.471 116.536 245.776 116.134 246.078C115.916 246.243 115.697 246.408 115.475 246.569C115.252 246.73 115.044 246.974 114.818 246.989C114.68 246.962 114.546 246.916 114.42 246.852L114.022 246.716L113.362 246.486L111.705 245.913C107.82 244.557 103.936 243.194 100.101 241.698C93.0893 238.965 86.0269 235.601 80.6861 230.149C75.844 225.21 72.3397 218.495 72.6983 211.44C72.7722 209.498 73.2089 207.586 73.986 205.805C74.744 204.164 75.8636 202.716 77.2607 201.569C80.1087 199.202 83.7457 198.018 87.2823 197.129C88.3045 196.87 89.3339 196.644 90.3669 196.443L90.1912 196.397C92.3074 199.073 95.08 201.472 98.3834 202.494C99.8758 202.989 101.476 203.062 103.007 202.706C104.638 202.247 106.13 201.392 107.35 200.217C108.806 198.876 110.099 197.369 111.203 195.726L111.048 195.812C113.095 196.027 115.137 196.301 117.175 196.634C118.179 196.799 119.181 196.974 120.18 197.161L121.615 197.441C122.063 197.567 122.527 197.626 122.992 197.616C123.222 197.595 123.226 197.236 122.992 197.258L122.989 197.261Z" fill="black"/>
<path d="M105.012 259.129C104.503 258.771 103.85 259.37 103.484 259.692C103.004 260.041 102.698 260.58 102.645 261.17C102.65 261.19 102.669 261.204 102.689 261.204C102.71 261.204 102.728 261.19 102.734 261.17C102.782 260.628 103.057 260.132 103.491 259.804C103.691 259.615 103.908 259.446 104.14 259.298C104.377 259.103 104.708 259.069 104.98 259.212C105.026 259.244 105.069 259.165 105.023 259.133L105.012 259.129Z" fill="black"/>
<path d="M181.604 258.854C182.336 259.123 182.986 259.576 183.491 260.17C183.531 260.217 183.595 260.17 183.556 260.109C183.038 259.503 182.374 259.04 181.626 258.764C181.572 258.746 181.551 258.832 181.604 258.854V258.854Z" fill="black"/>
<path d="M161.339 195.984C161.378 196.415 161.564 196.819 161.866 197.128C162.157 197.421 162.534 197.613 162.942 197.677C163.038 197.7 163.136 197.645 163.165 197.552C163.19 197.456 163.134 197.359 163.039 197.333C162.33 197.249 161.769 196.693 161.68 195.984C161.678 195.886 161.599 195.807 161.501 195.805C161.402 195.805 161.321 195.885 161.321 195.984H161.339Z" fill="black"/>
<path d="M180.489 215.095C175.883 213.807 171.106 214.923 166.734 216.529C162.279 218.165 157.932 220.163 153.663 222.229C145.068 226.388 136.795 231.183 128.914 236.576C125.094 239.191 121.411 241.974 117.756 244.804C114.305 247.516 110.64 250.245 106.414 251.655C105.412 251.996 104.381 252.247 103.333 252.405C102.286 252.559 101.224 252.534 100.177 252.666C99.372 252.721 98.6034 253.022 97.9746 253.527C97.2572 254.18 97.0241 255.166 96.7945 256.074C96.1489 258.628 95.5021 261.179 94.8541 263.728L93.8856 267.555C93.6059 268.671 93.2544 269.786 93.075 270.92C92.9081 271.716 92.9439 272.541 93.179 273.319C93.3225 273.707 93.7888 274.549 94.2909 274.514C94.5066 274.454 94.7121 274.362 94.9007 274.241C95.1482 274.123 95.3957 274.001 95.6396 273.882C96.1919 273.6 96.7312 273.297 97.2572 272.971C98.1497 272.422 99.0041 271.813 99.8146 271.149C101.651 269.654 103.111 267.738 105.317 266.748C107.523 265.758 109.98 265.346 112.293 264.761C122.286 262.238 132.229 259.534 142.121 256.648C151.97 253.764 161.753 250.655 171.468 247.322C176.131 245.715 180.819 244.094 185.435 242.301C189.664 240.672 193.843 238.857 197.727 236.511C204.901 232.182 211.178 225.651 213.118 217.283C214.043 213.287 213.954 208.75 212.013 205.055C210.073 201.361 206.307 199.216 202.494 197.903C200.266 197.155 197.989 196.564 195.679 196.135C195.616 196.119 195.55 196.137 195.503 196.181C193.014 199.298 189.323 202.44 185.127 202.573C180.708 202.709 177.458 198.904 175.155 195.59C175.124 195.535 175.065 195.5 175.001 195.5C173.031 195.706 171.07 195.964 169.119 196.275C168.112 196.435 167.105 196.61 166.099 196.798C165.636 196.881 165.17 196.971 164.707 197.06C164.158 197.219 163.589 197.302 163.018 197.308C162.784 197.29 162.788 197.648 163.018 197.666C163.624 197.661 164.228 197.575 164.811 197.408C165.528 197.265 166.278 197.125 167.013 196.996C168.448 196.741 169.883 196.508 171.317 196.307C172.035 196.207 172.752 196.113 173.487 196.027C173.835 195.968 174.186 195.929 174.538 195.909C174.703 195.909 174.811 195.841 174.972 195.941C175.111 196.098 175.231 196.27 175.331 196.454C176.027 197.424 176.788 198.346 177.609 199.212C179.255 200.934 181.246 202.466 183.66 202.839C185.905 203.197 188.129 202.501 190.08 201.404C191.133 200.809 192.124 200.108 193.036 199.313C193.505 198.904 193.957 198.47 194.384 198.018C194.578 197.817 194.764 197.609 194.951 197.401C195.137 197.193 195.381 196.727 195.625 196.598C195.869 196.468 196.389 196.637 196.701 196.702L197.584 196.895C198.301 197.053 198.975 197.229 199.668 197.415C200.894 197.748 202.103 198.142 203.29 198.595C205.526 199.384 207.587 200.603 209.355 202.182C211.194 203.945 212.446 206.23 212.942 208.728C215.008 218.337 209.033 227.785 201.676 233.427C197.609 236.547 192.989 238.861 188.272 240.812C183.312 242.867 178.229 244.621 173.15 246.379C162.462 250.083 151.681 253.509 140.808 256.659C135.394 258.237 129.965 259.754 124.52 261.21C119.083 262.666 113.62 264.004 108.172 265.425C107.039 265.697 105.935 266.078 104.876 266.562C103.79 267.118 102.801 267.844 101.945 268.714C100.073 270.507 98.1468 272.146 95.8476 273.377C95.6037 273.509 95.3598 273.635 95.1123 273.735C94.8646 273.905 94.5872 274.027 94.2945 274.094C93.8103 274.069 93.5054 273.19 93.4301 272.796C93.2185 271.72 93.4947 270.643 93.7529 269.614C94.4703 266.745 95.196 263.884 95.9301 261.031L96.9846 256.856C97.2931 255.643 97.4868 254.141 98.6812 253.463C99.6568 252.91 100.866 252.961 101.949 252.896C103.092 252.824 104.226 252.642 105.335 252.351C109.911 251.146 113.843 248.298 117.53 245.453C121.63 242.297 125.733 239.176 130.019 236.278C134.369 233.344 138.833 230.587 143.412 228.007C147.991 225.427 152.673 223.043 157.458 220.855C159.868 219.75 162.3 218.703 164.761 217.692C167.242 216.634 169.822 215.823 172.462 215.27C175.085 214.718 177.801 214.782 180.396 215.457C180.495 215.483 180.596 215.423 180.622 215.324C180.647 215.225 180.588 215.124 180.489 215.098V215.095Z" fill="black"/>
<path d="M106.174 200.98C102.293 203.896 98.2832 202.946 94.5637 200.353C93.0222 199.252 91.6475 197.936 90.4819 196.443L90.2021 196.558C91.8407 200.258 94.7278 203.264 98.3585 205.051C101.095 206.382 104.521 206.902 107.085 205.27C108.439 204.331 109.478 203.004 110.066 201.465C110.648 199.942 111.073 198.364 111.336 196.755C111.48 196.264 111.469 195.74 111.303 195.256C109.84 197.444 108.154 199.495 106.174 200.98V200.98Z" fill="black" stroke="black"/>
<path d="M191.422 200.353C187.695 202.946 183.692 203.896 179.811 200.98C177.856 199.513 176.188 197.497 174.736 195.342L174.467 195.385C176.153 199.445 178.014 203.735 181.64 206.228C182.376 206.754 183.2 207.145 184.072 207.383C186.443 207.971 188.993 206.931 190.769 205.231C192.544 203.53 193.663 201.285 194.628 199.054C195.01 198.238 195.289 197.378 195.46 196.493C194.306 197.966 192.945 199.266 191.422 200.353V200.353Z" fill="black" stroke="black"/>
<path d="M177.559 250.991C175.325 249.951 173.201 248.688 171.221 247.222C161.921 250.414 152.55 253.393 143.107 256.16C147.985 257.595 152.877 258.982 157.781 260.321L158.857 259.847L173.057 253.56C174.578 252.885 176.124 252.197 177.397 251.121L177.559 250.991Z" fill="black" stroke="black"/>
<path d="M100.008 241.845C101.705 242.509 103.412 243.14 105.119 243.757C108.369 244.933 111.628 246.081 114.897 247.2C116.565 245.998 118.183 244.722 119.775 243.484C124.194 240.055 128.759 236.827 133.47 233.8C130.579 235.364 127.684 236.938 124.675 238.229C120.28 240.112 115.65 241.39 110.912 242.028C107.3 242.512 103.592 242.616 100.037 241.806L100.008 241.845Z" fill="black"/>
<path d="M99.9583 242.017C104.765 243.89 109.643 245.583 114.517 247.258C114.637 247.317 114.765 247.359 114.897 247.38C115.023 247.38 115.141 247.243 115.234 247.175C115.503 246.981 115.772 246.784 116.038 246.583C116.547 246.203 117.054 245.819 117.559 245.432C118.534 244.679 119.503 243.918 120.478 243.165C122.48 241.628 124.512 240.129 126.576 238.671C128.867 237.047 131.196 235.475 133.563 233.954C133.649 233.905 133.679 233.795 133.629 233.708C133.58 233.622 133.47 233.593 133.384 233.642C129.352 235.826 125.306 237.979 120.959 239.471C116.721 240.947 112.305 241.849 107.828 242.154C105.235 242.349 102.628 242.175 100.084 241.637C100.022 241.619 99.9559 241.637 99.9116 241.684L99.8793 241.72C99.7359 241.899 99.9905 242.154 100.134 241.974L100.163 241.938L99.9905 241.981C104.488 242.997 109.194 242.609 113.689 241.763C118.144 240.915 122.474 239.507 126.576 237.573C128.95 236.458 131.257 235.206 133.559 233.958L133.38 233.646C130.884 235.257 128.424 236.922 126.002 238.639C123.584 240.357 121.214 242.143 118.871 243.965C117.53 245.009 116.189 246.052 114.808 247.05L114.947 247.032C111.056 245.694 107.171 244.334 103.308 242.907C102.223 242.505 101.138 242.095 100.055 241.677C99.8399 241.587 99.7466 241.935 99.9583 242.017V242.017Z" fill="black"/>
<path d="M124.022 197.544C127.341 200.912 131.353 203.516 135.78 205.177C140.159 206.816 144.962 207.494 149.556 206.611C154.151 205.729 158.523 203.251 161.196 199.438C161.657 198.799 162.048 198.112 162.361 197.39C162.056 197.337 161.791 197.15 161.64 196.88C161.489 196.609 161.468 196.285 161.583 195.998C157.924 199.197 153.258 201.138 148.452 201.848C145.856 202.177 143.241 202.327 140.625 202.296C138.938 202.301 137.255 202.131 135.604 201.787C133.86 201.396 132.173 200.786 130.582 199.972C128.399 198.953 126.35 197.667 124.485 196.142C124.32 196.5 124.155 197.071 123.99 197.418" fill="black"/>
<path d="M123.893 197.67C125.949 199.75 128.273 201.546 130.805 203.01C133.409 204.531 136.217 205.672 139.144 206.4C142.207 207.179 145.389 207.375 148.524 206.977C151.261 206.615 153.893 205.69 156.257 204.262C158.615 202.861 160.587 200.895 161.996 198.541C162.193 198.201 162.369 197.849 162.523 197.487C162.562 197.394 162.544 197.243 162.415 197.225C162.164 197.185 161.944 197.036 161.815 196.818C161.685 196.599 161.659 196.334 161.745 196.095C161.79 196.017 161.77 195.917 161.698 195.863C161.626 195.808 161.524 195.815 161.461 195.88C157.788 199.079 153.122 201.002 148.323 201.698C146.883 201.894 145.435 202.014 143.983 202.056C142.605 202.107 141.214 202.153 139.833 202.11C137.227 202.06 134.652 201.528 132.24 200.543C129.481 199.43 126.908 197.905 124.607 196.02C124.567 195.982 124.513 195.965 124.458 195.972C124.404 195.979 124.356 196.01 124.327 196.056C124.137 196.472 124.022 196.92 123.832 197.336C123.735 197.544 124.044 197.727 124.141 197.515C124.331 197.099 124.445 196.655 124.636 196.239L124.356 196.274C126.428 197.965 128.718 199.37 131.163 200.453C132.35 201.015 133.585 201.466 134.854 201.802C136.142 202.12 137.455 202.327 138.778 202.419C140.188 202.523 141.608 202.48 143.021 202.447C144.435 202.415 145.891 202.343 147.326 202.182C149.844 201.915 152.316 201.312 154.675 200.389C157.247 199.379 159.629 197.94 161.719 196.135L161.436 195.919C161.296 196.256 161.314 196.637 161.487 196.958C161.659 197.279 161.968 197.505 162.326 197.573L162.218 197.311C161.626 198.623 160.82 199.826 159.833 200.873C158.938 201.85 157.932 202.72 156.834 203.462C154.637 204.946 152.159 205.962 149.553 206.45C146.464 207.007 143.295 206.951 140.227 206.285C137.31 205.668 134.498 204.629 131.881 203.201C129.349 201.837 127.01 200.142 124.926 198.161C124.668 197.917 124.417 197.67 124.166 197.415C124.004 197.25 123.75 197.505 123.911 197.67H123.893Z" fill="black"/>
<path d="M111.831 149.98C112.229 150.252 112.663 150.467 113.122 150.618C113.463 150.726 113.918 150.876 114.237 150.618C114.768 150.206 114.41 149.327 114.876 148.861C115.235 148.502 115.801 148.574 116.242 148.674C116.682 148.827 117.154 148.864 117.613 148.782C118.263 148.529 118.713 147.928 118.771 147.232C118.907 146.203 118.29 145.241 117.756 144.413C117.727 144.366 117.648 144.413 117.681 144.459C118.165 145.213 118.714 146.052 118.699 146.97C118.699 147.688 118.265 148.534 117.505 148.706C116.745 148.878 115.912 148.262 115.116 148.588C114.474 148.853 114.557 149.556 114.417 150.116C114.388 150.3 114.286 150.464 114.133 150.571C113.877 150.681 113.587 150.681 113.33 150.571C112.818 150.423 112.334 150.193 111.895 149.89C111.845 149.858 111.802 149.933 111.849 149.965L111.831 149.98Z" fill="black"/>
<path d="M120.762 161.067C120.299 160.525 119.686 160.174 119.158 159.686C118.882 159.447 118.676 159.137 118.563 158.789C118.448 158.322 118.514 157.828 118.749 157.408C119.167 156.638 119.822 156.024 120.618 155.658C121.335 155.324 122.078 155.181 122.562 154.51C122.838 154.13 123.097 153.775 123.599 153.728C124.012 153.7 124.421 153.835 124.736 154.105C125.424 154.689 125.546 155.643 125.683 156.479C125.726 156.878 125.854 157.264 126.059 157.609C126.316 157.921 126.6 158.209 126.909 158.47C127.483 159.073 127.806 159.872 127.813 160.704C127.813 161.669 127.376 162.857 126.274 162.932C125.74 162.948 125.206 162.868 124.7 162.695C124.179 162.537 123.681 162.311 123.219 162.024C123.172 161.992 123.125 162.071 123.175 162.1C124.012 162.634 124.969 162.95 125.959 163.021C126.377 163.068 126.797 162.951 127.132 162.695C127.436 162.422 127.656 162.067 127.767 161.673C127.995 160.883 127.929 160.036 127.58 159.291C127.396 158.901 127.138 158.55 126.82 158.258C126.408 157.951 126.09 157.535 125.901 157.057C125.625 156.167 125.69 155.202 125.127 154.406C124.714 153.829 123.922 153.434 123.226 153.732C122.817 153.904 122.637 154.298 122.365 154.621C122.022 154.961 121.599 155.208 121.135 155.339C120.287 155.625 119.54 156.149 118.983 156.849C118.419 157.587 118.165 158.563 118.753 159.359C119.273 160.077 120.123 160.435 120.69 161.11C120.726 161.156 120.79 161.11 120.754 161.049L120.762 161.067Z" fill="black"/>
<path d="M108.9 157.365C110.195 158.703 111.335 160.64 110.496 162.523C110.471 162.573 110.55 162.62 110.571 162.566C111.429 160.647 110.288 158.671 108.965 157.304C108.925 157.261 108.861 157.326 108.9 157.365V157.365Z" fill="black"/>
<path d="M127.813 173.291C127.897 172.391 128.394 171.581 129.158 171.099C129.517 170.88 129.937 170.782 130.356 170.819C130.929 170.926 131.475 171.148 131.959 171.472L133.437 172.29C133.796 172.484 134.176 172.774 134.592 172.609C134.781 172.51 134.964 172.401 135.141 172.283C135.357 172.175 135.596 172.122 135.837 172.129C136.279 172.152 136.703 172.31 137.053 172.581C137.817 173.2 138.236 174.149 138.179 175.131C138.133 176.073 137.662 176.944 136.898 177.498C136.048 178.126 135.051 178.176 134.029 178.065C133.57 178.015 133.122 177.939 132.709 178.201C132.515 178.327 132.35 178.484 132.135 178.592C131.88 178.716 131.601 178.78 131.317 178.779C130.145 178.779 129.216 177.885 128.566 176.985C127.911 176.083 127.468 175.045 127.271 173.947C127.271 173.89 127.175 173.915 127.185 173.972C127.37 175.016 127.779 176.007 128.383 176.878C128.936 177.677 129.685 178.492 130.654 178.761C131.108 178.896 131.594 178.88 132.038 178.714C132.262 178.608 132.472 178.477 132.666 178.323C132.924 178.139 133.24 178.055 133.556 178.086C134.15 178.165 134.75 178.194 135.349 178.172C136.735 178.029 137.877 177.02 138.19 175.662C138.394 174.731 138.186 173.758 137.619 172.993C137.124 172.337 136.231 171.838 135.396 172.057C135.203 172.114 135.021 172.202 134.858 172.319C134.748 172.4 134.627 172.465 134.499 172.512C134.301 172.561 134.091 172.527 133.918 172.419C133.344 172.139 132.792 171.799 132.236 171.49C131.71 171.142 131.131 170.883 130.521 170.723C130.075 170.643 129.615 170.716 129.216 170.931C128.365 171.414 127.806 172.284 127.72 173.258C127.72 173.316 127.806 173.316 127.81 173.258L127.813 173.291Z" fill="black"/>
<path d="M136.425 159.377C136.319 160.084 136.385 160.806 136.616 161.483C136.827 162.181 137.234 162.803 137.788 163.276C138.022 163.467 138.32 163.56 138.621 163.535C138.763 163.519 138.898 163.464 139.011 163.377C139.169 163.251 139.266 163.054 139.471 162.993C139.829 162.882 140.235 163.226 140.547 163.352C140.841 163.473 141.164 163.503 141.476 163.438C142.198 163.268 142.694 162.604 142.652 161.863C142.652 161.806 142.559 161.806 142.562 161.863C142.607 162.601 142.083 163.251 141.354 163.366C141.011 163.409 140.664 163.337 140.367 163.162C140.149 163.02 139.905 162.923 139.65 162.875C139.415 162.865 139.192 162.976 139.058 163.169C138.767 163.479 138.291 163.525 137.946 163.276C137.385 162.864 136.964 162.29 136.741 161.63C136.465 160.921 136.379 160.151 136.494 159.399C136.494 159.345 136.415 159.32 136.404 159.377H136.425Z" fill="black"/>
<path d="M148.054 171.027C147.445 170.215 147.445 169.099 148.054 168.287C148.681 167.405 149.707 167.035 150.74 166.895C151.222 166.858 151.695 166.75 152.146 166.576C152.56 166.35 152.958 166.096 153.337 165.816C153.755 165.523 154.263 165.385 154.772 165.425C155.282 165.489 155.76 165.708 156.142 166.052C156.931 166.77 157.218 167.846 157.275 168.879C157.322 169.79 157.175 170.798 156.558 171.522C155.941 172.247 154.983 172.379 154.262 172.957C153.93 173.256 153.664 173.623 153.484 174.033C153.281 174.467 152.965 174.839 152.569 175.109C151.688 175.631 150.589 175.62 149.718 175.08C148.824 174.477 148.236 173.517 148.104 172.448C148.104 172.394 148.011 172.415 148.018 172.473C148.146 173.447 148.64 174.337 149.399 174.962C150.107 175.522 151.037 175.716 151.909 175.486C152.329 175.38 152.713 175.165 153.021 174.861C153.341 174.466 153.614 174.035 153.836 173.577C154.424 172.641 155.572 172.562 156.346 171.874C157.064 171.242 157.322 170.245 157.343 169.32C157.409 168.262 157.111 167.213 156.501 166.346C155.933 165.586 154.982 165.217 154.051 165.396C153.56 165.568 153.102 165.824 152.699 166.153C152.202 166.492 151.631 166.708 151.034 166.78C150.418 166.833 149.813 166.979 149.241 167.214C148.755 167.438 148.332 167.776 148.007 168.201C147.347 169.057 147.347 170.25 148.007 171.106C148.043 171.153 148.107 171.088 148.068 171.042L148.054 171.027Z" fill="black"/>
<path d="M154.549 155.78C156.129 156.327 157.884 155.877 159.004 154.635C159.421 154.216 159.683 153.667 159.746 153.079C159.775 152.311 159.309 151.626 159.183 150.887C159.183 150.83 159.087 150.855 159.097 150.909C159.234 151.712 159.815 152.491 159.628 153.326C159.434 154.055 158.986 154.691 158.366 155.12C157.279 155.937 155.855 156.159 154.571 155.711C154.517 155.69 154.495 155.776 154.549 155.798V155.78Z" fill="black"/>
<path d="M163.265 160.36C162.093 159.711 162.211 158.058 162.95 157.132C163.411 156.598 163.991 156.179 164.643 155.909C165.321 155.597 166.25 155.159 166.971 155.55C167.291 155.756 167.562 156.031 167.763 156.354C167.977 156.654 168.171 156.968 168.344 157.294C168.704 157.983 169.001 158.703 169.23 159.446C169.46 160.163 169.65 160.902 169.833 161.637C169.95 162.032 170.028 162.436 170.066 162.846C170.089 163.278 169.942 163.701 169.657 164.026C169.101 164.727 168.317 165.212 167.44 165.396C166.49 165.547 165.529 165.256 164.625 164.984C164.571 164.984 164.546 165.052 164.6 165.07C165.468 165.332 166.375 165.604 167.29 165.504C168.091 165.389 168.83 165.01 169.392 164.428C169.674 164.19 169.899 163.892 170.052 163.556C170.18 163.165 170.194 162.746 170.091 162.347C169.926 161.501 169.689 160.654 169.442 159.837C169.208 159.023 168.902 158.232 168.527 157.473C168.194 156.809 167.774 156.038 167.161 155.586C166.472 155.091 165.636 155.403 164.93 155.694C164.221 155.953 163.577 156.363 163.043 156.895C162.534 157.415 162.265 158.124 162.301 158.85C162.312 159.504 162.659 160.106 163.219 160.443C163.269 160.472 163.316 160.393 163.265 160.364V160.36Z" fill="black"/>
<path d="M167.871 144.434C167.76 145.68 168.104 146.923 168.839 147.935C169.542 148.85 170.614 149.406 171.766 149.456C172.552 149.477 173.305 149.147 174.094 149.219C174.151 149.219 174.151 149.133 174.094 149.129C173.269 149.054 172.484 149.409 171.662 149.363C170.906 149.31 170.185 149.025 169.596 148.548C168.355 147.566 167.857 145.944 167.961 144.409C167.961 144.352 167.874 144.352 167.871 144.409V144.434Z" fill="black"/>
<path d="M176.83 156.598C176.233 157.338 175.879 158.245 175.815 159.195C175.782 159.665 175.82 160.138 175.927 160.597C175.98 160.842 176.054 161.082 176.149 161.314C176.192 161.418 176.239 161.522 176.292 161.626L176.386 161.802L176.422 161.859C176.497 161.935 176.49 161.996 176.393 162.046C176.393 161.989 176.3 161.989 176.303 162.046C176.306 162.094 176.336 162.136 176.379 162.155C176.423 162.175 176.474 162.169 176.511 162.139C176.655 162.039 176.511 161.831 176.447 161.727C176.153 161.198 175.972 160.614 175.916 160.012C175.794 158.817 176.144 157.621 176.891 156.68C176.927 156.634 176.866 156.573 176.83 156.616V156.598Z" fill="black"/>
<path d="M143.882 182.038C142.964 181.679 141.992 182.501 141.411 183.114C140.83 183.727 140.374 184.793 140.901 185.625C141.201 186.039 141.564 186.402 141.978 186.701C142.374 187.034 142.788 187.346 143.219 187.634C144.032 188.208 144.965 188.589 145.948 188.749C146.814 188.875 147.697 188.738 148.484 188.354C149.286 187.909 149.886 187.174 150.163 186.299C150.521 185.437 150.645 184.495 150.521 183.57C150.367 182.782 149.801 182.138 149.04 181.884C148.15 181.547 147.146 181.547 146.303 181.08C146.075 180.942 145.864 180.777 145.676 180.589C145.535 180.442 145.349 180.347 145.148 180.32C144.769 180.295 144.427 180.546 144.338 180.915C144.338 180.973 144.409 180.998 144.424 180.941C144.475 180.725 144.627 180.548 144.832 180.465C145.038 180.382 145.271 180.404 145.457 180.524C145.64 180.646 145.78 180.826 145.955 180.962C146.092 181.062 146.237 181.15 146.389 181.224C147.055 181.485 147.746 181.677 148.452 181.798C149.201 181.988 149.922 182.318 150.267 183.053C150.611 183.788 150.496 184.771 150.285 185.564C150.048 186.443 149.7 187.332 148.972 187.917C148.304 188.423 147.489 188.697 146.651 188.695C144.779 188.727 143.161 187.598 141.795 186.432C141.396 186.073 140.945 185.736 140.797 185.205C140.674 184.652 140.791 184.071 141.12 183.609C141.431 183.16 141.823 182.772 142.275 182.465C142.731 182.146 143.294 181.891 143.846 182.106C143.9 182.128 143.922 182.042 143.871 182.02L143.882 182.038Z" fill="black"/>
<path d="M129.32 188.638C129.259 187.771 129.67 186.939 130.396 186.461C130.804 186.13 131.374 186.084 131.83 186.346C132.23 186.619 132.591 186.944 132.906 187.311C133.247 187.688 133.463 188.162 133.523 188.667C133.544 188.889 133.52 189.114 133.452 189.327C133.376 189.563 133.204 189.739 133.114 189.965C132.978 190.324 133.251 190.557 133.452 190.804C134.315 191.874 134.59 193.303 134.187 194.617C134.041 195.125 133.667 195.536 133.175 195.729C132.725 195.887 132.258 195.991 131.784 196.038C130.862 196.152 129.836 196.091 129.058 195.532C128.35 195.058 127.973 194.224 128.086 193.38C128.179 192.939 128.527 192.569 128.538 192.106C128.544 191.73 128.345 191.379 128.018 191.192C127.702 191.013 126.898 190.944 127.189 190.388C127.516 189.903 127.998 189.543 128.556 189.366C128.609 189.348 128.588 189.262 128.534 189.28C128.086 189.441 127.682 189.703 127.35 190.044C127.124 190.277 126.881 190.643 127.185 190.916C127.49 191.188 127.931 191.149 128.211 191.461C128.404 191.68 128.485 191.974 128.434 192.261C128.349 192.532 128.237 192.794 128.1 193.043C127.827 193.804 128.012 194.655 128.577 195.234C129.254 195.915 130.196 196.264 131.152 196.188C131.68 196.171 132.204 196.098 132.716 195.969C133.175 195.899 133.597 195.677 133.914 195.338C134.477 194.65 134.546 193.57 134.402 192.727C134.326 192.264 134.173 191.816 133.95 191.403C133.846 191.214 133.726 191.034 133.591 190.865C133.387 190.6 133.032 190.342 133.208 189.965C133.321 189.782 133.424 189.593 133.516 189.398C133.595 189.168 133.624 188.924 133.602 188.681C133.548 188.207 133.361 187.758 133.061 187.386C132.729 186.974 132.34 186.612 131.906 186.31C131.487 186.041 130.95 186.041 130.532 186.31C129.677 186.772 129.17 187.69 129.233 188.66C129.233 188.717 129.327 188.717 129.323 188.66L129.32 188.638Z" fill="black"/>
<path d="M139.305 201.68C140.288 201.468 140.457 200.342 140.582 199.528C140.694 198.457 141.297 197.499 142.214 196.934C142.647 196.68 143.152 196.578 143.649 196.644C144.158 196.753 144.58 197.108 144.775 197.591C144.901 197.853 145.001 198.498 145.424 198.383C145.668 198.319 145.837 198.129 146.099 198.089C146.414 198.05 146.733 198.133 146.988 198.322C147.488 198.736 147.856 199.287 148.046 199.908C148.271 200.515 148.381 201.158 148.373 201.805C148.378 201.825 148.397 201.839 148.418 201.839C148.438 201.839 148.457 201.825 148.462 201.805C148.492 200.685 148.149 199.586 147.487 198.681C147.214 198.289 146.783 198.036 146.307 197.989C146.085 197.98 145.865 198.037 145.676 198.154C145.536 198.236 145.338 198.398 145.181 198.258C145.081 198.125 145.011 197.974 144.972 197.813C144.824 197.372 144.533 196.993 144.144 196.737C143.779 196.551 143.361 196.495 142.96 196.579C141.998 196.799 141.198 197.466 140.808 198.373C140.591 198.95 140.447 199.553 140.381 200.166C140.259 200.79 139.951 201.486 139.266 201.633C139.208 201.633 139.234 201.734 139.291 201.719L139.305 201.68Z" fill="black"/>
<path d="M161.124 180.693C160.048 181.03 158.932 181.385 158.029 182.088C157.203 182.698 156.691 183.643 156.633 184.667C156.621 185.141 156.754 185.606 157.014 186.002C157.101 186.107 157.167 186.229 157.207 186.36C157.207 186.567 157.133 186.767 156.999 186.924C156.839 187.191 156.712 187.476 156.619 187.774C156.321 188.756 156.655 189.832 157.695 190.148C158.019 190.237 158.348 190.303 158.681 190.345C159.049 190.414 159.425 190.431 159.797 190.396C160.329 190.35 160.812 190.07 161.117 189.632C161.149 189.585 161.07 189.538 161.038 189.589C160.371 190.636 158.828 190.353 157.81 190.091C157.253 189.974 156.807 189.56 156.648 189.015C156.515 188.463 156.583 187.881 156.841 187.375C157.01 187.017 157.412 186.615 157.222 186.192C157.128 185.984 156.97 185.808 156.863 185.596C156.757 185.356 156.696 185.098 156.684 184.836C156.672 183.854 157.105 182.92 157.86 182.293C158.775 181.497 159.969 181.12 161.106 180.761C161.163 180.743 161.138 180.657 161.085 180.675L161.124 180.693Z" fill="black"/>
<path d="M154.772 200.532C154.467 200.037 154.75 199.456 155.019 199.004C155.317 198.521 155.659 198.068 156.041 197.648C156.4 197.272 156.805 196.849 157.347 196.823C157.619 196.823 157.887 196.899 158.118 197.042C158.229 197.107 158.333 197.178 158.437 197.25L158.602 197.372L158.696 197.444C158.792 197.508 158.796 197.605 158.696 197.738C158.638 197.738 158.638 197.824 158.696 197.828C158.9 197.828 158.94 197.612 158.839 197.469C158.749 197.367 158.644 197.28 158.527 197.211C158.381 197.1 158.226 197 158.064 196.913C157.525 196.631 156.867 196.72 156.422 197.135C155.867 197.625 155.392 198.197 155.012 198.832C154.693 199.331 154.33 200.005 154.686 200.575C154.698 200.596 154.726 200.602 154.747 200.59C154.767 200.577 154.774 200.549 154.761 200.529L154.772 200.532Z" fill="black"/>
<path d="M72.9676 207.537C72.0744 211.185 74.6821 214.553 77.0888 216.977C79.7717 219.682 82.8851 221.916 86.1024 223.943C87.9389 225.098 89.8148 226.192 91.6943 227.275C91.715 227.288 91.7423 227.281 91.7552 227.261C91.7681 227.24 91.7617 227.212 91.7409 227.2C88.4745 225.381 85.3065 223.391 82.2502 221.238C80.7156 220.13 79.255 218.922 77.8779 217.623C76.5022 216.374 75.2963 214.95 74.2911 213.387C73.233 211.647 72.5623 209.596 73.0608 207.562C73.0608 207.505 72.9855 207.483 72.9747 207.537H72.9676Z" fill="black"/>
<path d="M194.04 226.06C197.067 224.022 200.102 221.964 202.863 219.571C205.625 217.179 208.079 214.467 209.79 211.253C210.852 209.344 211.493 207.23 211.669 205.052C211.669 204.994 211.583 204.994 211.579 205.052C211.353 208.883 209.334 212.423 206.942 215.328C204.66 218.101 201.884 220.418 198.997 222.53C197.358 223.728 195.676 224.865 193.975 225.995C193.929 226.027 193.975 226.106 194.022 226.074L194.04 226.06Z" fill="black"/>
<path d="M129.37 119.327C129.028 119.593 128.814 119.992 128.782 120.425C128.758 120.829 128.934 121.219 129.252 121.469C129.574 121.707 130.004 121.742 130.36 121.558C130.74 121.29 130.998 120.883 131.078 120.425C131.174 120.041 131.286 119.41 130.909 119.137C130.862 119.101 130.816 119.18 130.862 119.212C131.178 119.442 131.081 120.002 131.009 120.321C130.945 120.729 130.752 121.107 130.457 121.397C130.148 121.642 129.718 121.668 129.381 121.461C129.063 121.255 128.87 120.901 128.868 120.522C128.874 120.082 129.082 119.67 129.431 119.403C129.478 119.367 129.413 119.302 129.37 119.338V119.327Z" fill="black"/>
<path d="M155.066 119.227C154.596 119.994 154.489 121.06 155.195 121.738C155.485 122.043 155.919 122.164 156.325 122.053C156.514 121.961 156.664 121.804 156.748 121.612C156.873 121.401 156.967 121.173 157.025 120.934C157.153 120.483 156.954 120.003 156.544 119.776C156.494 119.754 156.447 119.829 156.501 119.855C156.849 120.04 157.033 120.433 156.953 120.819C156.915 121.036 156.843 121.245 156.741 121.44C156.663 121.642 156.527 121.816 156.35 121.942C155.992 122.143 155.514 121.917 155.245 121.659C154.975 121.393 154.809 121.039 154.776 120.662C154.744 120.176 154.869 119.693 155.134 119.284C155.142 119.263 155.133 119.24 155.114 119.228C155.095 119.217 155.07 119.221 155.055 119.238L155.066 119.227Z" fill="black"/>
<path d="M120.216 95.1518C121.083 95.6004 121.891 96.1533 122.623 96.7982C122.666 96.834 122.727 96.7731 122.684 96.7336C121.948 96.0824 121.134 95.5257 120.259 95.0765C120.209 95.0478 120.163 95.1267 120.216 95.1518Z" fill="black"/>
<path d="M123.05 89.5172L125.751 92.896C125.787 92.9426 125.851 92.8781 125.815 92.8314L123.115 89.4527C123.079 89.406 123.014 89.4706 123.05 89.5172Z" fill="black"/>
<path d="M128.48 84.9507L129.987 89.9149C129.987 89.9687 130.091 89.9435 130.073 89.8897L128.567 84.9292C128.549 84.8718 128.463 84.8969 128.48 84.9507Z" fill="black"/>
<path d="M134.499 89.1367C134.364 88.8163 134.327 88.4632 134.392 88.1216C134.392 88.0678 134.316 88.0427 134.306 88.1001C134.238 88.451 134.276 88.814 134.413 89.1439C134.435 89.1977 134.521 89.1761 134.499 89.1223V89.1367Z" fill="black"/>
<path d="M75.0445 174.284C75.0499 177.434 75.6954 180.549 76.942 183.441C77.2989 184.271 77.7049 185.078 78.1579 185.859C78.1866 185.909 78.2655 185.859 78.2368 185.812C76.6548 183.075 75.6502 180.043 75.2848 176.903C75.1844 176.033 75.1341 175.159 75.1342 174.284C75.1342 174.227 75.0409 174.227 75.0445 174.284Z" fill="black"/>
<path d="M73.9215 179.112C74.0107 180.468 74.3208 181.801 74.8397 183.058C74.8612 183.111 74.9473 183.086 74.9258 183.032C74.409 181.783 74.1001 180.458 74.0112 179.108C74.0112 179.051 73.9179 179.051 73.9215 179.108V179.112Z" fill="black"/>
<path d="M203.789 193.474C206.272 189.256 207.889 184.586 208.545 179.736C208.732 178.365 208.838 176.984 208.864 175.601C208.864 175.543 208.778 175.543 208.774 175.601C208.648 181.879 206.905 188.019 203.713 193.427C203.685 193.477 203.76 193.524 203.789 193.474V193.474Z" fill="black"/>
<path d="M207.369 193.193C208.597 190.965 209.508 188.576 210.073 186.095C210.079 186.071 210.065 186.047 210.041 186.041C210.017 186.035 209.993 186.05 209.987 186.074C209.427 188.546 208.524 190.928 207.304 193.15C207.275 193.201 207.354 193.244 207.379 193.193H207.369Z" fill="black"/>
</svg>
