<svg width="735" height="472" viewBox="0 0 735 472" fill="none" xmlns="http://www.w3.org/2000/svg">
<path d="M21.8422 16.8845C16.5881 16.7987 12.5031 20.8056 12.5098 26.0385L12.7647 225.239C12.7721 230.964 17.6422 235.888 23.3911 235.982L309.645 240.658C314.9 240.744 318.985 236.737 318.978 231.504L318.723 32.3039C318.715 26.5782 313.845 21.6544 308.096 21.5605L21.8422 16.8845Z" fill="#F8F9FA" stroke="black" stroke-width="1.98"/>
<path d="M279.903 99.9478L166.08 99.6242C165.116 99.6215 164.376 100.633 164.426 101.883L164.442 102.276C164.492 103.526 165.314 104.542 166.278 104.544L280.101 104.868C281.065 104.871 281.806 103.86 281.755 102.609L281.74 102.216C281.689 100.966 280.867 99.9505 279.903 99.9478Z" fill="#BFC2C8"/>
<path d="M299.873 116.91L186.05 116.587C185.086 116.584 184.345 117.596 184.396 118.846L184.412 119.239C184.462 120.49 185.284 121.506 186.248 121.508L300.071 121.831C301.035 121.834 301.775 120.823 301.725 119.572L301.709 119.179C301.659 117.929 300.837 116.913 299.873 116.91Z" fill="#BFC2C8"/>
<path d="M207.068 133.205L166.833 132.831C166.492 132.828 166.265 133.777 166.325 134.951L166.343 135.32C166.403 136.495 166.728 137.449 167.069 137.452L207.304 137.827C207.645 137.83 207.872 136.881 207.812 135.707L207.793 135.337C207.733 134.163 207.408 133.209 207.068 133.205Z" fill="#BFC2C8"/>
<path d="M300.489 132.44L221.373 132.048C220.703 132.044 220.204 133.02 220.257 134.228L220.274 134.607C220.327 135.814 220.914 136.796 221.584 136.799L300.699 137.192C301.37 137.195 301.869 136.219 301.816 135.012L301.799 134.632C301.746 133.425 301.159 132.443 300.489 132.44Z" fill="#BFC2C8"/>
<path d="M59.6197 91.3035C62.8185 94.9741 66.1453 98.5158 69.5107 102.027C61.5426 107.856 58.2402 115.811 58.435 123.577C58.6292 131.317 62.2915 138.854 68.1934 143.966C65.667 146.882 63.1732 149.817 60.696 152.77C59.1167 154.643 57.5517 156.553 55.9915 158.457C55.0704 159.581 54.151 160.703 53.2313 161.814C42.0788 152.52 35.0697 138.652 34.4023 124.397C33.734 110.121 39.4205 95.4546 53.7164 84.5261C54.9546 86.0023 56.2331 87.4515 57.5017 88.8897C58.2134 89.6965 58.922 90.4998 59.6187 91.3024L59.6197 91.3035Z" fill="#BABECB" stroke="black" stroke-width="1.78148"/>
<path d="M117.075 77.9905C134.2 89.1676 147.75 112.214 139.31 140.215L139.285 140.257L139.25 140.371C135.815 151.688 129.401 161.838 117.116 167.901C111.478 170.679 105.534 171.817 99.5239 172.268C93.692 172.682 87.8934 172.322 82.2797 171.217C74.9656 169.768 68.3994 166.392 62.8637 161.686C63.7687 160.513 64.6629 159.343 65.5552 158.176C67.0186 156.261 68.4767 154.352 69.9683 152.455L69.9699 152.453C72.2878 149.488 74.6191 146.543 76.9787 143.619C79.9067 146.042 83.3847 147.796 87.2648 148.548C90.2606 149.138 93.3763 149.331 96.4962 149.098C99.6842 148.869 102.969 148.237 106.099 146.708L106.101 146.707C112.919 143.359 116.432 137.712 118.295 131.606L118.295 131.604C122.879 116.459 115.564 104.052 106.379 98.0786C104.636 96.9392 102.733 96.0642 100.752 95.4568L100.745 95.4543C100.74 95.4528 100.735 95.4513 100.731 95.4498C100.768 95.295 100.805 95.1401 100.841 94.9852C102.588 87.6597 104.346 80.2855 105.87 72.9121C109.838 74.0361 113.625 75.7452 117.075 77.9905Z" fill="#E74F4F" stroke="black" stroke-width="1.78148"/>
<path d="M62.2043 85.6738L62.8987 85.0496C62.8989 85.0499 62.8991 85.0501 62.8993 85.0504C66.3227 88.8417 69.8901 92.5031 73.5125 96.1494C73.5753 96.1103 73.6481 96.0658 73.7245 96.0229C80.5342 91.8202 88.7938 90.6631 96.158 92.2563C98.0411 84.722 99.9135 77.1831 101.548 69.615C87.3739 66.4494 71.4814 68.7768 58.6681 77.0093C58.0366 77.418 57.4017 77.846 56.7831 78.2768L56.018 78.8199C57.3074 80.3025 58.634 81.7541 59.9583 83.2032C60.7101 84.0258 61.4612 84.8476 62.2043 85.6738ZM62.2043 85.6738C65.7914 89.6466 69.5333 93.4741 73.3226 97.2823L62.2043 85.6738Z" fill="#465173" stroke="black" stroke-width="1.78148"/>
<path d="M317.408 53.2251L318.315 53.2356L318.314 52.3312L318.285 30.5743C318.278 24.9403 313.552 20.1796 307.902 20.1143L22.0332 16.8093C16.7306 16.748 12.5596 20.8642 12.5666 26.1516L12.5963 48.7117L12.5976 49.7011L13.5899 49.7126L317.408 53.2251Z" fill="#465173" stroke="black" stroke-width="1.9"/>
<ellipse cx="3.78516" cy="3.53838" rx="3.78516" ry="3.53838" transform="matrix(0.490149 -0.869631 0.872024 0.49327 24.917 35.6475)" fill="#C03434"/>
<ellipse cx="3.78516" cy="3.53838" rx="3.78516" ry="3.53838" transform="matrix(0.490149 -0.869631 0.872024 0.49327 35.9229 35.6321)" fill="#FFDA68"/>
<ellipse cx="3.79476" cy="3.53647" rx="3.79476" ry="3.53647" transform="matrix(0.19607 0.982467 -0.979671 0.191888 55.2686 29.6786)" fill="#2D978C"/>
<mask id="mask0_1000_72497" style="mask-type:alpha" maskUnits="userSpaceOnUse" x="91" y="0" width="231" height="241">
<rect x="-1.26179" y="-1.19931" width="214.598" height="235.831" rx="10.1663" transform="matrix(0.999765 0.0129986 0.062661 0.996817 93.4049 2.63984)" fill="white" stroke="black" stroke-width="2.37531"/>
</mask>
<g mask="url(#mask0_1000_72497)">
<path d="M191.764 111.766L217.299 117.704C228.752 122.027 258.703 149.788 284.237 183.042C287.405 193.41 270.338 207.906 266.422 220.453C262.114 234.259 270.743 246.455 270.743 265.567C252.335 259.035 219.08 262.598 206.61 268.536C196.634 273.287 173.158 269.724 162.667 267.348C174.068 261.172 177.513 220.634 177.513 196.089C170.387 191.932 152.572 188.963 140.695 185.994C148.296 157.965 178.7 125.226 191.764 111.766Z" fill="#465173"/>
<path d="M177.513 196.089C170.387 191.932 152.572 188.963 140.695 185.994C148.296 157.965 178.7 125.226 191.764 111.766L217.299 117.704C228.752 122.027 258.703 149.788 284.237 183.042C287.405 193.41 270.338 207.906 266.422 220.453C262.114 234.259 270.743 246.455 270.743 265.567C252.335 259.035 219.08 262.598 206.61 268.536C196.634 273.287 173.158 269.724 162.667 267.348C174.068 261.172 177.513 220.634 177.513 196.089ZM177.513 196.089L189.389 202.027C189.389 183.042 189.389 166.992 191.764 148.583" stroke="black" stroke-width="2.25654" stroke-linecap="round" stroke-linejoin="round"/>
<path d="M231.98 149.194C251.577 175.916 269.951 246.366 271.337 265.567" stroke="black" stroke-width="2.25654" stroke-linecap="round" stroke-linejoin="round"/>
<path d="M140.101 186.691C152.545 194.415 172.168 211.515 188.795 203.243C173.375 197.174 142.049 185.366 140.101 186.691Z" fill="black" stroke="black" stroke-width="2.25654" stroke-linecap="round" stroke-linejoin="round"/>
<path d="M215.353 209.17L172.598 248.957L174.973 236.486L215.353 209.17Z" fill="black" stroke="black" stroke-width="2.25654" stroke-linecap="round" stroke-linejoin="round"/>
<circle cx="258.109" cy="183.042" r="3.56296" fill="black"/>
<path d="M316.899 241.237C325.806 225.798 292.75 194.523 277.112 177.104L278.3 186.605L259.298 194.325L245.804 224.593C252.683 230.865 263.945 226.88 273.714 231.263C292.614 239.742 312.592 243.977 316.899 241.237Z" fill="#F5B896" stroke="black" stroke-width="2.25654" stroke-linecap="round" stroke-linejoin="round"/>
<path d="M257.516 206.795C251.815 207.27 253.161 212.14 254.547 214.515C259.773 218.315 266.226 219.661 268.799 219.859M257.516 206.795C256.197 204.42 258.823 200.738 264.048 202.638C269.274 204.539 272.56 204.618 273.549 204.42C274.975 204.383 278.894 195.299 280.675 190.762C284.476 194.087 283.051 203.232 281.863 207.389C281.863 207.389 286.778 217.467 301.623 221.047M257.516 206.795C259.891 211.071 267.215 212.931 270.58 213.327" stroke="black" stroke-width="2.25654" stroke-linecap="round" stroke-linejoin="round"/>
<path d="M229.607 182.448C225.1 182.448 231.388 190.391 224.856 189.574C207.364 187.388 181.456 206.682 174.545 207.442C172.071 207.714 174.58 204.04 178.702 196.683C168.725 191.932 149.604 186.97 144.26 186.574C139.509 193.106 120.343 244.206 134.594 251.926C155.972 260.833 209.237 203.711 218.488 209.153C228.583 215.092 233.334 207.63 230.958 206.184C233.927 206.765 235.709 200.263 226.208 197.871C241.41 200.809 250.39 203.826 251.578 200.263C251.578 196.106 236.139 194.919 232.74 193.731C236.303 191.949 233.17 182.448 229.607 182.448Z" fill="#F5B896"/>
<path d="M144.26 221.016L174.545 207.442M174.545 207.442C172.071 207.714 174.58 204.04 178.702 196.683C168.725 191.932 149.604 186.97 144.26 186.574C139.509 193.106 120.343 244.206 134.594 251.926C155.972 260.833 209.237 203.711 218.488 209.153C228.583 215.092 233.334 207.63 230.958 206.184M174.545 207.442C181.456 206.682 207.364 187.388 224.856 189.574C231.388 190.391 225.1 182.448 229.607 182.448C233.17 182.448 236.303 191.949 232.74 193.731C236.139 194.919 251.578 196.106 251.578 200.263C250.39 203.826 241.41 200.809 226.208 197.871C235.709 200.263 233.927 206.765 230.958 206.184M230.958 206.184C229.177 205.894 223.832 204.403 223.832 204.403C223.832 204.403 228.419 206.184 230.958 206.184Z" stroke="black" stroke-width="2.25654" stroke-linecap="round" stroke-linejoin="round"/>
<path d="M236.482 229.28L250.732 173.862C251.206 172.02 253.043 170.875 254.905 171.26L282.348 176.938C284.345 177.351 285.588 179.353 285.074 181.326L282.708 190.395C282.56 190.961 282.049 191.356 281.464 191.356C280.981 191.356 280.538 191.627 280.319 192.059L274.22 204.066C273.725 205.039 272.804 205.725 271.714 205.657C270.143 205.559 267.69 205.142 264.447 204.008C264.108 203.89 263.787 203.709 263.494 203.5C261.465 202.056 260.145 201.858 259.285 202.318C256.878 203.608 253.723 207.655 253.247 210.344C253.054 211.438 253.191 212.678 253.728 213.756C254.2 214.701 254.623 215.712 254.813 216.75C255.853 222.44 263.8 227.292 269.936 229.519C271.819 230.202 273.055 232.153 272.591 234.101L271.97 236.707C271.526 238.572 269.686 239.752 267.805 239.376L239.234 233.661C237.23 233.26 235.973 231.259 236.482 229.28Z" fill="#E74F4F" stroke="black" stroke-width="2.25654" stroke-linecap="round" stroke-linejoin="round"/>
<circle cx="258.318" cy="181.288" r="3.56296" transform="rotate(-11.4818 258.318 181.288)" fill="black"/>
<path d="M249.675 81.8577V36.1331C249.675 36.1331 244.924 12.3661 215.827 11.7722C186.729 11.1784 183.76 34.9315 183.76 34.9315C183.76 46.3054 187.361 52.6925 191.819 56.1544C186.908 53.2003 179.471 50.8633 177.822 58.6985C175.922 67.7246 185.739 71.1688 190.886 71.7627C194.686 92.1903 190.886 107.194 188.511 112.143C193.261 121.644 209.888 120.061 217.608 118.081V103.235C249.437 104.186 249.675 92.5466 249.675 81.8577Z" fill="#F5B896" stroke="black" stroke-width="2.25654" stroke-linejoin="round"/>
<path d="M217.015 103.235C212.854 103.046 206.019 101.809 204.175 98.3841C204.098 98.2154 204.023 98.0508 203.95 97.8905C204.014 98.0599 204.089 98.2244 204.175 98.3841C207.059 104.672 213.313 116.561 217.015 117.487V103.235Z" fill="black" stroke="black" stroke-width="2.25654" stroke-linecap="round" stroke-linejoin="round"/>
<path d="M259.77 24.8374C256.999 16.5238 244.331 14.5443 233.642 15.9299C220.578 3.46013 179.01 -0.103492 170.696 36.7138C164.045 66.1676 181.187 83.4279 191.48 89.5641C191.48 89.5641 191.997 89.2003 192.074 88.9703C193.024 86.1199 191.678 75.9061 190.886 71.1555C181.385 71.1555 176.041 61.6543 180.197 55.716C183.523 50.9654 191.48 54.9242 195.043 57.4975C200.744 56.0723 203.357 48.5901 203.951 45.0271C268.084 52.7469 262.542 33.151 259.77 24.8374Z" fill="black" stroke="black" stroke-width="2.25654" stroke-linecap="round" stroke-linejoin="round"/>
<circle cx="14.8457" cy="14.8457" r="14.8457" transform="matrix(-1 0 0 1 183.76 66.405)" fill="black"/>
<path d="M167.133 72.3432C161.788 73.5309 157.632 76.5 158.819 84.8136" stroke="white" stroke-width="2.25654" stroke-linecap="round" stroke-linejoin="round"/>
<path d="M237.204 21.6032C243.934 20.7705 255.613 21.6032 257.394 28.5976C259.269 35.9565 252.779 38.7561 250.472 39.0892" stroke="white" stroke-width="2.25654" stroke-linecap="round" stroke-linejoin="round"/>
<path d="M241.864 63.2744C241.557 61.9827 240.808 60.5431 238.801 60.7282C236.931 60.9006 235.947 62.5 236.119 64.3699" stroke="black" stroke-width="1.78148" stroke-linecap="round" stroke-linejoin="round"/>
<path d="M221.546 64.1052C221.298 62.8008 220.615 61.3287 218.602 61.4222C216.726 61.5093 215.67 63.0623 215.757 64.9381" stroke="black" stroke-width="1.78148" stroke-linecap="round" stroke-linejoin="round"/>
<path d="M224.581 69.0486C225.537 65.9113 228.855 64.143 231.992 65.0989C235.13 66.0548 236.898 69.3729 235.942 72.5101C235.376 74.3686 233.981 75.7466 232.285 76.3626" stroke="black" stroke-width="1.78148" stroke-linecap="round" stroke-linejoin="round"/>
<path d="M220.862 51.8784C220.862 49.4138 214.33 48.82 212.549 53.5707" stroke="black" stroke-width="1.78148" stroke-linecap="round" stroke-linejoin="round"/>
<path d="M236.302 51.8784C236.302 49.4139 243.428 48.2262 244.615 53.5707" stroke="black" stroke-width="1.78148" stroke-linecap="round" stroke-linejoin="round"/>
<path d="M222.556 92.8416C215.173 90.7975 212.137 80.7857 211.542 76.0352C217.613 81.4356 232.037 86.7541 242.386 81.6713C241.128 91.1821 229.938 94.8857 222.556 92.8416Z" fill="black" stroke="black" stroke-width="1.78148" stroke-linecap="round" stroke-linejoin="round"/>
<path d="M226 89.5147C229.793 87.0797 233.44 89.0525 234.789 90.3433C224.785 95.3382 219.761 89.8761 218.499 86.5206C221.37 84.3198 224.696 87.5997 226 89.5147Z" fill="white"/>
<path d="M231.552 58.3999C231.552 57.9827 231.771 57.5989 232.152 57.4296C233.294 56.9225 236.063 55.946 240.459 55.946C244.856 55.946 247.625 56.9225 248.766 57.4296C249.147 57.5989 249.367 57.9827 249.367 58.3999V66.041C249.367 68.6647 247.24 70.7917 244.616 70.7917H235.709C235.709 70.7917 235.709 69.0102 234.521 67.2287C233.333 65.4472 231.552 64.8534 231.552 64.8534V58.3999Z" stroke="black" stroke-width="1.78148" stroke-linecap="round" stroke-linejoin="round"/>
<path d="M208.986 58.3999C208.986 57.9827 209.205 57.5989 209.587 57.4296C210.728 56.9225 213.497 55.946 217.894 55.946C222.29 55.946 225.059 56.9225 226.201 57.4296C226.582 57.5989 226.801 57.9827 226.801 58.3999V65.4472C226.801 65.4472 225.613 66.041 224.426 67.2287C223.238 68.4163 223.832 70.7917 223.832 70.7917H213.737C211.113 70.7917 208.986 68.6647 208.986 66.041V58.3999Z" stroke="black" stroke-width="1.78148" stroke-linecap="round" stroke-linejoin="round"/>
<path d="M194.734 56.5399C198.297 58.5193 206.136 62.4781 208.986 62.4781" stroke="black" stroke-width="1.78148" stroke-linecap="round" stroke-linejoin="round"/>
<path d="M189.983 112.953V109.984L211.361 112.953L218.487 118.892L210.174 122.455L208.986 127.205L212.549 137.3V144.426L202.454 127.205L189.983 112.953Z" fill="#F5B896"/>
<path d="M211.362 123.048C208.986 122.573 208.393 126.017 208.393 127.799L207.205 120.079C210.055 120.079 217.102 118.891 219.675 118.297C219.477 116.714 219.319 113.547 220.269 113.547C221.219 113.547 222.644 115.13 223.238 115.922V130.768C220.269 130.768 214.331 123.642 211.362 123.048Z" fill="white" stroke="black" stroke-width="1.78148" stroke-linecap="round" stroke-linejoin="round"/>
<path d="M201.676 126.882C201.795 127.223 201.86 127.536 201.86 127.799L201.676 126.882C200.994 124.922 198.539 122.05 196.515 122.455C193.546 123.048 186.42 126.018 183.451 126.018L185.826 111.766C186.42 110.974 187.845 109.39 188.796 109.39C189.746 109.39 189.587 111.37 189.389 112.953C192.359 116.516 197.228 118.892 200.078 118.892L201.676 126.882Z" fill="white"/>
<path d="M201.86 127.799C201.86 126.018 198.891 121.98 196.515 122.455C193.546 123.048 186.42 126.018 183.451 126.018L185.826 111.766C186.42 110.974 187.845 109.39 188.796 109.39C189.746 109.39 189.587 111.37 189.389 112.953C192.359 116.516 197.228 118.892 200.078 118.892L201.86 127.799ZM201.86 127.799C204.235 132.55 210.292 133.262 213.143 150.364" stroke="black" stroke-width="1.78148" stroke-linecap="round" stroke-linejoin="round"/>
<path d="M208.392 128.393C209.58 132.55 214.33 135.519 213.143 150.364" stroke="black" stroke-width="1.78148" stroke-linecap="round" stroke-linejoin="round"/>
</g>
<circle cx="529.535" cy="294.543" r="151.782" fill="#E9EAEE" stroke="black" stroke-width="1.9"/>
<mask id="mask1_1000_72497" style="mask-type:alpha" maskUnits="userSpaceOnUse" x="378" y="143" width="303" height="303">
<circle cx="529.535" cy="294.543" r="150.832" fill="#BABDDB"/>
</mask>
<g mask="url(#mask1_1000_72497)">
<path d="M797.025 340.339C760.107 295.379 721.637 251.7 681.691 209.459C627.305 151.918 570.239 97.0188 510.651 44.9154C506.895 41.6263 503.139 38.3542 499.372 35.0991C498.189 34.0754 497.005 33.0555 495.819 32.0374L493.725 30.2403C495.589 30.045 497.414 29.8516 499.277 29.6962C530.449 56.563 560.961 84.1674 590.775 112.511C648.112 167.06 702.887 224.327 754.789 284.042C769.307 300.774 783.593 317.704 797.685 334.786C797.491 336.65 797.257 338.513 797.025 340.339Z" fill="#F8F9F9"/>
<path d="M571.482 32.7635C578.585 41.3059 585.65 49.8463 592.677 58.4664C636.233 111.696 678.43 166.051 719.191 221.455C746.054 257.951 772.297 294.913 797.956 332.341C798.151 330.244 798.345 328.147 798.539 326.011L794.718 320.46C793.119 318.138 791.516 315.817 789.91 313.497C784.902 306.261 779.869 299.038 774.82 291.845C735.573 235.975 694.928 181.115 652.887 127.304C628.314 95.815 603.236 64.6788 577.732 33.9275C575.674 33.5408 573.617 33.1522 571.52 32.7635H571.482Z" fill="#F8F9F9"/>
<path d="M743.492 154.402C754.323 166.322 764.843 178.474 775.091 190.899C772.801 185.773 770.317 180.764 767.716 175.834C737.979 140.931 705.875 108.122 671.598 77.644C664.649 71.4714 657.623 65.3765 650.48 59.3972C648.181 58.2029 645.857 57.0408 643.516 55.909C642.878 55.6 642.239 55.2948 641.599 54.9914C640.849 54.635 640.098 54.2824 639.346 53.9336C638.04 53.327 636.73 52.7279 635.418 52.1364C673.927 83.4299 710.068 117.673 743.453 154.402H743.492Z" fill="#F8F9F9"/>
<path d="M472.258 33.5029C482.933 45.8102 493.57 58.1176 504.129 70.5026C532.623 103.931 560.651 137.787 587.786 172.342C614.804 206.78 640.93 241.956 665.659 278.103C690.154 313.899 713.252 350.627 734.37 388.482C744.191 406.071 753.585 423.854 762.475 441.907C763.29 440.508 764.106 439.073 764.882 437.636C754.09 415.893 742.599 394.501 730.526 373.458C708.749 335.486 685.029 298.64 659.952 262.726C635.029 227.008 608.749 192.221 581.691 158.131C554.246 123.577 525.907 89.6822 497.18 56.1763C494.995 53.6265 492.809 51.0805 490.622 48.5382L485.992 43.1637L482.945 39.6376C480.925 37.3039 478.903 34.974 476.878 32.6479C476.01 32.7995 475.142 32.9512 474.282 33.1105C473.602 33.2356 472.926 33.3664 472.258 33.5029Z" fill="#F8F9F9"/>
<path d="M710.029 392.403C681.302 355.714 651.023 320.267 619.307 286.099H619.268C587.397 251.816 554.129 218.854 519.54 187.328C484.952 155.801 449.043 125.711 411.893 97.2141C400.325 88.3608 388.679 79.6649 376.916 71.1226C378.12 70.3472 379.362 69.5699 380.604 68.8325C387.475 73.8013 394.307 78.8876 401.101 83.974C438.484 112.122 474.703 141.786 509.602 172.924C544.54 204.062 578.158 236.675 610.34 270.647C642.677 304.735 673.538 340.222 702.886 376.912C721.869 400.634 740.192 424.9 757.816 449.632L757.754 449.735C756.998 450.942 756.243 452.15 755.487 453.319C740.813 432.665 725.673 412.359 710.029 392.403Z" fill="#F8F9F9"/>
<path d="M268.919 199.828C287.475 210.352 305.643 221.611 323.345 233.492C355.449 255.039 386.116 278.645 415.581 303.686C445.278 328.885 473.771 355.481 501.372 382.93C529.012 410.418 555.798 438.722 582.118 467.492C606.225 493.815 629.905 520.489 653.546 547.24C655.487 546.191 657.428 545.143 659.369 544.055C658.865 543.027 658.35 541.998 657.836 540.969C657.321 539.939 656.807 538.91 656.302 537.882C636.892 499.135 615.852 461.24 593.492 424.163C571.17 387.045 547.529 350.705 522.995 314.985C498.306 279.034 472.646 243.702 446.442 208.837C420.433 174.283 393.88 140.115 367.017 106.221C362.281 100.242 357.545 94.2623 352.77 88.3229C351.77 89.1002 350.77 89.9153 349.769 90.7305L349.626 90.8462C357.7 100.979 365.775 111.152 373.81 121.324C400.907 155.646 427.653 190.277 453.779 225.338C479.556 260.01 504.75 295.106 528.973 330.904C553.236 366.779 576.566 403.313 598.577 440.625C617.871 473.354 636.155 506.744 653.158 540.716C627.265 511.442 601.295 482.285 574.781 453.553C548.228 424.784 521.131 396.518 493.143 369.147C465.309 341.969 436.582 315.685 406.575 290.914C376.838 266.338 345.86 243.198 313.484 222.193C299.431 213.068 285.068 204.373 270.472 196.101C269.928 197.345 269.424 198.587 268.88 199.868L268.919 199.828Z" fill="#F8F9F9"/>
<path d="M282.803 430.197L286.544 433.986C322.647 470.637 358.012 508.103 392.523 546.269C388.68 544.172 384.875 541.998 381.109 539.708C369.192 526.623 357.158 513.578 345.007 500.649C324.006 478.207 302.694 456.078 281.11 434.218C279.975 432.138 278.875 430.036 277.803 427.912C276.894 426.109 276.004 424.29 275.132 422.454C277.561 424.885 279.99 427.347 282.419 429.81L282.803 430.197Z" fill="#F8F9F9"/>
<path d="M428.431 458.057C459.06 497.813 488.408 538.542 517.328 579.502C518.228 579.523 519.127 579.544 520.027 579.559C520.797 579.572 521.566 579.58 522.336 579.58C510.419 562.69 498.462 545.879 486.35 529.147C445.55 472.732 403.314 417.251 357.313 364.914C324.394 327.488 289.534 291.69 252.189 258.688C251.917 260.281 251.684 261.833 251.451 263.424C265.155 275.578 278.509 288.156 291.591 301.008C341.086 349.81 386.04 403.002 428.431 458.017V458.057Z" fill="#F8F9F9"/>
<path d="M253.404 302.82C251.818 300.291 250.232 297.762 248.655 295.224C248.733 292.831 248.85 290.475 248.966 288.118C258.108 302.755 267.26 317.381 276.411 332.009C285.563 346.637 294.715 361.265 303.857 375.902C335.806 427.036 367.794 478.129 399.742 529.224C405.837 539.008 411.971 548.753 418.065 558.537C416.434 557.839 414.843 557.139 413.213 556.44C413.135 556.4 413.047 556.362 412.96 556.324L412.708 556.207C412.523 556.133 412.338 556.051 412.153 555.968C411.95 555.877 411.746 555.784 411.543 555.702C392.405 525.109 373.267 494.475 354.129 463.881C322.18 412.786 290.192 361.653 258.244 310.56C256.637 307.973 255.021 305.396 253.404 302.82Z" fill="#F8F9F9"/>
<path d="M248.655 295.261V295.224V295.261Z" fill="#F8F9F9"/>
<path d="M674.912 234.017L674.317 233.19L673.777 234.053C670.924 238.612 669.233 246.87 669.525 256.132C669.817 265.395 672.029 273.522 675.165 277.876L675.76 278.702L676.3 277.839C679.153 273.28 680.843 265.022 680.551 255.76C680.259 246.497 678.048 238.374 674.912 234.017Z" fill="#2D978C" stroke="black" stroke-width="1.36818"/>
<path d="M658.159 254.917L657.503 254.095L657.018 255.029C654.484 259.907 653.354 268.51 654.27 278.027C655.186 287.544 657.94 295.763 661.358 300.036L662.014 300.856L662.499 299.924C665.034 295.05 666.164 286.442 665.247 276.925C664.331 267.408 661.578 259.194 658.159 254.917Z" fill="#2D978C" stroke="black" stroke-width="1.36818"/>
<path d="M641.054 304.748L641.054 304.748C642.472 313.716 645.672 321.34 649.359 325.177L650.039 325.885L650.468 325.001C652.792 320.205 653.489 311.956 652.076 302.987L652.076 302.987C650.658 294.019 647.458 286.4 643.771 282.559L643.09 281.849L642.662 282.734C640.338 287.535 639.64 295.78 641.054 304.748Z" fill="#2D978C" stroke="black" stroke-width="1.36818"/>
<path d="M631.239 335.877L631.239 335.878C632.483 343.367 635.291 349.751 638.543 352.97L639.21 353.63L639.634 352.793C641.681 348.761 642.291 341.853 641.052 334.364L641.052 334.364C639.809 326.874 637 320.495 633.749 317.272L633.082 316.611L632.657 317.448C630.61 321.485 630 328.388 631.239 335.877Z" fill="#2D978C" stroke="black" stroke-width="1.36818"/>
<path d="M722.035 273.532L722.765 272.857L721.874 272.416C716.964 269.984 708.479 269.153 699.215 270.468C689.952 271.783 682.05 274.941 678.046 278.643L677.317 279.317L678.207 279.758C683.117 282.19 691.603 283.021 700.866 281.706C710.13 280.391 718.026 277.233 722.035 273.532Z" fill="#2D978C" stroke="black" stroke-width="1.36818"/>
<path d="M705.956 289.068L706.553 288.298L705.626 287.998C700.474 286.328 692.096 286.792 683.298 289.503C674.501 292.214 667.31 296.547 663.992 300.828L663.395 301.598L664.322 301.898C669.474 303.568 677.852 303.104 686.65 300.393C695.448 297.682 702.634 293.349 705.956 289.068Z" fill="#2D978C" stroke="black" stroke-width="1.36818"/>
<path d="M692.815 310.14L693.35 309.335L692.413 309.099C687.15 307.773 678.797 308.854 670.163 312.263C661.527 315.673 654.604 320.616 651.552 325.216L651.018 326.021L651.955 326.258C657.212 327.587 665.571 326.502 674.205 323.093C682.841 319.684 689.759 314.744 692.815 310.14Z" fill="#2D978C" stroke="black" stroke-width="1.36818"/>
<path d="M664.985 334.419L665.242 333.479L664.271 333.556C660.407 333.863 655.025 336.498 649.995 340.728C644.963 344.959 641.391 349.847 640.347 353.661L640.09 354.6L641.06 354.524C644.924 354.222 650.307 351.582 655.336 347.352C660.368 343.121 663.94 338.233 664.985 334.419Z" fill="#2D978C" stroke="black" stroke-width="1.36818"/>
<path d="M692.402 256.64C672.493 281.321 645.615 326.734 632.674 376.096" stroke="black" stroke-width="1.36818" stroke-linecap="round"/>
<path d="M593.463 268.893L594.064 268.036L594.608 268.93C596.829 272.577 598.134 279.156 597.908 286.513C597.682 293.869 595.974 300.345 593.531 303.829L592.931 304.686L592.387 303.792C590.166 300.145 588.861 293.566 589.087 286.209C589.313 278.853 591.021 272.381 593.463 268.893Z" fill="#0F796F" stroke="black" stroke-width="1.36818"/>
<path d="M606.394 285.462L607.057 284.61L607.545 285.576C609.517 289.478 610.387 296.33 609.679 303.888C608.972 311.445 606.843 317.993 604.182 321.411L603.52 322.262L603.032 321.297C601.059 317.399 600.189 310.543 600.897 302.985C601.605 295.428 603.733 288.884 606.394 285.462Z" fill="#0F796F" stroke="black" stroke-width="1.36818"/>
<path d="M620.949 325.085L620.949 325.085C619.854 332.208 617.378 338.286 614.505 341.36L613.816 342.096L613.386 341.184C611.577 337.346 611.042 330.774 612.134 323.65L612.134 323.65C613.23 316.527 615.705 310.453 618.578 307.376L619.267 306.639L619.697 307.552C621.506 311.393 622.041 317.961 620.949 325.085Z" fill="#0F796F" stroke="black" stroke-width="1.36818"/>
<path d="M627.45 349.775L627.45 349.775C626.489 355.726 624.315 360.821 621.776 363.404L621.101 364.091L620.675 363.228C619.078 359.995 618.611 354.485 619.568 348.534L619.568 348.534C620.53 342.583 622.704 337.491 625.242 334.905L625.917 334.217L626.344 335.081C627.941 338.318 628.408 343.823 627.45 349.775Z" fill="#0F796F" stroke="black" stroke-width="1.36818"/>
<path d="M557.119 300.406L556.416 299.739L557.279 299.3C561.112 297.349 567.7 296.693 574.865 297.739C582.03 298.784 588.166 301.297 591.289 304.264L591.99 304.931L591.128 305.37C587.295 307.321 580.707 307.977 573.542 306.931C566.376 305.885 560.245 303.373 557.119 300.406Z" fill="#0F796F" stroke="black" stroke-width="1.36818"/>
<path d="M569.51 312.708L568.935 311.946L569.834 311.647C573.856 310.308 580.361 310.686 587.167 312.841C593.973 314.996 599.558 318.447 602.146 321.88L602.72 322.641L601.822 322.94C597.8 324.28 591.295 323.902 584.489 321.746C577.683 319.591 572.102 316.141 569.51 312.708Z" fill="#0F796F" stroke="black" stroke-width="1.36818"/>
<path d="M579.645 330.522L579.128 329.721L580.055 329.481C584.166 328.417 590.651 329.289 597.327 331.997C604.006 334.708 609.379 338.644 611.755 342.325L612.271 343.125L611.345 343.365C607.238 344.433 600.748 343.558 594.073 340.849C587.393 338.139 582.025 334.206 579.645 330.522Z" fill="#0F796F" stroke="black" stroke-width="1.36818"/>
<path d="M601.104 348.633L600.854 347.694L601.822 347.773C604.855 348.021 609.04 350.136 612.931 353.499C616.826 356.865 619.604 360.764 620.42 363.825L620.67 364.763L619.702 364.685C616.669 364.441 612.483 362.321 608.593 358.959C604.698 355.593 601.919 351.694 601.104 348.633Z" fill="#0F796F" stroke="black" stroke-width="1.36818"/>
<path d="M564.874 277.398L564.874 277.398C571.586 279.713 577.067 283.345 579.587 286.915L580.118 287.667L579.245 287.959C575.243 289.296 568.806 288.821 562.099 286.511L562.098 286.511C555.387 284.196 549.906 280.564 547.385 276.994L546.855 276.242L547.727 275.951C551.729 274.613 558.166 275.088 564.874 277.398Z" fill="#0F796F" stroke="black" stroke-width="1.36818"/>
<path d="M569.27 253.68L569.537 252.716L570.339 253.315C573.729 255.851 577.24 261.444 579.545 268.328C581.851 275.214 582.432 281.849 581.282 285.993L581.014 286.958L580.213 286.358C576.823 283.822 573.311 278.229 571.006 271.345C568.701 264.459 568.119 257.828 569.27 253.68Z" fill="#0F796F" stroke="black" stroke-width="1.36818"/>
<path d="M580.099 286.912C595.463 306.486 616.203 342.504 626.189 381.653" stroke="black" stroke-width="1.36818" stroke-linecap="round"/>
<path d="M656.545 373.515C658.537 373.515 660.086 375.252 659.86 377.232L653.569 432.863C653.379 434.552 651.952 435.824 650.251 435.824H610.574C608.876 435.824 607.449 434.549 607.256 432.86L606.858 429.331L600.962 377.229C600.739 375.249 602.285 373.515 604.28 373.515H656.545Z" fill="#465173" stroke="black" stroke-width="1.36818" stroke-miterlimit="10"/>
<path d="M602.91 388.869C623.13 383.392 648.793 384.393 659.403 384.592L660.014 379.343L601.35 377.259L602.91 388.869Z" fill="black" stroke="black" stroke-width="1.36818"/>
<path d="M658.992 382.299H602.484C599.725 382.299 597.379 380.286 596.96 377.559L595.681 369.258C595.369 367.237 596.933 365.411 598.982 365.411H662.501C664.546 365.411 666.11 367.234 665.801 369.258L664.522 377.559C664.103 380.286 661.757 382.299 658.998 382.299H658.992Z" fill="#465173" stroke="black" stroke-width="1.36818" stroke-miterlimit="10"/>
</g>
<mask id="mask2_1000_72497" style="mask-type:alpha" maskUnits="userSpaceOnUse" x="281" y="86" width="454" height="386">
<path d="M533.692 445.375C496.874 444.781 474.903 436.467 467.777 432.311L460.651 452.501L305.068 471.503L281.909 214.97L450.556 86.7034L734.405 235.754L640.581 457.845L594.262 431.123C570.509 442.524 543.985 445.375 533.692 445.375Z" fill="#D9D9D9"/>
</mask>
<g mask="url(#mask2_1000_72497)">
<path d="M529.964 298.087C491.959 301.65 478.103 291.951 467.612 287.992C466.588 304.637 453.954 320.455 449.203 327.185C463.93 332.411 495.72 330.55 509.773 328.966C485.07 370.297 477.311 419.822 476.519 445.95C499.843 445.95 517.623 448.84 541.41 452.499C564.57 456.062 574.105 450.107 584.596 447.732C573.194 441.556 569.75 401.017 569.75 376.472C576.876 372.316 594.691 369.347 606.567 366.377C598.966 338.349 570.938 304.422 557.873 290.961L529.964 298.087Z" fill="#465173"/>
<path d="M569.75 376.472C576.876 372.316 594.691 369.347 606.567 366.377C598.966 338.349 570.938 304.422 557.873 290.961L529.964 298.087C491.959 301.65 478.103 291.951 467.612 287.992C466.588 304.637 453.954 320.455 449.203 327.185C463.93 332.411 495.72 330.55 509.773 328.966M569.75 376.472C569.75 401.017 573.194 441.556 584.596 447.732C574.105 450.107 564.57 456.062 541.41 452.499C517.623 448.84 499.843 445.95 476.519 445.95C477.311 419.822 485.07 370.297 509.773 328.966M569.75 376.472L557.873 382.411C557.873 360.456 557.873 340.86 555.498 323.622M509.773 328.966C511.685 325.641 516.078 320.868 518.251 318.295" stroke="black" stroke-width="2.25654" stroke-linecap="round" stroke-linejoin="round"/>
<path d="M481.865 445.95C475.689 427.898 486.418 391.516 490.179 372.91C484.003 391.437 477.312 426.75 475.927 445.95H481.865Z" fill="black" stroke="black" stroke-width="2.25654" stroke-linecap="round" stroke-linejoin="round"/>
<path d="M448.016 326.591C445.641 326.116 445.347 318.079 446.337 313.527C448.712 314.121 455.306 311.169 458.275 311.763C456.494 315.919 450.391 327.066 448.016 326.591Z" fill="black" stroke="black" stroke-width="2.25654" stroke-linecap="round" stroke-linejoin="round"/>
<path d="M606.138 366.395C601.981 373.521 586.542 398.461 558.038 382.456C573.478 372.927 594.855 365.801 606.138 366.395Z" fill="black" stroke="black" stroke-width="2.25654" stroke-linecap="round" stroke-linejoin="round"/>
<path d="M435.545 267.802C436.971 275.878 456.33 284.231 467.019 287.992C467.019 300.819 458.705 310.36 454.548 314.121C447.422 314.121 415.95 299.869 412.981 283.242C411.31 273.888 413.376 217.129 416.543 191.792C411.198 187.635 414.762 177.54 416.543 172.79C417.968 168.989 426.242 172.79 430.201 175.165C436.139 164.476 447.912 167.227 444.453 169.821C437.327 175.165 436.931 183.083 435.545 188.823C430.201 192.386 433.764 257.707 435.545 267.802Z" fill="#F5B896" stroke="black" stroke-width="2.25654" stroke-linecap="round" stroke-linejoin="round"/>
<path d="M435.545 267.802C436.971 275.878 456.33 284.231 467.019 287.992C467.019 300.819 458.705 310.36 454.548 314.121C447.422 314.121 415.95 299.869 412.981 283.242C411.31 273.888 413.376 217.129 416.543 191.792C411.198 187.635 414.762 177.54 416.543 172.79C417.968 168.989 426.242 172.79 430.201 175.165C436.139 164.476 447.912 167.227 444.453 169.821C437.327 175.165 436.783 183.049 435.545 188.823C434.523 193.591 433.764 257.707 435.545 267.802Z" fill="#F5B896" stroke="black" stroke-width="2.25654" stroke-linejoin="round"/>
<path d="M502.812 380.646C502.812 376.49 511.556 371.962 518.088 371.145C535.58 368.959 565.809 387.066 572.72 387.826C573.479 388.166 575.06 385.611 570.938 378.254C580.915 373.503 597.661 367.354 603.005 366.958C607.756 373.49 626.922 424.59 612.67 432.309C591.293 441.217 535.473 384.79 531.316 390.148C531.316 406.15 527.159 408.984 525.214 409.713C521.413 411.138 518.253 407.962 518.847 406.181C518.253 407.962 513.931 410.307 510.962 409.12C507.993 407.932 506.971 406.15 508.751 403.806C503.407 408.556 497.663 403.083 500.109 401.4C506.474 397.02 507.815 385.956 510.347 381.548C507.018 386.089 502.812 386.665 502.812 380.646Z" fill="#F5B896"/>
<path d="M508.751 403.806C503.407 408.556 497.663 403.083 500.109 401.4C506.969 396.68 507.993 384.196 510.962 380.646C507.563 385.991 502.812 387.042 502.812 380.646C502.812 376.49 511.556 371.962 518.088 371.145C535.58 368.959 565.809 387.066 572.72 387.826M508.751 403.806C506.971 406.15 507.993 407.932 510.962 409.12C513.931 410.307 518.253 407.962 518.847 406.181M508.751 403.806C508.751 403.806 514.525 399.649 514.525 390.148M518.847 406.181C518.253 407.962 521.413 411.138 525.214 409.713C527.159 408.984 531.316 406.15 531.316 390.148C535.473 384.79 591.293 441.217 612.67 432.309C626.922 424.59 607.756 373.49 603.005 366.958C597.661 367.354 580.915 373.503 570.938 378.254C575.06 385.611 573.479 388.166 572.72 387.826M518.847 406.181C518.847 406.181 523.596 401.4 522.409 390.148M603.005 401.4L572.72 387.826" stroke="black" stroke-width="2.25654" stroke-linecap="round" stroke-linejoin="round"/>
<path d="M428.079 177.178C427.189 179.619 421.227 178.368 417.222 176.907C413.216 175.447 412.918 173.687 413.574 171.889C414.229 170.091 415.59 168.936 419.596 170.396C423.601 171.857 428.969 174.736 428.079 177.178Z" fill="#F5B896" stroke="black" stroke-width="2.25654" stroke-linecap="round" stroke-linejoin="round"/>
<path d="M425.703 183.116C424.813 185.558 418.851 184.306 414.846 182.845C410.84 181.385 410.542 179.625 411.198 177.827C411.853 176.029 413.214 174.874 417.22 176.334C421.225 177.795 426.593 180.674 425.703 183.116Z" fill="#F5B896" stroke="black" stroke-width="2.25654" stroke-linecap="round" stroke-linejoin="round"/>
<path d="M424.515 189.054C423.625 191.496 417.664 190.244 413.658 188.784C409.653 187.323 409.355 185.563 410.01 183.765C410.666 181.967 412.027 180.812 416.032 182.273C420.038 183.733 425.406 186.613 424.515 189.054Z" fill="#F5B896" stroke="black" stroke-width="2.25654" stroke-linecap="round" stroke-linejoin="round"/>
<path d="M444.618 374.677L431.553 315.326L312.358 263.663L335.518 374.677L457.682 432.309L554.476 418.027L528.511 407.414C528.511 407.414 525.378 410.307 524.19 410.338C523.012 410.368 517.74 409.169 518.886 406.294C518.905 406.251 518.914 406.227 518.914 406.227C518.904 406.249 518.895 406.272 518.886 406.294C518.674 406.772 517.166 409.615 511.72 408.526C506.803 407.542 508.401 404.544 509.095 403.542C509.262 403.345 509.345 403.212 509.345 403.212C509.345 403.212 509.239 403.334 509.095 403.542C508.397 404.366 506.217 406.316 502.383 404.4C499.759 403.088 500.638 401.102 502.383 399.055C503.797 397.395 504.758 395.492 504.758 395.492L462.597 374.677H444.618Z" fill="white"/>
<path d="M444.618 374.677L431.553 315.326L312.358 263.663L335.518 374.677L457.682 432.309L554.476 418.027L528.511 407.414C528.511 407.414 525.378 410.307 524.19 410.338C523.003 410.369 517.658 409.15 518.914 406.227C518.914 406.227 517.658 409.713 511.72 408.526C505.782 407.338 509.345 403.212 509.345 403.212C509.345 403.212 507.134 406.775 502.383 404.4C499.759 403.088 500.638 401.102 502.383 399.055M444.618 374.677H462.597L504.758 395.492M444.618 374.677L453.525 421.59M504.758 395.492C504.758 395.492 503.797 397.395 502.383 399.055M504.758 395.492L502.383 399.055" stroke="black" stroke-width="2.25654" stroke-linecap="round" stroke-linejoin="round"/>
<path d="M386.216 340.266C389.185 343.235 393.342 350.599 386.216 356.299" stroke="black" stroke-width="2.25654" stroke-linecap="round" stroke-linejoin="round"/>
<path d="M376.713 338.485C374.025 341.344 370.26 348.435 376.713 353.924" stroke="black" stroke-width="2.25654" stroke-linecap="round" stroke-linejoin="round"/>
<path d="M489.225 218.545C491.258 211.997 498.886 201.917 505.259 201.917C502.99 207.618 499.075 231.609 498.886 238.735C493.976 238.735 483.881 235.765 489.225 218.545Z" fill="#BFC2C8" stroke="black" stroke-width="2.25654" stroke-linecap="round" stroke-linejoin="round"/>
<path d="M496.945 262.501V218.544C496.945 213.794 499.914 196.573 529.012 195.979C558.109 195.385 562.86 215.575 562.86 215.575C562.86 226.949 559.259 233.336 554.801 236.798C559.712 233.844 567.149 231.507 568.798 239.342C570.699 248.368 560.881 251.812 555.734 252.406C551.934 272.834 555.734 287.838 558.109 292.786C553.359 302.288 536.732 300.704 529.012 298.725V283.879C497.183 284.829 496.945 273.19 496.945 262.501Z" fill="#F5B896" stroke="black" stroke-width="2.25654" stroke-linejoin="round"/>
<path d="M528.182 284.195C532.342 284.006 539.177 282.769 541.021 279.344C541.099 279.176 541.173 279.011 541.246 278.851C541.182 279.02 541.107 279.185 541.021 279.344C538.137 285.633 531.883 297.522 528.182 298.447V284.195Z" fill="black" stroke="black" stroke-width="2.25654" stroke-linecap="round" stroke-linejoin="round"/>
<path d="M552.171 236.36C557.515 223.295 558.703 214.387 554.546 204.292C558.703 202.214 564.048 207.856 567.611 214.388C572.793 223.89 567.611 236.953 567.611 236.953C559.891 228.64 549.369 243.211 552.171 236.36Z" fill="#BFC2C8" stroke="black" stroke-width="2.25654" stroke-linecap="round" stroke-linejoin="round"/>
<path d="M530.794 210.025C527.825 207.855 515.948 207.262 510.604 210.025" stroke="black" stroke-width="1.78148" stroke-linecap="round" stroke-linejoin="round"/>
<path d="M525.449 213.201C521.49 212.014 519.748 211.775 515.948 213.2" stroke="black" stroke-width="1.78148" stroke-linecap="round" stroke-linejoin="round"/>
<path d="M522.917 248.855C521.961 245.718 518.643 243.95 515.506 244.906C512.368 245.862 510.6 249.18 511.556 252.317C512.122 254.175 513.517 255.553 515.213 256.169" stroke="black" stroke-width="1.78148" stroke-linecap="round" stroke-linejoin="round"/>
<circle cx="527.159" cy="245.267" r="1.78148" fill="black"/>
<circle cx="508.156" cy="244.066" r="1.78148" fill="black"/>
<path d="M526.564 234.579C529.534 233.391 534.878 235.291 534.878 240.517" stroke="black" stroke-width="1.78148" stroke-linecap="round" stroke-linejoin="round"/>
<path d="M509.344 234.112C507.562 233.518 503.762 234.824 502.812 237.675" stroke="black" stroke-width="1.78148" stroke-linecap="round" stroke-linejoin="round"/>
<path d="M524.189 264.257C523.2 265.643 521.22 268.414 517.064 268.414C513.738 268.414 511.719 265.643 511.125 264.257" stroke="black" stroke-width="1.78148" stroke-linecap="round" stroke-linejoin="round"/>
<path d="M530.722 324.233C521.844 324.715 527.812 306.66 528.552 294.608L556.851 290.979C556.296 308.454 541.82 323.63 530.722 324.233Z" fill="#F5B896" stroke="black" stroke-width="2.25654" stroke-linecap="round" stroke-linejoin="round"/>
<path d="M555.663 292.76V289.791L535.473 292.166L528.347 298.104L555.663 292.76Z" fill="#F5B896"/>
<path d="M528.346 300.48C528.346 300.48 536.023 293.658 536.66 290.385C537.297 287.111 528.346 294.587 528.346 294.587V300.48Z" fill="black"/>
<path d="M530.722 274.351L530.722 282.665" stroke="black" stroke-width="1.78148" stroke-linecap="round" stroke-linejoin="round"/>
<path d="M525.972 275.539V282.665" stroke="black" stroke-width="1.78148" stroke-linecap="round" stroke-linejoin="round"/>
<path d="M521.221 276.727V282.665" stroke="black" stroke-width="1.78148" stroke-linecap="round" stroke-linejoin="round"/>
<path d="M516.47 276.727V282.665" stroke="black" stroke-width="1.78148" stroke-linecap="round" stroke-linejoin="round"/>
<path d="M511.72 276.727V281.477" stroke="black" stroke-width="1.78148" stroke-linecap="round" stroke-linejoin="round"/>
<path d="M506.969 275.539V280.29" stroke="black" stroke-width="1.78148" stroke-linecap="round" stroke-linejoin="round"/>
</g>
<path d="M404.746 253.938L404.432 253.676H404.023H318.465C304.788 253.676 293.726 242.613 293.726 228.961C293.726 222.123 296.496 215.945 300.973 211.469C305.449 206.992 311.627 204.222 318.465 204.222H413.881C427.533 204.222 438.596 215.285 438.596 228.937C438.596 234.187 436.96 239.069 434.167 243.065C431.373 247.065 427.418 250.201 422.807 251.995L421.431 252.531L422.308 253.717C425.048 257.423 429.152 260.319 432.678 262.807C432.961 263.006 433.239 263.203 433.513 263.397L433.523 263.404C433.577 263.441 433.601 263.47 433.612 263.484C433.621 263.497 433.623 263.503 433.624 263.505C433.624 263.506 433.633 263.536 433.609 263.606C433.584 263.678 433.529 263.767 433.443 263.846C433.359 263.924 433.266 263.973 433.181 263.995C428.031 265.259 422.352 263.807 417.343 261.654L417.341 261.653C412.833 259.725 408.533 257.098 404.746 253.938Z" fill="#465173" stroke="black" stroke-width="2.25654"/>
<path d="M334.673 239.159C336.127 238.522 337.554 237.755 338.828 236.756C344.521 245.574 357.57 239.015 363.9 234.178C368.872 241.867 379.289 234.424 384.303 230.065C385.785 232.991 389.511 233.092 392.282 232.831C394.221 232.151 404.665 229.081 402.033 226.503C397.905 227.097 389.581 232.889 386.616 227.792C398.543 216.584 381.477 212.413 383.472 226.995C380.175 229.834 368.623 239.652 366.698 231.847C370.687 228.472 374.815 223.897 374.815 218.075C374.732 213.832 370.064 214.441 368.027 216.902C364.537 220.218 363.484 225.518 363.332 230.297C358.733 235.003 345.339 242.765 340.809 235.192C344.646 232.469 348.774 223.824 343.247 220.986C335.241 221.811 334.922 228.313 337.817 234.757C335.255 236.987 332.055 237.856 328.966 238.87C327.858 241.636 333.44 239.898 334.701 239.174L334.673 239.159ZM386.672 222.579C386.949 222.202 387.143 221.623 387.517 221.391C387.544 222.246 386.893 222.854 386.436 223.491C386.492 223.172 386.561 222.868 386.672 222.579ZM366.864 225.649C367.418 223.636 368.886 218.191 371.213 219.132C373.236 220.305 367.931 226.416 366.656 227.734C366.684 227.039 366.504 226.286 366.864 225.634L366.864 225.649ZM338.995 226.865C338.995 226.865 341.46 223.071 342.554 224.954C343.316 227.763 342 231.253 339.715 233.005C338.001 230.465 337.984 230.509 338.253 228.775C338.376 227.981 338.995 226.865 338.995 226.865Z" fill="white"/>
</svg>
