<svg width="675" height="586" viewBox="0 0 675 586" fill="none" xmlns="http://www.w3.org/2000/svg">
<path d="M366.572 426.978C360.771 422.99 344.59 423.189 340.284 429.761C338.818 425.657 328.696 416.715 319.013 416.715C300.234 416.715 298.84 425.657 298.107 429.761C286.737 426.978 269.498 433.587 269.498 456.327C264.975 456.816 255.928 459.701 255.928 467.33V489.362H340.284H432.292C436.824 474.134 426.928 467.003 421.414 465.341C421.414 450.293 405.248 450.719 397.166 452.813C397.619 450.093 396.894 444.201 390.367 442.388C383.84 440.575 376.619 443.144 373.824 444.654C373.824 440.424 372.374 430.967 366.572 426.978Z" fill="#E9EAEE" stroke="black" stroke-width="1.28978" stroke-linecap="round" stroke-linejoin="round"/>
<path d="M330.05 443.336C304.982 439.866 267.486 463.769 268.036 488.99C322.498 496.647 356.5 457.492 366.693 436.958C364.924 440.53 355.118 446.806 330.05 443.336Z" fill="#465173" stroke="black" stroke-width="1.28978" stroke-linecap="round" stroke-linejoin="round"/>
<path d="M316.972 461.912C303.654 465.365 275.353 474.378 268.692 482.802" stroke="black" stroke-width="1.28978" stroke-linecap="round" stroke-linejoin="round"/>
<path d="M378.161 481.642C383.962 485.812 380.578 490.103 378.161 492.973H309.722C306.096 476.294 317.578 470.462 323.772 469.632C326.673 460.023 337.672 461.851 342.808 463.966C348.066 456.895 355.121 461.02 357.992 463.966C365.062 459.434 369.247 465.855 370.456 469.632C377.164 469.632 378.388 477.639 378.161 481.642Z" fill="#BABECB" stroke="black" stroke-width="1.28978" stroke-linecap="round" stroke-linejoin="round"/>
<path d="M368.614 495.358C351.81 495.358 337.383 494.963 331.159 494.762C329.328 494.704 327.884 493.201 327.884 491.369L327.884 399.659C327.884 397.775 329.411 396.248 331.295 396.248L405.933 396.248C407.817 396.248 409.344 397.775 409.344 399.659L409.344 491.369C409.344 493.201 407.9 494.704 406.068 494.762C399.844 494.963 385.417 495.358 368.614 495.358Z" fill="#465173" stroke="black" stroke-width="1.15826" stroke-linejoin="round"/>
<g opacity="0.8">
<path d="M335.163 396.248V491.964" stroke="white" stroke-width="0.269894" stroke-linejoin="round"/>
<path d="M346.36 396.248V491.964" stroke="white" stroke-width="0.269894" stroke-linejoin="round"/>
<path d="M357.557 396.248V491.964" stroke="white" stroke-width="0.269894" stroke-linejoin="round"/>
<path d="M368.754 396.248V491.964" stroke="white" stroke-width="0.269894" stroke-linejoin="round"/>
<path d="M379.951 396.248V491.964" stroke="white" stroke-width="0.269894" stroke-linejoin="round"/>
<path d="M391.147 396.248V491.964" stroke="white" stroke-width="0.269894" stroke-linejoin="round"/>
<path d="M402.345 396.248V491.964" stroke="white" stroke-width="0.269894" stroke-linejoin="round"/>
</g>
<path opacity="0.8" d="M327.884 405.752H409.344" stroke="white" stroke-width="0.269894" stroke-linejoin="round"/>
<path opacity="0.8" d="M327.884 393.533H409.344" stroke="white" stroke-width="0.269894" stroke-linejoin="round"/>
<path opacity="0.8" d="M327.884 379.956H409.344" stroke="white" stroke-width="0.269894" stroke-linejoin="round"/>
<path opacity="0.8" d="M327.884 418.65H409.344" stroke="white" stroke-width="0.269894" stroke-linejoin="round"/>
<path opacity="0.8" d="M327.884 432.905H409.344" stroke="white" stroke-width="0.269894" stroke-linejoin="round"/>
<path opacity="0.8" d="M327.884 447.161H409.344" stroke="white" stroke-width="0.269894" stroke-linejoin="round"/>
<path opacity="0.8" d="M327.884 460.059H409.344" stroke="white" stroke-width="0.269894" stroke-linejoin="round"/>
<path opacity="0.8" d="M327.884 472.956H409.344" stroke="white" stroke-width="0.269894" stroke-linejoin="round"/>
<path opacity="0.8" d="M327.884 485.854H409.344" stroke="white" stroke-width="0.269894" stroke-linejoin="round"/>
<ellipse cx="36.9977" cy="1.45817" rx="36.9977" ry="1.45817" transform="matrix(-1 0 0 1 405.618 369.909)" fill="black" stroke="black" stroke-width="1.15826"/>
<path d="M216.667 495.609C233.881 495.609 248.407 494.73 252.966 494.422C253.81 494.365 254.452 493.663 254.452 492.816L254.452 320.178C254.452 319.283 253.727 318.558 252.833 318.558L180.501 318.558C179.607 318.558 178.882 319.283 178.882 320.178L178.882 492.816C178.882 493.663 179.524 494.365 180.368 494.422C184.927 494.73 199.453 495.609 216.667 495.609Z" fill="#465173" stroke="black" stroke-width="1.29549" stroke-linejoin="round"/>
<g opacity="0.8">
<path d="M185.956 318.807V495.695" stroke="white" stroke-width="0.269894" stroke-linejoin="round"/>
<path d="M196.285 318.807V495.695" stroke="white" stroke-width="0.269894" stroke-linejoin="round"/>
<path d="M206.614 318.807V495.695" stroke="white" stroke-width="0.269894" stroke-linejoin="round"/>
<path d="M216.943 318.807V495.695" stroke="white" stroke-width="0.269894" stroke-linejoin="round"/>
<path d="M227.272 318.807V495.695" stroke="white" stroke-width="0.269894" stroke-linejoin="round"/>
<path d="M237.603 318.807V495.695" stroke="white" stroke-width="0.269894" stroke-linejoin="round"/>
<path d="M247.932 318.807V495.695" stroke="white" stroke-width="0.269894" stroke-linejoin="round"/>
</g>
<path opacity="0.8" d="M179.5 354.96H254.387" stroke="white" stroke-width="0.269894" stroke-linejoin="round"/>
<path opacity="0.8" d="M179.5 342.849H254.387" stroke="white" stroke-width="0.269894" stroke-linejoin="round"/>
<path opacity="0.8" d="M179.5 328.815H254.387" stroke="white" stroke-width="0.269894" stroke-linejoin="round"/>
<path opacity="0.8" d="M179.5 367.871H254.387" stroke="white" stroke-width="0.269894" stroke-linejoin="round"/>
<path opacity="0.8" d="M179.5 382.073H254.387" stroke="white" stroke-width="0.269894" stroke-linejoin="round"/>
<path opacity="0.8" d="M179.5 396.276H254.387" stroke="white" stroke-width="0.269894" stroke-linejoin="round"/>
<path opacity="0.8" d="M179.5 409.188H254.387" stroke="white" stroke-width="0.269894" stroke-linejoin="round"/>
<path opacity="0.8" d="M179.5 422.099H254.387" stroke="white" stroke-width="0.269894" stroke-linejoin="round"/>
<path opacity="0.8" d="M179.5 435.01H254.387" stroke="white" stroke-width="0.269894" stroke-linejoin="round"/>
<path opacity="0.8" d="M254.387 460.833L179.5 460.833" stroke="white" stroke-width="0.269894" stroke-linejoin="round"/>
<path opacity="0.8" d="M254.387 447.922L179.5 447.922" stroke="white" stroke-width="0.269894" stroke-linejoin="round"/>
<path opacity="0.8" d="M179.5 471.163C179.5 471.163 187.892 472.454 216.943 472.454C245.994 472.454 254.387 471.163 254.387 471.163" stroke="white" stroke-width="0.269894" stroke-linejoin="round"/>
<path opacity="0.8" d="M179.5 481.492C179.5 481.492 187.892 482.783 216.943 482.783C245.994 482.783 254.387 481.492 254.387 481.492" stroke="white" stroke-width="0.269894" stroke-linejoin="round"/>
<path d="M216.937 301.891H107.6C106.705 301.891 106.011 302.616 106.011 303.51V327.548C106.011 328.442 106.705 329.167 107.6 329.167L216.937 329.167L326.274 329.167C327.169 329.167 327.864 328.873 327.864 327.979V303.494C327.864 302.6 327.169 301.891 326.275 301.891H216.937Z" fill="#465173" stroke="black" stroke-width="1.29549" stroke-linejoin="round"/>
<path opacity="0.8" d="M105.905 311.593C105.905 311.593 155.619 311.593 216.944 311.593C278.269 311.593 327.983 311.593 327.983 311.593" stroke="white" stroke-width="0.539789" stroke-linejoin="round"/>
<path opacity="0.8" d="M111.069 302.97V329.439" stroke="white" stroke-width="0.539789" stroke-linejoin="round"/>
<path opacity="0.8" d="M121.399 303.539V330.008" stroke="white" stroke-width="0.539789" stroke-linejoin="round"/>
<path opacity="0.8" d="M131.728 303.539V330.008" stroke="white" stroke-width="0.539789" stroke-linejoin="round"/>
<path opacity="0.8" d="M142.058 302.248V328.717" stroke="white" stroke-width="0.539789" stroke-linejoin="round"/>
<path opacity="0.8" d="M152.387 302.248V328.717" stroke="white" stroke-width="0.539789" stroke-linejoin="round"/>
<path opacity="0.8" d="M162.716 302.248V328.717" stroke="white" stroke-width="0.539789" stroke-linejoin="round"/>
<path opacity="0.8" d="M173.045 302.248V328.717" stroke="white" stroke-width="0.539789" stroke-linejoin="round"/>
<path opacity="0.8" d="M183.374 302.248V328.717" stroke="white" stroke-width="0.539789" stroke-linejoin="round"/>
<path opacity="0.8" d="M193.703 302.248V328.717" stroke="white" stroke-width="0.539789" stroke-linejoin="round"/>
<path opacity="0.8" d="M204.032 302.248V328.717" stroke="white" stroke-width="0.539789" stroke-linejoin="round"/>
<path opacity="0.8" d="M214.361 302.248V328.717" stroke="white" stroke-width="0.539789" stroke-linejoin="round"/>
<path opacity="0.8" d="M224.69 302.248V328.717" stroke="white" stroke-width="0.539789" stroke-linejoin="round"/>
<path opacity="0.8" d="M235.021 302.248V328.717" stroke="white" stroke-width="0.539789" stroke-linejoin="round"/>
<path opacity="0.8" d="M245.35 302.248V328.717" stroke="white" stroke-width="0.539789" stroke-linejoin="round"/>
<path opacity="0.8" d="M255.679 302.248V328.717" stroke="white" stroke-width="0.539789" stroke-linejoin="round"/>
<path opacity="0.8" d="M266.008 302.248V328.717" stroke="white" stroke-width="0.539789" stroke-linejoin="round"/>
<path opacity="0.8" d="M276.337 302.248V328.717" stroke="white" stroke-width="0.539789" stroke-linejoin="round"/>
<path opacity="0.8" d="M286.666 302.248V328.717" stroke="white" stroke-width="0.539789" stroke-linejoin="round"/>
<path opacity="0.8" d="M296.995 302.248V328.717" stroke="white" stroke-width="0.539789" stroke-linejoin="round"/>
<path opacity="0.8" d="M307.324 302.248V328.717" stroke="white" stroke-width="0.539789" stroke-linejoin="round"/>
<path opacity="0.8" d="M317.653 303.539V330.008" stroke="white" stroke-width="0.539789" stroke-linejoin="round"/>
<path d="M328.685 410.018L396.556 397.595C397.369 397.446 397.261 396.249 396.434 396.249H328.563C328.188 396.249 327.884 396.552 327.884 396.927V409.35C327.884 409.774 328.268 410.094 328.685 410.018Z" fill="black" stroke="black" stroke-width="1.28978" stroke-linecap="round" stroke-linejoin="round"/>
<path d="M342.207 36.4048C342.207 35.0259 343.325 33.9081 344.704 33.9081H628.078C629.457 33.9081 630.575 35.0259 630.575 36.4048V217.338C630.575 218.717 629.457 219.835 628.078 219.835H458.825C457.854 219.835 456.92 220.208 456.216 220.878L434.719 241.323C433.591 242.395 431.768 242.186 430.912 240.886L418.182 221.54C417.482 220.476 416.293 219.835 415.019 219.835H344.704C343.325 219.835 342.207 218.717 342.207 217.338V196.58V36.4048Z" fill="#E9EAEE" stroke="black" stroke-width="1.28978"/>
<path d="M331.991 68.1201C331.991 66.7412 330.873 65.6234 329.494 65.6234H45.916C44.5371 65.6234 43.4193 66.7412 43.4193 68.1201V231.596C43.4193 232.975 44.5371 234.093 45.916 234.093H215.38C216.287 234.093 217.164 234.419 217.852 235.011L239.529 253.692C240.636 254.645 242.321 254.449 243.179 253.268L255.97 235.654C256.683 234.673 257.822 234.093 259.034 234.093H329.494C330.873 234.093 331.991 232.975 331.991 231.596V213.066V68.1201Z" fill="#E9EAEE" stroke="black" stroke-width="1.28978"/>
<mask id="mask0_1000_72218" style="mask-type:alpha" maskUnits="userSpaceOnUse" x="395" y="0" width="280" height="246">
<path d="M674.089 3.39416C674.089 1.51962 672.569 0 670.695 0H398.483C396.608 0 395.089 1.51962 395.089 3.39416V216.33C395.089 218.204 396.608 219.724 398.483 219.724H413.813C415.086 219.724 416.251 220.436 416.833 221.568L428.021 243.366C429.111 245.488 431.991 245.855 433.577 244.072L454.228 220.862C454.872 220.138 455.795 219.724 456.764 219.724H670.695C672.569 219.724 674.089 218.204 674.089 216.33V191.674V3.39416Z" fill="#D9D9D9"/>
</mask>
<g mask="url(#mask0_1000_72218)">
<path d="M512.137 331.689L512.137 331.691L512.138 331.699L512.144 331.758L512.169 331.989C512.19 332.193 512.222 332.496 512.263 332.892C512.346 333.684 512.467 334.845 512.62 336.325C512.926 339.286 513.359 343.521 513.87 348.619C514.891 358.815 516.221 372.462 517.454 386.264C518.688 400.068 519.825 414.021 520.461 424.834C520.78 430.242 520.972 434.853 520.99 438.262C520.999 439.969 520.964 441.359 520.882 442.391C520.841 442.908 520.789 443.319 520.728 443.628C520.698 443.782 520.668 443.901 520.64 443.989C520.626 444.032 520.614 444.065 520.604 444.087C520.595 444.109 520.589 444.118 520.589 444.118L520.589 444.118C520.423 444.39 520.426 444.733 520.598 445.002C520.769 445.27 521.078 445.418 521.395 445.381L534.4 443.893L539.951 445.359C540.006 445.374 540.063 445.383 540.12 445.386L571.971 447.05C572.22 447.063 572.463 446.963 572.631 446.779C572.799 446.594 572.875 446.343 572.839 446.096C561.125 367.031 564.643 325.593 567.163 295.909C567.808 288.313 568.388 281.487 568.63 274.997C577.092 246.615 565.068 229.861 557.735 224.966C557.622 224.89 557.492 224.844 557.356 224.83L507.345 219.81C506.888 219.764 506.479 220.097 506.433 220.555C504.45 240.219 505.883 268.025 507.803 290.87C508.763 302.302 509.847 312.509 510.691 319.857C511.113 323.532 511.475 326.492 511.731 328.534C511.859 329.556 511.961 330.347 512.031 330.884C512.066 331.152 512.093 331.357 512.111 331.494L512.132 331.65L512.137 331.689Z" fill="#BABECB" stroke="black" stroke-width="1.66702" stroke-linecap="round" stroke-linejoin="round"/>
<mask id="mask1_1000_72218" style="mask-type:alpha" maskUnits="userSpaceOnUse" x="506" y="220" width="67" height="227">
<path d="M568.239 274.86C576.662 246.745 564.729 230.345 557.71 225.659L507.7 220.639C503.752 259.799 512.525 331.592 512.525 331.592C512.525 331.592 523.931 439.533 520.86 444.553L534.899 443.047L520.687 288.747H521.564L526.39 327.39L540.601 444.553L572.452 446.218C557.71 346.712 567.069 306.657 568.239 274.86Z" fill="#ACC7FA"/>
</mask>
<g mask="url(#mask1_1000_72218)">
<path d="M534.286 217.129C542.182 261.876 534.286 312.325 551.395 424.629" stroke="white" stroke-width="3.50951"/>
<path d="M513.229 217.129C504.894 267.14 521.564 308.815 527.706 424.629" stroke="white" stroke-width="2.63213"/>
<path d="M548.324 217.129C569.819 256.173 544.376 292.145 565.433 424.629" stroke="white" stroke-width="3.50951"/>
</g>
<path d="M538.409 240.721C540.164 248.754 546.832 263.313 559.466 257.289" stroke="black" stroke-width="1.66702" stroke-linecap="round" stroke-linejoin="round"/>
<path d="M534.46 442.545L525.686 327.073L539.285 443.549L534.46 442.545Z" fill="black"/>
<path d="M521.3 238.713C517.79 281.387 525.686 327.073 525.686 327.073M525.686 327.073L534.46 442.545L539.285 443.549L525.686 327.073Z" stroke="black" stroke-width="1.66702" stroke-linecap="round" stroke-linejoin="round"/>
<path d="M532.411 114.464C504.335 117.096 494.099 109.931 486.348 107.006C483.892 118.237 476.259 130.988 472.749 135.96C483.628 139.82 507.113 138.445 517.495 137.276C499.246 167.808 493.514 204.395 492.929 223.697C506.528 218.872 531.095 221.504 540.307 225.891C547.677 229.4 565.02 226.768 572.77 225.013C564.347 220.451 561.803 190.503 561.803 172.371C567.067 169.3 580.228 167.106 589.001 164.913C583.386 144.207 562.68 119.143 553.029 109.2L532.411 114.464Z" fill="#465173"/>
<path d="M561.803 172.371C567.067 169.3 580.228 167.106 589.001 164.913C583.386 144.207 562.68 119.143 553.029 109.2L532.411 114.464C504.335 117.096 494.099 109.931 486.348 107.006C483.892 118.237 476.259 130.988 472.749 135.96C483.628 139.82 507.113 138.445 517.495 137.276M561.803 172.371C561.803 190.503 564.347 220.451 572.77 225.013C565.02 226.768 547.677 229.4 540.307 225.891C531.095 221.504 506.528 218.872 492.929 223.697C493.514 204.395 499.246 167.808 517.495 137.276M561.803 172.371L553.029 176.758C553.029 160.539 553.029 146.062 551.274 133.327M517.495 137.276C518.907 134.819 522.153 131.293 523.758 129.392" stroke="black" stroke-width="1.66702" stroke-linecap="round" stroke-linejoin="round"/>
<path d="M498.632 221.942C494.069 208.606 500.24 183.484 503.019 169.738C498.456 183.425 493.514 209.513 492.49 223.697L498.632 221.942Z" fill="black" stroke="black" stroke-width="1.66702" stroke-linecap="round" stroke-linejoin="round"/>
<path d="M471.872 135.521C470.117 135.17 469.9 129.233 470.631 125.87C472.386 126.308 475.457 126.747 477.65 127.186C476.334 130.257 473.626 135.872 471.872 135.521Z" fill="black" stroke="black" stroke-width="1.66702" stroke-linecap="round" stroke-linejoin="round"/>
<path d="M589.443 165.428C580.25 171.134 565.754 183.767 553.471 177.656C564.862 173.172 588.004 164.449 589.443 165.428Z" fill="black" stroke="black" stroke-width="1.66702" stroke-linecap="round" stroke-linejoin="round"/>
<path d="M462.657 92.0905C463.71 98.0566 478.012 104.228 485.908 107.006C485.908 116.481 479.766 123.53 476.695 126.308C471.431 126.308 448.181 115.78 445.987 103.496C444.753 96.5868 446.279 54.6557 448.619 35.9383C446.422 34.2298 443.038 18.8424 454.006 21.9132C454.006 12.7008 455.322 6.1204 457.515 7.875C458.992 9.05665 459.94 17.0973 459.709 22.0442C460.735 22.7562 462.166 23.9917 464.095 25.8614C466.812 28.4935 464.095 29.3709 462.657 33.7448C460.147 37.2673 461.341 84.6328 462.657 92.0905Z" fill="#F5B896" stroke="black" stroke-width="1.66702" stroke-linejoin="round"/>
<path d="M524.554 198.454C536.291 183.412 509.996 144.745 495.381 127.292C492.76 124.087 482.337 130.394 479.438 131.083C476.539 131.772 469.155 129.7 464.082 130.906C459.009 132.112 461.665 136.84 450.967 140.15C442.408 142.798 446.594 148.592 449.756 151.158C487.928 175.158 489.288 195.292 487.094 206.698L524.554 198.454Z" fill="#E74F4F" stroke="black" stroke-width="1.31606" stroke-linecap="round" stroke-linejoin="round"/>
<path d="M467.112 150.093L490.683 142.956" stroke="black" stroke-width="1.48982" stroke-linecap="round" stroke-linejoin="round"/>
<path d="M472.46 156.478L496.03 149.342" stroke="black" stroke-width="1.48982" stroke-linecap="round" stroke-linejoin="round"/>
<path d="M487.862 206.883C475.991 208.481 473.969 199.978 474.441 195.527L516.474 185.532C516.113 191.743 521.888 196.495 524.821 198.095L487.862 206.883Z" fill="#E74F4F" stroke="black" stroke-width="1.31606" stroke-linecap="round" stroke-linejoin="round"/>
<path d="M588.806 216.019C573.013 222.6 533.727 188.804 529.023 184.864C516.18 185.733 505.776 177.196 504.018 174.126C502.371 171.249 504.896 170.669 506.827 171.52C505.2 170.309 503.407 168.418 504.018 166.668C504.797 164.438 506.211 164.823 507.663 165.588C504.263 160.457 507.966 160.207 510.159 161.404C514.985 164.036 516.74 164.823 519.372 164.823C518.494 160.884 517.234 158.25 521.127 159.564C524.036 160.546 531.277 168.201 532.094 172.995C543.938 178.635 558.853 188.615 563.239 190.369C562.362 188.615 557.975 175.88 557.975 175.88C557.975 175.88 568.942 167.741 581.665 167.741C585.175 172.567 599.334 210.317 588.806 216.019Z" fill="#F5B896"/>
<path d="M563.239 190.369C558.853 188.615 543.938 178.635 532.094 172.995C531.277 168.201 524.036 160.546 521.127 159.564C517.234 158.25 518.494 160.884 519.372 164.823C516.74 164.823 514.985 164.036 510.159 161.404C507.966 160.207 504.263 160.457 507.663 165.588M563.239 190.369C562.362 188.615 557.975 175.88 557.975 175.88C557.975 175.88 568.942 167.741 581.665 167.741C585.175 172.567 599.334 210.317 588.806 216.019C573.013 222.6 533.727 188.804 529.023 184.864C516.18 185.733 505.776 177.196 504.018 174.126C502.008 170.616 506.211 170.525 507.966 172.281M563.239 190.369L576.839 197.388M507.663 165.588C506.211 164.823 504.797 164.438 504.018 166.668C503.255 168.852 506.236 171.255 507.966 172.281M507.663 165.588C510.598 168.333 515.654 170.305 519.372 170.526M507.966 172.281C509.696 173.307 514.839 175.88 517.617 175.88" stroke="black" stroke-width="1.66702" stroke-linecap="round" stroke-linejoin="round"/>
<path d="M455.057 26.9688C454.529 28.5388 450.993 27.7339 448.618 26.7948C446.242 25.8557 446.065 24.7239 446.454 23.5678C446.843 22.4118 447.65 21.6691 450.026 22.6082C452.401 23.5473 455.585 25.3988 455.057 26.9688Z" fill="#F5B896" stroke="black" stroke-width="1.66702" stroke-linecap="round" stroke-linejoin="round"/>
<path d="M454.353 30.7872C453.825 32.3571 450.289 31.5523 447.914 30.6132C445.538 29.674 445.361 28.5423 445.75 27.3862C446.139 26.2301 446.946 25.4874 449.322 26.4266C451.697 27.3657 454.881 29.2172 454.353 30.7872Z" fill="#F5B896" stroke="black" stroke-width="1.66702" stroke-linecap="round" stroke-linejoin="round"/>
<path d="M508.176 87.1176V53.3386C508.176 53.3386 511.685 35.7808 533.181 35.3421C554.677 34.9034 556.87 52.451 556.87 52.451C556.87 60.8534 554.21 65.5719 550.916 68.1294C554.545 65.947 560.038 64.2206 561.257 70.0088C562.661 76.6768 555.408 79.2212 551.606 79.6599C548.798 94.7508 551.606 105.835 553.361 109.491C549.851 116.51 537.568 115.34 531.865 113.878V102.91C508.351 103.612 508.176 95.014 508.176 87.1176Z" fill="#F5B896" stroke="black" stroke-width="1.66702" stroke-linejoin="round"/>
<path d="M532.304 102.91C535.377 102.77 540.427 101.856 541.789 99.3265C541.846 99.2019 541.901 99.0803 541.955 98.9619C541.908 99.087 541.852 99.2085 541.789 99.3265C539.658 103.972 535.038 112.755 532.304 113.439V102.91Z" fill="black" stroke="black" stroke-width="1.66702" stroke-linecap="round" stroke-linejoin="round"/>
<path d="M500.718 44.994C502.765 38.8524 512.124 37.39 520.02 38.4136C529.671 29.2016 560.38 26.569 566.521 53.7677C571.435 75.5266 558.771 88.2776 551.167 92.8107C551.167 92.8107 550.785 92.542 550.728 92.3721C550.027 90.2663 551.021 82.7209 551.606 79.2114C558.625 79.2114 562.573 72.1924 559.502 67.8055C557.046 64.296 551.167 67.2206 548.535 69.1216C544.324 68.0687 542.393 62.5413 541.955 59.9091C494.576 65.6121 498.671 51.1357 500.718 44.994Z" fill="black" stroke="black" stroke-width="1.66702" stroke-linecap="round" stroke-linejoin="round"/>
<circle cx="567.837" cy="86.6691" r="10.9672" fill="black"/>
<path d="M569.153 80.0888C573.102 80.9662 576.172 83.1596 575.295 89.3013" stroke="white" stroke-width="1.66702" stroke-linecap="round" stroke-linejoin="round"/>
<path d="M517.389 42.6047C512.417 41.9896 503.789 42.6047 502.473 47.7718C501.089 53.2082 505.883 55.2764 507.587 55.5224" stroke="white" stroke-width="1.66702" stroke-linecap="round" stroke-linejoin="round"/>
<path d="M518.494 67.3499C516.301 66.4725 512.353 67.8763 512.353 71.7367" stroke="black" stroke-width="1.31606" stroke-linecap="round" stroke-linejoin="round"/>
<path d="M530.777 68.2273C532.093 67.7886 534.901 68.7537 535.603 70.8594" stroke="black" stroke-width="1.31606" stroke-linecap="round" stroke-linejoin="round"/>
<path d="M536.919 82.4521C536.919 85.9616 534.725 89.1011 531.516 90.9352C526.602 93.7428 520.687 92.9806 517.478 90.4965" stroke="black" stroke-width="1.31606" stroke-linecap="round" stroke-linejoin="round"/>
<circle cx="530.776" cy="72.9591" r="1.31606" fill="black"/>
<circle cx="516.738" cy="72.0716" r="1.31606" fill="black"/>
<path d="M527.084 77.3415C526.377 75.0239 523.926 73.7176 521.609 74.4237C519.291 75.1299 517.985 77.5811 518.691 79.8987C519.109 81.2717 520.14 82.2897 521.392 82.7447" stroke="black" stroke-width="1.31606" stroke-linecap="round" stroke-linejoin="round"/>
<path d="M536.442 115.698C545.918 116.4 551.796 112.335 552.235 108.241C550.48 106.486 553.551 105.609 554.428 108.242C556.036 113.066 564.518 115.259 554.428 121.401C544.338 127.543 544.339 128.128 537.758 129.736C533.898 129.385 539.952 120.084 536.442 115.698Z" fill="white" stroke="black" stroke-width="1.66702" stroke-linecap="round" stroke-linejoin="round"/>
<path d="M528.985 126.227C530.74 121.401 533.664 117.599 536.004 115.26C530.038 115.26 531.471 113.213 531.617 110.434C528.985 110.434 526.616 113.593 525.914 115.698C525.212 117.804 522.843 120.085 520.65 120.085C521.703 121.489 525.329 123.741 528.985 126.227Z" fill="white" stroke="black" stroke-width="1.66702" stroke-linecap="round" stroke-linejoin="round"/>
<path d="M536.004 116.576C532.056 122.132 526.791 138.773 525.037 145.09" stroke="black" stroke-width="1.66702" stroke-linecap="round" stroke-linejoin="round"/>
<circle cx="0.877376" cy="0.877376" r="0.877376" transform="matrix(-1 0 0 1 525.074 63.5885)" fill="black"/>
</g>
<mask id="mask2_1000_72218" style="mask-type:alpha" maskUnits="userSpaceOnUse" x="23" y="31" width="336" height="202">
<path d="M335.249 34.4308C335.249 32.5562 333.73 31.0366 331.855 31.0366H27.1605C25.2859 31.0366 23.7663 32.5562 23.7663 34.4308V229.256C23.7663 231.13 25.2859 232.65 27.1605 232.65H335.249H355.535C358.666 232.65 360.127 228.772 357.776 226.706L336.403 207.926C335.67 207.281 335.249 206.352 335.249 205.376V34.4308Z" fill="#ACC7FA"/>
</mask>
<g mask="url(#mask2_1000_72218)">
<path d="M205.468 314.307L205.468 314.308L205.467 314.315L205.462 314.366L205.441 314.566L205.359 315.348C205.287 316.033 205.182 317.038 205.05 318.32C204.785 320.883 204.41 324.549 203.968 328.963C203.084 337.79 201.933 349.603 200.865 361.552C199.797 373.503 198.813 385.582 198.262 394.943C197.986 399.624 197.819 403.616 197.804 406.568C197.796 408.045 197.826 409.248 197.898 410.142C197.934 410.589 197.979 410.945 198.031 411.213C198.057 411.346 198.083 411.449 198.107 411.525C198.119 411.563 198.13 411.591 198.138 411.611C198.147 411.631 198.152 411.638 198.151 411.637C198.295 411.873 198.292 412.169 198.144 412.402C197.996 412.634 197.728 412.762 197.454 412.731L186.195 411.442L181.39 412.711C181.342 412.724 181.292 412.732 181.243 412.734L153.67 414.175C153.453 414.187 153.244 414.1 153.098 413.94C152.952 413.78 152.886 413.563 152.918 413.349C163.059 344.902 160.013 309.029 157.831 283.331C157.273 276.755 156.771 270.846 156.562 265.228C149.236 240.656 159.645 226.153 165.993 221.915C166.092 221.85 166.204 221.809 166.322 221.797L209.616 217.451C210.013 217.411 210.366 217.7 210.406 218.097C212.123 235.12 210.882 259.192 209.221 278.969C208.389 288.866 207.451 297.702 206.72 304.063C206.355 307.245 206.042 309.807 205.82 311.575C205.709 312.459 205.62 313.145 205.56 313.609C205.53 313.841 205.506 314.018 205.491 314.137L205.473 314.272L205.468 314.307Z" fill="#BABECB" stroke="black" stroke-width="1.44315" stroke-linecap="round" stroke-linejoin="round"/>
<mask id="mask3_1000_72218" style="mask-type:alpha" maskUnits="userSpaceOnUse" x="153" y="218" width="58" height="196">
<path d="M156.899 265.109C149.608 240.77 159.937 226.572 166.014 222.515L209.308 218.169C212.726 252.07 205.131 314.222 205.131 314.222C205.131 314.222 195.257 407.668 197.915 412.014L185.762 410.71L198.065 277.131H197.306L193.128 310.585L180.825 412.014L153.252 413.455C166.014 327.312 157.912 292.636 156.899 265.109Z" fill="#ACC7FA"/>
</mask>
<g mask="url(#mask3_1000_72218)">
<path d="M186.293 215.131C179.457 253.868 186.293 297.542 171.481 394.765" stroke="white" stroke-width="3.03821"/>
<path d="M204.522 215.131C211.738 258.425 197.306 294.504 191.989 394.765" stroke="white" stroke-width="2.27866"/>
<path d="M174.139 215.131C155.53 248.931 177.557 280.073 159.328 394.765" stroke="white" stroke-width="3.03821"/>
</g>
<path d="M216.558 182.09C222.331 181.179 229.091 173.862 231.749 170.317L215.039 177.913L216.558 182.09Z" fill="black" stroke="black" stroke-width="1.44315" stroke-linecap="round" stroke-linejoin="round"/>
<path d="M232.509 181.331L225.07 166.499C223.085 165.517 215.871 169.614 214.361 173.376C214.361 173.376 219.049 192.668 225.07 193.484C231.092 194.299 263.302 194.018 280.602 184.487C282.161 183.788 282.776 182.203 283.195 180.466C284.396 179.606 284.273 178.092 283.626 177.382C284.466 175.79 283.586 174.337 282.946 173.367C281.518 171.199 277.299 171.864 274.479 172.739C272.411 165.197 264.68 165.12 266.435 167.256C270.051 171.658 269.171 175.13 269.171 175.13C269.171 175.13 265.93 178.081 253.777 180.466C241.624 182.85 232.509 181.331 232.509 181.331Z" fill="#F5B896" stroke="black" stroke-width="1.44315" stroke-linecap="round" stroke-linejoin="round"/>
<path d="M243.091 204.192L241.009 148.584C240.98 147.805 241.545 147.131 242.316 147.023L274.753 142.482C275.633 142.359 276.43 143.013 276.48 143.899L279.224 191.659L279.655 199.152C279.7 199.938 279.137 200.628 278.358 200.742L244.829 205.638C243.935 205.769 243.125 205.095 243.091 204.192Z" fill="#E74F4F" stroke="black" stroke-width="1.44315" stroke-linecap="round" stroke-linejoin="round"/>
<circle cx="247.976" cy="155.102" r="2.27866" transform="rotate(-11.4818 247.976 155.102)" fill="black"/>
<path d="M188.18 126.263C205.925 131.2 218.837 159.683 231.37 169.937C231.37 169.937 219.134 174.495 214.956 178.672C219.89 195.863 222.094 212.073 222.36 220.827C210.587 216.65 189.319 218.929 181.344 222.726C174.964 225.765 159.95 223.486 153.24 221.967C150.857 212.852 155.035 190.445 162.735 176.394C158.177 173.735 146.784 171.836 139.189 169.937C144.05 152.012 161.975 130.314 170.33 121.706L188.18 126.263Z" fill="#465173"/>
<path d="M162.735 176.394C158.177 173.735 146.784 171.836 139.189 169.937C144.05 152.012 161.975 130.314 170.33 121.706L188.18 126.263C205.925 131.2 218.837 159.683 231.37 169.937C231.37 169.937 219.134 174.495 214.956 178.672M162.735 176.394C155.035 190.445 150.857 212.852 153.24 221.967C159.95 223.486 174.964 225.765 181.344 222.726C189.319 218.929 210.587 216.65 222.36 220.827C221.853 204.117 214.28 160.239 194.152 134.238M162.735 176.394L170.33 180.191C168.431 171.456 171.745 148.67 174.024 135.757" stroke="black" stroke-width="1.44315" stroke-linecap="round" stroke-linejoin="round"/>
<path d="M139.2 169.937C146.964 174.878 164.291 183.959 169.962 180.571C160.341 176.69 140.415 169.091 139.2 169.937Z" fill="black" stroke="black" stroke-width="1.44315" stroke-linecap="round" stroke-linejoin="round"/>
<path d="M154.889 249.111C152.949 243.169 157.468 204.728 165.2 177.714C157.429 173.355 149.454 172.396 146.118 172.396C141.345 196.791 145.174 225.067 144.606 249.111C142.767 255.086 142.039 266.051 144.606 268.48C146.211 269.999 146.591 268.48 146.591 267.34C147.064 268.846 146.936 270.1 148.283 270.1C149.629 270.1 150.085 267.702 150.121 266.919C150.121 269.217 150.965 270.1 152.419 270.1C154.946 269.999 153.338 263.702 154.889 258.081C155.75 259.734 158.175 262.52 160.978 260.444C161.782 259.849 155.555 253.836 154.889 249.111Z" fill="#F5B896"/>
<path d="M150.121 266.919C150.121 269.217 150.965 270.1 152.419 270.1C154.946 269.999 153.338 263.702 154.889 258.081C155.75 259.734 158.175 262.52 160.978 260.444C161.782 259.849 155.555 253.836 154.889 249.111C152.949 243.169 157.468 204.728 165.2 177.714C157.429 173.355 149.454 172.396 146.118 172.396C141.345 196.791 145.174 225.067 144.606 249.111C142.767 255.086 142.039 266.051 144.606 268.48C146.211 269.999 146.591 268.48 146.591 267.34M150.121 266.919C150.085 267.702 149.629 270.1 148.283 270.1C146.936 270.1 147.064 268.846 146.591 267.34M150.121 266.919C150.121 266.919 149.629 264.682 150.121 258.081M146.591 267.34C146.591 267.34 145.452 261.264 146.591 258.081" stroke="black" stroke-width="1.44315" stroke-linecap="round" stroke-linejoin="round"/>
<path d="M166.924 178.672L157.05 222.726C157.05 219.413 162.367 191.976 165.025 178.672H166.924Z" fill="black" stroke="black" stroke-width="1.44315" stroke-linecap="round" stroke-linejoin="round"/>
<path d="M273.743 175.022C274.313 176.584 278.125 175.783 280.687 174.849C283.249 173.915 283.439 172.79 283.02 171.64C282.601 170.49 281.73 169.751 279.169 170.685C276.607 171.619 273.174 173.461 273.743 175.022Z" fill="#F5B896" stroke="black" stroke-width="1.44315" stroke-linecap="round" stroke-linejoin="round"/>
<path d="M275.262 178.82C275.831 180.382 279.644 179.581 282.205 178.647C284.767 177.713 284.958 176.587 284.538 175.437C284.119 174.288 283.249 173.549 280.687 174.483C278.125 175.417 274.692 177.259 275.262 178.82Z" fill="#F5B896" stroke="black" stroke-width="1.44315" stroke-linecap="round" stroke-linejoin="round"/>
<path d="M276.022 182.618C276.591 184.179 280.404 183.379 282.965 182.445C285.527 181.511 285.718 180.385 285.298 179.235C284.879 178.085 284.009 177.347 281.447 178.281C278.885 179.215 275.452 181.056 276.022 182.618Z" fill="#F5B896" stroke="black" stroke-width="1.44315" stroke-linecap="round" stroke-linejoin="round"/>
<path d="M209.343 102.733V73.49C209.343 71.5752 206.305 58.29 187.695 57.9102C169.086 57.5304 167.188 72.7215 167.188 72.7215C167.188 79.9956 169.49 84.0804 172.342 86.2944C169.201 84.4051 164.445 82.9106 163.39 87.9215C162.174 93.6941 168.453 95.8968 171.745 96.2766C174.175 109.341 171.745 118.937 170.226 122.101C173.264 128.178 183.898 127.165 188.835 125.899V116.405C209.191 117.012 209.343 109.569 209.343 102.733Z" fill="#F5B896" stroke="black" stroke-width="1.44315" stroke-linejoin="round"/>
<path d="M188.952 116.769C186.291 116.648 181.92 115.856 180.741 113.666C180.691 113.558 180.643 113.453 180.597 113.351C180.638 113.459 180.686 113.564 180.741 113.666C182.585 117.688 186.585 125.291 188.952 125.883V116.769Z" fill="black" stroke="black" stroke-width="1.44315" stroke-linecap="round" stroke-linejoin="round"/>
<path d="M176.616 79.5478C190.414 81.3201 210.159 80.3942 215.628 60.9496C217.147 57.9114 216.767 48.7968 211.45 46.898C208.188 45.733 204.994 54.8732 197.778 56.0125C201.196 53.0631 200.437 46.0624 195.879 45.7585C190.183 45.3788 182.967 58.2716 170.539 58.2716C168.641 57.512 163.324 55.6131 160.665 58.2716C158.013 60.9241 165.48 67.7383 163.25 88.9036C163.244 88.9506 163.239 88.9977 163.235 89.0449C163.24 88.9977 163.245 88.9506 163.25 88.9036C163.669 85.5445 168.475 82.6516 173.868 87.146C175.387 85.2471 175.856 83.3456 176.616 79.5478Z" fill="black" stroke="black" stroke-width="1.44315" stroke-linecap="round" stroke-linejoin="round"/>
<path d="M182.587 64.3676C186.005 62.8485 191.322 60.1901 194.36 54.4934M194.36 67.4059C199.297 67.4059 206.893 64.3676 211.45 55.6328" stroke="white" stroke-width="1.44315" stroke-linecap="round" stroke-linejoin="round"/>
<path d="M192.423 94.7661C193.035 92.7597 195.157 91.6288 197.163 92.2401C199.169 92.8515 200.3 94.9735 199.689 96.9799C199.327 98.1685 198.435 99.0498 197.35 99.4437" stroke="black" stroke-width="1.13933" stroke-linecap="round" stroke-linejoin="round"/>
<circle cx="1.13933" cy="1.13933" r="1.13933" transform="matrix(-1 0 0 1 190.85 91.3317)" fill="black"/>
<circle cx="1.13933" cy="1.13933" r="1.13933" transform="matrix(-1 0 0 1 203.003 90.564)" fill="black"/>
<path d="M190.091 85.6356C188.192 84.8761 184.774 86.0913 184.774 89.4333" stroke="black" stroke-width="1.13933" stroke-linecap="round" stroke-linejoin="round"/>
<path d="M201.104 85.337C202.243 84.9573 204.674 85.7928 205.281 87.6157" stroke="black" stroke-width="1.13933" stroke-linecap="round" stroke-linejoin="round"/>
<path d="M191.609 104.616C192.242 105.502 193.508 107.275 196.167 107.275C198.293 107.275 199.585 105.502 199.964 104.616" stroke="black" stroke-width="1.13933" stroke-linecap="round" stroke-linejoin="round"/>
<path d="M183.667 127.321C175.464 127.928 170.375 125.169 169.995 121.624C171.514 120.105 168.856 119.346 168.096 121.625C166.704 125.802 159.361 127.701 168.096 133.017C176.831 138.334 176.831 138.841 182.528 140.233C185.87 139.929 180.629 131.118 183.667 127.321Z" fill="white" stroke="black" stroke-width="1.44315" stroke-linecap="round" stroke-linejoin="round"/>
<path d="M193.888 199.18C197.306 179.432 189.331 148.163 188.571 140.315C192.521 142.745 204.902 176.014 202.623 199.18C201.357 203.105 197.306 215.828 197.306 212.472C197.306 204.877 193.621 200.723 193.888 199.18Z" fill="black" stroke="black" stroke-width="1.44315" stroke-linecap="round" stroke-linejoin="round"/>
<path d="M188.572 139.935L184.014 138.416L182.875 130.441L184.014 128.921L190.091 135.757L188.572 139.935Z" fill="black" stroke="black" stroke-width="1.44315" stroke-linecap="round" stroke-linejoin="round"/>
<path d="M190.123 137.195C188.604 133.018 185.313 128.967 183.287 126.941C188.452 126.941 188.731 125.928 188.604 123.523C190.883 123.523 192.174 126.258 192.782 128.081C193.389 129.903 195.44 131.878 197.339 131.878C196.427 133.094 193.288 135.043 190.123 137.195Z" fill="white" stroke="black" stroke-width="1.44315" stroke-linecap="round" stroke-linejoin="round"/>
<path d="M197.12 119.722C208.033 119.18 210.219 110.312 208.413 97.7879C207.963 101.531 205.276 103.023 203.476 105.763C203.011 106.471 203.264 108.962 202.716 109.561C201.577 112.599 198.767 113.405 195.624 113.522C192.664 113.632 190.943 113.192 189.424 111.08C187.905 108.968 188.554 106.903 187.146 106.143C179.207 101.859 172.472 97.2234 170.831 95.8809C170.831 100.438 172.334 120.954 197.12 119.722Z" fill="black" stroke="black" stroke-width="1.44315" stroke-linecap="round" stroke-linejoin="round"/>
<path d="M192.462 98.9272L196.26 99.307C196.26 99.307 190.943 101.965 189.584 103.485C188.224 105.004 188.284 108.422 188.284 108.422C188.284 108.422 187.905 103.864 189.044 101.965C190.183 100.067 192.462 98.9272 192.462 98.9272Z" fill="black" stroke="black" stroke-width="1.44315" stroke-linecap="round" stroke-linejoin="round"/>
<path d="M200.377 98.9272L196.579 99.307C196.579 99.307 200.977 101.586 202.336 103.105C203.696 104.624 203.096 108.422 203.096 108.422C203.096 108.422 204.934 103.864 203.795 101.965C202.655 100.067 200.377 98.9272 200.377 98.9272Z" fill="black" stroke="black" stroke-width="1.44315" stroke-linecap="round" stroke-linejoin="round"/>
<path d="M195.121 116.017L195.881 116.777" stroke="white" stroke-width="1.44315" stroke-linecap="round" stroke-linejoin="round"/>
<path d="M189.444 115.861L189.404 116.934" stroke="white" stroke-width="1.44315" stroke-linecap="round" stroke-linejoin="round"/>
<path d="M186.563 116.017L186.523 117.091" stroke="white" stroke-width="1.44315" stroke-linecap="round" stroke-linejoin="round"/>
<path d="M198.919 114.498L198.159 115.258" stroke="white" stroke-width="1.44315" stroke-linecap="round" stroke-linejoin="round"/>
<path d="M182.404 113.86L183.085 114.691" stroke="white" stroke-width="1.44315" stroke-linecap="round" stroke-linejoin="round"/>
<path d="M201.78 114.381L201.374 115.375" stroke="white" stroke-width="1.44315" stroke-linecap="round" stroke-linejoin="round"/>
<path d="M175.356 97.6451L175.762 98.6399" stroke="black" stroke-width="1.44315" stroke-linecap="round" stroke-linejoin="round"/>
<path d="M181.623 100.904L180.88 101.681" stroke="black" stroke-width="1.44315" stroke-linecap="round" stroke-linejoin="round"/>
<path d="M185.792 103.21L186.23 104.191" stroke="black" stroke-width="1.44315" stroke-linecap="round" stroke-linejoin="round"/>
<path d="M193.962 111.469L194.285 112.494" stroke="black" stroke-width="1.44315" stroke-linecap="round" stroke-linejoin="round"/>
<path d="M183.729 102.672L183.591 103.738" stroke="black" stroke-width="1.44315" stroke-linecap="round" stroke-linejoin="round"/>
<path d="M191.974 111.46L191.715 112.503" stroke="black" stroke-width="1.44315" stroke-linecap="round" stroke-linejoin="round"/>
<path d="M178.094 99.5933L178.026 100.665" stroke="black" stroke-width="1.44315" stroke-linecap="round" stroke-linejoin="round"/>
<path d="M180.565 99.3938L180.108 100.366" stroke="black" stroke-width="1.44315" stroke-linecap="round" stroke-linejoin="round"/>
<path d="M205.188 100.826L205.729 101.754" stroke="black" stroke-width="1.44315" stroke-linecap="round" stroke-linejoin="round"/>
<path d="M201.215 107.897L202.151 108.424" stroke="black" stroke-width="1.44315" stroke-linecap="round" stroke-linejoin="round"/>
<path d="M197.896 111.315L197.763 112.381" stroke="black" stroke-width="1.44315" stroke-linecap="round" stroke-linejoin="round"/>
<path d="M199.714 110.201L200.156 111.18" stroke="black" stroke-width="1.44315" stroke-linecap="round" stroke-linejoin="round"/>
<path d="M205.755 99.4049L206.606 100.06" stroke="black" stroke-width="1.44315" stroke-linecap="round" stroke-linejoin="round"/>
</g>
<path d="M526.472 509.198C522.033 509.198 514.482 502.107 509.365 495.827H493.135V519.53C498.106 519.327 509.365 519.53 522.524 519.53C541.829 519.53 532.613 509.198 526.472 509.198Z" fill="#465173" stroke="black" stroke-width="1.66702" stroke-linecap="round" stroke-linejoin="round"/>
<path d="M495.166 510.06C490.223 510.06 481.814 503.537 476.115 497.759H458.041L455.409 519.566C460.945 519.379 476.115 519.566 490.769 519.566C505.643 519.566 502.005 510.06 495.166 510.06Z" fill="#465173" stroke="black" stroke-width="1.66702" stroke-linecap="round" stroke-linejoin="round"/>
<path d="M315.462 388.714C307.04 360.599 318.972 344.199 325.991 339.513L376.001 334.492C396.498 344.65 465.932 349.456 478.654 376.023C493.386 406.787 494.008 459.105 517.259 494.367L494.008 498.231L497.518 503.545L441.366 508.858C439.339 452.139 433.967 412.579 418.993 407.903C389.601 398.725 325.991 413.217 315.462 388.714Z" fill="#BABECB" stroke="black" stroke-width="1.66702" stroke-linecap="round" stroke-linejoin="round"/>
<path d="M344.854 354.574C343.099 362.607 336.431 377.167 323.796 371.142" stroke="black" stroke-width="1.66702" stroke-linecap="round" stroke-linejoin="round"/>
<path d="M494.008 498.231L498.838 497.276C498.838 497.276 481.698 462.486 477.777 424.809C472.524 395.889 465.314 389.131 458.083 385.705C458.052 385.69 458.036 385.683 458.036 385.683C458.052 385.69 458.067 385.697 458.083 385.705C459.039 386.17 474.377 394.243 477.777 434.953C481.287 476.977 494.008 498.231 494.008 498.231Z" fill="black"/>
<path d="M361.963 362.497C379.39 368.319 438.734 374.09 458.036 385.683M458.036 385.683C458.036 385.683 474.267 392.929 477.777 434.953C481.287 476.977 494.008 498.231 494.008 498.231L498.838 497.276C498.838 497.276 481.698 462.486 477.777 424.809C472.513 395.827 465.283 389.102 458.036 385.683Z" stroke="black" stroke-width="1.66702" stroke-linecap="round" stroke-linejoin="round"/>
<path d="M329.505 223.066L348.369 227.452C356.83 230.646 378.956 251.154 397.819 275.721C400.16 283.38 387.552 294.089 384.659 303.358C381.476 313.557 387.851 322.567 387.851 336.686C368.549 334.492 351.001 336.686 340.473 338.879C332.481 340.544 315.76 339.757 308.01 338.002C316.432 333.44 318.977 303.492 318.977 285.359C313.713 282.289 300.552 280.095 291.778 277.902C297.393 257.196 319.854 233.009 329.505 223.066Z" fill="#465173"/>
<path d="M318.977 285.359C313.713 282.289 300.552 280.095 291.778 277.902C297.393 257.196 319.854 233.009 329.505 223.066L348.369 227.452C356.83 230.646 378.956 251.154 397.819 275.721C400.16 283.38 387.552 294.089 384.659 303.358C381.476 313.557 387.851 322.567 387.851 336.686C368.549 334.492 351.001 336.686 340.473 338.879C332.481 340.544 315.76 339.757 308.01 338.002C316.432 333.44 318.977 303.492 318.977 285.359ZM318.977 285.359L327.751 289.746C327.751 275.721 327.751 263.864 329.505 250.264" stroke="black" stroke-width="1.66702" stroke-linecap="round" stroke-linejoin="round"/>
<circle cx="330.82" cy="303.784" r="7.89639" fill="white"/>
<mask id="mask4_1000_72218" style="mask-type:alpha" maskUnits="userSpaceOnUse" x="292" y="223" width="107" height="117">
<path d="M329.318 223.066L348.308 227.453C355.387 230.523 379.954 253.335 398.089 278.364C400.445 286.025 387.753 294.104 384.84 303.375C381.636 313.576 388.054 322.588 388.054 336.71C372.935 334.054 351.439 334.931 341.349 338.026C333.503 340.433 315.481 339.781 307.679 338.026C316.158 333.463 318.719 303.509 318.719 285.373C313.42 282.301 301.487 280.096 292.655 277.902C298.308 257.191 319.603 233.011 329.318 223.066Z" fill="#1361F0"/>
</mask>
<g mask="url(#mask4_1000_72218)">
<circle cx="297.48" cy="262.548" r="11.4059" fill="white"/>
<circle cx="361.529" cy="237.981" r="7.89639" fill="white"/>
<path d="M338.717 269.567C338.717 273.928 332.988 277.463 328.626 277.463C328.188 277.463 328.627 273.928 328.627 269.567C328.627 265.206 329.504 261.232 329.504 261.232C333.865 261.232 338.717 265.206 338.717 269.567Z" fill="white"/>
<path d="M369.425 268.251C369.425 272.612 370.277 270.444 365.916 270.444C361.555 270.444 358.02 266.909 358.02 262.548C358.02 259.447 359.806 256.764 362.406 255.472C363.464 254.947 362.901 257.722 364.161 257.722C364.6 258.161 367.671 264.302 369.425 268.251Z" fill="white"/>
<circle cx="341.35" cy="335.37" r="7.89639" fill="white"/>
<circle cx="386.973" cy="327.473" r="7.89639" fill="white"/>
</g>
<path d="M359.214 250.716C373.691 270.457 387.266 322.502 388.289 336.686" stroke="black" stroke-width="1.66702" stroke-linecap="round" stroke-linejoin="round"/>
<path d="M291.339 278.416C300.532 284.123 315.028 296.755 327.312 290.644C315.92 286.161 292.778 277.438 291.339 278.416Z" fill="black" stroke="black" stroke-width="1.66702" stroke-linecap="round" stroke-linejoin="round"/>
<path d="M346.931 295.023L315.346 324.415L317.1 315.203L346.931 295.023Z" fill="black" stroke="black" stroke-width="1.66702" stroke-linecap="round" stroke-linejoin="round"/>
<circle cx="378.517" cy="275.721" r="2.63213" fill="black"/>
<path d="M421.946 318.712C428.526 307.306 404.106 284.202 392.554 271.334L393.431 278.353L379.393 284.056L369.425 306.416C374.507 311.05 382.827 308.106 390.043 311.344C404.006 317.608 418.765 320.737 421.946 318.712Z" fill="#F5B896" stroke="black" stroke-width="1.66702" stroke-linecap="round" stroke-linejoin="round"/>
<path d="M378.078 293.268C373.866 293.619 374.861 297.216 375.884 298.971C379.745 301.779 384.512 302.773 386.413 302.919M378.078 293.268C377.103 291.514 379.043 288.794 382.903 290.197C386.764 291.601 389.191 291.66 389.922 291.514C390.975 291.486 393.871 284.776 395.187 281.424C397.994 283.88 396.941 290.636 396.064 293.707C396.064 293.707 399.695 301.152 410.662 303.797M378.078 293.268C379.833 296.427 385.243 297.801 387.729 298.094" stroke="black" stroke-width="1.66702" stroke-linecap="round" stroke-linejoin="round"/>
<path d="M357.459 275.282C354.13 275.282 358.775 281.15 353.95 280.546C341.027 278.931 321.888 293.185 316.782 293.747C314.955 293.948 316.808 291.233 319.853 285.798C312.483 282.288 298.357 278.622 294.409 278.33C290.9 283.156 276.74 320.905 287.269 326.608C303.062 333.189 342.411 290.99 349.245 295.01C356.703 299.397 360.212 293.885 358.458 292.817C360.651 293.246 361.967 288.443 354.948 286.675C366.179 288.846 372.813 291.075 373.69 288.443C373.69 285.372 362.285 284.495 359.774 283.617C362.406 282.301 360.091 275.282 357.459 275.282Z" fill="#F5B896"/>
<path d="M294.409 303.774L316.782 293.747M316.782 293.747C314.955 293.948 316.808 291.233 319.853 285.798C312.483 282.288 298.357 278.622 294.409 278.33C290.9 283.156 276.74 320.905 287.269 326.608C303.062 333.189 342.411 290.99 349.245 295.01C356.703 299.397 360.212 293.885 358.458 292.817M316.782 293.747C321.888 293.185 341.027 278.931 353.95 280.546C358.775 281.15 354.13 275.282 357.459 275.282C360.091 275.282 362.406 282.301 359.774 283.617C362.285 284.495 373.69 285.372 373.69 288.443C372.813 291.075 366.179 288.846 354.948 286.675C361.967 288.443 360.651 293.246 358.458 292.817M358.458 292.817C357.142 292.603 353.193 291.501 353.193 291.501C353.193 291.501 356.582 292.817 358.458 292.817Z" stroke="black" stroke-width="1.66702" stroke-linecap="round" stroke-linejoin="round"/>
<path d="M361.846 312.571L373.69 266.508L399.134 271.773L396.502 281.862H395.186L389.838 292.391C389.107 292.537 386.68 292.479 382.819 291.075C378.198 287.553 378.198 292.232 378.198 294.133C375.128 292.391 373.69 297.204 376.005 299.397C375.654 305.012 385.013 309.792 389.838 310.816L388.167 317.835L361.846 312.571Z" fill="#E74F4F" stroke="black" stroke-width="1.31606" stroke-linecap="round" stroke-linejoin="round"/>
<circle cx="378.67" cy="274.425" r="2.63213" transform="rotate(-11.4818 378.67 274.425)" fill="black"/>
<path d="M373.495 202.058V168.279H337.084C337.084 177.93 333.136 181.147 332.258 183.195C328.895 180.709 321.818 178.281 320.414 184.949C319.01 191.618 323.51 195.491 327.312 195.929C330.119 211.02 330.065 220.776 328.31 224.431C331.82 231.45 344.103 230.281 349.806 228.818V217.851C373.32 218.553 373.495 209.955 373.495 202.058Z" fill="#F5B896" stroke="black" stroke-width="1.66702" stroke-linejoin="round"/>
<path d="M349.367 217.851C346.294 217.711 341.244 216.797 339.882 214.268C339.825 214.143 339.77 214.021 339.716 213.903C339.763 214.028 339.818 214.15 339.882 214.268C342.012 218.913 346.633 227.696 349.367 228.38V217.851Z" fill="black" stroke="black" stroke-width="1.66702" stroke-linecap="round" stroke-linejoin="round"/>
<path d="M393.993 168.731C391.185 186.629 379.077 182.623 373.374 178.382V172.679C364.601 174.434 356.265 169.901 353.195 167.415C353.466 173.659 341.789 178.382 335.647 177.066C335.647 177.066 333.76 183.183 332.138 183.646C329.359 180.722 322.574 178.382 320.732 183.646C318.275 190.665 324.095 194.76 327.312 195.93L329.067 209.529C326.873 211.43 319.767 214.53 312.397 211.722C305.027 208.915 308.156 200.901 310.642 197.246C305.378 196.222 295.376 191.455 297.481 180.575C299.587 169.696 309.18 166.684 313.713 166.537C312.25 163.467 311.081 155.132 318.1 146.358C325.119 137.584 338.279 141.532 343.982 144.603C345.152 141.825 350.562 136.443 362.846 137.145C375.129 137.847 377.615 147.381 377.322 152.061C384.049 150.16 396.8 150.832 393.993 168.731Z" fill="#BFC2C8" stroke="black" stroke-width="1.66702" stroke-linecap="round" stroke-linejoin="round"/>
<path d="M328.831 159.957C328.088 157.793 330.304 154.402 335.208 153.377C339.681 152.442 342.949 155.059 343.543 156.198" stroke="black" stroke-width="1.66702" stroke-linecap="round" stroke-linejoin="round"/>
<path d="M362.289 156.214C363.386 154.257 368.099 153.278 372.059 156.214C375.67 158.891 375.112 163.395 374.668 164.575" stroke="black" stroke-width="1.66702" stroke-linecap="round" stroke-linejoin="round"/>
<path d="M361.967 181.203C364.16 180.326 368.108 181.73 368.108 185.59" stroke="black" stroke-width="1.31606" stroke-linecap="round" stroke-linejoin="round"/>
<path d="M349.684 182.081C348.368 181.642 345.56 182.607 344.858 184.713" stroke="black" stroke-width="1.31606" stroke-linecap="round" stroke-linejoin="round"/>
<path d="M343.542 196.306C343.542 199.815 345.736 202.955 348.945 204.789C353.859 207.596 359.774 206.834 362.983 204.35" stroke="black" stroke-width="1.31606" stroke-linecap="round" stroke-linejoin="round"/>
<circle cx="1.31606" cy="1.31606" r="1.31606" transform="matrix(-1 0 0 1 351.001 185.497)" fill="black"/>
<circle cx="1.31606" cy="1.31606" r="1.31606" transform="matrix(-1 0 0 1 365.039 184.609)" fill="black"/>
<path d="M353.377 191.195C354.084 188.877 356.535 187.571 358.852 188.277C361.17 188.983 362.476 191.435 361.77 193.752C361.352 195.125 360.321 196.143 359.069 196.598" stroke="black" stroke-width="1.31606" stroke-linecap="round" stroke-linejoin="round"/>
<path d="M330.743 240.613C320.13 238.22 324.162 228.915 327.672 223.066C332.936 229.734 345.073 228.769 350.484 227.452C353.116 232.278 356.801 239.56 350.484 240.613C344.167 241.666 341.642 232.717 340.472 229.646C340.472 233.594 340.472 242.807 330.743 240.613Z" fill="white" stroke="black" stroke-width="1.66702" stroke-linecap="round" stroke-linejoin="round"/>
<path d="M349.246 262.548C345.298 244.123 342.666 237.542 340.472 231.839" stroke="black" stroke-width="1.66702" stroke-linecap="round" stroke-linejoin="round"/>
<circle cx="349.961" cy="248.302" r="1.31606" transform="rotate(-17.8188 349.961 248.302)" fill="black"/>
<circle cx="352.915" cy="257.49" r="1.31606" transform="rotate(-17.8188 352.915 257.49)" fill="black"/>
<path d="M345.736 189.725C345.736 192.148 347.7 194.112 350.123 194.112C352.546 194.112 354.51 192.148 354.51 189.725C354.51 189.725 352.546 189.725 350.123 189.725C347.7 189.725 345.736 189.725 345.736 189.725Z" fill="white" stroke="black" stroke-width="1.31606" stroke-linecap="round" stroke-linejoin="round"/>
<path d="M361.528 189.725C361.528 192.148 363.492 194.112 365.915 194.112C368.338 194.112 370.302 192.148 370.302 189.725C370.302 189.725 368.338 189.725 365.915 189.725C363.492 189.725 361.528 189.725 361.528 189.725Z" fill="white" stroke="black" stroke-width="1.31606" stroke-linecap="round" stroke-linejoin="round"/>
<path d="M179.681 343.153L247.552 330.73C248.365 330.581 248.257 329.383 247.43 329.383H179.559C179.184 329.383 178.88 329.687 178.88 330.062V342.485C178.88 342.909 179.264 343.229 179.681 343.153Z" fill="black" stroke="black" stroke-width="1.28978" stroke-linecap="round" stroke-linejoin="round"/>
<path d="M68.2395 429.693C74.0409 425.705 90.2215 425.904 94.5273 432.476C95.9938 428.372 106.116 419.43 115.798 419.43C134.577 419.43 135.971 428.372 136.705 432.476C148.075 429.693 165.313 436.302 165.313 459.042C169.837 459.531 178.884 462.416 178.884 470.045V492.077H94.5273H2.51979C-2.0126 476.848 7.88313 469.718 13.3975 468.056C13.3975 453.008 29.563 453.434 37.6458 455.528C37.1926 452.808 37.9178 446.916 44.4444 445.103C50.971 443.29 58.1927 445.859 60.9876 447.369C60.9876 443.139 62.438 433.682 68.2395 429.693Z" fill="#E9EAEE" stroke="black" stroke-width="1.28978" stroke-linecap="round" stroke-linejoin="round"/>
<path d="M104.762 446.052C129.829 442.582 167.325 466.485 166.775 491.706C112.314 499.363 78.3116 460.208 68.1182 439.673C69.8878 443.246 79.694 449.522 104.762 446.052Z" fill="#465173" stroke="black" stroke-width="1.28978" stroke-linecap="round" stroke-linejoin="round"/>
<path d="M117.841 464.627C131.159 468.08 159.459 477.094 166.121 485.517" stroke="black" stroke-width="1.28978" stroke-linecap="round" stroke-linejoin="round"/>
<path d="M56.6515 484.358C50.8501 488.528 54.2343 492.819 56.6515 495.689H125.091C128.716 479.01 117.234 473.178 111.04 472.347C108.139 462.739 97.1408 464.567 92.0041 466.682C86.7465 459.611 79.6911 463.736 76.8206 466.682C69.7501 462.149 65.5652 468.57 64.3565 472.347C57.6486 472.347 56.4249 480.355 56.6515 484.358Z" fill="#BABECB" stroke="black" stroke-width="1.28978" stroke-linecap="round" stroke-linejoin="round"/>
</svg>
