<svg width="280" height="201" viewBox="0 0 280 201" fill="none" xmlns="http://www.w3.org/2000/svg">
<g clip-path="url(#clip0_1177_19609)">
<path d="M35.9747 172.584C35.662 174.668 34.9827 173.861 33.2767 174.977C32.8567 174.907 31.8236 174.495 31.4779 175.276C30.0366 175.026 28.0028 176.29 26.0818 176.921C25.7889 177.836 29.7719 178.736 30.4287 178.865C42.7097 181.278 61.9488 180.581 74.9469 180.959C97.2054 181.606 121.458 182.709 143.598 181.856C177.303 181.416 211.146 182.363 244.776 180.062C248.237 179.825 263.341 179.096 265.461 177.968C267.967 176.634 263.597 175.919 263.512 175.725C263.287 175.209 264.88 174.782 265.011 174.678C266.917 175.772 269.78 175.328 271.007 177.519C270.628 178.127 270.229 178.715 269.658 179.164C266.912 181.325 249.225 186.053 244.776 187.24C174.939 205.869 107.557 205.917 38.2231 185.146C35.5829 184.356 18.9717 179.55 18.5871 177.818C17.9364 174.887 26.708 174.794 28.63 174.379C28.8113 174.339 30.694 173.141 31.9276 172.883C33.1319 172.631 34.7537 173.031 35.9747 172.584Z" fill="#D8E2EC"/>
<path d="M253.919 173.781C254.688 173.898 255.636 174.682 257.517 174.379C257.722 176.707 258.31 175.844 259.915 176.622C258.404 178.86 243.499 177.694 243.127 176.921C244.118 175.511 246.681 176.149 248.523 175.874C249.129 175.784 249.845 175.937 250.472 175.874C251.017 175.341 250.716 174.618 250.921 173.781C251.866 173.879 253.016 173.643 253.919 173.781Z" fill="#97B0CB"/>
<path d="M247.023 160.021C247.304 164.686 248.356 169.198 249.121 173.78C248.066 173.914 248.885 172.651 248.072 172.285C247.676 172.106 239.796 171.863 239.378 171.986C238.981 172.102 239.658 173.633 238.629 172.883C238.667 172.703 238.604 172.475 238.629 172.285C239.109 168.631 238.388 164.376 238.629 160.62L247.023 160.021Z" fill="#D8E2EC"/>
<path d="M249.121 173.781L245.524 174.379C244.627 173.114 240.497 173.592 238.629 173.482C238.68 173.352 238.591 173.063 238.629 172.884C239.658 173.634 238.981 172.103 239.378 171.986C239.796 171.864 247.676 172.107 248.072 172.285C248.885 172.651 248.066 173.914 249.121 173.781Z" fill="#D8E2EC"/>
<path d="M223.04 174.979L223.34 175.577C223.023 175.612 218.89 178.631 217.943 175.577C218.979 175.504 220.599 175.426 221.541 175.278C222.063 175.195 222.535 175.051 223.04 174.979Z" fill="#7A9ABE"/>
<path d="M238.63 172.883C238.592 173.063 238.681 173.352 238.63 173.482C237.218 177.101 226.974 175.171 223.341 175.575L223.041 174.977C223.494 174.912 223.787 174.749 224.24 174.678C227.137 174.787 234.051 175.669 236.531 174.678C237.523 174.282 237.999 173.016 238.63 172.285C238.605 172.475 238.668 172.703 238.63 172.883Z" fill="#D8E2EC"/>
<path d="M196.36 162.416C196.383 163 196.264 163.388 196.66 163.912C195.968 163.97 194.502 164.032 193.962 164.36C194.918 165.215 196.333 164.972 196.96 165.108C194.898 170.208 199.505 173.148 198.459 165.407C198.983 165.494 199.401 165.634 199.957 165.706C200.473 168.002 198.407 170.973 201.756 170.342V166.005C202.342 166.065 202.966 165.957 203.555 166.005C202.22 171.927 206.653 172.323 205.054 166.005C205.73 166.049 206.513 166.29 206.853 166.304C206.055 173 209.781 171.371 208.052 166.304C208.747 166.324 209.454 166.298 210.15 166.304C209.494 172.258 212.367 171.904 211.649 166.304C212.246 166.302 212.851 166.314 213.448 166.304C212.732 171.919 215.605 172.243 214.947 166.304C216.681 166.258 218.324 166.133 220.043 166.005C220.23 166.817 219.789 169.556 220.043 170.043C220.138 170.226 221.383 170.318 221.542 170.641C221.834 171.235 221.327 174.34 221.542 175.278C220.601 175.426 218.98 175.504 217.945 175.577C217.53 175.606 216.673 175.555 216.146 175.577C212.581 175.721 197.171 175.769 194.861 174.081C193.347 172.975 194.69 172.529 194.561 171.539C194.369 170.061 192.85 163.776 194.112 163.313C194.365 163.22 195.23 164.008 195.461 163.463C195.484 163.407 194.975 163.162 194.861 162.416H196.36Z" fill="#D8E2EC"/>
<path d="M198.458 165.407C199.505 173.148 194.898 170.208 196.96 165.107C197.483 165.221 197.916 165.317 198.458 165.407Z" fill="#D8E2EC"/>
<path d="M201.757 166.004V170.341C198.408 170.972 200.474 168.001 199.958 165.705C200.581 165.786 201.193 165.946 201.757 166.004Z" fill="#D8E2EC"/>
<path d="M205.054 166.005C206.653 172.323 202.22 171.926 203.555 166.005C204.047 166.045 204.561 165.973 205.054 166.005Z" fill="#D8E2EC"/>
<path d="M208.051 166.304C209.781 171.37 206.054 172.999 206.852 166.304C207.248 166.32 207.654 166.292 208.051 166.304Z" fill="#D8E2EC"/>
<path d="M211.648 166.303C212.365 171.902 209.493 172.256 210.149 166.303C210.646 166.308 211.151 166.305 211.648 166.303Z" fill="#D8E2EC"/>
<path d="M214.946 166.305C215.604 172.243 212.732 171.919 213.447 166.305C213.944 166.297 214.45 166.318 214.946 166.305Z" fill="#D8E2EC"/>
<path d="M195.16 153.742C195.037 155.123 196.387 156.432 196.359 156.583C196.336 156.71 194.411 157.572 194.261 158.079C194.094 158.638 194.737 161.605 194.86 162.416C194.974 163.162 195.483 163.407 195.46 163.463C195.229 164.008 194.364 163.22 194.111 163.313C192.849 163.776 194.368 170.061 194.56 171.539C194.689 172.529 193.346 172.975 194.86 174.081C194.565 174.055 194.011 174.661 193.961 174.679C190.569 175.917 191.041 173.665 190.963 172.137C190.951 171.907 190.376 172.068 190.363 171.838C190.357 171.722 191.069 171.704 190.963 169.894C191.337 169.013 191.437 167.183 191.263 166.304C191.873 164.316 191.905 162.176 192.462 160.173C192.891 158.63 193.936 158.458 193.961 154.938L194.86 151.947C194.958 152.405 195.396 153.042 195.16 153.742Z" fill="#D8E2EC"/>
<path d="M187.965 161.519C187.955 162.421 187.663 163.316 187.666 163.912C187.671 164.881 187.334 165.569 187.366 166.604C187.409 168.01 187.872 169.453 188.265 170.791C186.465 170.453 183.816 170.01 182.27 171.09C182.63 169.077 183.603 166.105 183.469 164.211C183.719 163.008 184.39 156.713 184.968 156.135C186.206 157.041 183.969 160.595 184.368 161.369L187.965 161.519Z" fill="#D4E0EA"/>
<path d="M180.771 160.62C180.448 164.139 179.673 166.446 179.872 170.491C174.812 171.233 166.541 169.499 161.885 170.491C167.364 166.53 173.954 162.806 178.673 157.928L175.075 161.667C177.554 161.534 180.638 160.738 180.471 157.629C180.803 158.672 180.871 159.54 180.771 160.62Z" fill="#D4E0EA"/>
<path d="M161.883 170.491C166.54 169.499 174.81 171.233 179.871 170.491C179.927 171.634 179.697 174.984 181.07 174.678C181.062 174.754 181.359 175.479 181.37 176.174C180.871 176.27 179.955 176.033 179.571 176.174L179.421 173.781L156.787 173.482C158.075 172.706 160.514 170.782 161.883 170.491Z" fill="#DEE6ED"/>
<path d="M188.266 170.79C188.412 171.284 188.709 173.222 188.866 173.482H181.371C181.484 172.79 182.193 171.524 182.27 171.089C183.816 170.009 186.466 170.452 188.266 170.79Z" fill="#DEE9F0"/>
<path d="M238.63 160.62C238.389 164.376 239.109 168.632 238.63 172.285C237.999 173.016 237.523 174.282 236.531 174.678C235.958 174.465 235.885 173.503 235.782 173.482C234.611 173.241 227.172 173.514 225.739 173.781C225.496 173.171 226.007 172.609 226.039 172.285L231.585 172.585C231.737 171.851 230.81 171.954 230.236 171.089C231.672 170.054 231.498 168.091 233.833 168.248C233.007 167.121 231.001 167.506 230.236 168.397C229.408 168.069 230.269 167.109 230.236 167.051C229.609 165.954 228.859 166.569 228.137 166.602C227.854 166.615 227.344 165.795 226.638 167.201C226.668 166.808 226.616 166.398 226.638 166.004C226.699 164.949 226.341 164.116 226.339 163.013C226.337 162.084 227.109 161.231 226.638 159.424C228.222 159.545 228.591 157.778 228.437 156.582L226.339 157.928C226.339 157.251 226.035 156.225 226.039 156.134C226.045 155.958 226.286 155.503 226.339 154.937C227.677 154.517 227.973 151.874 226.938 151.049C227.002 149.945 227.004 148.563 226.938 147.46C228.252 144.29 229.585 147.39 229.786 147.46C230.717 147.784 235.865 146.717 236.981 147.16C237.449 147.347 237.51 148.617 237.58 148.656C237.867 148.818 238.992 146.932 240.129 148.506C240.374 148.846 240.314 156.506 240.129 156.881C239.969 157.205 238.725 157.297 238.63 157.48C238.493 157.741 238.671 159.98 238.63 160.62ZM229.936 152.843C230.08 153.356 230.449 153.714 230.835 154.04C230.874 154.072 230.777 154.762 231.285 154.937C233.357 155.652 235.633 153.025 235.032 151.049C234.867 150.504 233.779 149.993 233.234 149.852C230.836 149.235 229.277 150.491 229.936 152.843ZM229.936 159.723C229.89 160.171 229.374 160.944 229.636 161.667C229.736 161.943 230.505 162.365 230.536 162.415C230.763 162.79 231.084 163.099 231.435 163.312C236.156 166.18 236.269 154.729 230.985 157.33C229.646 157.989 230.037 158.73 229.936 159.723ZM234.583 169.893L232.484 172.585C233.597 172.714 235.655 170.863 234.583 169.893Z" fill="#D8E2EC"/>
<path d="M226.638 166.004C226.615 166.398 226.667 166.807 226.638 167.2C226.615 167.504 226.082 168.901 226.038 169.294C225.929 170.257 226.132 171.316 226.038 172.285C226.007 172.609 225.496 173.17 225.738 173.78C225.383 173.847 224.795 174.591 224.239 174.678C223.786 174.749 223.493 174.912 223.04 174.977C222.535 175.05 222.063 175.194 221.541 175.276C221.326 174.338 221.833 171.234 221.541 170.64C221.382 170.316 220.138 170.224 220.042 170.042C219.788 169.554 220.229 166.815 220.042 166.004C221.77 165.875 223.437 165.52 225.139 165.405C225.87 165.356 225.998 164.434 226.638 166.004Z" fill="#D8E2EC"/>
<path d="M228.138 166.603C228.304 168.43 228.132 169.576 226.039 169.295C226.083 168.903 226.616 167.506 226.639 167.202C227.344 165.796 227.855 166.616 228.138 166.603Z" fill="#D8E2EC"/>
<path d="M230.236 168.397C229.125 169.691 229.581 170.103 230.236 171.089C230.811 171.953 231.737 171.85 231.585 172.584L226.039 172.285C226.133 171.316 225.93 170.258 226.039 169.294C228.132 169.575 228.303 168.428 228.137 166.602C228.859 166.569 229.609 165.954 230.236 167.051C230.269 167.109 229.408 168.069 230.236 168.397Z" fill="#D8E2EC"/>
<path d="M230.236 171.089C229.58 170.103 229.125 169.691 230.236 168.397C231.001 167.506 233.007 167.121 233.833 168.248C231.498 168.091 231.672 170.054 230.236 171.089Z" fill="#D8E2EC"/>
<path d="M234.583 169.893C235.655 170.863 233.597 172.714 232.484 172.585L234.583 169.893Z" fill="#D8E2EC"/>
<path d="M236.531 174.678C234.051 175.669 227.137 174.788 224.24 174.678C224.796 174.591 225.384 173.847 225.739 173.781C227.172 173.514 234.612 173.241 235.782 173.482C235.885 173.503 235.958 174.465 236.531 174.678Z" fill="#D8E2EC"/>
<path d="M118.415 166.005C117.289 165.922 118.401 166.78 118.564 166.902C120.215 168.131 122.678 168.89 123.661 170.491H110.92C110.956 167.317 111.203 164.062 111.22 160.92C113.648 162.539 115.969 164.42 118.415 166.005Z" fill="#D4E0EA"/>
<path d="M118.416 166.004C122.659 168.753 127.178 171.052 131.606 173.481C128.563 172.996 120.068 173.441 116.467 173.182C114.852 173.066 112.552 173.585 110.921 172.883C110.961 172.094 110.912 171.281 110.921 170.49H123.662C122.68 168.889 120.217 168.13 118.566 166.901C118.402 166.779 117.29 165.921 118.416 166.004Z" fill="#DDE8EF"/>
<path d="M100.129 152.545C100.517 157.722 99.3494 165.407 98.93 170.79H88.4375C91.7963 166.523 93.4112 160.003 92.6345 154.639C95.1245 153.859 97.9569 153.889 100.129 152.545Z" fill="#D4E0EA"/>
<path d="M105.525 160.322C105.367 162.176 106.744 171.535 107.324 173.483C106.128 173.196 104.955 173.156 103.726 173.184C97.6464 173.322 91.5293 173.598 85.4395 173.782C86.45 173.004 87.648 171.794 88.4373 170.791H98.9298C98.898 171.2 98.3596 172.044 98.63 172.735C101.683 169.288 103.064 164.311 105.525 160.322Z" fill="#D6E4EC"/>
<path d="M59.0583 146.263C52.1827 154.384 53.9898 164.106 61.1568 171.089C61.9381 171.85 62.6231 172.456 63.5551 173.033C62.314 174.344 63.0931 174.57 61.4566 174.379C60.6697 174.287 60.6963 173.885 60.2575 173.781C52.6642 166.39 50.6418 156.561 56.0604 147.16C56.8714 146.535 57.4326 145.775 58.1589 145.066L59.0583 146.263Z" fill="#D4E0EA"/>
<path d="M60.2577 173.781C59.4564 173.59 59.0933 173.277 58.1592 173.182C58.7489 172.625 56.9304 171.122 56.8101 171.089C56.1236 170.898 44.2137 171.4 43.6196 171.687C43.0215 171.976 43.1663 172.684 43.1699 173.182C42.7514 172.894 42.9525 172.622 42.5703 172.584C42.8461 171.293 43.1939 169.987 43.4697 168.696L53.3626 165.854C52.8437 162.197 51.7611 159.333 52.1635 155.386C52.3661 153.399 54.1909 149.501 55.1613 147.459C55.1871 147.981 55.9072 147.279 56.0607 147.16C50.642 156.561 52.6644 166.39 60.2577 173.781Z" fill="#D4E0EA"/>
<path d="M58.1576 173.183C54.6159 172.824 50.5245 173.449 46.9156 173.183C46.1899 174.465 48.22 173.773 47.9649 174.978C46.6686 174.265 45.6406 174.247 44.3675 173.781C43.9412 173.625 43.5532 173.448 43.1683 173.183C43.1647 172.685 43.0199 171.977 43.618 171.687C44.2122 171.4 56.1221 170.898 56.8086 171.089C56.9288 171.123 58.7473 172.626 58.1576 173.183Z" fill="#DAE4ED"/>
<path d="M88.4373 152.245C88.8813 152.788 88.6442 153.514 89.6365 152.993C88.2928 149.755 86.2552 144.702 83.9405 142.075H84.2403C85.9551 142.959 87.296 144.766 88.4373 146.263C88.7323 146.649 89.2719 147.065 89.3367 147.16C90.0058 148.147 90.9612 149.816 91.4352 150.899C91.5059 151.06 90.7726 151.034 90.8356 151.198C90.8989 151.363 91.7688 151.217 92.0347 152.095C92.2368 152.762 92.5384 153.976 92.6343 154.638C93.4111 160.002 91.7961 166.522 88.4373 170.789C87.648 171.792 86.45 173.002 85.4395 173.781C79.6254 178.258 68.0947 179.948 62.0562 175.276C61.986 175.222 61.5456 174.567 61.4566 174.379C63.0931 174.57 62.314 174.344 63.5551 173.033C62.6231 172.456 61.938 171.85 61.1568 171.089C61.7168 169.417 59.5032 168.15 58.7585 166.752C50.0566 150.414 68.5642 134.382 82.2917 144.767C84.9052 146.744 86.4234 149.783 88.4373 152.245ZM74.3474 160.321C74.5216 160.894 75.3613 161.333 75.2467 162.265C74.8285 165.666 69.4621 163.15 67.7521 162.115C67.7092 162.089 67.7779 161.389 67.3024 161.218C66.549 160.991 65.269 164.2 64.7542 164.957C65.4965 166.482 70.1081 167.256 70.3003 167.499C70.9079 168.269 69.746 168.538 71.0497 168.995C74.7656 170.297 73.2753 167.866 73.8977 167.2C74.366 166.699 78.3936 166.665 79.4437 163.461C80.8845 159.067 78.3393 158.176 75.2467 156.432C73.7577 155.593 69.7798 155.278 70.4502 152.693C71.0707 150.301 75.8955 151.68 77.1953 153.142C81.1918 147.809 76.1491 149.83 74.4973 148.356C73.8626 147.79 74.2239 145.495 71.7992 146.562C70.9907 146.917 71.5423 148.201 71.3495 148.506C71.1714 148.787 66.8326 149.593 66.2532 152.394C65.1949 157.51 70.5035 159.127 74.3474 160.321Z" fill="#D4E0EA"/>
<ellipse cx="146.745" cy="177.371" rx="120.964" ry="8.67411" fill="#8FA9C9"/>
<path d="M118.865 -1.85221e-05C121.584 -0.394541 124.76 0.68733 126.509 2.8415C126.722 3.10382 127.002 4.75908 127.259 4.7857C127.583 4.8192 129.552 1.83082 133.254 3.88837C135.786 5.29537 134.691 8.15005 135.203 9.12275C135.39 9.47899 142.029 7.63798 140.449 12.5625C135.748 11.7023 95.4309 13.9865 94.7318 11.8147C93.7515 8.7695 98.9138 5.61692 101.177 8.67409C100.79 3.92158 104.292 -0.0655229 109.271 1.49552C110.562 1.90021 112.635 4.48749 112.869 4.48659C113.252 4.48509 115.701 0.459111 118.865 -1.85221e-05Z" fill="#8CC5E2"/>
<path d="M219.294 7.17811C221.384 6.614 222.103 8.93686 222.292 8.97276C222.42 8.99698 223.235 7.90375 224.69 8.67365C226 9.36698 225.987 11.8304 224.69 12.2629C224.15 12.443 213.829 12.4684 213.298 12.2629C211.382 11.5211 213.658 8.64284 214.497 8.37454C215.857 7.93964 217.216 9.00446 217.495 8.97276C217.726 8.94673 218.99 7.26007 219.294 7.17811Z" fill="#8BC4E2"/>
<path d="M272.806 55.6346C270.816 55.1432 266.413 54.1786 265.311 56.0833C264.739 57.073 265.191 58.5087 263.512 59.6726C263.76 60.3674 274.122 60.196 275.504 60.1212C277.941 67.6177 279.598 75.2525 280 83.1525C279.267 83.7375 279.979 85.7622 279.701 86.2931C278.875 87.8661 256.566 88.4497 253.469 88.2373C249.51 87.9657 243.204 87.59 241.028 84.0498C243.393 81.7242 246.257 73.246 245.825 69.9918C245.319 66.1787 238.984 69.0843 236.981 70.59C232.787 73.7423 232.546 78.7646 231.585 83.4516C232.219 78.7116 231.257 73.7997 231.735 69.0944C238.767 72.1498 242.715 57.5342 240.729 53.2418C239.363 50.2923 234.121 54.5031 232.934 56.3824C230.843 59.6932 231.204 62.9777 230.986 66.7016L228.737 55.7842C231.444 55.2568 232.205 55.1201 233.833 52.9426C236.234 49.7323 236.716 44.4854 235.183 40.9784C231.902 41.5257 229.763 44.326 228.437 47.1101L227.538 52.9426C227.104 51.6305 224.313 45.939 224.54 45.6145C224.65 45.4569 226.604 45.2071 227.088 44.8667C230.272 42.6318 230.467 38.2329 230.236 34.6971C230.044 31.7515 230.583 29.4897 226.788 31.706C223.628 33.5524 222.643 38.6773 223.041 42.0252C222.935 41.3143 220.067 38.1048 220.043 37.8377C220.021 37.5778 221.028 37.3355 221.242 36.9404C223.104 33.5079 222.951 27.6244 220.493 24.5275C216.936 27.0768 217.672 32.0413 218.694 35.5944C217.383 33.4842 208.825 28.9528 210.45 33.7998C211.495 36.9162 216.587 42.7284 220.043 39.4828C221.401 41.1509 222.701 43.2486 223.641 45.1659C224.399 46.7125 226.106 50.4762 226.039 51.7462C224.334 50.1687 221.159 48.9131 218.994 49.9516C217.311 50.7586 218.947 51.4196 219.144 51.7462C220.827 54.5333 223.988 58.25 227.538 56.2328C228.37 58.0553 230.238 64.1849 229.636 66.1034C229.377 61.9048 225.636 57.7424 221.392 57.4293C219.395 57.2818 218.77 57.0736 218.844 59.2239C218.956 62.4803 224.261 70.3348 227.988 69.9918C229.375 69.864 230.303 68.9562 229.636 67.5989L230.236 67.0007C231.139 68.7612 230.056 80.7234 230.536 83.4516C230.196 80.8571 229.492 76.1869 228.138 74.0297C226.118 70.8143 220.92 68.6888 217.345 70.2909C217.427 67.2095 217.575 51.0296 216.746 49.2038C216.703 49.1108 215.8 48.2078 215.696 48.1569C214.513 47.5776 201.292 46.6369 198.309 46.0632C193.316 45.103 188.293 43.4568 183.469 41.8757C173.454 38.5927 163.987 34.1243 155.14 28.4159C152.536 26.7361 145.389 20.0753 142.848 20.34C141.909 20.4378 129.987 29.9171 127.559 31.4069C116.927 37.9314 104.169 43.0712 91.8848 45.465C86.7723 46.4613 77.2232 46.3722 73.2981 47.5587C70.151 48.5102 71.289 51.1857 71.0497 53.5409C69.9972 63.9097 70.2469 76.0747 71.3495 86.4426C69.2027 87.0744 65.7702 89.7711 64.7542 91.677C63.2121 94.5694 63.523 97.9493 63.1054 101.099C62.796 96.035 59.0562 91.1868 59.3581 86.1435C62.4501 87.3798 64.7494 85.1391 66.5529 83.0029C69.3928 79.6392 70.4705 76.7477 70.1504 72.3846C70.1084 71.8124 70.3159 69.9571 70.0005 69.6926C61.6628 69.6771 59.1326 75.8411 58.6086 83.1525C58.3574 78.4942 58.4162 73.7384 58.7585 69.0944H59.0583C63.2529 73.1524 70.1396 62.2479 70.1504 59.2239C70.166 54.8937 62.4459 58.7531 60.857 61.1681C60.6361 61.504 60.1231 62.6774 59.9576 63.1123L59.6579 62.8132C60.0548 60.5902 60.1864 58.0026 61.1568 55.9337C63.1 59.476 70.2025 52.6483 70.4502 51.148C70.9196 48.3026 63.2103 49.8517 62.5058 52.6435C63.0023 50.5318 64.1028 47.7101 65.3538 46.3623C66.9831 50.6075 73.1153 48.1991 74.9469 45.1659C75.11 44.8955 76.1125 44.6837 75.8463 43.8199C72.8976 41.8963 69.0708 41.8015 66.403 44.2685C65.8379 43.9787 68.5564 39.6725 68.9512 39.1837C71.9188 43.918 79.8119 34.308 79.1439 32.3042C78.2863 29.7316 71.4134 34.1779 70.1504 35.5944C71.533 33.792 71.4469 24.7548 68.8013 24.5275C66.353 24.3169 64.9967 35.9046 68.6514 37.3891C67.8969 38.4946 66.7226 41.3346 65.9534 42.773C67.1789 39.0856 65.6269 31.671 61.0069 31.1078C58.6845 30.8249 58.9003 32.7727 58.7585 34.6971C58.4707 38.6073 59.5005 45.3585 64.4544 45.465C63.124 48.2075 61.977 50.9449 61.0069 53.84C61.766 48.3241 59.7097 42.2974 53.812 40.9784C53.1798 41.3169 53.4826 41.826 53.3624 42.1748C51.9279 46.339 53.8861 56.432 59.9576 55.3355C59.8245 59.1877 57.84 63.7428 58.009 67.898C57.7488 63.531 58.2381 59.5685 55.4609 55.7842C53.693 53.3755 48.0831 49.6743 47.6664 54.7373C47.5252 56.4524 48.1557 60.1179 48.5658 61.9159L46.7671 61.6168C46.7734 59.2188 45.5373 60.0758 45.2681 59.3735C44.9726 58.6021 45.2549 55.6935 44.6686 53.9895C43.3924 50.2812 39.4931 48.4515 35.8249 48.7551C35.097 48.8153 33.2719 49.9788 33.1268 49.9516C32.8201 49.8938 30.6524 46.3844 28.63 45.7641C27.8698 45.5308 23.6949 45.3085 23.084 45.465C37.9618 23.9029 59.4258 18.458 84.0904 18.5456C84.1854 18.5459 88.2494 18.6477 93.9692 18.7425C101.118 18.8609 104.655 19.145 111.673 20.34C113.145 20.5903 116.877 22.1515 117.393 22.2736C117.583 22.3184 117.927 22.3867 118.116 22.434C118.483 22.5452 118.362 22.5117 118.483 22.5452C123.872 24.0371 126.654 20.0355 130.707 18.5456C136.403 16.4519 138.398 18.1649 141.35 17.648C143.083 17.3444 144.797 15.7025 147.795 14.6572C156.788 11.5213 168.327 11.4083 179.123 13.4605C183.103 13.9612 190.292 19.5075 194.475 20.1006C196.382 20.6438 208.42 21.5283 210.6 21.8355C241.794 26.2291 256.084 26.7833 272.806 55.6346ZM214.347 45.7641C217.25 49.8062 224.875 49.2535 223.341 45.465C221.79 41.6337 213.672 41.9119 213.148 43.8199C212.938 44.5868 214.009 45.2921 214.347 45.7641ZM247.474 53.5409C247.282 54.8964 248.257 54.626 247.324 56.0833C247.948 55.5969 249.469 55.9783 249.572 55.9337C249.686 55.8847 249.033 54.3864 249.722 53.6904C248.529 54.0517 248.691 54.3532 247.474 53.5409Z" fill="#E9EFF4"/>
<path d="M183.468 41.8754C181.995 42.3794 181.666 44.0667 181.37 45.4647C170.444 41.7836 161.202 37.4068 151.541 31.1076C149.484 29.7664 144.321 24.6771 142.248 25.1254C141.794 25.2235 136.452 30.0466 135.353 30.8085C113.269 46.1135 101.193 47.1257 75.6951 51.746C74.4975 51.9631 71.7706 52.6908 71.0484 53.5406C71.2877 51.1854 70.1497 48.5099 73.2968 47.5585C77.2219 46.3719 86.771 46.461 91.8836 45.4647C104.168 43.071 116.926 37.9311 127.558 31.4067C129.986 29.9168 141.908 20.4375 142.847 20.3397C145.388 20.075 152.535 26.7358 155.138 28.4156C163.985 34.1241 173.453 38.5924 183.468 41.8754Z" fill="#1B8CCA"/>
<path d="M70.1489 35.5932C69.8381 35.942 68.8536 37.0897 68.65 37.3879C64.9953 35.9034 66.3516 24.3157 68.7999 24.5263C71.4455 24.7536 71.5316 33.7908 70.1489 35.5932Z" fill="#7DC080"/>
<path d="M230.236 34.697L229.637 34.2483L227.239 37.8376L223.641 45.1657C222.701 43.2485 221.402 41.1508 220.044 39.4827C219.438 38.7388 219.074 37.7619 218.095 37.0898C216.451 35.9616 212.454 34.6282 210.451 33.7997C208.825 28.9526 217.384 33.4841 218.695 35.5943C217.672 32.0412 216.936 27.0766 220.493 24.5273C222.952 27.6243 223.105 33.5077 221.243 36.9403C221.029 37.3354 220.021 37.5777 220.044 37.8376C220.067 38.1047 222.935 41.3141 223.042 42.0251C222.643 38.6772 223.628 33.5523 226.789 31.7059C230.583 29.4895 230.045 31.7514 230.236 34.697Z" fill="#7FC17F"/>
<path d="M181.369 45.4648C191.368 48.8334 201.461 51.4476 212.098 52.0452C213.165 52.4941 213.62 58.1036 213.746 59.3733C216.049 82.5451 209.763 117.028 196.059 136.244C194.029 139.091 191.481 142.754 187.665 140.88C189.082 140.356 189.759 138.374 188.414 137.889C188.166 137.799 183.867 137.349 183.168 137.291C183.114 135.733 184.442 135.931 184.967 135.496C185.096 135.389 185.412 136.126 185.866 135.347C186.259 134.672 187.107 130.524 187.365 130.262C187.487 130.139 190.484 131.434 190.363 129.514C190.847 129.443 191.647 129.635 192.012 129.514C192.74 129.272 192.112 128.675 192.162 128.617C195.607 124.579 200.762 111.78 202.354 106.483C208.26 90.9707 208.162 74.0101 208.35 57.5787C207.948 57.468 207.37 56.5596 207.301 56.5318C206.883 56.3634 199.818 56.1926 198.307 55.9336C178.716 52.5728 159.791 44.4823 144.346 32.005H142.847C129.973 42.6221 113.168 51.403 96.68 54.7371C93.8605 55.3072 81.6697 56.2031 80.4915 56.8309C80.2286 56.9712 79.5061 57.9295 79.4423 58.1769C79.0436 59.7242 79.0819 71.5921 79.1425 74.0296C79.2258 77.3885 80.0203 82.9968 80.6414 85.9938C80.7706 86.6178 79.5019 88.1334 81.241 87.938C81.3456 88.7352 81.4176 89.5326 81.5408 90.3309C79.96 91.262 81.5282 92.1549 81.5408 92.2751C83.0697 106.917 90.8116 123.831 99.8277 135.347L98.9283 147.909L95.6307 145.367C89.2129 136.391 83.3242 128.927 79.1425 118.447C77.5284 114.402 76.374 110.091 75.2453 105.884C74.4496 102.92 73.7305 99.9286 73.1468 96.9113C72.7202 94.7056 72.2558 92.5676 71.9476 90.3309C71.7716 89.0531 71.4836 87.717 71.3481 86.4425C70.2454 76.0746 69.9957 63.9096 71.0483 53.5407C71.7705 52.691 74.4973 51.9632 75.6949 51.7461C101.193 47.1258 113.269 46.1136 135.352 30.8086C136.451 30.0467 141.794 25.2236 142.247 25.1255C144.32 24.6772 149.484 29.7665 151.541 31.1077C161.201 37.4069 170.443 41.7837 181.369 45.4648ZM191.412 131.309C189.566 130.887 190.689 136.634 189.913 138.188C190.83 137.233 193.186 131.714 191.412 131.309Z" fill="url(#paint0_linear_1177_19609)"/>
<path d="M103.726 176.773C101.838 177.577 97.8913 176.924 95.332 177.072C95.5758 176.886 99.1513 174.985 99.3791 174.979C99.6445 174.971 101.135 178.326 103.726 176.773Z" fill="#193C64"/>
<path d="M65.9527 42.7728C65.7536 43.1452 65.0869 43.9025 65.0533 43.9692C63.531 41.5318 61.908 36.8328 59.957 34.8464C59.3034 34.1809 59.5313 34.6867 58.7578 34.6969C58.8996 32.7724 58.6838 30.8246 61.0062 31.1076C65.6262 31.6708 67.1782 39.0854 65.9527 42.7728Z" fill="#7DC180"/>
<path d="M79.1435 32.3035C75.9469 35.6185 71.9694 35.4453 68.9508 39.183C68.556 39.6717 65.8375 43.978 66.4026 44.2678C69.0704 41.8008 72.8972 41.8956 75.8459 43.8191C76.1121 44.6829 75.1096 44.8947 74.9465 45.1651C72.1046 45.4152 67.1113 44.4679 65.3534 46.3615C64.1024 47.7093 63.0019 50.5311 62.5054 52.6428C63.2099 49.8509 70.9192 48.3018 70.4497 51.1473C67.2417 51.7326 62.6373 52.7753 61.1564 55.933C60.186 58.0019 60.0544 60.5895 59.6574 62.8124C59.206 65.3414 58.9554 66.4191 58.7581 69.0937C58.4157 73.7376 58.357 78.4934 58.6082 83.1517C59.1322 75.8403 61.6624 69.6763 70.0001 69.6919C70.3154 69.9563 70.108 71.8117 70.15 72.3839C65.4499 74.7863 59.6649 81.008 59.3577 86.1428C59.0558 91.186 62.7956 96.0343 63.105 101.098C63.5226 97.9485 63.2117 94.5686 64.7538 91.6763C65.7698 89.7704 69.2023 87.0736 71.3491 86.4419C71.4846 87.7164 71.7727 89.0525 71.9487 90.3303C68.83 92.1282 63.8958 100.837 63.8545 104.089C63.8011 108.275 69.307 117.609 71.3491 121.587C71.7532 122.375 71.6078 123.263 72.2485 124.428C72.4364 124.77 72.9664 125.005 73.1478 125.326C76.5 131.251 80.6368 136.278 84.2399 142.076H83.9401C83.2797 141.326 82.1135 140.471 81.242 139.982C76.503 133.27 71.5688 126.196 68.0515 118.745C61.3707 104.595 56.897 88.2506 57.2592 72.5334C57.2769 71.7644 58.1753 68.8439 58.1585 68.645C58.095 67.899 57.5988 68.2699 57.5589 68.1964C55.1181 63.6891 51.1918 59.5091 48.8652 54.8861L47.666 54.7365C48.0827 49.6735 53.6926 53.3747 55.4604 55.7834C58.2377 59.5677 57.7484 63.5303 58.0086 67.8973C57.8395 63.7421 59.8241 59.187 59.9572 55.3348C59.959 55.2869 60.5775 54.6991 60.5568 54.587C60.0406 51.7945 54.7994 46.9373 53.9615 45.0156C53.4714 43.8915 54.4448 42.046 53.3619 42.174C53.4822 41.8253 53.1794 41.3162 53.8116 40.9776C59.7093 42.2967 61.7655 48.3234 61.0065 53.8392C61.9766 50.9442 63.1236 48.2067 64.454 45.4642C64.7094 44.9378 64.919 44.2352 65.0536 43.9687C65.0872 43.902 65.7539 43.1446 65.953 42.7723C66.7222 41.3338 67.8965 38.4938 68.651 37.3883C68.8546 37.0901 69.8391 35.9424 70.15 35.5937C71.413 34.1771 78.2858 29.7309 79.1435 32.3035Z" fill="#81C275"/>
<path d="M202.355 106.482C206.123 93.946 208.861 72.7779 207.751 59.8209C207.687 59.0716 208.051 57.932 207.302 57.428C191.52 56.3722 176.739 51.7318 162.784 44.5664C159.508 42.8845 156.171 41.1195 153.04 39.1825C151.563 38.2681 144.867 32.7672 144.347 32.6021C144.167 32.545 143.225 32.5534 142.998 32.6021C142.491 32.7113 136.035 38.0581 134.754 38.8834C131.793 40.7905 128.71 42.5977 125.61 44.2673C114.895 50.0386 103.327 54.1528 91.2846 56.2316C89.2182 56.5884 80.5888 56.5092 80.0426 58.1758C79.7234 59.1497 80.0624 64.5429 80.0426 66.1021C79.9503 73.412 80.2935 80.7126 81.2418 87.9369C79.5027 88.1323 80.7714 86.6167 80.6422 85.9927C80.021 82.9957 79.2266 77.3874 79.1433 74.0285C79.0827 71.591 79.0443 59.7231 79.4431 58.1758C79.5069 57.9284 80.2294 56.9701 80.4923 56.8298C81.6705 56.202 93.8613 55.3061 96.6807 54.7361C113.168 51.4019 129.973 42.621 142.848 32.0039H144.347C159.791 44.4812 178.717 52.5717 198.308 55.9325C199.818 56.1915 206.884 56.3623 207.302 56.5307C207.37 56.5585 207.949 57.4669 208.351 57.5776C208.163 74.009 208.261 90.9696 202.355 106.482Z" fill="#11609E"/>
<path d="M79.1439 32.3027C79.8118 34.3065 71.9188 43.9165 68.9512 39.1822C71.9697 35.4446 75.9473 35.6177 79.1439 32.3027Z" fill="#6DAF6A"/>
<path d="M142.997 35.5946C137.625 39.2141 132.51 43.2299 126.809 46.3624L125.609 44.2687C128.709 42.5991 131.793 40.7919 134.753 38.8848C136.034 38.0595 142.49 32.7127 142.997 32.6035V35.5946Z" fill="#6BC0E7"/>
<path d="M162.784 44.5666L162.184 46.6603C162.09 46.6615 161.972 46.6397 161.885 46.6603L142.998 35.5933V32.6023C143.225 32.5535 144.168 32.5451 144.347 32.6023C144.867 32.7674 151.563 38.2683 153.041 39.1826C156.172 41.1196 159.508 42.8847 162.784 44.5666Z" fill="#3DABE0"/>
<path d="M220.042 39.4819C216.586 42.7275 211.494 36.9152 210.449 33.7988C212.453 34.6274 216.45 35.9608 218.094 37.089C219.073 37.7611 219.437 38.738 220.042 39.4819Z" fill="#6EB06A"/>
<path d="M230.236 34.6967C230.466 38.2325 230.272 42.6314 227.088 44.8663C226.603 45.2067 224.65 45.4565 224.54 45.6141C224.313 45.9386 227.104 51.6301 227.538 52.9422C227.573 53.0496 227.96 54.9424 227.837 55.1855H228.737L235.182 44.5672C235.972 47.5676 234.663 50.1866 233.833 52.9422C232.205 55.1197 231.444 55.2564 228.737 55.7838L230.985 66.7012C231.204 62.9773 230.843 59.6928 232.934 56.382C234.121 54.5027 239.363 50.2919 240.728 53.2413C240.08 53.5405 240.603 54.7282 240.428 55.1855C239.485 57.6544 232.316 64.9957 231.435 68.0471C231.265 68.634 231.758 68.8679 231.735 69.094C231.257 73.7993 232.219 78.7112 231.585 83.4512C232.546 78.7642 232.787 73.7418 236.981 70.5896C238.984 69.0839 245.318 66.1783 245.825 69.9913L231.435 85.844H231.135C231.123 85.4555 231.187 85.0233 231.135 84.6476C231.084 84.2764 230.638 84.2366 230.536 83.4512C230.056 80.723 231.139 68.7608 230.236 67.0003C229.875 66.2983 229.49 67.3751 229.037 66.5516C228.888 65.9289 229.625 66.1385 229.636 66.103C230.238 64.1845 228.369 58.0549 227.538 56.2324C227.36 55.8433 227.591 55.0644 227.238 54.5873C226.47 53.5503 221.993 51.753 220.643 51.4467C221.906 50.2174 224.751 53.0248 226.339 52.6431L226.938 52.4936C226.793 51.7874 226.082 51.7856 226.039 51.7458C226.105 50.4758 224.399 46.7121 223.64 45.1655L227.238 37.8373L229.636 34.248L230.236 34.6967Z" fill="#69B272"/>
<path d="M65.0526 43.9698C64.918 44.2363 64.7084 44.9389 64.453 45.4653C59.4991 45.3588 58.4693 38.6077 58.7571 34.6975C59.5305 34.6873 59.3027 34.1815 59.9562 34.847C61.9072 36.8334 63.5303 41.5324 65.0526 43.9698Z" fill="#60AB6A"/>
<path d="M161.885 46.6607C161.754 46.6918 160.773 47.9753 159.637 48.1563C151.232 49.4951 146.181 43.3478 137.153 47.8571C121.071 55.8903 110.433 60.1923 91.7353 61.6161L90.8359 60.5692C90.8398 59.6195 96.3544 58.4375 96.8317 57.1295C107.286 55.0055 117.482 51.4868 126.81 46.3616C132.512 43.2291 137.627 39.2132 142.999 35.5938L161.885 46.6607Z" fill="#98D2ED"/>
<path d="M233.833 52.9428C234.662 50.1871 235.971 47.5681 235.182 44.5678L228.736 55.1861H227.837C227.96 54.9429 227.572 53.0502 227.537 52.9428L228.436 47.1102C229.762 44.3261 231.901 41.5259 235.182 40.9785C236.715 44.4855 236.233 49.7325 233.833 52.9428Z" fill="#7BBE77"/>
<path d="M59.9576 55.335C53.8861 56.4315 51.9279 46.3385 53.3624 42.1743C54.4452 42.0463 53.4718 43.8918 53.9619 45.0158C54.7998 46.9376 60.041 51.7948 60.5572 54.5872C60.5779 54.6994 59.9594 55.2871 59.9576 55.335Z" fill="#59A568"/>
<path d="M217.344 70.2902C217.333 70.6862 217.357 71.0909 217.344 71.4866C216.982 82.3822 215.353 94.758 212.547 105.286C211.539 109.067 210.054 112.993 208.65 116.652C205.732 124.254 201.943 131.35 197.558 138.188C196.311 140.132 195.49 140.274 194.56 141.478C193.811 142.447 192.568 143.129 192.462 144.469C192.267 146.921 193.982 151.834 193.961 154.938C193.936 158.457 192.891 158.629 192.462 160.172C191.905 162.175 191.873 164.315 191.262 166.304C190.836 164.162 189.55 164.435 187.665 163.911C187.662 163.315 187.954 162.42 187.965 161.518C187.977 160.474 187.378 153.718 184.967 156.134C184.39 156.712 183.718 163.007 183.468 164.21C183.235 160.909 183.014 162.198 180.77 160.621C180.869 159.541 180.802 158.672 180.47 157.629C180.36 157.284 180.488 156.837 179.871 156.732C180.247 155.979 180.592 155.735 179.421 154.638C172.024 161.59 163.248 168.452 154.239 173.183C150.073 175.371 145.7 177.891 140.898 177.67C138.097 177.024 133.789 173.83 131.605 173.482C127.177 171.053 122.658 168.754 118.415 166.004C115.969 164.42 113.648 162.539 111.22 160.92C111.237 157.619 111.431 153.583 110.32 150.451C110.396 149.657 110.089 149.504 110.92 148.955C119.726 157.508 133.653 164.272 144.646 169.594C151.597 165.643 175.387 153.334 178.372 146.562C178.945 145.263 178.65 142.295 180.17 141.179C180.717 141.601 186.958 141.141 187.665 140.879C191.481 142.754 194.029 139.09 196.059 136.243C209.763 117.027 216.049 82.5446 213.746 59.3728C213.62 58.1031 213.165 52.4936 212.098 52.0446C201.462 51.447 191.368 48.8328 181.37 45.4643C181.666 44.0663 181.995 42.379 183.468 41.875C188.292 43.4561 193.314 45.1024 198.307 46.0625C201.29 46.6362 214.512 47.5769 215.695 48.1562C215.799 48.2071 216.702 49.1101 216.744 49.2031C217.574 51.0289 217.426 67.2088 217.344 70.2902Z" fill="#115B97"/>
<path d="M223.341 45.4648L215.697 45.1657L214.347 45.7639C214.009 45.2919 212.938 44.5866 213.148 43.8197C213.672 41.9117 221.79 41.6336 223.341 45.4648Z" fill="#89C67D"/>
<path d="M126.808 46.3613C117.48 51.4865 107.285 55.0052 96.8299 57.1292C93.6066 57.7839 85.4542 58.1895 83.4894 58.9238C82.2435 59.3895 82.1257 60.0425 81.8406 61.0176C81.0546 63.7042 81.7998 66.7921 81.5408 69.5421L80.0419 66.1024C80.0617 64.5432 79.7226 59.15 80.0419 58.1761C80.5881 56.5094 89.2174 56.5887 91.2839 56.2319C103.326 54.1531 114.894 50.0389 125.609 44.2676L126.808 46.3613Z" fill="#46AADD"/>
<path d="M207.751 59.8209C194.378 57.8492 182.114 55.2083 169.528 50.2494C168.372 49.7939 162.748 46.6527 162.184 46.6602L162.783 44.5664C176.738 51.7318 191.52 56.3722 207.301 57.428C208.051 57.932 207.687 59.0716 207.751 59.8209Z" fill="#1D93D1"/>
<path d="M74.9467 45.1645C73.115 48.1978 66.9829 50.6062 65.3535 46.3609C67.1115 44.4673 72.1047 45.4146 74.9467 45.1645Z" fill="#6BB066"/>
<path d="M223.341 45.4651C224.875 49.2536 217.25 49.8064 214.348 45.7642L215.697 45.166L223.341 45.4651Z" fill="#6DB269"/>
<path d="M46.7665 61.6162C46.7635 62.7929 45.0016 64.9309 43.9185 65.2055C39.7143 66.2709 19.8043 65.5456 14.0898 65.5046C11.9563 65.4894 1.82256 65.9036 0.749329 65.5046C-1.04108 64.8391 0.898383 61.6904 2.24826 61.3171C2.89487 61.1382 4.8763 61.5214 5.24612 61.3171C5.43357 61.2136 4.39095 58.9476 6.74505 57.7278C7.39129 57.3928 8.93414 57.6922 8.99344 57.5783C9.80454 56.0196 9.12211 53.9534 11.5416 52.0448C14.1945 49.9522 17.9721 50.8211 18.4367 50.5493C18.7428 50.3701 20.2749 46.1835 23.0834 45.4644C23.6943 45.308 27.8692 45.5302 28.6294 45.7635C30.6518 46.3839 32.8195 49.8933 33.1262 49.951C33.2713 49.9783 35.0964 48.8147 35.8243 48.7546C39.4925 48.451 43.3918 50.2807 44.668 53.989C45.2543 55.693 44.9719 58.6015 45.2675 59.3729C45.5367 60.0752 46.7728 59.2183 46.7665 61.6162Z" fill="#A2CDE2"/>
<path d="M161.883 46.6612C161.971 46.6405 162.089 46.6624 162.183 46.6612C162.747 46.6537 168.372 49.7949 169.528 50.2504C182.114 55.2093 194.378 57.8502 207.751 59.8219C208.86 72.7789 206.122 93.947 202.354 106.483C200.762 111.78 195.607 124.579 192.162 128.617C191.816 128.669 191.881 128.327 191.862 128.317C196.034 121.319 199.384 113.837 201.755 106.034C196.744 96.5669 191.642 87.142 186.466 77.7683C185.906 76.7537 185.217 75.2023 184.367 74.4781C184.452 73.9263 184.894 72.1747 183.768 72.0853C183.614 69.9464 182.961 69.9808 181.519 68.496C180.692 67.6438 173.361 60.9522 172.826 60.7192C172.128 60.4153 171.483 60.354 170.727 60.4201L135.352 96.0138C133.986 96.155 119.042 79.9865 115.866 79.2638C113.251 78.6312 109.085 83.0855 107.322 85.0964C102.311 90.8136 101.638 91.0849 106.723 96.9112C107.708 100.386 109.627 104.002 111.819 106.931C112.917 108.398 119.289 114.388 119.314 115.306C119.319 115.5 117.758 118.325 117.515 118.746C115.921 121.511 109.977 126.671 107.322 129.215C107.023 128.086 106.965 127.598 106.423 126.523C106.409 126.495 107.133 126.355 106.573 125.925C106.449 125.829 103.732 125.028 103.575 125.027C99.5435 125.021 99.6631 130.862 102.826 132.505C102.536 132.624 100.265 134.847 100.127 135.197C90.7121 122.158 84.0059 106.287 81.5408 90.3308C81.4175 89.5325 81.3456 88.7351 81.241 87.938C80.2927 80.7136 79.9495 73.413 80.0418 66.1031L81.5408 69.5429C81.7998 66.7929 81.0545 63.7049 81.8405 61.0183C83.8587 61.3264 85.9719 61.1335 87.9862 61.3174C89.6898 61.4729 88.8085 61.8394 91.7335 61.6165C110.431 60.1928 121.069 55.8907 137.151 47.8576C146.179 43.3483 151.23 49.4955 159.635 48.1567C160.771 47.9757 161.752 46.6923 161.883 46.6612Z" fill="url(#paint1_linear_1177_19609)"/>
<path d="M226.038 51.7446C226.012 52.2366 226.192 52.2767 226.338 52.6419C224.75 53.0236 221.905 50.2161 220.642 51.4455C220.033 51.3073 218.834 51.0662 219.143 51.7446C218.946 51.418 217.31 50.7569 218.993 49.9499C221.158 48.9114 224.333 50.1671 226.038 51.7446Z" fill="#8EC980"/>
<path d="M70.4496 51.1465C70.202 52.6468 63.0995 59.4745 61.1562 55.9322C62.6372 52.7745 67.2416 51.7318 70.4496 51.1465Z" fill="#71B165"/>
<path d="M220.643 51.4461C221.993 51.7524 226.47 53.5497 227.238 54.5867C227.591 55.0638 227.36 55.8427 227.538 56.2318C223.988 58.249 220.827 54.5323 219.144 51.7452C218.835 51.0668 220.033 51.3079 220.643 51.4461Z" fill="#73B469"/>
<path d="M226.339 52.6434C226.193 52.2782 226.014 52.2381 226.04 51.7461C226.082 51.7859 226.794 51.7877 226.939 52.4939L226.339 52.6434Z" fill="#EBF1F1"/>
<path d="M231.734 69.0929C231.757 68.8668 231.265 68.6329 231.434 68.046C232.315 64.9945 239.484 57.6533 240.428 55.1844C240.602 54.7271 240.08 53.5393 240.727 53.2402C242.714 57.5327 238.766 72.1483 231.734 69.0929Z" fill="#5EA96B"/>
<path d="M247.474 53.541C248.691 54.3534 248.529 54.0519 249.723 53.6906C249.033 54.3866 249.687 55.8848 249.573 55.9339C249.469 55.9784 247.948 55.5971 247.324 56.0834C248.257 54.6262 247.282 54.8966 247.474 53.541Z" fill="#E9EFF4"/>
<path d="M57.5577 68.1961C57.3844 70.9793 53.3085 69.1437 52.0116 68.1961C50.0229 66.7431 49.089 64.2168 48.5641 61.9149C48.154 60.117 47.5235 56.4514 47.6647 54.7363L48.8639 54.8859C51.1905 59.5089 55.1168 63.6889 57.5577 68.1961Z" fill="#5DA96A"/>
<path d="M272.805 55.6334C274.462 58.4926 273.405 56.082 275.503 60.12C274.121 60.1948 263.76 60.3662 263.512 59.6713C265.19 58.5075 264.738 57.0718 265.31 56.082C266.412 54.1773 270.816 55.142 272.805 55.6334Z" fill="#E9EFF4"/>
<path d="M96.8311 57.1289C96.3538 58.4369 90.8393 59.619 90.8354 60.5686L91.7347 61.6155C88.8097 61.8383 89.6911 61.4719 87.9874 61.3164C85.9731 61.1325 83.86 61.3254 81.8418 61.0173C82.1269 60.0422 82.2447 59.3893 83.4906 58.9235C85.4554 58.1892 93.6078 57.7837 96.8311 57.1289Z" fill="#D6EDF7"/>
<path d="M70.1497 59.2233C66.019 60.8106 62.9761 65.0634 59.3574 67.5983C59.5415 66.0722 59.3817 64.6228 59.957 63.1117C60.1225 62.6768 60.6354 61.5034 60.8564 61.1675C62.4452 58.7525 70.1653 54.8931 70.1497 59.2233Z" fill="#7FC179"/>
<path d="M229.636 66.103C229.625 66.1386 228.888 65.9289 229.036 66.5516C229.49 67.3751 229.875 66.2983 230.236 67.0003L229.636 67.5985C228.715 65.7213 220.911 60.6559 218.844 59.2235C218.77 57.0732 219.394 57.2814 221.392 57.4289C225.635 57.742 229.377 61.9044 229.636 66.103Z" fill="#81C27B"/>
<path d="M70.1503 59.2227C70.1395 62.2466 63.2528 73.1512 59.0582 69.0932C58.8208 68.4752 59.3166 67.9413 59.358 67.5977C62.9767 65.0627 66.0195 60.81 70.1503 59.2227Z" fill="#61AB67"/>
<path d="M229.636 67.5977C230.302 68.955 229.375 69.8628 227.987 69.9905C224.261 70.3336 218.956 62.479 218.844 59.2227C220.911 60.6551 228.715 65.7205 229.636 67.5977Z" fill="#64AB69"/>
<path d="M183.769 72.0857C183.792 72.3955 184.185 72.4712 184.069 72.8334C169.189 87.493 154.659 104.995 138.951 118.746C136.99 120.463 135.191 122.453 132.506 122.934C126.788 120.997 118.268 107.277 112.42 102.894C111.171 100.488 108.428 98.8644 106.724 96.9116C101.639 91.0852 102.312 90.814 107.324 85.0968C109.086 83.0859 113.252 78.6316 115.868 79.2642C119.044 79.9869 133.988 96.1554 135.354 96.0142L170.728 60.4205C171.484 60.3544 172.13 60.4157 172.827 60.7196C173.362 60.9526 180.693 67.6442 181.521 68.4964C182.963 69.9811 183.615 69.9467 183.769 72.0857Z" fill="#F3F3F3"/>
<path d="M48.5645 61.9143C49.0894 64.2163 50.0232 66.7425 52.012 68.1956C53.3089 69.1432 57.3848 70.9788 57.558 68.1956C57.5979 68.2692 58.0941 67.8983 58.1576 68.6443C58.1744 68.8432 57.276 71.7636 57.2583 72.5326C56.8961 88.2498 61.3698 104.594 68.0506 118.745C66.7702 118.617 65.6445 117.165 64.4531 116.352C61.2169 114.143 53.2363 110.075 49.4638 111.865C49.0756 112.049 48.8511 112.314 48.5645 112.613C49.5085 115.82 51.1147 119.461 53.361 122.035L52.7615 122.633C50.5029 116.386 51.8753 128.998 51.8621 129.513C51.3318 130.704 51.0152 130.11 50.0634 131.008C49.978 131.089 49.6716 130.777 49.4638 131.307C49.3541 131.587 49.8005 132.595 49.7636 132.653C48.8757 134.061 46.4408 135.231 45.8664 136.99C45.2455 136.881 45.4056 136.21 44.967 136.093C45.0075 136.004 45.0015 134.24 44.967 134.149C44.7119 133.475 43.9846 133.536 43.4681 133.401C43.6546 132.429 44.2631 131.752 44.6673 131.008C44.7035 130.941 45.3918 131.161 45.5666 130.859C46.1101 129.917 45.8943 124.878 44.2176 124.428C43.9556 124.357 39.0756 124.931 38.8214 125.026C36.6369 125.844 39.2621 131.747 41.0698 132.205C41.1733 132.475 41.2617 132.8 41.3696 133.102C41.5711 133.665 41.9653 134.1 42.269 134.597C41.2977 134.663 41.1169 132.821 39.2711 132.803C36.1291 132.771 36.1291 137.469 36.2733 139.832L37.0227 140.879C35.4288 138.906 33.0631 138.951 31.1769 137.888C31.1154 137.853 31.0009 136.795 30.4274 136.691C30.2766 136.664 29.9478 138.074 28.0291 137.289V138.785C28.9156 138.843 29.4486 138.837 30.2775 138.486L37.4724 143.271C35.9699 145.217 37.2098 145.385 37.1726 145.515C37.1115 145.728 36.4528 145.432 36.2733 146.562C36.0472 147.985 35.4123 159.259 35.6737 159.872C35.7546 160.062 37.0989 160.369 37.1726 160.769C37.2032 160.935 36.0799 163.009 35.9735 163.91C17.0917 136.149 6.94883 98.8657 14.0891 65.5036C19.8036 65.5446 39.7136 66.2699 43.9178 65.2045C45.0009 64.9299 46.7628 62.7919 46.7658 61.6152L48.5645 61.9143ZM43.7679 69.9902C42.6569 75.113 46.5199 85.6222 52.6116 86.4411C54.8255 86.7387 57.1345 86.9753 57.2583 84.9456C57.4696 81.4831 55.8619 74.9865 53.6608 72.2335C51.8453 69.9627 44.6439 65.9508 43.7679 69.9902ZM44.3675 91.5259C44.3018 97.8515 53.9061 108.597 60.7058 105.883C62.9962 104.969 61.3737 102.883 60.8557 101.097C59.799 97.4557 58.1264 93.9179 54.7101 91.8251C52.6443 90.5595 44.4055 87.8634 44.3675 91.5259Z" fill="#E9EFF4"/>
<path d="M59.957 63.1116C59.3817 64.6227 59.5415 66.0722 59.3574 67.5982C59.316 67.9419 58.8202 68.4758 59.0576 69.0938H58.7578C58.9551 66.4191 59.2057 65.3415 59.6572 62.8125L59.957 63.1116Z" fill="#B3D9BB"/>
<path d="M57.2599 84.9462L43.7695 69.9909C44.6455 65.9514 51.847 69.9634 53.6625 72.2342C55.8635 74.9872 57.4712 81.4838 57.2599 84.9462Z" fill="#71B879"/>
<path d="M230.535 83.451C230.638 84.2364 231.084 84.2762 231.135 84.6474C230.243 84.756 230.116 85.4684 229.936 86.1429C229.99 85.7966 229.641 85.8642 229.636 85.8438C227.73 79.1752 224.306 75.4824 218.394 72.0849C218.23 72.2123 218.188 74.7164 218.244 75.076L217.345 71.4867C217.358 71.091 217.334 70.6863 217.345 70.2902C220.919 68.6882 226.117 70.8137 228.137 74.0291C229.492 76.1862 230.195 80.8565 230.535 83.451Z" fill="#88C573"/>
<path d="M57.2586 84.9456C57.1348 86.9753 54.8259 86.7387 52.6119 86.4411C46.5203 85.6222 42.6572 75.113 43.7683 69.9902L57.2586 84.9456Z" fill="#63AB6D"/>
<path d="M245.825 69.9902C246.258 73.2445 243.394 81.7227 241.029 84.0483C238.727 86.3119 234.409 87.208 231.436 85.8429L245.825 69.9902Z" fill="#61AA6C"/>
<path d="M218.245 75.0756C218.768 78.4211 224.954 89.1118 229.637 85.8435C229.642 85.8638 229.99 85.7962 229.936 86.1426C228.495 91.5304 227.168 96.9409 225.59 102.294C226.191 94.9175 224.672 88.86 217.196 86.1426L216.446 86.5912C216.557 87.6677 216.338 88.6931 216.146 89.7319C215.296 94.345 214.91 97.1117 217.645 101.247C218.866 103.093 221.822 105.716 224.24 104.687C225.149 104.484 224.64 105.705 224.54 106.033C222.792 111.772 219.265 119.054 216.446 124.428C216.37 123.875 216.557 123.136 216.446 122.634C218.511 117.245 217.046 109.131 212.549 105.285C215.355 94.7578 216.984 82.3819 217.345 71.4863L218.245 75.0756Z" fill="#DCE6ED"/>
<path d="M184.369 74.4768C183.959 77.1407 182.44 78.3278 180.771 80.3094C168.5 94.8804 151.403 108.181 138.651 122.633C135.934 124.326 135.245 123.86 132.506 122.932C135.191 122.451 136.99 120.462 138.951 118.745C154.659 104.994 169.189 87.4913 184.069 72.8318C184.185 72.4695 183.792 72.3939 183.769 72.084C184.896 72.1734 184.454 73.925 184.369 74.4768Z" fill="#B9D4E8"/>
<path d="M229.636 85.8429C224.953 89.1113 218.767 78.4206 218.244 75.0751C218.188 74.7155 218.231 72.2114 218.394 72.084C224.306 75.4815 227.731 79.1743 229.636 85.8429Z" fill="#61A968"/>
<path d="M70.1497 72.3848C70.4699 76.7478 69.3922 79.6393 66.5523 83.0031C64.7488 85.1393 62.4494 87.3799 59.3574 86.1437C59.6647 81.0089 65.4497 74.7872 70.1497 72.3848Z" fill="#62A968"/>
<path d="M186.468 77.7687L184.969 82.4049L139.851 127.72C138.03 128.747 134.037 129.01 132.057 128.318C131.208 128.021 121.592 116.563 120.215 114.858C118.958 113.302 110.523 102.925 110.322 102.146C110.27 101.945 110.261 101.509 110.472 101.398C111.082 101.942 111.769 102.406 112.421 102.894C118.269 107.277 126.789 120.997 132.506 122.934C135.246 123.862 135.934 124.328 138.652 122.635C151.403 108.182 168.5 94.8821 180.772 80.3111C182.441 78.3295 183.959 77.1424 184.369 74.4785C185.219 75.2027 185.908 76.7541 186.468 77.7687Z" fill="#0A5899"/>
<path d="M186.467 77.7676C191.643 87.1413 196.745 96.5662 201.756 106.033C199.385 113.837 196.035 121.318 191.863 128.317C190.106 127.414 187.708 127.687 185.867 127.12C187.128 125.016 186.756 123.312 186.167 121.138C185.888 120.108 184.662 118.686 183.619 118.446C182.811 118.26 178.951 119.214 178.373 120.091C176.908 122.314 178.924 125.483 178.373 126.971C177.989 128.004 176.083 127.637 175.675 128.466L179.872 128.616C176.727 130.236 175.721 130.981 176.874 135.047C177.277 136.468 178.865 137.404 178.972 137.589C179.305 138.164 179.97 141.023 180.171 141.178C178.651 142.295 178.946 145.263 178.373 146.562L167.43 155.236C160.143 160.26 152.435 164.502 144.647 168.696C143.865 168.787 142.589 167.794 141.799 167.5L120.814 135.645C117.234 134.987 113.292 134.601 109.722 134.897C109.604 134.11 109.47 133.299 109.422 132.504C109.658 132.405 110.841 132.342 111.071 132.205C113.031 131.035 116.608 125.66 116.617 123.232C117.688 121.623 119.065 120.584 117.816 118.745L120.214 114.857C121.591 116.561 131.207 128.02 132.056 128.317C134.036 129.009 138.029 128.746 139.85 127.718L184.968 82.4037L186.467 77.7676Z" fill="#1461A4"/>
<path d="M256.616 158.228C256.343 154.695 256.491 151.573 256.616 148.059C256.618 148.011 257.209 147.475 257.216 147.311C257.357 143.798 256.875 140.106 257.516 136.543C257.331 135.826 255.484 134.226 254.818 134.001C254.936 132.982 254.995 131.7 254.818 130.71C256.017 130.022 256.598 128.213 256.317 126.972C255.608 123.843 245.684 124.501 250.321 128.617C249.807 130.514 250.571 130.915 251.22 131.907C251.41 132.196 250.964 133.387 252.419 133.103C252.376 133.264 252.441 133.511 252.419 133.701C251.149 133.441 248.841 133.482 248.222 133.402C243.189 132.753 243.905 133.892 239.828 130.71C239.282 130.284 237.612 129.287 237.43 129.065C236.511 127.949 237.423 124.537 234.432 126.972L239.529 132.206C239.34 133.052 238.823 133.116 239.229 134.15C239.441 134.691 241.687 136.774 242.526 135.795C242.718 136.858 247.934 140.317 248.222 141.03C248.508 141.735 248.322 145.224 248.522 146.264C246.643 150.641 246.743 155.358 247.023 160.023L238.629 160.621C238.67 159.981 238.493 157.742 238.629 157.48C238.725 157.298 239.969 157.206 240.128 156.882C240.313 156.507 240.373 148.847 240.128 148.507C238.992 146.933 237.867 148.818 237.58 148.657C237.51 148.617 237.448 147.347 236.98 147.161C235.865 146.717 230.717 147.784 229.786 147.46C229.585 147.39 228.252 144.291 226.938 147.46C226.892 146.709 226.643 146.895 226.638 146.862C226.607 146.642 226.565 145.9 226.638 145.666C228.746 144.886 229.023 140.609 227.837 139.085C227.583 138.759 227.178 138.28 226.788 138.188C225.644 137.919 219.18 137.663 217.494 137.59C212.668 137.379 204.102 137.47 199.657 138.188C199.061 138.284 198.007 138.036 197.559 138.188C201.944 131.35 205.733 124.255 208.651 116.652L208.95 116.951C208.689 119.873 212.413 125.305 215.546 125.626C213.487 129.454 211.035 133.029 208.95 136.842C209.453 139.008 212.514 133.764 212.848 133.253C218.911 123.966 231.454 96.3857 231.135 85.8443H231.434C234.407 87.2094 238.726 86.3133 241.028 84.0497C243.203 87.5899 249.509 87.9656 253.469 88.2372C256.565 88.4495 278.875 87.866 279.7 86.293C279.978 85.7621 279.266 83.7374 280 83.1523C281.06 103.971 275.623 128.817 267.409 147.909C264.995 153.52 261.747 159.88 258.115 164.659L257.216 157.181L256.616 158.228ZM227.537 101.697C227.05 103.633 225.894 105.543 228.886 106.184C233.151 107.096 239.344 102.967 241.627 99.4537C242.206 98.5626 244.996 91.7266 244.925 91.0787C244.902 90.8717 244.349 90.659 244.325 90.63C242.655 88.5976 236.639 90.6055 234.582 91.8265C231.259 93.7991 228.461 98.0225 227.537 101.697ZM218.244 124.429C217.804 126.295 220.424 127.749 222.291 128.018C228.192 128.87 234.908 124.064 237.73 119.195C238.568 117.749 241.213 112.638 239.529 111.867C233.807 109.246 219.649 118.468 218.244 124.429Z" fill="#D8E2EC"/>
<path d="M231.135 84.6465C231.187 85.0222 231.124 85.4544 231.135 85.8429C231.454 96.3843 218.912 123.964 212.848 133.251C212.515 133.763 209.454 139.006 208.951 136.841C211.036 133.028 213.488 129.453 215.546 125.624C215.778 125.193 216.268 124.766 216.446 124.428C219.265 119.053 222.792 111.772 224.54 106.033C224.64 105.705 225.149 104.484 224.24 104.687C225.682 104.073 222.78 97.6475 222.142 96.4612C220.804 93.975 218.618 91.1954 216.146 89.7313C216.337 88.6925 216.557 87.6672 216.446 86.5907L217.195 86.142C224.671 88.8594 226.191 94.9169 225.589 102.294C227.168 96.9404 228.495 91.5298 229.936 86.142C230.117 85.4675 230.244 84.7551 231.135 84.6465Z" fill="#75BC67"/>
<path d="M60.8574 101.098L60.7075 103.192L44.3691 91.5263C44.4072 87.8638 52.6459 90.5599 54.7118 91.8254C58.1281 93.9183 59.8006 97.4561 60.8574 101.098Z" fill="#76BB74"/>
<path d="M224.24 104.688C221.822 105.717 218.866 103.093 217.645 101.248C214.91 97.1123 215.296 94.3456 216.146 89.7324C218.618 91.1966 220.804 93.9762 222.142 96.4623C222.78 97.6486 225.682 104.074 224.24 104.688Z" fill="#5FA867"/>
<path d="M244.325 90.6289C243.713 94.4829 237.994 95.4544 234.882 97.5084C232.515 99.0706 230.58 101.29 228.137 102.892C228.286 102.569 228.475 102.372 228.736 102.145L227.537 101.696C228.461 98.0214 231.259 93.798 234.582 91.8254C236.639 90.6044 242.655 88.5965 244.325 90.6289Z" fill="#73B972"/>
<path d="M73.1469 96.9104C71.9639 100.7 68.6423 106.511 63.8535 104.089C63.8949 100.837 68.8291 92.128 71.9477 90.3301C72.2559 92.5668 72.7203 94.7048 73.1469 96.9104Z" fill="#60A965"/>
<path d="M100.128 135.196C99.857 135.886 99.5309 149.324 99.8282 150.002C101.332 150.233 104.739 149.901 106.424 149.553C107.51 151.474 105.87 154.4 105.524 156.582C105.443 157.094 104.987 158.653 106.124 158.527C105.92 159.213 105.607 159.352 105.524 160.321C103.063 164.31 101.682 169.287 98.6291 172.734C98.3587 172.043 98.8971 171.199 98.9289 170.79C99.3483 165.407 100.516 157.721 100.128 152.544C99.9509 150.184 97.2309 147.603 95.6312 145.366L98.9289 147.908L99.8282 135.346C90.8122 123.83 83.0702 106.916 81.5413 92.2743C81.5287 92.154 79.9605 91.2612 81.5413 90.3301C84.0064 106.286 90.7127 122.157 100.128 135.196Z" fill="#1D5F96"/>
<path d="M227.537 101.696L228.737 102.145C228.475 102.372 228.287 102.569 228.137 102.892C228.121 102.926 227.579 103.13 227.537 103.341C228.249 103.894 228.106 102.913 228.137 102.892C230.581 101.29 232.515 99.0706 234.882 97.5084C237.994 95.4544 243.713 94.4829 244.325 90.6289C244.349 90.6579 244.902 90.8706 244.925 91.0776C244.997 91.7254 242.207 98.5615 241.627 99.4526C239.344 102.966 233.152 107.095 228.887 106.182C225.894 105.542 227.051 103.632 227.537 101.696Z" fill="#58A567"/>
<path d="M60.8557 101.099C61.3738 102.885 62.9962 104.97 60.7059 105.884C53.9061 108.599 44.3019 97.8529 44.3675 91.5273L60.7059 103.193L60.8557 101.099Z" fill="#5AA669"/>
<path d="M75.2458 105.883C71.9436 110.394 70.5397 117.675 72.5477 122.932C72.4416 123.373 72.047 123.78 72.2479 124.428C71.6073 123.262 71.7527 122.374 71.3485 121.586C69.3064 117.608 63.8005 108.275 63.8539 104.089C68.6427 106.511 71.9643 100.699 73.1473 96.9102C73.7309 99.9275 74.4501 102.919 75.2458 105.883Z" fill="#DAE4EC"/>
<path d="M112.421 102.892C111.769 102.404 111.082 101.941 110.472 101.397C110.261 101.507 110.27 101.943 110.322 102.145C110.523 102.924 118.958 113.3 120.215 114.857L117.817 118.745H117.517C117.759 118.324 119.321 115.499 119.316 115.305C119.291 114.387 112.918 108.397 111.821 106.93C109.629 104.001 107.71 100.385 106.725 96.9102C108.429 98.863 111.172 100.487 112.421 102.892Z" fill="#297AB7"/>
<path d="M228.137 102.893C228.106 102.913 228.249 103.894 227.537 103.341C227.578 103.13 228.121 102.926 228.137 102.893Z" fill="#73B972"/>
<path d="M216.445 122.633C215.617 118.873 213.654 114.253 211.199 111.267C210.901 111.339 208.977 116.646 208.95 116.95L208.65 116.651C210.055 112.993 211.54 109.066 212.548 105.285C217.045 109.13 218.509 117.245 216.445 122.633Z" fill="#94CC77"/>
<path d="M79.1437 118.447C79.114 118.737 79.1934 119.062 79.1437 119.345L76.5955 112.764C74.4814 115.867 73.4079 119.368 72.5484 122.934C70.5404 117.676 71.9443 110.395 75.2464 105.885C76.3751 110.091 77.5296 114.402 79.1437 118.447Z" fill="#94CD76"/>
<path d="M216.445 122.634C216.556 123.136 216.369 123.875 216.445 124.428C216.268 124.767 215.778 125.193 215.546 125.625C212.413 125.304 208.689 119.873 208.951 116.951C208.978 116.646 210.901 111.339 211.199 111.268C213.655 114.254 215.617 118.873 216.445 122.634Z" fill="#6EB26B"/>
<path d="M64.4544 116.353C66.2238 118.472 69.6764 121.434 70.4502 124.13C69.8623 124.58 69.0861 124.329 68.5016 124.13C66.7808 123.545 51.0375 115.48 50.3645 114.708C49.9706 114.257 49.341 112.626 49.4652 111.867C53.2377 110.077 61.2183 114.144 64.4544 116.353Z" fill="#74BB75"/>
<path d="M239.529 111.866C239.674 112.323 239.696 113.455 239.529 113.81C239.02 114.893 222.177 123.556 219.893 124.429C219.276 124.665 218.869 124.929 218.244 124.429C219.65 118.468 233.808 109.245 239.529 111.866Z" fill="#72BA74"/>
<path d="M70.4488 124.129C70.8526 125.535 70.6883 125.88 69.3996 126.821C64.6755 130.267 56.6925 125.852 53.361 122.035C51.1147 119.461 49.5085 115.82 48.5645 112.613C48.851 112.314 49.0756 112.049 49.4638 111.865C49.3397 112.624 49.9692 114.255 50.3632 114.707C51.0362 115.478 66.7794 123.544 68.5002 124.129C69.0848 124.327 69.8609 124.579 70.4488 124.129Z" fill="#55A467"/>
<path d="M218.244 124.428C218.869 124.928 219.276 124.664 219.893 124.428C222.177 123.555 239.02 114.892 239.529 113.809C239.696 113.454 239.674 112.323 239.529 111.865C241.214 112.637 238.568 117.748 237.73 119.193C234.909 124.062 228.193 128.869 222.291 128.017C220.425 127.748 217.804 126.294 218.244 124.428Z" fill="#51A367"/>
<path d="M79.1426 119.344C78.7607 121.51 75.6144 125.737 73.1469 125.326C72.9655 125.006 72.4355 124.771 72.2476 124.429C72.0467 123.781 72.4412 123.374 72.5473 122.933C73.4068 119.367 74.4804 115.866 76.5944 112.764L79.1426 119.344Z" fill="#75B76D"/>
<path d="M68.0512 118.746C71.5686 126.197 76.5028 133.271 81.2418 139.983C80.6527 139.652 78.6879 139.016 77.9441 138.787C75.5015 138.033 73.2798 138.041 70.8992 137.291C70.3332 138.592 66.9917 138.536 65.503 139.086C63.8695 139.689 62.0938 140.931 60.5565 141.778C59.8416 142.172 57.3734 142.693 56.6593 143.423C55.9419 144.156 55.5049 146.736 55.1604 147.461C54.19 149.503 52.3652 153.4 52.1625 155.387C51.7602 159.334 52.8428 162.198 53.3617 165.856L43.4688 168.697C44.0003 166.211 44.4805 162.435 45.2675 160.173C45.4497 159.649 46.5919 159.368 46.7664 158.976C48.247 155.654 47.0692 148.929 46.1668 145.367C45.8739 144.211 45.8449 143.046 44.9677 142.077C47.4868 141.139 46.6048 140.302 47.9655 138.936C50.7455 136.145 51.5576 136.477 52.7621 132.505C53.1207 131.324 52.7504 131.084 52.7621 131.01C53.2214 128.137 53.9157 125.825 52.7621 122.635L53.3617 122.037C56.6932 125.854 64.6762 130.269 69.4002 126.822C70.689 125.882 70.8533 125.537 70.4495 124.13C69.6757 121.434 66.2231 118.472 64.4538 116.354C65.6451 117.167 66.7708 118.619 68.0512 118.746Z" fill="#D4E0EA"/>
<path d="M95.6324 145.367C97.232 147.604 99.952 150.185 100.129 152.545C97.9569 153.889 95.1245 153.859 92.6345 154.639C92.5386 153.977 92.237 152.764 92.0349 152.097C91.769 151.219 90.8991 151.365 90.8358 151.199C90.7728 151.036 91.5061 151.062 91.4354 150.9C90.9614 149.818 90.006 148.149 89.3369 147.162C90.6292 146.565 89.324 145.137 88.4375 146.264C87.2962 144.767 85.9553 142.961 84.2405 142.077C80.6374 136.279 76.5006 131.252 73.1484 125.327C75.616 125.738 78.7622 121.511 79.1442 119.345C79.1939 119.062 79.1145 118.737 79.1442 118.447C83.3259 128.927 89.2146 136.391 95.6324 145.367Z" fill="#D5E0EA"/>
<path d="M186.166 121.139C181.96 119.104 183.729 122.074 183.168 123.083C182.977 123.428 182.226 123.036 181.969 123.383C181.625 123.848 184.999 126.464 183.468 127.42C182.024 127.317 181.372 127.825 180.171 128.318C179.763 128.485 179.89 128.607 179.871 128.617L175.674 128.467C176.082 127.638 177.988 128.006 178.372 126.972C178.924 125.484 176.907 122.315 178.372 120.092C178.95 119.215 182.81 118.262 183.618 118.447C184.661 118.687 185.887 120.109 186.166 121.139Z" fill="#162133"/>
<path d="M117.816 118.746C119.066 120.585 117.688 121.624 116.617 123.233C114.471 126.455 111.443 129.387 109.122 132.505C108.146 132.86 107.245 133.802 105.975 133.701C104.804 133.609 104.145 132.236 104.026 132.206C104.004 132.014 104.069 131.762 104.026 131.608C105.467 131.187 106.303 130.193 107.324 129.215C109.978 126.671 115.922 121.511 117.516 118.746H117.816Z" fill="#FFD2BC"/>
<path d="M186.167 121.138C186.756 123.312 187.128 125.016 185.867 127.12C184.264 129.797 183.792 127.443 183.469 127.42C185 126.463 181.625 123.847 181.97 123.382C182.227 123.035 182.978 123.427 183.169 123.082C183.73 122.073 181.961 119.103 186.167 121.138Z" fill="#F9AD8A"/>
<path d="M52.7614 122.633C53.9149 125.824 53.2206 128.135 52.7614 131.008L51.5622 131.307C51.8797 130.36 51.838 130.445 51.862 129.513C51.8752 128.999 50.5028 116.386 52.7614 122.633Z" fill="#D4E0EA"/>
<path d="M109.421 132.505C109.337 132.54 109.21 132.472 109.121 132.505C111.441 129.386 114.47 126.455 116.616 123.232C116.607 125.661 113.03 131.036 111.07 132.206C110.84 132.343 109.657 132.406 109.421 132.505Z" fill="#E58D78"/>
<path d="M44.6683 131.008C45.511 128.977 43.1022 127.061 41.5206 127.718C40.9249 127.966 41.1758 128.759 40.921 128.914C40.7024 129.048 39.8825 128.21 39.572 128.765C39.2734 129.298 40.972 130.577 41.0709 130.859C41.1851 131.184 40.9531 131.897 41.0709 132.205C39.2632 131.747 36.6379 125.844 38.8225 125.026C39.0767 124.931 43.9566 124.357 44.2186 124.428C45.8953 124.879 46.1112 129.917 45.5677 130.859C45.3929 131.161 44.7046 130.941 44.6683 131.008ZM42.1201 125.026C42.0329 125.03 40.7654 126.118 41.2208 126.522L42.5698 125.475C42.634 125.065 42.5057 125.009 42.1201 125.026Z" fill="#244569"/>
<path d="M42.1208 125.026C42.5064 125.009 42.6347 125.065 42.5705 125.475L41.2215 126.522C40.7661 126.118 42.0336 125.03 42.1208 125.026Z" fill="#899DB0"/>
<path d="M106.424 126.523C105.977 127.741 103.168 127.961 103.126 128.168C103.113 128.233 103.727 129.289 103.726 129.364C103.715 129.926 103.111 130.167 103.126 130.262C103.175 130.566 103.925 131.251 104.025 131.608C104.069 131.762 104.004 132.014 104.025 132.206C103.882 132.169 103.022 132.425 102.826 132.505C99.6638 130.862 99.5442 125.021 103.576 125.027C103.732 125.028 106.449 125.829 106.574 125.925C107.133 126.355 106.41 126.495 106.424 126.523Z" fill="#32526A"/>
<path d="M254.818 130.709C254.441 128.608 254.355 126.972 251.67 126.821C251.534 127.241 250.351 128.507 250.321 128.615C245.684 124.5 255.608 123.842 256.317 126.97C256.598 128.211 256.017 130.021 254.818 130.709Z" fill="#3B6285"/>
<path d="M239.828 130.709C239.77 131.273 239.645 131.681 239.528 132.205L234.432 126.971C237.423 124.535 236.51 127.948 237.429 129.064C237.612 129.286 239.282 130.283 239.828 130.709Z" fill="#84AFC3"/>
<path d="M107.324 129.213C106.303 130.192 105.467 131.186 104.027 131.606C103.926 131.249 103.176 130.565 103.127 130.26C103.112 130.165 103.717 129.924 103.727 129.363C103.728 129.287 103.114 128.232 103.127 128.167C103.169 127.96 105.978 127.739 106.425 126.521C106.967 127.597 107.024 128.085 107.324 129.213Z" fill="#F6B499"/>
<path d="M254.818 130.711C254.995 131.7 254.936 132.982 254.818 134.001C254.511 133.897 253.116 133.845 252.419 133.702C252.441 133.511 252.376 133.264 252.419 133.104C252.541 132.653 253.299 132.453 252.869 131.907H251.22C250.571 130.915 249.807 130.514 250.321 128.617C250.35 128.509 251.534 127.243 251.67 126.822C254.355 126.974 254.44 128.61 254.818 130.711Z" fill="#F8B496"/>
<path d="M191.864 128.318C191.882 128.327 191.817 128.669 192.163 128.617C192.114 128.675 192.741 129.272 192.013 129.514C191.648 129.635 190.849 129.443 190.365 129.514C188.346 129.811 186.765 129.101 186.018 129.215C185.812 129.246 183.119 131.132 182.27 131.009C181.616 130.176 180.438 129.376 180.172 128.318C181.373 127.825 182.025 127.316 183.47 127.42C183.792 127.443 184.264 129.797 185.868 127.121C187.708 127.688 190.107 127.415 191.864 128.318Z" fill="#AEE4F8"/>
<path d="M44.6686 131.01C44.2645 131.753 43.656 132.43 43.4695 133.403C43.3772 133.378 43.2662 133.42 43.1697 133.403C42.5536 133.292 42.038 132.972 41.371 133.103C41.2631 132.802 41.1746 132.477 41.0712 132.206C40.9534 131.898 41.1854 131.186 41.0712 130.86C40.9723 130.579 39.2737 129.299 39.5723 128.766C39.8828 128.212 40.7028 129.05 40.9213 128.916C41.1761 128.76 40.9252 127.967 41.5209 127.72C43.1025 127.062 45.5113 128.978 44.6686 131.01Z" fill="#F3B197"/>
<path d="M182.27 131.008C183.372 132.41 184.257 133.86 184.968 135.495C184.444 135.93 183.115 135.732 183.17 137.29C181.593 137.159 180.493 137.239 178.973 137.589C178.866 137.404 177.277 136.468 176.874 135.046C175.721 130.981 176.728 130.236 179.872 128.616C179.891 128.606 179.764 128.484 180.172 128.316C180.438 129.375 181.616 130.175 182.27 131.008Z" fill="#4382B8"/>
<path d="M190.364 129.513C190.484 131.433 187.487 130.138 187.366 130.261C187.107 130.523 186.26 134.671 185.867 135.345C185.413 136.125 185.097 135.388 184.968 135.495C184.256 133.86 183.371 132.41 182.27 131.008C183.119 131.131 185.812 129.245 186.017 129.214C186.764 129.1 188.346 129.81 190.364 129.513Z" fill="#8BD0ED"/>
<path d="M51.5631 131.308C51.4819 131.551 51.293 132.145 51.2633 132.206C50.6587 133.445 46.9848 137.187 45.8672 136.991C46.4416 135.232 48.8764 134.062 49.7644 132.654C49.8013 132.596 49.3549 131.589 49.4646 131.308H50.8137L50.0642 131.009C51.016 130.111 51.3326 130.705 51.8629 129.514C51.8389 130.446 51.8806 130.361 51.5631 131.308Z" fill="#D4E0EA"/>
<path d="M49.4648 131.309C49.6726 130.778 49.979 131.09 50.0644 131.009L50.8139 131.309H49.4648Z" fill="#D1DDE8"/>
<path d="M248.223 133.401C248.496 138.002 241.799 131.76 242.527 135.794C241.688 136.772 239.442 134.69 239.23 134.149C238.824 133.114 239.341 133.051 239.529 132.205C239.646 131.681 239.771 131.273 239.829 130.709C243.905 133.891 243.19 132.751 248.223 133.401Z" fill="#DA9177"/>
<path d="M52.7626 132.505L51.2637 132.206C51.2934 132.145 51.4822 131.551 51.5635 131.309L52.7626 131.01C52.7509 131.084 53.1211 131.324 52.7626 132.505Z" fill="#EAAD98"/>
<path d="M191.413 131.307C193.186 131.712 190.831 137.232 189.914 138.187C190.689 136.633 189.566 130.885 191.413 131.307Z" fill="#F2AE8F"/>
<path d="M252.42 133.103C250.965 133.387 251.41 132.195 251.221 131.906H252.87C253.299 132.452 252.542 132.652 252.42 133.103Z" fill="#152951"/>
<path d="M52.7632 132.504C51.5587 136.476 50.7466 136.144 47.9667 138.935C46.6059 140.301 47.4879 141.138 44.9688 142.076C44.8222 142.13 43.1215 142.663 43.0202 142.674C40.3392 142.962 39.0199 141.271 37.4742 143.272L30.2793 138.486C30.6486 138.33 30.8036 138 31.1787 137.888C33.0649 138.951 35.4305 138.907 37.0245 140.879L36.275 139.832C36.1308 137.47 36.1308 132.772 39.2729 132.803L40.0223 139.085C40.5215 139.513 44.7766 136.513 44.9688 136.093C45.4074 136.211 45.2473 136.882 45.8682 136.991C46.9858 137.186 50.6596 133.444 51.2643 132.205L52.7632 132.504Z" fill="#5DA3D8"/>
<path d="M104.026 132.205C104.145 132.235 104.804 133.608 105.975 133.7C107.245 133.801 108.146 132.859 109.122 132.504C109.211 132.472 109.338 132.539 109.422 132.504C109.47 133.299 109.604 134.11 109.722 134.897C110.203 138.115 110.081 145.047 110.921 147.459C110.537 147.475 110.546 148.15 110.321 148.357C109.643 148.983 107.397 149.352 106.424 149.553C104.74 149.901 101.332 150.233 99.829 150.002C99.5316 149.323 99.8578 135.885 100.129 135.196C100.266 134.846 102.537 132.623 102.827 132.504C103.022 132.423 103.883 132.168 104.026 132.205Z" fill="#DEE4EA"/>
<path d="M42.2693 134.597C42.5988 134.575 42.6156 135.067 42.8689 134.747C42.9118 134.693 43.0689 133.659 43.1687 133.401C43.2652 133.418 43.3762 133.377 43.4685 133.401C43.985 133.536 44.7123 133.475 44.9674 134.149C45.0019 134.24 45.0079 136.004 44.9674 136.093C44.7753 136.513 40.5201 139.513 40.0209 139.084L39.2715 132.803C41.1173 132.821 41.298 134.663 42.2693 134.597Z" fill="#89CBED"/>
<path d="M252.419 133.701C253.115 133.844 254.511 133.897 254.817 134.001C255.484 134.226 257.33 135.826 257.515 136.543C256.874 140.106 257.357 143.798 257.216 147.311C257.209 147.475 256.618 148.011 256.616 148.059C253.393 147.083 249.323 150.415 248.522 146.264C248.321 145.224 248.508 141.735 248.222 141.03C247.934 140.317 242.718 136.858 242.526 135.795C241.798 131.761 248.495 138.003 248.222 133.402C248.84 133.482 251.149 133.441 252.419 133.701Z" fill="#3C89C4"/>
<path d="M43.1698 133.401C43.07 133.659 42.9129 134.693 42.87 134.747C42.6167 135.067 42.5999 134.575 42.2705 134.597C41.9668 134.1 41.5725 133.665 41.3711 133.102C42.0381 132.97 42.5537 133.29 43.1698 133.401Z" fill="#38537B"/>
<path d="M141.798 167.501C136.986 165.708 112.275 151.354 110.92 147.46C110.08 145.048 110.202 138.116 109.721 134.898C113.291 134.602 117.233 134.988 120.813 135.646L141.798 167.501Z" fill="#2B86C5"/>
<path d="M31.177 137.888C30.802 138 30.647 138.33 30.2777 138.486C29.4488 138.838 28.9158 138.844 28.0293 138.786V137.29C29.9479 138.075 30.2768 136.664 30.4276 136.692C31.0011 136.796 31.1156 137.854 31.177 137.888Z" fill="#EAA588"/>
<path d="M183.17 137.29C183.868 137.348 188.168 137.798 188.416 137.888C189.76 138.373 189.083 140.355 187.666 140.879C186.959 141.14 180.718 141.6 180.172 141.178C179.971 141.023 179.305 138.164 178.973 137.589C180.493 137.239 181.592 137.159 183.17 137.29Z" fill="#A6CEE5"/>
<path d="M77.9449 138.787C75.6327 138.827 73.3543 138.897 71.0498 139.086C64.7498 139.602 62.7467 140.59 58.159 145.068C57.4327 145.777 56.8715 146.536 56.0605 147.162C57.3337 144.952 58.8968 143.618 60.5573 141.778C62.0946 140.931 63.8703 139.689 65.5038 139.086C66.9925 138.536 70.334 138.592 70.8999 137.291C73.2805 138.041 75.5023 138.033 77.9449 138.787Z" fill="#D4E0EA"/>
<path d="M227.838 139.085C226.62 140.032 226.212 139.8 225.44 139.982L221.842 140.132C221.779 140.818 222.602 140.574 223.041 140.581C222.811 141.623 223.355 144.461 223.041 145.217C222.981 145.363 221.634 145.05 221.542 145.067V140.73L220.043 140.88C219.92 140.48 219.807 140.63 219.744 140.581C219.027 140.03 206.31 140.642 204.305 140.282C203.799 138.943 202.888 140.128 201.007 139.982C199.657 139.878 196.833 139.069 199.658 138.188C204.103 137.47 212.668 137.379 217.495 137.59C219.181 137.663 225.645 137.919 226.789 138.188C227.179 138.279 227.584 138.759 227.838 139.085Z" fill="#D8E2EC"/>
<path d="M199.657 138.187C196.833 139.069 199.656 139.878 201.006 139.982C202.887 140.128 203.798 138.942 204.304 140.281C206.31 140.642 219.027 140.029 219.743 140.58C218.784 141.125 217.242 140.878 216.146 140.879C215.848 140.88 215.544 140.879 215.246 140.879C213.453 140.881 211.642 140.912 209.85 140.879C209.265 140.869 208.67 140.903 208.051 140.879C207.456 140.856 206.848 140.902 206.253 140.879C203.395 140.773 200.168 140.437 197.409 139.683C196.025 139.401 196.18 144.971 196.36 145.216C196.824 145.848 199.109 145.56 199.208 145.665C199.649 146.135 198.814 146.486 199.058 146.712C200.027 147.614 212.913 147.821 215.096 147.759C217.444 147.692 224.374 146.365 226.039 146.862C224.923 147.433 223.383 147.618 222.141 147.759C221.752 147.803 221.334 147.723 220.942 147.759C220.204 147.826 219.423 148.026 218.844 148.058C218.448 148.08 218.041 148.041 217.645 148.058C216.95 148.088 216.241 148.036 215.546 148.058C214.553 148.089 213.543 148.05 212.548 148.058C212.25 148.06 211.946 148.057 211.649 148.058C211.052 148.06 210.446 148.066 209.85 148.058C209.254 148.05 208.648 148.07 208.051 148.058C207.455 148.046 206.848 148.078 206.253 148.058C205.558 148.035 204.848 148.091 204.154 148.058C203.482 148.026 203.18 147.792 202.655 147.759C202.063 147.722 201.451 147.784 200.857 147.759L194.561 146.862C194.551 145.039 194.712 143.264 194.561 141.478C195.61 140.431 196.36 139.683 197.559 138.187C198.007 138.035 199.062 138.284 199.657 138.187Z" fill="#D8E2EC"/>
<path d="M71.049 139.084V139.981C66.807 140.376 61.8294 142.988 59.0576 146.263L58.1582 145.066C62.7458 140.589 64.749 139.601 71.049 139.084Z" fill="#D4E0EA"/>
<path d="M77.9439 138.785C78.6877 139.015 80.6525 139.651 81.2415 139.982C82.113 140.471 83.2792 141.326 83.9396 142.075C86.2543 144.702 88.2919 149.756 89.6356 152.993C88.6433 153.514 88.8804 152.788 88.4364 152.245C86.471 143.906 79.6086 139.186 71.0488 139.982V139.084C73.3533 138.895 75.6317 138.826 77.9439 138.785Z" fill="#D4E0EA"/>
<path d="M227.838 139.084C229.024 140.608 228.747 144.885 226.639 145.664C225.524 146.077 219.473 146.147 217.796 146.263C217.038 146.315 214.852 146.548 214.198 146.562C211.831 146.613 196.17 146.456 206.554 145.216L206.254 140.879C206.849 140.901 207.457 140.856 208.052 140.879V145.515C210.909 146.101 209.569 142.833 209.851 140.879C211.643 140.912 213.454 140.88 215.247 140.879C214.588 141.575 214.389 144.715 214.648 145.216C214.778 145.467 216.508 145.963 216.746 145.216C217.226 143.708 215.747 142.399 216.147 140.879C217.243 140.877 218.785 141.124 219.744 140.58C219.808 140.629 219.92 140.479 220.044 140.879C220.264 141.591 220.107 144.375 219.744 145.216C221.127 146.536 221.429 145.088 221.543 145.066C221.634 145.049 222.981 145.362 223.042 145.216C223.355 144.46 222.811 141.622 223.042 140.58C223.547 140.587 224.88 140.113 225.44 139.981C226.213 139.799 226.62 140.031 227.838 139.084Z" fill="#D8E2EC"/>
<path d="M88.4367 152.247C86.4227 149.784 84.9046 146.746 82.2911 144.769C68.5636 134.384 50.056 150.416 58.7579 166.753C59.5026 168.151 61.7162 169.419 61.1562 171.09C53.9892 164.107 52.1821 154.386 59.0577 146.264C61.8295 142.99 66.8072 140.377 71.0491 139.983C79.6089 139.188 86.4713 143.908 88.4367 152.247Z" fill="#D4E0EA"/>
<path d="M206.253 140.879L206.552 145.216C196.169 146.456 211.83 146.613 214.197 146.562C214.851 146.548 217.037 146.315 217.794 146.263C219.472 146.146 225.523 146.077 226.638 145.664C226.565 145.899 226.607 146.64 226.638 146.861C226.446 146.838 226.188 146.906 226.039 146.861C224.374 146.365 217.444 147.691 215.096 147.758C212.913 147.82 200.027 147.613 199.058 146.711C198.814 146.485 199.649 146.134 199.208 145.664C199.109 145.559 196.824 145.847 196.36 145.216C196.18 144.971 196.025 139.401 197.409 139.682C200.168 140.436 203.395 140.773 206.253 140.879Z" fill="#D8E2EC"/>
<path d="M225.439 139.982C224.879 140.114 223.546 140.588 223.04 140.581C222.601 140.574 221.779 140.818 221.841 140.132L225.439 139.982Z" fill="#E9EFF4"/>
<path d="M221.541 145.068C221.427 145.089 221.125 146.537 219.742 145.217C220.105 144.377 220.262 141.593 220.042 140.88L221.541 140.73V145.068Z" fill="#D8E2EC"/>
<path d="M209.849 140.879C209.568 142.833 210.907 146.102 208.051 145.515V140.879C208.669 140.903 209.265 140.868 209.849 140.879Z" fill="#D8E2EC"/>
<path d="M216.146 140.879C215.746 142.399 217.225 143.708 216.745 145.216C216.507 145.964 214.777 145.467 214.647 145.216C214.388 144.716 214.587 141.575 215.247 140.879C215.544 140.879 215.848 140.88 216.146 140.879Z" fill="#D8E2EC"/>
<path d="M194.561 146.862C194.566 147.732 194.26 147.713 194.262 147.76C193.087 146.604 193.874 144.263 192.463 144.47C192.569 143.13 193.812 142.448 194.561 141.479C194.712 143.265 194.551 145.04 194.561 146.862Z" fill="#D5E7F1"/>
<path d="M60.5563 141.777C58.8958 143.618 57.3327 144.952 56.0595 147.161C55.906 147.28 55.1859 147.982 55.1602 147.46C55.5046 146.736 55.9417 144.156 56.6591 143.422C57.3732 142.692 59.8413 142.171 60.5563 141.777Z" fill="#D4E0EA"/>
<path d="M44.9672 142.076C45.8444 143.045 45.8735 144.21 46.1664 145.366L36.2734 146.563C36.453 145.433 37.1116 145.729 37.1728 145.516C37.21 145.386 35.9701 145.218 37.4726 143.273C39.0183 141.272 40.3376 142.963 43.0186 142.674C43.1199 142.664 44.8206 142.131 44.9672 142.076Z" fill="#418DC9"/>
<path d="M194.261 147.758C194.309 149.007 194.595 150.698 194.861 151.946L193.962 154.937C193.984 151.833 192.268 146.921 192.463 144.468C193.874 144.261 193.087 146.602 194.261 147.758Z" fill="#D8E2EC"/>
<path d="M46.1664 145.365C47.0688 148.928 48.2466 155.653 46.766 158.975C46.5915 159.366 45.4493 159.647 45.2671 160.171C44.4801 162.434 43.9999 166.21 43.4683 168.696C43.1925 169.986 42.8448 171.292 42.569 172.584C42.5099 172.86 42.6041 173.195 42.569 173.481C42.4877 173.401 41.7826 173.636 41.6696 173.332C40.5232 170.246 42.1835 163.881 41.9694 160.47L41.0701 160.62C39.0816 164.758 37.6855 169.169 37.1728 173.78C37.1483 174.001 38.2874 174.257 37.0229 175.276C35.7878 175.055 34.6414 175.744 33.4255 175.575C33.174 175.54 33.3062 174.982 33.2756 174.977C34.9817 173.861 35.661 174.668 35.9737 172.584C36.3448 170.112 35.6277 166.841 35.9737 163.91C36.0801 163.009 37.2034 160.935 37.1728 160.769C37.0991 160.369 35.7549 160.062 35.6739 159.872C35.4125 159.259 36.0474 147.985 36.2735 146.562L46.1664 145.365Z" fill="#155E9F"/>
<path d="M89.3369 147.162C89.2721 147.066 88.7325 146.651 88.4375 146.264C89.324 145.138 90.6292 146.565 89.3369 147.162Z" fill="#D4E0EA"/>
<path d="M178.372 146.562C175.387 153.334 151.597 165.643 144.646 169.594C133.653 164.272 119.726 157.508 110.92 148.955C110.823 148.861 110.684 148.308 110.32 148.357C110.545 148.15 110.536 147.476 110.92 147.46C112.276 151.353 136.986 165.708 141.798 167.5C142.588 167.794 143.864 168.787 144.646 168.696C152.434 164.502 160.142 160.26 167.43 155.237L178.372 146.562Z" fill="#59A3D4"/>
<path d="M256.617 148.058C256.492 151.572 256.344 154.694 256.617 158.228C256.968 162.751 258.365 168.079 258.716 172.585C258.76 173.148 259.096 173.376 259.016 173.931C258.593 174.606 258.078 174.289 257.517 174.38C255.636 174.683 254.688 173.898 253.919 173.782L257.217 172.436L251.371 155.536C250.798 161.618 252.386 167.801 250.921 173.782C250.716 174.619 251.017 175.342 250.472 175.875C249.845 175.938 249.129 175.785 248.523 175.875C247.925 175.168 246.343 175.816 245.675 175.576C244.906 175.3 245.711 174.642 245.525 174.38L249.123 173.782C248.358 169.2 247.305 164.687 247.024 160.023C246.744 155.357 246.644 150.641 248.523 146.264C249.324 150.415 253.394 147.083 256.617 148.058ZM257.667 172.286C257.305 172.416 257.528 173.077 257.966 172.884C258.326 172.727 258.122 172.121 257.667 172.286Z" fill="#0D396C"/>
<path d="M75.2456 156.433C74.5423 158.628 73.7359 158.311 74.3463 160.321C70.5024 159.127 65.1938 157.51 66.252 152.395C66.8315 149.594 71.1703 148.787 71.3484 148.506C71.5412 148.202 70.9896 146.917 71.7981 146.562C74.2227 145.496 73.8615 147.791 74.4961 148.357C76.148 149.83 81.1907 147.809 77.1942 153.142C75.8943 151.681 71.0696 150.301 70.449 152.694C69.7787 155.279 73.7566 155.593 75.2456 156.433Z" fill="#D4E0EA"/>
<path d="M200.857 147.759C200.446 149.552 199.847 153.182 202.506 152.544L202.656 147.759C203.18 147.792 203.483 148.026 204.155 148.058C203.923 154.391 206.925 154.971 206.253 148.058C206.849 148.077 207.456 148.046 208.052 148.058L207.752 152.694C211.148 153.267 209.489 150.376 209.851 148.058C210.447 148.066 211.053 148.06 211.649 148.058C211.375 149.742 210.498 152.749 212.699 152.843C212.705 151.219 213.53 149.432 212.549 148.058C213.543 148.05 214.553 148.089 215.547 148.058C216.953 149.295 216.847 153.679 214.347 152.694C215.385 154.193 214.829 155.953 214.647 157.629C213.108 157.661 196.892 157.704 196.96 156.283C200.609 154.909 198.385 152.889 195.611 152.544C195.821 153.971 195.169 153.657 195.161 153.741C195.398 153.041 194.959 152.404 194.861 151.946C194.595 150.699 194.309 149.007 194.262 147.759C194.26 147.711 194.566 147.731 194.562 146.861L200.857 147.759Z" fill="#D8E2EC"/>
<path d="M226.639 146.862C226.644 146.895 226.893 146.709 226.939 147.46C227.005 148.563 227.003 149.945 226.939 151.05C226.868 152.273 226.455 153.696 226.339 154.938C226.287 155.503 226.046 155.958 226.039 156.134L222.442 157.331C219.837 157.432 217.256 157.576 214.647 157.63C214.829 155.954 215.385 154.194 214.348 152.695C216.847 153.68 216.953 149.296 215.547 148.059C216.242 148.037 216.951 148.089 217.645 148.059C218.154 148.774 217.09 152.79 218.095 152.844C218.211 152.851 219.59 151.782 219.744 151.199C219.994 150.253 219.901 148.508 218.844 148.059C219.424 148.027 220.205 147.826 220.943 147.759C220.526 154.122 224.552 152.692 222.142 147.759C223.384 147.618 224.924 147.433 226.039 146.862C226.189 146.907 226.447 146.84 226.639 146.862Z" fill="#D8E2EC"/>
<path d="M202.656 147.758L202.506 152.544C199.847 153.182 200.446 149.552 200.857 147.758C201.451 147.784 202.063 147.721 202.656 147.758Z" fill="#D8E2EC"/>
<path d="M222.142 147.759C224.551 152.692 220.526 154.122 220.943 147.759C221.334 147.724 221.753 147.804 222.142 147.759Z" fill="#D8E2EC"/>
<path d="M206.252 148.058C206.924 154.971 203.921 154.392 204.153 148.058C204.847 148.091 205.557 148.035 206.252 148.058Z" fill="#D8E2EC"/>
<path d="M209.85 148.059C209.489 150.377 211.148 153.268 207.752 152.695L208.052 148.059C208.648 148.07 209.254 148.051 209.85 148.059Z" fill="#D8E2EC"/>
<path d="M212.548 148.059C213.53 149.433 212.705 151.22 212.698 152.844C210.497 152.75 211.374 149.743 211.649 148.059C211.946 148.058 212.25 148.061 212.548 148.059Z" fill="#D8E2EC"/>
<path d="M218.843 148.057C219.9 148.507 219.992 150.252 219.742 151.198C219.589 151.78 218.21 152.849 218.094 152.843C217.089 152.788 218.152 148.773 217.644 148.057C218.04 148.04 218.448 148.079 218.843 148.057Z" fill="#D8E2EC"/>
<path d="M110.92 148.955C110.088 149.503 110.396 149.657 110.32 150.45C110.128 152.448 110.246 154.306 110.32 156.283L108.372 154.04C108.089 154.095 106.287 157.974 106.123 158.526C104.987 158.653 105.443 157.094 105.524 156.582C105.869 154.4 107.51 151.474 106.423 149.553C107.396 149.352 109.642 148.983 110.32 148.357C110.684 148.308 110.823 148.861 110.92 148.955Z" fill="#114775"/>
<path d="M233.232 149.852L229.935 152.843C229.276 150.491 230.835 149.234 233.232 149.852Z" fill="#D8E2EC"/>
<path d="M235.032 151.05C231.981 151.714 233.282 155.183 230.835 154.041C230.449 153.715 230.079 153.358 229.936 152.845L233.233 149.854C233.779 149.994 234.866 150.506 235.032 151.05Z" fill="#D8E2EC"/>
<path d="M111.22 160.92C111.204 164.062 110.956 167.317 110.92 170.491C110.911 171.282 110.961 172.095 110.92 172.884C110.887 173.534 110.824 174.067 110.621 174.679C110.527 174.655 110.416 174.701 110.321 174.679C109.675 174.528 108.64 174.785 107.923 174.679C107.74 174.316 107.428 173.834 107.323 173.482C106.743 171.535 105.366 162.176 105.524 160.322C105.607 159.353 105.92 159.213 106.124 158.527C106.288 157.975 108.09 154.095 108.372 154.04L110.321 156.284C110.247 154.307 110.129 152.449 110.321 150.451C111.432 153.583 111.238 157.619 111.22 160.92Z" fill="#2069A2"/>
<path d="M226.338 154.937C226.453 153.695 226.866 152.272 226.937 151.049C227.972 151.874 227.676 154.517 226.338 154.937Z" fill="#D8E2EC"/>
<path d="M230.836 154.04C233.283 155.182 231.982 151.713 235.033 151.049C235.634 153.025 233.357 155.652 231.286 154.937C230.777 154.762 230.874 154.072 230.836 154.04Z" fill="#D8E2EC"/>
<path d="M214.647 157.63C217.256 157.575 219.836 157.431 222.442 157.331C222.932 158.787 224.414 157.404 225.739 157.929C225.889 158.74 223.825 158.731 223.041 158.826L210.45 159.424C210.252 159.42 210.049 159.429 209.851 159.424C208.889 159.399 208.091 159.166 207.153 159.125C204.437 158.271 200.621 157.753 197.859 158.228C197.124 158.167 196.542 157.678 196.06 158.378C196.636 159.554 196.308 161.128 196.36 162.415H194.861C194.738 161.605 194.095 158.638 194.262 158.078C194.413 157.571 196.337 156.709 196.36 156.583C196.388 156.431 195.038 155.122 195.161 153.741C195.169 153.658 195.821 153.971 195.611 152.545C198.385 152.89 200.609 154.91 196.96 156.284C196.892 157.705 213.108 157.662 214.647 157.63Z" fill="#D8E2EC"/>
<path d="M179.871 156.732C179.564 157.346 179.09 157.496 178.671 157.929C173.953 162.806 167.362 166.531 161.883 170.491C160.514 170.783 158.075 172.707 156.787 173.482C151.041 176.142 147.566 179.208 140.898 177.67C145.7 177.892 150.073 175.371 154.239 173.183C163.248 168.453 172.024 161.591 179.421 154.639C180.592 155.735 180.247 155.979 179.871 156.732Z" fill="#0B477F"/>
<path d="M253.918 173.781C253.014 173.643 251.864 173.879 250.92 173.781C252.384 167.8 250.797 161.617 251.37 155.535L257.215 172.435L253.918 173.781Z" fill="#E9EFF4"/>
<path d="M187.966 161.517L184.369 161.368C183.969 160.594 186.207 157.04 184.968 156.134C187.38 153.718 187.979 160.473 187.966 161.517Z" fill="#D0E0EB"/>
<path d="M226.339 157.929V158.528C226.233 158.374 225.926 158.004 225.739 157.929C224.414 157.404 222.932 158.788 222.441 157.331L226.039 156.135C226.036 156.226 226.339 157.252 226.339 157.929Z" fill="#D8E2EC"/>
<path d="M71.0494 168.996C71.556 164.945 63.1146 167.77 67.7517 162.117C69.4617 163.151 74.8282 165.668 75.2464 162.266C75.3609 161.335 74.5212 160.896 74.347 160.322C73.7367 158.312 74.5431 158.629 75.2464 156.434C78.339 158.177 80.8842 159.068 79.4434 163.463C78.3932 166.666 74.3656 166.7 73.8973 167.201C73.275 167.868 74.7652 170.298 71.0494 168.996Z" fill="#D4E0EA"/>
<path d="M226.638 159.424C226.55 159.088 226.586 158.888 226.338 158.526V157.928L228.436 156.582C228.59 157.778 228.221 159.545 226.638 159.424Z" fill="#D8E2EC"/>
<path d="M180.47 157.63C180.637 160.739 177.553 161.535 175.074 161.668L178.672 157.929C179.09 157.496 179.564 157.346 179.871 156.732C180.488 156.837 180.361 157.285 180.47 157.63Z" fill="#D7E3EC"/>
<path d="M231.434 163.313L233.833 162.565L232.034 162.266C232.851 160.842 236.036 159.905 233.233 158.826C231.932 158.326 230.816 158.581 229.936 159.724C230.036 158.731 229.646 157.99 230.985 157.331C236.268 154.73 236.156 166.181 231.434 163.313Z" fill="#D8E2EC"/>
<path d="M197.859 158.227C200.988 158.486 203.968 158.987 207.153 159.124C208.091 159.165 208.889 159.398 209.851 159.423C210.132 160.768 209.2 163.858 210.45 164.209C210.419 164.209 210.544 164.809 210.3 164.807C207.433 164.782 201.973 163.817 199.658 164.209C198.545 161.138 198.737 164.181 198.609 164.209C198.512 164.23 197.371 163.85 196.66 163.91C196.264 163.386 196.384 162.998 196.36 162.414C196.308 161.126 196.636 159.553 196.061 158.376C196.542 157.677 197.124 158.166 197.859 158.227Z" fill="#D8E2EC"/>
<path d="M207.153 159.125C203.968 158.988 200.988 158.487 197.859 158.228C200.621 157.753 204.437 158.27 207.153 159.125Z" fill="#D8E2EC"/>
<path d="M226.337 158.526C226.586 158.888 226.55 159.088 226.637 159.423C227.108 161.23 226.336 162.083 226.337 163.013C223.814 164.344 221.362 164.273 218.543 164.508C219.618 163.026 219.693 161.024 219.742 159.124C220.82 159.043 221.965 158.956 223.04 158.825C223.823 158.73 225.888 158.739 225.738 157.928C225.925 158.002 226.232 158.373 226.337 158.526Z" fill="#D8E2EC"/>
<path d="M223.04 158.826C221.965 158.957 220.82 159.044 219.743 159.125C217.475 159.296 215.124 159.415 212.848 159.424C212.45 159.426 212.046 159.427 211.648 159.424C211.251 159.421 210.846 159.433 210.449 159.424L223.04 158.826Z" fill="#D8E2EC"/>
<path d="M233.234 158.826C231.725 160.065 231.134 160.575 230.536 162.415C230.506 162.365 229.737 161.943 229.636 161.668C229.374 160.945 229.891 160.171 229.936 159.723C230.817 158.581 231.933 158.326 233.234 158.826Z" fill="#D8E2EC"/>
<path d="M231.435 163.313C231.083 163.1 230.763 162.791 230.535 162.415C231.133 160.575 231.724 160.065 233.233 158.826C236.037 159.905 232.851 160.842 232.034 162.266L233.833 162.565L231.435 163.313Z" fill="#D8E2EC"/>
<path d="M219.743 159.125C219.693 161.025 219.618 163.027 218.544 164.509C216.964 164.641 215.18 164.757 213.597 164.808C213.508 164.811 213.25 164.802 212.998 164.808C211.764 164.835 210.592 164.211 210.449 164.21C209.2 163.859 210.131 160.769 209.85 159.424C210.048 159.429 210.251 159.42 210.449 159.424C210.846 159.432 211.251 159.421 211.649 159.424C211.287 160.904 210.59 164.394 212.698 164.21L212.848 159.424C215.124 159.415 217.476 159.295 219.743 159.125Z" fill="#D8E2EC"/>
<path d="M212.847 159.424L212.697 164.21C210.59 164.394 211.287 160.904 211.648 159.424C212.045 159.427 212.45 159.425 212.847 159.424Z" fill="#D8E2EC"/>
<path d="M42.5702 173.482C42.8988 173.808 43.8323 175.441 44.3689 173.781C45.6421 174.246 46.6701 174.265 47.9663 174.977C47.6561 176.442 42.2075 174.944 41.2212 174.678C40.7193 174.543 40.8197 173.795 40.7715 173.781L41.0713 160.62L41.9706 160.471C42.1847 163.881 40.5245 170.246 41.6708 173.332C41.7839 173.637 42.489 173.401 42.5702 173.482Z" fill="#1F3457"/>
<path d="M40.7713 173.782C39.6528 173.461 38.3373 173.945 37.1738 173.782C37.6865 169.17 39.0826 164.76 41.071 160.621L40.7713 173.782Z" fill="#FBFCFD"/>
<path d="M183.469 164.21C183.603 166.104 182.631 169.077 182.27 171.09C182.192 171.525 181.484 172.791 181.371 173.483C181.293 173.958 181.094 174.461 181.071 174.679C179.698 174.985 179.928 171.635 179.872 170.492C179.673 166.447 180.449 164.14 180.771 160.621C183.016 162.199 183.236 160.909 183.469 164.21Z" fill="#5E91C3"/>
<path d="M67.7518 162.116C63.1147 167.77 71.556 164.944 71.0494 168.995C69.7456 168.538 70.9076 168.27 70.2999 167.5C70.1078 167.257 65.4962 166.482 64.7539 164.957C65.2686 164.201 66.5487 160.991 67.3021 161.219C67.7775 161.39 67.7089 162.09 67.7518 162.116Z" fill="#D4E0EA"/>
<path d="M199.657 164.209C199.476 164.239 198.613 164.672 198.158 164.658C197.742 165.569 212.949 165.717 213.897 165.704C214.115 165.701 214.338 165.708 214.496 165.704C217.747 165.622 220.607 165.095 223.79 164.807C224.29 164.762 225.291 164.557 225.139 165.405C223.437 165.52 221.77 165.875 220.042 166.004C218.323 166.131 216.68 166.256 214.946 166.303C214.45 166.316 213.944 166.295 213.447 166.303C212.85 166.312 212.245 166.3 211.648 166.303C211.151 166.305 210.646 166.307 210.149 166.303C209.454 166.296 208.746 166.323 208.051 166.303C207.654 166.291 207.248 166.319 206.852 166.303C206.512 166.288 205.73 166.047 205.053 166.004C204.56 165.972 204.046 166.044 203.554 166.004C202.965 165.955 202.341 166.064 201.755 166.004C201.191 165.946 200.58 165.786 199.957 165.704C199.401 165.632 198.982 165.492 198.458 165.405C197.915 165.316 197.482 165.22 196.959 165.106C196.332 164.97 194.918 165.213 193.961 164.359C194.501 164.03 195.967 163.968 196.659 163.91C197.37 163.85 198.511 164.23 198.608 164.209C198.736 164.181 198.544 161.138 199.657 164.209Z" fill="#D8E2EC"/>
<path d="M226.339 163.014C226.341 164.117 226.699 164.95 226.638 166.005C225.999 164.435 225.87 165.357 225.139 165.407C225.292 164.558 224.291 164.763 223.79 164.808C220.607 165.096 217.748 165.623 214.497 165.706C214.339 165.71 214.115 165.703 213.898 165.706C212.95 165.718 197.743 165.57 198.159 164.659C198.614 164.673 199.477 164.241 199.658 164.21C201.972 163.819 207.432 164.783 210.3 164.808C210.543 164.81 210.419 164.21 210.45 164.21C210.592 164.211 211.764 164.836 212.998 164.808C213.251 164.803 213.508 164.811 213.598 164.808C215.181 164.758 216.964 164.641 218.544 164.509C221.364 164.274 223.815 164.346 226.339 163.014Z" fill="#D8E2EC"/>
<path d="M191.263 166.303C191.437 167.181 191.337 169.012 190.963 169.892C190.793 166.991 190.749 165.716 187.365 166.602C187.334 165.568 187.67 164.879 187.665 163.91C189.55 164.434 190.837 164.161 191.263 166.303Z" fill="#548EC3"/>
<path d="M190.963 169.892C191.068 171.702 190.357 171.72 190.363 171.836C190.375 172.066 190.951 171.905 190.963 172.135C191.041 173.663 190.568 175.915 193.961 174.677C194.196 175.688 195.765 175.73 195.01 177.07H188.714C188.011 176.664 189.388 175.461 189.464 175.276L191.862 175.724C191.501 174.834 190.088 174.721 189.764 174.378C189.578 174.182 188.897 173.535 188.864 173.481C188.707 173.221 188.41 171.283 188.265 170.789C187.871 169.451 187.408 168.008 187.365 166.602C190.749 165.715 190.793 166.99 190.963 169.892Z" fill="#2769AB"/>
<path d="M257.667 172.286C258.122 172.121 258.326 172.726 257.967 172.884C257.528 173.076 257.306 172.416 257.667 172.286Z" fill="#5C86B2"/>
<path d="M43.1684 173.182C43.5533 173.448 43.9412 173.625 44.3675 173.78C43.8309 175.441 42.8974 173.807 42.5688 173.481C42.6039 173.195 42.5098 172.86 42.5688 172.584C42.951 172.621 42.7499 172.894 43.1684 173.182Z" fill="#E4AD89"/>
<path d="M189.464 175.276C189.566 175.029 189.229 174.403 189.764 174.379C190.088 174.722 191.502 174.834 191.862 175.725L189.464 175.276Z" fill="#636363"/>
<path d="M110.322 174.68C110.079 175.729 108.753 175.046 108.224 175.278C108.181 175.055 108.027 174.884 107.924 174.68C108.641 174.785 109.676 174.529 110.322 174.68Z" fill="#DEBC95"/>
<path d="M108.223 175.277C108.752 175.045 110.078 175.729 110.321 174.679C110.416 174.701 110.528 174.655 110.621 174.679C110.688 174.696 110.672 175.304 111.67 175.576C112.584 175.825 115.411 175.488 115.268 176.773H107.773C107.058 176.516 107.619 175.542 108.223 175.277Z" fill="#22517A"/>
<path d="M103.426 176.474C103.495 176.432 103.994 175.088 104.025 174.979C105.829 175.52 104.431 176.046 103.426 176.474Z" fill="#8FA9C9"/>
<path d="M181.634 173.051C181.637 174.03 182.278 175.684 181.783 177.371H179.09C178.67 175.624 179.484 173.52 179.838 173.051C180.221 172.542 181.136 173.399 181.634 173.051Z" fill="#67A2D4"/>
<path d="M99.3781 176.175L101.627 166.604L99.3781 167.8L94.4316 176.624L99.3781 176.175Z" fill="#1D5F96"/>
</g>
<defs>
<linearGradient id="paint0_linear_1177_19609" x1="131.74" y1="41.6988" x2="154.646" y2="138.951" gradientUnits="userSpaceOnUse">
<stop stop-color="#2A89C5"/>
<stop offset="1" stop-color="#135B98"/>
</linearGradient>
<linearGradient id="paint1_linear_1177_19609" x1="135.39" y1="50.604" x2="149.003" y2="114.073" gradientUnits="userSpaceOnUse">
<stop stop-color="#5CB5E2"/>
<stop offset="1" stop-color="#2E88C5"/>
</linearGradient>
<clipPath id="clip0_1177_19609">
<rect width="280" height="201" fill="white"/>
</clipPath>
</defs>
</svg>
