<svg width="28" height="28" viewBox="0 0 28 28" fill="none" xmlns="http://www.w3.org/2000/svg">
<path fill-rule="evenodd" clip-rule="evenodd" d="M3.60024 12.3089C3.33815 13.4566 3.80898 14.5693 4.6665 15.2131V24.4993H6.99986V16.9161H11.6665V24.4993H23.3332V15.2112C24.1891 14.5672 24.6587 13.4554 24.3969 12.3089L23.7475 9.46533C23.6555 9.06283 23.2976 8.77734 22.8847 8.77734H18.0832V5.86068C18.0832 4.57201 17.0385 3.52734 15.7499 3.52734H12.2499C10.9612 3.52734 9.91653 4.57201 9.91653 5.86068V8.77734H5.11246C4.69959 8.77734 4.34158 9.06283 4.24965 9.46533L3.60024 12.3089ZM4.73762 12.5687L5.33704 9.94401H8.03598V12.9405C8.03598 13.8629 7.28826 14.6107 6.36584 14.6107C5.29337 14.6107 4.49884 13.6142 4.73762 12.5687ZM9.30356 9.94401H9.99003C10.2491 10.9504 11.1626 11.694 12.2499 11.694H13.3648V12.5801C13.3648 13.7016 12.4557 14.6107 11.3342 14.6107C10.2127 14.6107 9.30356 13.7016 9.30356 12.5801V9.94401ZM14.5832 5.56901C14.5832 5.24684 14.322 4.98568 13.9999 4.98568C13.6777 4.98568 13.4165 5.24684 13.4165 5.56901V7.02734H11.9582C11.636 7.02734 11.3749 7.2885 11.3749 7.61068C11.3749 7.93285 11.636 8.19401 11.9582 8.19401H13.4165V9.65234C13.4165 9.97452 13.6777 10.2357 13.9999 10.2357C14.322 10.2357 14.5832 9.97452 14.5832 9.65234V8.19401H16.0415C16.3637 8.19401 16.6249 7.93285 16.6249 7.61068C16.6249 7.2885 16.3637 7.02734 16.0415 7.02734H14.5832V5.56901ZM14.6324 12.5801V11.694H15.7499C16.8371 11.694 17.7506 10.9504 18.0097 9.94401H18.6935V12.5801C18.6935 13.7016 17.7844 14.6107 16.663 14.6107C15.5415 14.6107 14.6324 13.7016 14.6324 12.5801ZM19.9611 9.94401H22.6601L23.2595 12.5687C23.4983 13.6142 22.7038 14.6107 21.6313 14.6107C20.7089 14.6107 19.9611 13.8629 19.9611 12.9405V9.94401ZM13.9999 16.944H21.5832V22.7773H13.9999V16.944ZM20.4165 18.1106H15.1665V21.6106H20.4165V18.1106Z" fill="black"/>
</svg>
