<svg xmlns="http://www.w3.org/2000/svg" width="28" height="28" fill="none" viewBox="0 0 28 28"><path fill="#000" fill-rule="evenodd" d="M5.25 3.5C4.2835 3.5 3.5 4.2835 3.5 5.25V22.75C3.5 23.7165 4.2835 24.5 5.25 24.5H8.16667V22.75C8.16667 22.4278 8.42782 22.1667 8.75 22.1667H11.0833C11.4055 22.1667 11.6667 22.4278 11.6667 22.75V24.5H15.75V22.75C15.75 22.4278 16.0112 22.1667 16.3333 22.1667H18.6667C18.9888 22.1667 19.25 22.4278 19.25 22.75V24.5H22.75C23.7165 24.5 24.5 23.7165 24.5 22.75V5.25C24.5 4.2835 23.7165 3.5 22.75 3.5H5.25ZM19.8274 20.2037C20.1468 19.8801 20.4693 19.5532 20.7668 19.0664C20.8415 18.944 20.9174 18.8264 20.991 18.7125C21.2565 18.3007 21.492 17.9358 21.5358 17.5626C21.5918 17.0861 21.6267 14.228 21.4724 13.7955C21.3182 13.3629 20.4284 13.1206 20.121 14.0887C19.9694 14.5664 19.9215 15.1808 19.878 15.738C19.8334 16.3101 19.7935 16.822 19.6509 17.0637C19.3692 17.541 18.462 18.7277 18.462 18.7277L19.2445 17.2423C19.2445 17.2423 19.3639 17.0366 19.3012 16.6463C19.2384 16.256 18.7663 15.7099 18.5445 16.1436C18.3227 16.5774 17.9349 16.9685 17.9349 16.9685L16.5654 18.6185C16.5654 18.6185 16.1192 19.1974 16.107 19.515C16.1029 19.6211 16.0365 19.8565 15.9613 20.1231C15.8763 20.4241 15.7803 20.7649 15.75 21.004V21.5833H19.1179V21.004C19.3442 20.6933 19.5849 20.4494 19.8274 20.2037ZM8.27009 21.004C8.043 20.6933 7.80156 20.4494 7.55819 20.2037C7.23777 19.8801 6.91413 19.5532 6.6157 19.0664C6.54068 18.944 6.46456 18.8264 6.39077 18.7124C6.1243 18.3007 5.88805 17.9358 5.84413 17.5626C5.78794 17.0861 5.96219 14.228 6.11701 13.7955C6.27177 13.3629 7.1645 13.1206 7.47291 14.0887C7.6251 14.5664 7.67317 15.1808 7.71674 15.738C7.76148 16.3101 7.80156 16.822 7.94465 17.0637C8.22727 17.541 9.13751 18.7277 9.13751 18.7277L8.35234 17.2423C8.35234 17.2423 8.23258 17.0366 8.29552 16.6463C8.35852 16.256 8.83219 15.7099 9.05473 16.1436C9.27733 16.5774 9.6663 16.9685 9.6663 16.9685L11.0404 18.6185C11.0404 18.6185 11.4881 19.1974 11.5004 19.515C11.5091 19.7408 11.6094 20.5531 11.6667 21.004V21.5833H8.27009V21.004ZM11.539 6.41667C9.92717 6.41667 8.75 8.15873 8.75 10.0374C8.75 14.2313 14 16.9167 14 16.9167C14 16.9167 19.25 14.0583 19.25 10.0374C19.25 8.15902 18.073 6.41667 16.461 6.41667C15.3423 6.41667 14.5123 7.19833 14 8.30702C13.4877 7.19827 12.6576 6.41667 11.539 6.41667Z" clip-rule="evenodd"/></svg>