<svg width="28" height="28" viewBox="0 0 28 28" fill="none" xmlns="http://www.w3.org/2000/svg">
<path fill-rule="evenodd" clip-rule="evenodd" d="M24.3298 13.8806L14.0338 3.55078L3.67153 13.8793C3.44335 14.1067 3.44275 14.476 3.67018 14.7042C3.89762 14.9324 4.26696 14.933 4.49514 14.7056L6.41667 12.7903V23.9173C6.41667 24.2395 6.67782 24.5007 7 24.5007H11.0833H16.9167H21C21.3222 24.5007 21.5833 24.2395 21.5833 23.9173V12.7777L23.5035 14.7042C23.7309 14.9324 24.1003 14.933 24.3284 14.7056C24.5566 14.4781 24.5572 14.1088 24.3298 13.8806ZM11.8125 11.6674C10.3797 11.6674 9.33333 13.2159 9.33333 14.8858C9.33333 15.3346 9.401 15.7639 9.51994 16.172C9.57816 16.3716 9.64862 16.5662 9.72948 16.7553C10.8565 19.3928 14 21.0007 14 21.0007C14 21.0007 18.6667 18.46 18.6667 14.8858C18.6667 13.2161 17.6205 11.6674 16.1875 11.6674C15.1931 11.6674 14.4554 12.3622 14 13.3477C13.5446 12.3621 12.8068 11.6674 11.8125 11.6674Z" fill="black"/>
</svg>
